%TF.GenerationSoftware,KiCad,Pcbnew,10.0.6-10.0.6~ubuntu26.04.1*%
%TF.CreationDate,2026-09-05T15:40:25+02:00*%
%TF.ProjectId,m47Board-H503,6d343742-6f61-4726-942d-483530332e6b,0.0.0*%
%TF.SameCoordinates,Original*%
%TF.FileFunction,Copper,L2,Inr*%
%TF.FilePolarity,Positive*%
%FSLAX46Y46*%
G04 Gerber Fmt 4.6, Leading zero omitted, Abs format (unit mm)*
G04 Created by KiCad (PCBNEW 10.0.6-10.0.6~ubuntu26.04.1) date 2026-09-05 15:40:25*
%MOMM*%
%LPD*%
G01*
G04 APERTURE LIST*
%TA.AperFunction,ComponentPad*%
%ADD10R,1.700000X1.700000*%
%TD*%
%TA.AperFunction,ComponentPad*%
%ADD11C,1.700000*%
%TD*%
%TA.AperFunction,ComponentPad*%
%ADD12O,2.100000X1.000000*%
%TD*%
%TA.AperFunction,ComponentPad*%
%ADD13O,1.800000X1.000000*%
%TD*%
%TA.AperFunction,ViaPad*%
%ADD14C,0.450000*%
%TD*%
G04 APERTURE END LIST*
D10*
%TO.N,+3.3V*%
%TO.C,J3*%
X157340000Y-87770000D03*
D11*
%TO.N,GND*%
X154800000Y-87770000D03*
%TO.N,/SWDIO*%
X152260000Y-87770000D03*
%TO.N,/SWCLK*%
X149720000Y-87770000D03*
%TO.N,/NRST*%
X147180000Y-87770000D03*
%TO.N,/PA15*%
X144640000Y-87770000D03*
%TO.N,/PB3*%
X142100000Y-87770000D03*
%TO.N,/PB4*%
X139560000Y-87770000D03*
%TO.N,/PB5*%
X137020000Y-87770000D03*
%TO.N,/PB6*%
X134480000Y-87770000D03*
%TO.N,/PB7*%
X131940000Y-87770000D03*
%TO.N,/PB8*%
X129400000Y-87770000D03*
%TO.N,/PC13*%
X126860000Y-87770000D03*
%TO.N,GND*%
X124320000Y-87770000D03*
%TO.N,+3.3V*%
X121780000Y-87770000D03*
%TD*%
D12*
%TO.N,GND*%
%TO.C,J1*%
X153220000Y-107180000D03*
D13*
X157400000Y-107180000D03*
D12*
X153220000Y-98540000D03*
D13*
X157400000Y-98540000D03*
%TD*%
D10*
%TO.N,+3.3V*%
%TO.C,J5*%
X121780000Y-118230000D03*
D11*
%TO.N,GND*%
X124320000Y-118230000D03*
%TO.N,/PB0*%
X126860000Y-118230000D03*
%TO.N,/PB1*%
X129400000Y-118230000D03*
%TO.N,/PB2*%
X131940000Y-118230000D03*
%TO.N,/PB10*%
X134480000Y-118230000D03*
%TO.N,/PB12*%
X137020000Y-118230000D03*
%TO.N,/PB13*%
X139560000Y-118230000D03*
%TO.N,/PB14*%
X142100000Y-118230000D03*
%TO.N,/PB15*%
X144640000Y-118230000D03*
%TO.N,/PA8*%
X147180000Y-118230000D03*
%TO.N,/PA9*%
X149720000Y-118230000D03*
%TO.N,/PA10*%
X152260000Y-118230000D03*
%TO.N,GND*%
X154800000Y-118230000D03*
%TO.N,VBUS*%
X157340000Y-118230000D03*
%TD*%
D10*
%TO.N,Net-(J4-Pin_1)*%
%TO.C,J4*%
X121770000Y-91570000D03*
D11*
%TO.N,Net-(J4-Pin_2)*%
X121770000Y-94110000D03*
%TO.N,/PA0*%
X121770000Y-96650000D03*
%TO.N,/PA1*%
X121770000Y-99190000D03*
%TO.N,/PA2*%
X121770000Y-101730000D03*
%TO.N,/PA3*%
X121770000Y-104270000D03*
%TO.N,/PA4*%
X121770000Y-106810000D03*
%TO.N,/PA5*%
X121770000Y-109350000D03*
%TO.N,/PA6*%
X121770000Y-111890000D03*
%TO.N,/PA7*%
X121770000Y-114430000D03*
%TD*%
D14*
%TO.N,GND*%
X150900000Y-94510000D03*
X156180000Y-107180000D03*
X128250000Y-91440000D03*
X151880000Y-99240000D03*
X144200000Y-111050000D03*
X147805000Y-98005000D03*
X146950000Y-111860000D03*
X130400000Y-103400000D03*
X158610000Y-96670000D03*
X147010000Y-100060000D03*
X152920000Y-112530000D03*
X156520000Y-111530000D03*
X154650000Y-107180000D03*
X134470000Y-91480000D03*
X135240000Y-104610000D03*
X139220000Y-97420000D03*
X152940000Y-111530000D03*
X134480000Y-114620000D03*
X131370000Y-98790000D03*
X152100000Y-92850000D03*
X150180000Y-107710000D03*
X128220000Y-114620000D03*
X133980000Y-98440000D03*
X147960000Y-105850000D03*
X127910000Y-97590000D03*
X158600000Y-94410000D03*
X138240000Y-112660000D03*
X154570000Y-98540000D03*
X150170000Y-98090000D03*
X131320000Y-103380000D03*
X156520000Y-112530000D03*
X155660000Y-94460000D03*
X145250000Y-108870000D03*
X156100000Y-98540000D03*
X149080000Y-102430000D03*
X134425000Y-107525000D03*
X155690000Y-96610000D03*
X128700000Y-107750000D03*
X142681250Y-110318750D03*
X140970000Y-115680000D03*
X150225000Y-112710000D03*
X151740000Y-106350000D03*
X150250000Y-110860000D03*
X133985000Y-99680000D03*
X131270000Y-107550000D03*
%TO.N,+3.3V*%
X137860000Y-90210000D03*
X147510000Y-91440000D03*
X153010000Y-114830000D03*
X143530000Y-115690000D03*
X135310000Y-100270000D03*
X144350000Y-100030000D03*
X146970000Y-107780000D03*
X133820000Y-106090000D03*
X141230000Y-91430000D03*
X144300000Y-109170000D03*
X136952500Y-98520000D03*
X153020000Y-113830000D03*
X137550000Y-109300000D03*
%TO.N,/SWDIO*%
X146340000Y-101790000D03*
%TO.N,/SWCLK*%
X143280000Y-98560000D03*
%TO.N,/PA15*%
X142780000Y-101320000D03*
%TO.N,/PB3*%
X142270000Y-100820000D03*
%TO.N,/PB4*%
X141780000Y-101300000D03*
%TO.N,/PB5*%
X141280000Y-100850000D03*
%TO.N,/PB6*%
X140780000Y-101280000D03*
%TO.N,/PB7*%
X140270000Y-100840000D03*
%TO.N,/PB8*%
X139270000Y-100820000D03*
%TO.N,VBUS*%
X151720000Y-105390000D03*
X151700000Y-96650000D03*
X151675000Y-94400000D03*
X152960000Y-110230000D03*
X152990000Y-109230000D03*
X158787500Y-92462500D03*
X154490000Y-94440000D03*
X151780000Y-100180000D03*
X154520000Y-96620000D03*
X149284619Y-103144619D03*
%TO.N,/PB0*%
X140277500Y-106372500D03*
%TO.N,/PB1*%
X140780000Y-106870000D03*
%TO.N,/PB2*%
X141277500Y-106372500D03*
%TO.N,/PB10*%
X141777500Y-106862500D03*
%TO.N,/PB12*%
X143560000Y-106600000D03*
%TO.N,/PB13*%
X143050000Y-106110000D03*
%TO.N,/PB14*%
X143570000Y-105610000D03*
%TO.N,/PB15*%
X143060000Y-105110000D03*
%TO.N,/PA8*%
X143570000Y-104620000D03*
%TO.N,/PA9*%
X143080000Y-104110000D03*
%TO.N,/PA10*%
X143570000Y-103610000D03*
%TO.N,/PA5*%
X138780000Y-106900000D03*
%TO.N,/PA0*%
X137950000Y-105610000D03*
%TO.N,/PA1*%
X137480000Y-106110000D03*
%TO.N,/PA2*%
X135260000Y-106610000D03*
%TO.N,/PA3*%
X137775236Y-106900236D03*
%TO.N,/PA4*%
X138280000Y-106370000D03*
%TO.N,/PA6*%
X139277500Y-106360000D03*
%TO.N,/PA7*%
X139777500Y-106902500D03*
%TD*%
%TA.AperFunction,Conductor*%
%TO.N,GND*%
G36*
X123854075Y-118422993D02*
G01*
X123919901Y-118537007D01*
X124012993Y-118630099D01*
X124127007Y-118695925D01*
X124190590Y-118712962D01*
X123558282Y-119345269D01*
X123559896Y-119365770D01*
X123545532Y-119434148D01*
X123496481Y-119483905D01*
X123436278Y-119499500D01*
X122771838Y-119499500D01*
X122704799Y-119479815D01*
X122659044Y-119427011D01*
X122649100Y-119357853D01*
X122678125Y-119294297D01*
X122702947Y-119272398D01*
X122774552Y-119224552D01*
X122817056Y-119160941D01*
X122818867Y-119158231D01*
X122818867Y-119158229D01*
X122818868Y-119158229D01*
X122830499Y-119099752D01*
X122830500Y-119099750D01*
X122830500Y-118796048D01*
X122850185Y-118729009D01*
X122902989Y-118683254D01*
X122972147Y-118673310D01*
X123035703Y-118702335D01*
X123065938Y-118744264D01*
X123066694Y-118743879D01*
X123165375Y-118937550D01*
X123204728Y-118991716D01*
X123837037Y-118359408D01*
X123854075Y-118422993D01*
G37*
%TD.AperFunction*%
%TA.AperFunction,Conductor*%
G36*
X125435270Y-118991717D02*
G01*
X125435270Y-118991716D01*
X125474622Y-118937554D01*
X125571095Y-118748217D01*
X125628343Y-118572026D01*
X125667780Y-118514351D01*
X125732139Y-118487152D01*
X125800985Y-118499066D01*
X125852461Y-118546310D01*
X125860835Y-118562891D01*
X125915939Y-118695925D01*
X125929059Y-118727598D01*
X125942836Y-118748217D01*
X126044024Y-118899657D01*
X126190342Y-119045975D01*
X126190345Y-119045977D01*
X126362402Y-119160941D01*
X126553580Y-119240130D01*
X126584460Y-119246272D01*
X126622719Y-119253883D01*
X126684630Y-119286268D01*
X126719204Y-119346983D01*
X126715465Y-119416753D01*
X126674599Y-119473425D01*
X126609580Y-119499006D01*
X126598528Y-119499500D01*
X125203722Y-119499500D01*
X125136683Y-119479815D01*
X125090928Y-119427011D01*
X125080104Y-119365772D01*
X125081717Y-119345270D01*
X124449408Y-118712962D01*
X124512993Y-118695925D01*
X124627007Y-118630099D01*
X124720099Y-118537007D01*
X124785925Y-118422993D01*
X124802962Y-118359409D01*
X125435270Y-118991717D01*
G37*
%TD.AperFunction*%
%TA.AperFunction,Conductor*%
G36*
X129205567Y-86520185D02*
G01*
X129251322Y-86572989D01*
X129261266Y-86642147D01*
X129232241Y-86705703D01*
X129173463Y-86743477D01*
X129162719Y-86746117D01*
X129093587Y-86759868D01*
X129093579Y-86759870D01*
X128902403Y-86839058D01*
X128730342Y-86954024D01*
X128584024Y-87100342D01*
X128469058Y-87272403D01*
X128389870Y-87463579D01*
X128389868Y-87463587D01*
X128349500Y-87666530D01*
X128349500Y-87873469D01*
X128389868Y-88076412D01*
X128389870Y-88076420D01*
X128455939Y-88235925D01*
X128469059Y-88267598D01*
X128482836Y-88288217D01*
X128584024Y-88439657D01*
X128730342Y-88585975D01*
X128730345Y-88585977D01*
X128902402Y-88700941D01*
X129093580Y-88780130D01*
X129238052Y-88808867D01*
X129296530Y-88820499D01*
X129296534Y-88820500D01*
X129296535Y-88820500D01*
X129503466Y-88820500D01*
X129503467Y-88820499D01*
X129706420Y-88780130D01*
X129897598Y-88700941D01*
X130069655Y-88585977D01*
X130215977Y-88439655D01*
X130330941Y-88267598D01*
X130410130Y-88076420D01*
X130450500Y-87873465D01*
X130450500Y-87666535D01*
X130410130Y-87463580D01*
X130330941Y-87272402D01*
X130215977Y-87100345D01*
X130215975Y-87100342D01*
X130069657Y-86954024D01*
X129901655Y-86841770D01*
X129897598Y-86839059D01*
X129706420Y-86759870D01*
X129706412Y-86759868D01*
X129637281Y-86746117D01*
X129575370Y-86713732D01*
X129540796Y-86653017D01*
X129544535Y-86583247D01*
X129585401Y-86526575D01*
X129650420Y-86500994D01*
X129661472Y-86500500D01*
X131678528Y-86500500D01*
X131745567Y-86520185D01*
X131791322Y-86572989D01*
X131801266Y-86642147D01*
X131772241Y-86705703D01*
X131713463Y-86743477D01*
X131702719Y-86746117D01*
X131633587Y-86759868D01*
X131633579Y-86759870D01*
X131442403Y-86839058D01*
X131270342Y-86954024D01*
X131124024Y-87100342D01*
X131009058Y-87272403D01*
X130929870Y-87463579D01*
X130929868Y-87463587D01*
X130889500Y-87666530D01*
X130889500Y-87873469D01*
X130929868Y-88076412D01*
X130929870Y-88076420D01*
X130995939Y-88235925D01*
X131009059Y-88267598D01*
X131022836Y-88288217D01*
X131124024Y-88439657D01*
X131270342Y-88585975D01*
X131270345Y-88585977D01*
X131442402Y-88700941D01*
X131633580Y-88780130D01*
X131778052Y-88808867D01*
X131836530Y-88820499D01*
X131836534Y-88820500D01*
X131836535Y-88820500D01*
X132043466Y-88820500D01*
X132043467Y-88820499D01*
X132246420Y-88780130D01*
X132437598Y-88700941D01*
X132609655Y-88585977D01*
X132755977Y-88439655D01*
X132870941Y-88267598D01*
X132950130Y-88076420D01*
X132990500Y-87873465D01*
X132990500Y-87666535D01*
X132950130Y-87463580D01*
X132870941Y-87272402D01*
X132755977Y-87100345D01*
X132755975Y-87100342D01*
X132609657Y-86954024D01*
X132441655Y-86841770D01*
X132437598Y-86839059D01*
X132246420Y-86759870D01*
X132246412Y-86759868D01*
X132177281Y-86746117D01*
X132115370Y-86713732D01*
X132080796Y-86653017D01*
X132084535Y-86583247D01*
X132125401Y-86526575D01*
X132190420Y-86500994D01*
X132201472Y-86500500D01*
X134218528Y-86500500D01*
X134285567Y-86520185D01*
X134331322Y-86572989D01*
X134341266Y-86642147D01*
X134312241Y-86705703D01*
X134253463Y-86743477D01*
X134242719Y-86746117D01*
X134173587Y-86759868D01*
X134173579Y-86759870D01*
X133982403Y-86839058D01*
X133810342Y-86954024D01*
X133664024Y-87100342D01*
X133549058Y-87272403D01*
X133469870Y-87463579D01*
X133469868Y-87463587D01*
X133429500Y-87666530D01*
X133429500Y-87873469D01*
X133469868Y-88076412D01*
X133469870Y-88076420D01*
X133535939Y-88235925D01*
X133549059Y-88267598D01*
X133562836Y-88288217D01*
X133664024Y-88439657D01*
X133810342Y-88585975D01*
X133810345Y-88585977D01*
X133982402Y-88700941D01*
X134173580Y-88780130D01*
X134318052Y-88808867D01*
X134376530Y-88820499D01*
X134376534Y-88820500D01*
X134376535Y-88820500D01*
X134583466Y-88820500D01*
X134583467Y-88820499D01*
X134786420Y-88780130D01*
X134977598Y-88700941D01*
X135149655Y-88585977D01*
X135295977Y-88439655D01*
X135410941Y-88267598D01*
X135490130Y-88076420D01*
X135530500Y-87873465D01*
X135530500Y-87666535D01*
X135490130Y-87463580D01*
X135410941Y-87272402D01*
X135295977Y-87100345D01*
X135295975Y-87100342D01*
X135149657Y-86954024D01*
X134981655Y-86841770D01*
X134977598Y-86839059D01*
X134786420Y-86759870D01*
X134786412Y-86759868D01*
X134717281Y-86746117D01*
X134655370Y-86713732D01*
X134620796Y-86653017D01*
X134624535Y-86583247D01*
X134665401Y-86526575D01*
X134730420Y-86500994D01*
X134741472Y-86500500D01*
X136758528Y-86500500D01*
X136825567Y-86520185D01*
X136871322Y-86572989D01*
X136881266Y-86642147D01*
X136852241Y-86705703D01*
X136793463Y-86743477D01*
X136782719Y-86746117D01*
X136713587Y-86759868D01*
X136713579Y-86759870D01*
X136522403Y-86839058D01*
X136350342Y-86954024D01*
X136204024Y-87100342D01*
X136089058Y-87272403D01*
X136009870Y-87463579D01*
X136009868Y-87463587D01*
X135969500Y-87666530D01*
X135969500Y-87873469D01*
X136009868Y-88076412D01*
X136009870Y-88076420D01*
X136075939Y-88235925D01*
X136089059Y-88267598D01*
X136102836Y-88288217D01*
X136204024Y-88439657D01*
X136350342Y-88585975D01*
X136350345Y-88585977D01*
X136522402Y-88700941D01*
X136713580Y-88780130D01*
X136858052Y-88808867D01*
X136916530Y-88820499D01*
X136916534Y-88820500D01*
X136916535Y-88820500D01*
X137123466Y-88820500D01*
X137123467Y-88820499D01*
X137326420Y-88780130D01*
X137517598Y-88700941D01*
X137689655Y-88585977D01*
X137835977Y-88439655D01*
X137950941Y-88267598D01*
X138030130Y-88076420D01*
X138070500Y-87873465D01*
X138070500Y-87666535D01*
X138030130Y-87463580D01*
X137950941Y-87272402D01*
X137835977Y-87100345D01*
X137835975Y-87100342D01*
X137689657Y-86954024D01*
X137521655Y-86841770D01*
X137517598Y-86839059D01*
X137326420Y-86759870D01*
X137326412Y-86759868D01*
X137257281Y-86746117D01*
X137195370Y-86713732D01*
X137160796Y-86653017D01*
X137164535Y-86583247D01*
X137205401Y-86526575D01*
X137270420Y-86500994D01*
X137281472Y-86500500D01*
X139298528Y-86500500D01*
X139365567Y-86520185D01*
X139411322Y-86572989D01*
X139421266Y-86642147D01*
X139392241Y-86705703D01*
X139333463Y-86743477D01*
X139322719Y-86746117D01*
X139253587Y-86759868D01*
X139253579Y-86759870D01*
X139062403Y-86839058D01*
X138890342Y-86954024D01*
X138744024Y-87100342D01*
X138629058Y-87272403D01*
X138549870Y-87463579D01*
X138549868Y-87463587D01*
X138509500Y-87666530D01*
X138509500Y-87873469D01*
X138549868Y-88076412D01*
X138549870Y-88076420D01*
X138615939Y-88235925D01*
X138629059Y-88267598D01*
X138642836Y-88288217D01*
X138744024Y-88439657D01*
X138890342Y-88585975D01*
X138890345Y-88585977D01*
X139062402Y-88700941D01*
X139253580Y-88780130D01*
X139398052Y-88808867D01*
X139456530Y-88820499D01*
X139456534Y-88820500D01*
X139456535Y-88820500D01*
X139663466Y-88820500D01*
X139663467Y-88820499D01*
X139866420Y-88780130D01*
X140057598Y-88700941D01*
X140229655Y-88585977D01*
X140375977Y-88439655D01*
X140490941Y-88267598D01*
X140570130Y-88076420D01*
X140610500Y-87873465D01*
X140610500Y-87666535D01*
X140570130Y-87463580D01*
X140490941Y-87272402D01*
X140375977Y-87100345D01*
X140375975Y-87100342D01*
X140229657Y-86954024D01*
X140061655Y-86841770D01*
X140057598Y-86839059D01*
X139866420Y-86759870D01*
X139866412Y-86759868D01*
X139797281Y-86746117D01*
X139735370Y-86713732D01*
X139700796Y-86653017D01*
X139704535Y-86583247D01*
X139745401Y-86526575D01*
X139810420Y-86500994D01*
X139821472Y-86500500D01*
X141838528Y-86500500D01*
X141905567Y-86520185D01*
X141951322Y-86572989D01*
X141961266Y-86642147D01*
X141932241Y-86705703D01*
X141873463Y-86743477D01*
X141862719Y-86746117D01*
X141793587Y-86759868D01*
X141793579Y-86759870D01*
X141602403Y-86839058D01*
X141430342Y-86954024D01*
X141284024Y-87100342D01*
X141169058Y-87272403D01*
X141089870Y-87463579D01*
X141089868Y-87463587D01*
X141049500Y-87666530D01*
X141049500Y-87873469D01*
X141089868Y-88076412D01*
X141089870Y-88076420D01*
X141155939Y-88235925D01*
X141169059Y-88267598D01*
X141182836Y-88288217D01*
X141284024Y-88439657D01*
X141430342Y-88585975D01*
X141430345Y-88585977D01*
X141602402Y-88700941D01*
X141793580Y-88780130D01*
X141938052Y-88808867D01*
X141996530Y-88820499D01*
X141996534Y-88820500D01*
X141996535Y-88820500D01*
X142203466Y-88820500D01*
X142203467Y-88820499D01*
X142406420Y-88780130D01*
X142597598Y-88700941D01*
X142769655Y-88585977D01*
X142915977Y-88439655D01*
X143030941Y-88267598D01*
X143110130Y-88076420D01*
X143150500Y-87873465D01*
X143150500Y-87666535D01*
X143110130Y-87463580D01*
X143030941Y-87272402D01*
X142915977Y-87100345D01*
X142915975Y-87100342D01*
X142769657Y-86954024D01*
X142601655Y-86841770D01*
X142597598Y-86839059D01*
X142406420Y-86759870D01*
X142406412Y-86759868D01*
X142337281Y-86746117D01*
X142275370Y-86713732D01*
X142240796Y-86653017D01*
X142244535Y-86583247D01*
X142285401Y-86526575D01*
X142350420Y-86500994D01*
X142361472Y-86500500D01*
X144378528Y-86500500D01*
X144445567Y-86520185D01*
X144491322Y-86572989D01*
X144501266Y-86642147D01*
X144472241Y-86705703D01*
X144413463Y-86743477D01*
X144402719Y-86746117D01*
X144333587Y-86759868D01*
X144333579Y-86759870D01*
X144142403Y-86839058D01*
X143970342Y-86954024D01*
X143824024Y-87100342D01*
X143709058Y-87272403D01*
X143629870Y-87463579D01*
X143629868Y-87463587D01*
X143589500Y-87666530D01*
X143589500Y-87873469D01*
X143629868Y-88076412D01*
X143629870Y-88076420D01*
X143695939Y-88235925D01*
X143709059Y-88267598D01*
X143722836Y-88288217D01*
X143824024Y-88439657D01*
X143970342Y-88585975D01*
X143970345Y-88585977D01*
X144142402Y-88700941D01*
X144333580Y-88780130D01*
X144478052Y-88808867D01*
X144536530Y-88820499D01*
X144536534Y-88820500D01*
X144536535Y-88820500D01*
X144743466Y-88820500D01*
X144743467Y-88820499D01*
X144946420Y-88780130D01*
X145137598Y-88700941D01*
X145309655Y-88585977D01*
X145455977Y-88439655D01*
X145570941Y-88267598D01*
X145650130Y-88076420D01*
X145690500Y-87873465D01*
X145690500Y-87666535D01*
X145650130Y-87463580D01*
X145570941Y-87272402D01*
X145455977Y-87100345D01*
X145455975Y-87100342D01*
X145309657Y-86954024D01*
X145141655Y-86841770D01*
X145137598Y-86839059D01*
X144946420Y-86759870D01*
X144946412Y-86759868D01*
X144877281Y-86746117D01*
X144815370Y-86713732D01*
X144780796Y-86653017D01*
X144784535Y-86583247D01*
X144825401Y-86526575D01*
X144890420Y-86500994D01*
X144901472Y-86500500D01*
X146918528Y-86500500D01*
X146985567Y-86520185D01*
X147031322Y-86572989D01*
X147041266Y-86642147D01*
X147012241Y-86705703D01*
X146953463Y-86743477D01*
X146942719Y-86746117D01*
X146873587Y-86759868D01*
X146873579Y-86759870D01*
X146682403Y-86839058D01*
X146510342Y-86954024D01*
X146364024Y-87100342D01*
X146249058Y-87272403D01*
X146169870Y-87463579D01*
X146169868Y-87463587D01*
X146129500Y-87666530D01*
X146129500Y-87873469D01*
X146169868Y-88076412D01*
X146169870Y-88076420D01*
X146235939Y-88235925D01*
X146249059Y-88267598D01*
X146262836Y-88288217D01*
X146364024Y-88439657D01*
X146510342Y-88585975D01*
X146510345Y-88585977D01*
X146682402Y-88700941D01*
X146873580Y-88780130D01*
X147018052Y-88808867D01*
X147076530Y-88820499D01*
X147076534Y-88820500D01*
X147076535Y-88820500D01*
X147283466Y-88820500D01*
X147283467Y-88820499D01*
X147486420Y-88780130D01*
X147677598Y-88700941D01*
X147849655Y-88585977D01*
X147995977Y-88439655D01*
X148110941Y-88267598D01*
X148190130Y-88076420D01*
X148230500Y-87873465D01*
X148230500Y-87666535D01*
X148190130Y-87463580D01*
X148110941Y-87272402D01*
X147995977Y-87100345D01*
X147995975Y-87100342D01*
X147849657Y-86954024D01*
X147681655Y-86841770D01*
X147677598Y-86839059D01*
X147486420Y-86759870D01*
X147486412Y-86759868D01*
X147417281Y-86746117D01*
X147355370Y-86713732D01*
X147320796Y-86653017D01*
X147324535Y-86583247D01*
X147365401Y-86526575D01*
X147430420Y-86500994D01*
X147441472Y-86500500D01*
X149458528Y-86500500D01*
X149525567Y-86520185D01*
X149571322Y-86572989D01*
X149581266Y-86642147D01*
X149552241Y-86705703D01*
X149493463Y-86743477D01*
X149482719Y-86746117D01*
X149413587Y-86759868D01*
X149413579Y-86759870D01*
X149222403Y-86839058D01*
X149050342Y-86954024D01*
X148904024Y-87100342D01*
X148789058Y-87272403D01*
X148709870Y-87463579D01*
X148709868Y-87463587D01*
X148669500Y-87666530D01*
X148669500Y-87873469D01*
X148709868Y-88076412D01*
X148709870Y-88076420D01*
X148775939Y-88235925D01*
X148789059Y-88267598D01*
X148802836Y-88288217D01*
X148904024Y-88439657D01*
X149050342Y-88585975D01*
X149050345Y-88585977D01*
X149222402Y-88700941D01*
X149413580Y-88780130D01*
X149558052Y-88808867D01*
X149616530Y-88820499D01*
X149616534Y-88820500D01*
X149616535Y-88820500D01*
X149823466Y-88820500D01*
X149823467Y-88820499D01*
X150026420Y-88780130D01*
X150217598Y-88700941D01*
X150389655Y-88585977D01*
X150535977Y-88439655D01*
X150650941Y-88267598D01*
X150730130Y-88076420D01*
X150770500Y-87873465D01*
X150770500Y-87666535D01*
X150730130Y-87463580D01*
X150650941Y-87272402D01*
X150535977Y-87100345D01*
X150535975Y-87100342D01*
X150389657Y-86954024D01*
X150221655Y-86841770D01*
X150217598Y-86839059D01*
X150026420Y-86759870D01*
X150026412Y-86759868D01*
X149957281Y-86746117D01*
X149895370Y-86713732D01*
X149860796Y-86653017D01*
X149864535Y-86583247D01*
X149905401Y-86526575D01*
X149970420Y-86500994D01*
X149981472Y-86500500D01*
X151998528Y-86500500D01*
X152065567Y-86520185D01*
X152111322Y-86572989D01*
X152121266Y-86642147D01*
X152092241Y-86705703D01*
X152033463Y-86743477D01*
X152022719Y-86746117D01*
X151953587Y-86759868D01*
X151953579Y-86759870D01*
X151762403Y-86839058D01*
X151590342Y-86954024D01*
X151444024Y-87100342D01*
X151329058Y-87272403D01*
X151249870Y-87463579D01*
X151249868Y-87463587D01*
X151209500Y-87666530D01*
X151209500Y-87873469D01*
X151249868Y-88076412D01*
X151249870Y-88076420D01*
X151315939Y-88235925D01*
X151329059Y-88267598D01*
X151342836Y-88288217D01*
X151444024Y-88439657D01*
X151590342Y-88585975D01*
X151590345Y-88585977D01*
X151762402Y-88700941D01*
X151953580Y-88780130D01*
X152098052Y-88808867D01*
X152156530Y-88820499D01*
X152156534Y-88820500D01*
X152156535Y-88820500D01*
X152363466Y-88820500D01*
X152363467Y-88820499D01*
X152566420Y-88780130D01*
X152757598Y-88700941D01*
X152929655Y-88585977D01*
X153075977Y-88439655D01*
X153190941Y-88267598D01*
X153259165Y-88102889D01*
X153303004Y-88048488D01*
X153369298Y-88026423D01*
X153436998Y-88043702D01*
X153484609Y-88094839D01*
X153491656Y-88112026D01*
X153548904Y-88288216D01*
X153645375Y-88477550D01*
X153684728Y-88531716D01*
X154317037Y-87899408D01*
X154334075Y-87962993D01*
X154399901Y-88077007D01*
X154492993Y-88170099D01*
X154607007Y-88235925D01*
X154670590Y-88252962D01*
X154038282Y-88885269D01*
X154038282Y-88885270D01*
X154092449Y-88924624D01*
X154281782Y-89021095D01*
X154483870Y-89086757D01*
X154693754Y-89120000D01*
X154906246Y-89120000D01*
X155116127Y-89086757D01*
X155116130Y-89086757D01*
X155318217Y-89021095D01*
X155507554Y-88924622D01*
X155561716Y-88885270D01*
X155561717Y-88885270D01*
X154929408Y-88252962D01*
X154992993Y-88235925D01*
X155107007Y-88170099D01*
X155200099Y-88077007D01*
X155265925Y-87962993D01*
X155282962Y-87899408D01*
X155915270Y-88531717D01*
X155915270Y-88531716D01*
X155954622Y-88477554D01*
X156053306Y-88283879D01*
X156054321Y-88284396D01*
X156094779Y-88234192D01*
X156161073Y-88212127D01*
X156228772Y-88229406D01*
X156276383Y-88280542D01*
X156289500Y-88336048D01*
X156289500Y-88639752D01*
X156301131Y-88698229D01*
X156301132Y-88698230D01*
X156345447Y-88764552D01*
X156411769Y-88808867D01*
X156411770Y-88808868D01*
X156470247Y-88820499D01*
X156470250Y-88820500D01*
X156470252Y-88820500D01*
X158209750Y-88820500D01*
X158209751Y-88820499D01*
X158224568Y-88817552D01*
X158268229Y-88808868D01*
X158268229Y-88808867D01*
X158268231Y-88808867D01*
X158334552Y-88764552D01*
X158378867Y-88698231D01*
X158378867Y-88698229D01*
X158378868Y-88698229D01*
X158390499Y-88639752D01*
X158390500Y-88639750D01*
X158390500Y-86900249D01*
X158390499Y-86900247D01*
X158378868Y-86841770D01*
X158378867Y-86841769D01*
X158334552Y-86775447D01*
X158262947Y-86727602D01*
X158218142Y-86673989D01*
X158209435Y-86604664D01*
X158239590Y-86541637D01*
X158299033Y-86504918D01*
X158331838Y-86500500D01*
X159375500Y-86500500D01*
X159442539Y-86520185D01*
X159488294Y-86572989D01*
X159499500Y-86624500D01*
X159499500Y-119375500D01*
X159479815Y-119442539D01*
X159427011Y-119488294D01*
X159375500Y-119499500D01*
X157601472Y-119499500D01*
X157534433Y-119479815D01*
X157488678Y-119427011D01*
X157478734Y-119357853D01*
X157507759Y-119294297D01*
X157566537Y-119256523D01*
X157577281Y-119253883D01*
X157608476Y-119247677D01*
X157646420Y-119240130D01*
X157837598Y-119160941D01*
X158009655Y-119045977D01*
X158155977Y-118899655D01*
X158270941Y-118727598D01*
X158350130Y-118536420D01*
X158390500Y-118333465D01*
X158390500Y-118126535D01*
X158350130Y-117923580D01*
X158270941Y-117732402D01*
X158155977Y-117560345D01*
X158155975Y-117560342D01*
X158009657Y-117414024D01*
X157861183Y-117314818D01*
X157837598Y-117299059D01*
X157646420Y-117219870D01*
X157646412Y-117219868D01*
X157443469Y-117179500D01*
X157443465Y-117179500D01*
X157236535Y-117179500D01*
X157236530Y-117179500D01*
X157033587Y-117219868D01*
X157033579Y-117219870D01*
X156842403Y-117299058D01*
X156670342Y-117414024D01*
X156524024Y-117560342D01*
X156409057Y-117732403D01*
X156340835Y-117897108D01*
X156296994Y-117951511D01*
X156230700Y-117973576D01*
X156163000Y-117956297D01*
X156115390Y-117905159D01*
X156108343Y-117887973D01*
X156051095Y-117711782D01*
X155954624Y-117522449D01*
X155915270Y-117468282D01*
X155915269Y-117468282D01*
X155282962Y-118100590D01*
X155265925Y-118037007D01*
X155200099Y-117922993D01*
X155107007Y-117829901D01*
X154992993Y-117764075D01*
X154929409Y-117747037D01*
X155561716Y-117114728D01*
X155507550Y-117075375D01*
X155318217Y-116978904D01*
X155116129Y-116913242D01*
X154906246Y-116880000D01*
X154693754Y-116880000D01*
X154483872Y-116913242D01*
X154483869Y-116913242D01*
X154281782Y-116978904D01*
X154092439Y-117075380D01*
X154038282Y-117114727D01*
X154038282Y-117114728D01*
X154670591Y-117747037D01*
X154607007Y-117764075D01*
X154492993Y-117829901D01*
X154399901Y-117922993D01*
X154334075Y-118037007D01*
X154317037Y-118100591D01*
X153684728Y-117468282D01*
X153684727Y-117468282D01*
X153645380Y-117522439D01*
X153548905Y-117711781D01*
X153491656Y-117887974D01*
X153452218Y-117945649D01*
X153387859Y-117972847D01*
X153319013Y-117960932D01*
X153267537Y-117913688D01*
X153259164Y-117897107D01*
X153190943Y-117732405D01*
X153075975Y-117560342D01*
X152929657Y-117414024D01*
X152781183Y-117314818D01*
X152757598Y-117299059D01*
X152566420Y-117219870D01*
X152566412Y-117219868D01*
X152363469Y-117179500D01*
X152363465Y-117179500D01*
X152156535Y-117179500D01*
X152156530Y-117179500D01*
X151953587Y-117219868D01*
X151953579Y-117219870D01*
X151762403Y-117299058D01*
X151590342Y-117414024D01*
X151444024Y-117560342D01*
X151329058Y-117732403D01*
X151249870Y-117923579D01*
X151249868Y-117923587D01*
X151209500Y-118126530D01*
X151209500Y-118333469D01*
X151249868Y-118536412D01*
X151249870Y-118536420D01*
X151315939Y-118695925D01*
X151329059Y-118727598D01*
X151342836Y-118748217D01*
X151444024Y-118899657D01*
X151590342Y-119045975D01*
X151590345Y-119045977D01*
X151762402Y-119160941D01*
X151953580Y-119240130D01*
X151984460Y-119246272D01*
X152022719Y-119253883D01*
X152084630Y-119286268D01*
X152119204Y-119346983D01*
X152115465Y-119416753D01*
X152074599Y-119473425D01*
X152009580Y-119499006D01*
X151998528Y-119499500D01*
X149981472Y-119499500D01*
X149914433Y-119479815D01*
X149868678Y-119427011D01*
X149858734Y-119357853D01*
X149887759Y-119294297D01*
X149946537Y-119256523D01*
X149957281Y-119253883D01*
X149988476Y-119247677D01*
X150026420Y-119240130D01*
X150217598Y-119160941D01*
X150389655Y-119045977D01*
X150535977Y-118899655D01*
X150650941Y-118727598D01*
X150730130Y-118536420D01*
X150770500Y-118333465D01*
X150770500Y-118126535D01*
X150730130Y-117923580D01*
X150650941Y-117732402D01*
X150535977Y-117560345D01*
X150535975Y-117560342D01*
X150389657Y-117414024D01*
X150241183Y-117314818D01*
X150217598Y-117299059D01*
X150026420Y-117219870D01*
X150026412Y-117219868D01*
X149823469Y-117179500D01*
X149823465Y-117179500D01*
X149616535Y-117179500D01*
X149616530Y-117179500D01*
X149413587Y-117219868D01*
X149413579Y-117219870D01*
X149222403Y-117299058D01*
X149050342Y-117414024D01*
X148904024Y-117560342D01*
X148789058Y-117732403D01*
X148709870Y-117923579D01*
X148709868Y-117923587D01*
X148669500Y-118126530D01*
X148669500Y-118333469D01*
X148709868Y-118536412D01*
X148709870Y-118536420D01*
X148775939Y-118695925D01*
X148789059Y-118727598D01*
X148802836Y-118748217D01*
X148904024Y-118899657D01*
X149050342Y-119045975D01*
X149050345Y-119045977D01*
X149222402Y-119160941D01*
X149413580Y-119240130D01*
X149444460Y-119246272D01*
X149482719Y-119253883D01*
X149544630Y-119286268D01*
X149579204Y-119346983D01*
X149575465Y-119416753D01*
X149534599Y-119473425D01*
X149469580Y-119499006D01*
X149458528Y-119499500D01*
X147441472Y-119499500D01*
X147374433Y-119479815D01*
X147328678Y-119427011D01*
X147318734Y-119357853D01*
X147347759Y-119294297D01*
X147406537Y-119256523D01*
X147417281Y-119253883D01*
X147448476Y-119247677D01*
X147486420Y-119240130D01*
X147677598Y-119160941D01*
X147849655Y-119045977D01*
X147995977Y-118899655D01*
X148110941Y-118727598D01*
X148190130Y-118536420D01*
X148230500Y-118333465D01*
X148230500Y-118126535D01*
X148190130Y-117923580D01*
X148110941Y-117732402D01*
X147995977Y-117560345D01*
X147995975Y-117560342D01*
X147849657Y-117414024D01*
X147701183Y-117314818D01*
X147677598Y-117299059D01*
X147486420Y-117219870D01*
X147486412Y-117219868D01*
X147283469Y-117179500D01*
X147283465Y-117179500D01*
X147076535Y-117179500D01*
X147076530Y-117179500D01*
X146873587Y-117219868D01*
X146873579Y-117219870D01*
X146682403Y-117299058D01*
X146510342Y-117414024D01*
X146364024Y-117560342D01*
X146249058Y-117732403D01*
X146169870Y-117923579D01*
X146169868Y-117923587D01*
X146129500Y-118126530D01*
X146129500Y-118333469D01*
X146169868Y-118536412D01*
X146169870Y-118536420D01*
X146235939Y-118695925D01*
X146249059Y-118727598D01*
X146262836Y-118748217D01*
X146364024Y-118899657D01*
X146510342Y-119045975D01*
X146510345Y-119045977D01*
X146682402Y-119160941D01*
X146873580Y-119240130D01*
X146904460Y-119246272D01*
X146942719Y-119253883D01*
X147004630Y-119286268D01*
X147039204Y-119346983D01*
X147035465Y-119416753D01*
X146994599Y-119473425D01*
X146929580Y-119499006D01*
X146918528Y-119499500D01*
X144901472Y-119499500D01*
X144834433Y-119479815D01*
X144788678Y-119427011D01*
X144778734Y-119357853D01*
X144807759Y-119294297D01*
X144866537Y-119256523D01*
X144877281Y-119253883D01*
X144908476Y-119247677D01*
X144946420Y-119240130D01*
X145137598Y-119160941D01*
X145309655Y-119045977D01*
X145455977Y-118899655D01*
X145570941Y-118727598D01*
X145650130Y-118536420D01*
X145690500Y-118333465D01*
X145690500Y-118126535D01*
X145650130Y-117923580D01*
X145570941Y-117732402D01*
X145455977Y-117560345D01*
X145455975Y-117560342D01*
X145309657Y-117414024D01*
X145161183Y-117314818D01*
X145137598Y-117299059D01*
X144946420Y-117219870D01*
X144946412Y-117219868D01*
X144743469Y-117179500D01*
X144743465Y-117179500D01*
X144536535Y-117179500D01*
X144536530Y-117179500D01*
X144333587Y-117219868D01*
X144333579Y-117219870D01*
X144142403Y-117299058D01*
X143970342Y-117414024D01*
X143824024Y-117560342D01*
X143709058Y-117732403D01*
X143629870Y-117923579D01*
X143629868Y-117923587D01*
X143589500Y-118126530D01*
X143589500Y-118333469D01*
X143629868Y-118536412D01*
X143629870Y-118536420D01*
X143695939Y-118695925D01*
X143709059Y-118727598D01*
X143722836Y-118748217D01*
X143824024Y-118899657D01*
X143970342Y-119045975D01*
X143970345Y-119045977D01*
X144142402Y-119160941D01*
X144333580Y-119240130D01*
X144364460Y-119246272D01*
X144402719Y-119253883D01*
X144464630Y-119286268D01*
X144499204Y-119346983D01*
X144495465Y-119416753D01*
X144454599Y-119473425D01*
X144389580Y-119499006D01*
X144378528Y-119499500D01*
X142361472Y-119499500D01*
X142294433Y-119479815D01*
X142248678Y-119427011D01*
X142238734Y-119357853D01*
X142267759Y-119294297D01*
X142326537Y-119256523D01*
X142337281Y-119253883D01*
X142368476Y-119247677D01*
X142406420Y-119240130D01*
X142597598Y-119160941D01*
X142769655Y-119045977D01*
X142915977Y-118899655D01*
X143030941Y-118727598D01*
X143110130Y-118536420D01*
X143150500Y-118333465D01*
X143150500Y-118126535D01*
X143110130Y-117923580D01*
X143030941Y-117732402D01*
X142915977Y-117560345D01*
X142915975Y-117560342D01*
X142769657Y-117414024D01*
X142621183Y-117314818D01*
X142597598Y-117299059D01*
X142406420Y-117219870D01*
X142406412Y-117219868D01*
X142203469Y-117179500D01*
X142203465Y-117179500D01*
X141996535Y-117179500D01*
X141996530Y-117179500D01*
X141793587Y-117219868D01*
X141793579Y-117219870D01*
X141602403Y-117299058D01*
X141430342Y-117414024D01*
X141284024Y-117560342D01*
X141169058Y-117732403D01*
X141089870Y-117923579D01*
X141089868Y-117923587D01*
X141049500Y-118126530D01*
X141049500Y-118333469D01*
X141089868Y-118536412D01*
X141089870Y-118536420D01*
X141155939Y-118695925D01*
X141169059Y-118727598D01*
X141182836Y-118748217D01*
X141284024Y-118899657D01*
X141430342Y-119045975D01*
X141430345Y-119045977D01*
X141602402Y-119160941D01*
X141793580Y-119240130D01*
X141824460Y-119246272D01*
X141862719Y-119253883D01*
X141924630Y-119286268D01*
X141959204Y-119346983D01*
X141955465Y-119416753D01*
X141914599Y-119473425D01*
X141849580Y-119499006D01*
X141838528Y-119499500D01*
X139821472Y-119499500D01*
X139754433Y-119479815D01*
X139708678Y-119427011D01*
X139698734Y-119357853D01*
X139727759Y-119294297D01*
X139786537Y-119256523D01*
X139797281Y-119253883D01*
X139828476Y-119247677D01*
X139866420Y-119240130D01*
X140057598Y-119160941D01*
X140229655Y-119045977D01*
X140375977Y-118899655D01*
X140490941Y-118727598D01*
X140570130Y-118536420D01*
X140610500Y-118333465D01*
X140610500Y-118126535D01*
X140570130Y-117923580D01*
X140490941Y-117732402D01*
X140375977Y-117560345D01*
X140375975Y-117560342D01*
X140229657Y-117414024D01*
X140081183Y-117314818D01*
X140057598Y-117299059D01*
X139866420Y-117219870D01*
X139866412Y-117219868D01*
X139663469Y-117179500D01*
X139663465Y-117179500D01*
X139456535Y-117179500D01*
X139456530Y-117179500D01*
X139253587Y-117219868D01*
X139253579Y-117219870D01*
X139062403Y-117299058D01*
X138890342Y-117414024D01*
X138744024Y-117560342D01*
X138629058Y-117732403D01*
X138549870Y-117923579D01*
X138549868Y-117923587D01*
X138509500Y-118126530D01*
X138509500Y-118333469D01*
X138549868Y-118536412D01*
X138549870Y-118536420D01*
X138615939Y-118695925D01*
X138629059Y-118727598D01*
X138642836Y-118748217D01*
X138744024Y-118899657D01*
X138890342Y-119045975D01*
X138890345Y-119045977D01*
X139062402Y-119160941D01*
X139253580Y-119240130D01*
X139284460Y-119246272D01*
X139322719Y-119253883D01*
X139384630Y-119286268D01*
X139419204Y-119346983D01*
X139415465Y-119416753D01*
X139374599Y-119473425D01*
X139309580Y-119499006D01*
X139298528Y-119499500D01*
X137281472Y-119499500D01*
X137214433Y-119479815D01*
X137168678Y-119427011D01*
X137158734Y-119357853D01*
X137187759Y-119294297D01*
X137246537Y-119256523D01*
X137257281Y-119253883D01*
X137288476Y-119247677D01*
X137326420Y-119240130D01*
X137517598Y-119160941D01*
X137689655Y-119045977D01*
X137835977Y-118899655D01*
X137950941Y-118727598D01*
X138030130Y-118536420D01*
X138070500Y-118333465D01*
X138070500Y-118126535D01*
X138030130Y-117923580D01*
X137950941Y-117732402D01*
X137835977Y-117560345D01*
X137835975Y-117560342D01*
X137689657Y-117414024D01*
X137541183Y-117314818D01*
X137517598Y-117299059D01*
X137326420Y-117219870D01*
X137326412Y-117219868D01*
X137123469Y-117179500D01*
X137123465Y-117179500D01*
X136916535Y-117179500D01*
X136916530Y-117179500D01*
X136713587Y-117219868D01*
X136713579Y-117219870D01*
X136522403Y-117299058D01*
X136350342Y-117414024D01*
X136204024Y-117560342D01*
X136089058Y-117732403D01*
X136009870Y-117923579D01*
X136009868Y-117923587D01*
X135969500Y-118126530D01*
X135969500Y-118333469D01*
X136009868Y-118536412D01*
X136009870Y-118536420D01*
X136075939Y-118695925D01*
X136089059Y-118727598D01*
X136102836Y-118748217D01*
X136204024Y-118899657D01*
X136350342Y-119045975D01*
X136350345Y-119045977D01*
X136522402Y-119160941D01*
X136713580Y-119240130D01*
X136744460Y-119246272D01*
X136782719Y-119253883D01*
X136844630Y-119286268D01*
X136879204Y-119346983D01*
X136875465Y-119416753D01*
X136834599Y-119473425D01*
X136769580Y-119499006D01*
X136758528Y-119499500D01*
X134741472Y-119499500D01*
X134674433Y-119479815D01*
X134628678Y-119427011D01*
X134618734Y-119357853D01*
X134647759Y-119294297D01*
X134706537Y-119256523D01*
X134717281Y-119253883D01*
X134748476Y-119247677D01*
X134786420Y-119240130D01*
X134977598Y-119160941D01*
X135149655Y-119045977D01*
X135295977Y-118899655D01*
X135410941Y-118727598D01*
X135490130Y-118536420D01*
X135530500Y-118333465D01*
X135530500Y-118126535D01*
X135490130Y-117923580D01*
X135410941Y-117732402D01*
X135295977Y-117560345D01*
X135295975Y-117560342D01*
X135149657Y-117414024D01*
X135001183Y-117314818D01*
X134977598Y-117299059D01*
X134786420Y-117219870D01*
X134786412Y-117219868D01*
X134583469Y-117179500D01*
X134583465Y-117179500D01*
X134376535Y-117179500D01*
X134376530Y-117179500D01*
X134173587Y-117219868D01*
X134173579Y-117219870D01*
X133982403Y-117299058D01*
X133810342Y-117414024D01*
X133664024Y-117560342D01*
X133549058Y-117732403D01*
X133469870Y-117923579D01*
X133469868Y-117923587D01*
X133429500Y-118126530D01*
X133429500Y-118333469D01*
X133469868Y-118536412D01*
X133469870Y-118536420D01*
X133535939Y-118695925D01*
X133549059Y-118727598D01*
X133562836Y-118748217D01*
X133664024Y-118899657D01*
X133810342Y-119045975D01*
X133810345Y-119045977D01*
X133982402Y-119160941D01*
X134173580Y-119240130D01*
X134204460Y-119246272D01*
X134242719Y-119253883D01*
X134304630Y-119286268D01*
X134339204Y-119346983D01*
X134335465Y-119416753D01*
X134294599Y-119473425D01*
X134229580Y-119499006D01*
X134218528Y-119499500D01*
X132201472Y-119499500D01*
X132134433Y-119479815D01*
X132088678Y-119427011D01*
X132078734Y-119357853D01*
X132107759Y-119294297D01*
X132166537Y-119256523D01*
X132177281Y-119253883D01*
X132208476Y-119247677D01*
X132246420Y-119240130D01*
X132437598Y-119160941D01*
X132609655Y-119045977D01*
X132755977Y-118899655D01*
X132870941Y-118727598D01*
X132950130Y-118536420D01*
X132990500Y-118333465D01*
X132990500Y-118126535D01*
X132950130Y-117923580D01*
X132870941Y-117732402D01*
X132755977Y-117560345D01*
X132755975Y-117560342D01*
X132609657Y-117414024D01*
X132461183Y-117314818D01*
X132437598Y-117299059D01*
X132246420Y-117219870D01*
X132246412Y-117219868D01*
X132043469Y-117179500D01*
X132043465Y-117179500D01*
X131836535Y-117179500D01*
X131836530Y-117179500D01*
X131633587Y-117219868D01*
X131633579Y-117219870D01*
X131442403Y-117299058D01*
X131270342Y-117414024D01*
X131124024Y-117560342D01*
X131009058Y-117732403D01*
X130929870Y-117923579D01*
X130929868Y-117923587D01*
X130889500Y-118126530D01*
X130889500Y-118333469D01*
X130929868Y-118536412D01*
X130929870Y-118536420D01*
X130995939Y-118695925D01*
X131009059Y-118727598D01*
X131022836Y-118748217D01*
X131124024Y-118899657D01*
X131270342Y-119045975D01*
X131270345Y-119045977D01*
X131442402Y-119160941D01*
X131633580Y-119240130D01*
X131664460Y-119246272D01*
X131702719Y-119253883D01*
X131764630Y-119286268D01*
X131799204Y-119346983D01*
X131795465Y-119416753D01*
X131754599Y-119473425D01*
X131689580Y-119499006D01*
X131678528Y-119499500D01*
X129661472Y-119499500D01*
X129594433Y-119479815D01*
X129548678Y-119427011D01*
X129538734Y-119357853D01*
X129567759Y-119294297D01*
X129626537Y-119256523D01*
X129637281Y-119253883D01*
X129668476Y-119247677D01*
X129706420Y-119240130D01*
X129897598Y-119160941D01*
X130069655Y-119045977D01*
X130215977Y-118899655D01*
X130330941Y-118727598D01*
X130410130Y-118536420D01*
X130450500Y-118333465D01*
X130450500Y-118126535D01*
X130410130Y-117923580D01*
X130330941Y-117732402D01*
X130215977Y-117560345D01*
X130215975Y-117560342D01*
X130069657Y-117414024D01*
X129921183Y-117314818D01*
X129897598Y-117299059D01*
X129706420Y-117219870D01*
X129706412Y-117219868D01*
X129503469Y-117179500D01*
X129503465Y-117179500D01*
X129296535Y-117179500D01*
X129296530Y-117179500D01*
X129093587Y-117219868D01*
X129093579Y-117219870D01*
X128902403Y-117299058D01*
X128730342Y-117414024D01*
X128584024Y-117560342D01*
X128469058Y-117732403D01*
X128389870Y-117923579D01*
X128389868Y-117923587D01*
X128349500Y-118126530D01*
X128349500Y-118333469D01*
X128389868Y-118536412D01*
X128389870Y-118536420D01*
X128455939Y-118695925D01*
X128469059Y-118727598D01*
X128482836Y-118748217D01*
X128584024Y-118899657D01*
X128730342Y-119045975D01*
X128730345Y-119045977D01*
X128902402Y-119160941D01*
X129093580Y-119240130D01*
X129124460Y-119246272D01*
X129162719Y-119253883D01*
X129224630Y-119286268D01*
X129259204Y-119346983D01*
X129255465Y-119416753D01*
X129214599Y-119473425D01*
X129149580Y-119499006D01*
X129138528Y-119499500D01*
X127121472Y-119499500D01*
X127054433Y-119479815D01*
X127008678Y-119427011D01*
X126998734Y-119357853D01*
X127027759Y-119294297D01*
X127086537Y-119256523D01*
X127097281Y-119253883D01*
X127128476Y-119247677D01*
X127166420Y-119240130D01*
X127357598Y-119160941D01*
X127529655Y-119045977D01*
X127675977Y-118899655D01*
X127790941Y-118727598D01*
X127870130Y-118536420D01*
X127910500Y-118333465D01*
X127910500Y-118126535D01*
X127870130Y-117923580D01*
X127790941Y-117732402D01*
X127675977Y-117560345D01*
X127675975Y-117560342D01*
X127529657Y-117414024D01*
X127381183Y-117314818D01*
X127357598Y-117299059D01*
X127166420Y-117219870D01*
X127166412Y-117219868D01*
X126963469Y-117179500D01*
X126963465Y-117179500D01*
X126756535Y-117179500D01*
X126756530Y-117179500D01*
X126553587Y-117219868D01*
X126553579Y-117219870D01*
X126362403Y-117299058D01*
X126190342Y-117414024D01*
X126044024Y-117560342D01*
X125929057Y-117732403D01*
X125860835Y-117897108D01*
X125816994Y-117951511D01*
X125750700Y-117973576D01*
X125683000Y-117956297D01*
X125635390Y-117905159D01*
X125628343Y-117887973D01*
X125571095Y-117711782D01*
X125474624Y-117522449D01*
X125435270Y-117468282D01*
X125435269Y-117468282D01*
X124802962Y-118100590D01*
X124785925Y-118037007D01*
X124720099Y-117922993D01*
X124627007Y-117829901D01*
X124512993Y-117764075D01*
X124449409Y-117747037D01*
X125081716Y-117114728D01*
X125027550Y-117075375D01*
X124838217Y-116978904D01*
X124636129Y-116913242D01*
X124426246Y-116880000D01*
X124213754Y-116880000D01*
X124003872Y-116913242D01*
X124003869Y-116913242D01*
X123801782Y-116978904D01*
X123612439Y-117075380D01*
X123558282Y-117114727D01*
X123558282Y-117114728D01*
X124190591Y-117747037D01*
X124127007Y-117764075D01*
X124012993Y-117829901D01*
X123919901Y-117922993D01*
X123854075Y-118037007D01*
X123837037Y-118100591D01*
X123204728Y-117468282D01*
X123204727Y-117468282D01*
X123165380Y-117522439D01*
X123066694Y-117716121D01*
X123065678Y-117715603D01*
X123025212Y-117765813D01*
X122958916Y-117787872D01*
X122891218Y-117770588D01*
X122843612Y-117719447D01*
X122830500Y-117663951D01*
X122830500Y-117360249D01*
X122830499Y-117360247D01*
X122818868Y-117301770D01*
X122818867Y-117301769D01*
X122774552Y-117235447D01*
X122708230Y-117191132D01*
X122708229Y-117191131D01*
X122649752Y-117179500D01*
X122649748Y-117179500D01*
X120910252Y-117179500D01*
X120910247Y-117179500D01*
X120851770Y-117191131D01*
X120851769Y-117191132D01*
X120785447Y-117235447D01*
X120741133Y-117301768D01*
X120739060Y-117306773D01*
X120695217Y-117361175D01*
X120628922Y-117383238D01*
X120561224Y-117365957D01*
X120513615Y-117314818D01*
X120500500Y-117259317D01*
X120500500Y-115633982D01*
X143104500Y-115633982D01*
X143104500Y-115746018D01*
X143133497Y-115854237D01*
X143189515Y-115951263D01*
X143268737Y-116030485D01*
X143365763Y-116086503D01*
X143473982Y-116115500D01*
X143473984Y-116115500D01*
X143586016Y-116115500D01*
X143586018Y-116115500D01*
X143694237Y-116086503D01*
X143791263Y-116030485D01*
X143870485Y-115951263D01*
X143926503Y-115854237D01*
X143955500Y-115746018D01*
X143955500Y-115633982D01*
X143926503Y-115525763D01*
X143870485Y-115428737D01*
X143791263Y-115349515D01*
X143694237Y-115293497D01*
X143586018Y-115264500D01*
X143473982Y-115264500D01*
X143365763Y-115293497D01*
X143365760Y-115293498D01*
X143268740Y-115349513D01*
X143268734Y-115349517D01*
X143189517Y-115428734D01*
X143189513Y-115428740D01*
X143133498Y-115525760D01*
X143133497Y-115525763D01*
X143104500Y-115633982D01*
X120500500Y-115633982D01*
X120500500Y-114691472D01*
X120520185Y-114624433D01*
X120572989Y-114578678D01*
X120642147Y-114568734D01*
X120705703Y-114597759D01*
X120743477Y-114656537D01*
X120746117Y-114667281D01*
X120759870Y-114736420D01*
X120839059Y-114927598D01*
X120883587Y-114994239D01*
X120954024Y-115099657D01*
X121100342Y-115245975D01*
X121100345Y-115245977D01*
X121272402Y-115360941D01*
X121463580Y-115440130D01*
X121666530Y-115480499D01*
X121666534Y-115480500D01*
X121666535Y-115480500D01*
X121873466Y-115480500D01*
X121873467Y-115480499D01*
X122076420Y-115440130D01*
X122267598Y-115360941D01*
X122439655Y-115245977D01*
X122585977Y-115099655D01*
X122700941Y-114927598D01*
X122764571Y-114773982D01*
X152584500Y-114773982D01*
X152584500Y-114886018D01*
X152613497Y-114994237D01*
X152669515Y-115091263D01*
X152748737Y-115170485D01*
X152845763Y-115226503D01*
X152953982Y-115255500D01*
X152953984Y-115255500D01*
X153066016Y-115255500D01*
X153066018Y-115255500D01*
X153174237Y-115226503D01*
X153271263Y-115170485D01*
X153350485Y-115091263D01*
X153406503Y-114994237D01*
X153435500Y-114886018D01*
X153435500Y-114773982D01*
X153406503Y-114665763D01*
X153350485Y-114568737D01*
X153271263Y-114489515D01*
X153231936Y-114466810D01*
X153185974Y-114440273D01*
X153137758Y-114389706D01*
X153124536Y-114321099D01*
X153150504Y-114256234D01*
X153185969Y-114225502D01*
X153281263Y-114170485D01*
X153360485Y-114091263D01*
X153416503Y-113994237D01*
X153445500Y-113886018D01*
X153445500Y-113773982D01*
X153416503Y-113665763D01*
X153360485Y-113568737D01*
X153281263Y-113489515D01*
X153184237Y-113433497D01*
X153076018Y-113404500D01*
X152963982Y-113404500D01*
X152855763Y-113433497D01*
X152855760Y-113433498D01*
X152758740Y-113489513D01*
X152758734Y-113489517D01*
X152679517Y-113568734D01*
X152679513Y-113568740D01*
X152623498Y-113665760D01*
X152623497Y-113665763D01*
X152594500Y-113773982D01*
X152594500Y-113886018D01*
X152623497Y-113994237D01*
X152679515Y-114091263D01*
X152758737Y-114170485D01*
X152797246Y-114192718D01*
X152844025Y-114219726D01*
X152892241Y-114270293D01*
X152905464Y-114338900D01*
X152879496Y-114403765D01*
X152844025Y-114434500D01*
X152748740Y-114489513D01*
X152748734Y-114489517D01*
X152669517Y-114568734D01*
X152669513Y-114568740D01*
X152613498Y-114665760D01*
X152613497Y-114665763D01*
X152584500Y-114773982D01*
X122764571Y-114773982D01*
X122780130Y-114736420D01*
X122820500Y-114533465D01*
X122820500Y-114326535D01*
X122780130Y-114123580D01*
X122700941Y-113932402D01*
X122585977Y-113760345D01*
X122585975Y-113760342D01*
X122439657Y-113614024D01*
X122353626Y-113556541D01*
X122267598Y-113499059D01*
X122076420Y-113419870D01*
X122076412Y-113419868D01*
X121873469Y-113379500D01*
X121873465Y-113379500D01*
X121666535Y-113379500D01*
X121666530Y-113379500D01*
X121463587Y-113419868D01*
X121463579Y-113419870D01*
X121272403Y-113499058D01*
X121100342Y-113614024D01*
X120954024Y-113760342D01*
X120839058Y-113932403D01*
X120759870Y-114123579D01*
X120759868Y-114123587D01*
X120746117Y-114192718D01*
X120713732Y-114254629D01*
X120653016Y-114289203D01*
X120583247Y-114285464D01*
X120526575Y-114244597D01*
X120500994Y-114179579D01*
X120500500Y-114168527D01*
X120500500Y-112151472D01*
X120520185Y-112084433D01*
X120572989Y-112038678D01*
X120642147Y-112028734D01*
X120705703Y-112057759D01*
X120743477Y-112116537D01*
X120746117Y-112127281D01*
X120759868Y-112196412D01*
X120759870Y-112196420D01*
X120839058Y-112387596D01*
X120954024Y-112559657D01*
X121100342Y-112705975D01*
X121100345Y-112705977D01*
X121272402Y-112820941D01*
X121463580Y-112900130D01*
X121666530Y-112940499D01*
X121666534Y-112940500D01*
X121666535Y-112940500D01*
X121873466Y-112940500D01*
X121873467Y-112940499D01*
X122076420Y-112900130D01*
X122267598Y-112820941D01*
X122439655Y-112705977D01*
X122585977Y-112559655D01*
X122700941Y-112387598D01*
X122780130Y-112196420D01*
X122820500Y-111993465D01*
X122820500Y-111786535D01*
X122780130Y-111583580D01*
X122700941Y-111392402D01*
X122585977Y-111220345D01*
X122585975Y-111220342D01*
X122439657Y-111074024D01*
X122353626Y-111016541D01*
X122267598Y-110959059D01*
X122076420Y-110879870D01*
X122076412Y-110879868D01*
X121873469Y-110839500D01*
X121873465Y-110839500D01*
X121666535Y-110839500D01*
X121666530Y-110839500D01*
X121463587Y-110879868D01*
X121463579Y-110879870D01*
X121272403Y-110959058D01*
X121100342Y-111074024D01*
X120954024Y-111220342D01*
X120839058Y-111392403D01*
X120759870Y-111583579D01*
X120759868Y-111583587D01*
X120746117Y-111652718D01*
X120713732Y-111714629D01*
X120653016Y-111749203D01*
X120583247Y-111745464D01*
X120526575Y-111704597D01*
X120500994Y-111639579D01*
X120500500Y-111628527D01*
X120500500Y-109611472D01*
X120520185Y-109544433D01*
X120572989Y-109498678D01*
X120642147Y-109488734D01*
X120705703Y-109517759D01*
X120743477Y-109576537D01*
X120746117Y-109587281D01*
X120759868Y-109656412D01*
X120759870Y-109656420D01*
X120839058Y-109847596D01*
X120954024Y-110019657D01*
X121100342Y-110165975D01*
X121100345Y-110165977D01*
X121272402Y-110280941D01*
X121463580Y-110360130D01*
X121635044Y-110394236D01*
X121666530Y-110400499D01*
X121666534Y-110400500D01*
X121666535Y-110400500D01*
X121873466Y-110400500D01*
X121873467Y-110400499D01*
X122076420Y-110360130D01*
X122267598Y-110280941D01*
X122427675Y-110173982D01*
X152534500Y-110173982D01*
X152534500Y-110286018D01*
X152563497Y-110394237D01*
X152619515Y-110491263D01*
X152698737Y-110570485D01*
X152795763Y-110626503D01*
X152903982Y-110655500D01*
X152903984Y-110655500D01*
X153016016Y-110655500D01*
X153016018Y-110655500D01*
X153124237Y-110626503D01*
X153221263Y-110570485D01*
X153300485Y-110491263D01*
X153356503Y-110394237D01*
X153385500Y-110286018D01*
X153385500Y-110173982D01*
X153356503Y-110065763D01*
X153300485Y-109968737D01*
X153221263Y-109889515D01*
X153145772Y-109845930D01*
X153097557Y-109795364D01*
X153084334Y-109726757D01*
X153110302Y-109661892D01*
X153148549Y-109632908D01*
X153147198Y-109630567D01*
X153154237Y-109626503D01*
X153251263Y-109570485D01*
X153330485Y-109491263D01*
X153386503Y-109394237D01*
X153415500Y-109286018D01*
X153415500Y-109173982D01*
X153386503Y-109065763D01*
X153330485Y-108968737D01*
X153251263Y-108889515D01*
X153154237Y-108833497D01*
X153046018Y-108804500D01*
X152933982Y-108804500D01*
X152825763Y-108833497D01*
X152825760Y-108833498D01*
X152728740Y-108889513D01*
X152728734Y-108889517D01*
X152649517Y-108968734D01*
X152649513Y-108968740D01*
X152593498Y-109065760D01*
X152593497Y-109065763D01*
X152564500Y-109173982D01*
X152564500Y-109286018D01*
X152593497Y-109394237D01*
X152649515Y-109491263D01*
X152728737Y-109570485D01*
X152799729Y-109611472D01*
X152804225Y-109614068D01*
X152852441Y-109664634D01*
X152865665Y-109733241D01*
X152839697Y-109798106D01*
X152801459Y-109827107D01*
X152802802Y-109829433D01*
X152698740Y-109889513D01*
X152698734Y-109889517D01*
X152619517Y-109968734D01*
X152619513Y-109968740D01*
X152563498Y-110065760D01*
X152563497Y-110065763D01*
X152534500Y-110173982D01*
X122427675Y-110173982D01*
X122439655Y-110165977D01*
X122439658Y-110165974D01*
X122527459Y-110078174D01*
X122585974Y-110019658D01*
X122585975Y-110019657D01*
X122585977Y-110019655D01*
X122700941Y-109847598D01*
X122780130Y-109656420D01*
X122820500Y-109453465D01*
X122820500Y-109246535D01*
X122820500Y-109246532D01*
X122819993Y-109243982D01*
X137124500Y-109243982D01*
X137124500Y-109356018D01*
X137153497Y-109464237D01*
X137209515Y-109561263D01*
X137288737Y-109640485D01*
X137385763Y-109696503D01*
X137493982Y-109725500D01*
X137493984Y-109725500D01*
X137606016Y-109725500D01*
X137606018Y-109725500D01*
X137714237Y-109696503D01*
X137811263Y-109640485D01*
X137890485Y-109561263D01*
X137946503Y-109464237D01*
X137975500Y-109356018D01*
X137975500Y-109243982D01*
X137946503Y-109135763D01*
X137933928Y-109113982D01*
X143874500Y-109113982D01*
X143874500Y-109226018D01*
X143903497Y-109334237D01*
X143959515Y-109431263D01*
X144038737Y-109510485D01*
X144135763Y-109566503D01*
X144243982Y-109595500D01*
X144243984Y-109595500D01*
X144356016Y-109595500D01*
X144356018Y-109595500D01*
X144464237Y-109566503D01*
X144561263Y-109510485D01*
X144640485Y-109431263D01*
X144696503Y-109334237D01*
X144725500Y-109226018D01*
X144725500Y-109113982D01*
X144696503Y-109005763D01*
X144640485Y-108908737D01*
X144561263Y-108829515D01*
X144464237Y-108773497D01*
X144356018Y-108744500D01*
X144243982Y-108744500D01*
X144135763Y-108773497D01*
X144135760Y-108773498D01*
X144038740Y-108829513D01*
X144038734Y-108829517D01*
X143959517Y-108908734D01*
X143959513Y-108908740D01*
X143903498Y-109005760D01*
X143903497Y-109005763D01*
X143874500Y-109113982D01*
X137933928Y-109113982D01*
X137890485Y-109038737D01*
X137811263Y-108959515D01*
X137714237Y-108903497D01*
X137606018Y-108874500D01*
X137493982Y-108874500D01*
X137385763Y-108903497D01*
X137385760Y-108903498D01*
X137288740Y-108959513D01*
X137288734Y-108959517D01*
X137209517Y-109038734D01*
X137209513Y-109038740D01*
X137153498Y-109135760D01*
X137153497Y-109135763D01*
X137124500Y-109243982D01*
X122819993Y-109243982D01*
X122780131Y-109043587D01*
X122780130Y-109043580D01*
X122700941Y-108852402D01*
X122585977Y-108680345D01*
X122585975Y-108680342D01*
X122439657Y-108534024D01*
X122353626Y-108476541D01*
X122267598Y-108419059D01*
X122076420Y-108339870D01*
X122076412Y-108339868D01*
X121873469Y-108299500D01*
X121873465Y-108299500D01*
X121666535Y-108299500D01*
X121666530Y-108299500D01*
X121463587Y-108339868D01*
X121463579Y-108339870D01*
X121272403Y-108419058D01*
X121100342Y-108534024D01*
X120954024Y-108680342D01*
X120839058Y-108852403D01*
X120759870Y-109043579D01*
X120759868Y-109043587D01*
X120746117Y-109112718D01*
X120713732Y-109174629D01*
X120653016Y-109209203D01*
X120583247Y-109205464D01*
X120526575Y-109164597D01*
X120500994Y-109099579D01*
X120500500Y-109088527D01*
X120500500Y-107071472D01*
X120520185Y-107004433D01*
X120572989Y-106958678D01*
X120642147Y-106948734D01*
X120705703Y-106977759D01*
X120743477Y-107036537D01*
X120746117Y-107047281D01*
X120759868Y-107116412D01*
X120759870Y-107116420D01*
X120834560Y-107296738D01*
X120839059Y-107307598D01*
X120852691Y-107328000D01*
X120954024Y-107479657D01*
X121100342Y-107625975D01*
X121100345Y-107625977D01*
X121272402Y-107740941D01*
X121463580Y-107820130D01*
X121666530Y-107860499D01*
X121666534Y-107860500D01*
X121666535Y-107860500D01*
X121873466Y-107860500D01*
X121873467Y-107860499D01*
X122076420Y-107820130D01*
X122267598Y-107740941D01*
X122292979Y-107723982D01*
X146544500Y-107723982D01*
X146544500Y-107836018D01*
X146573497Y-107944237D01*
X146629515Y-108041263D01*
X146708737Y-108120485D01*
X146805763Y-108176503D01*
X146913982Y-108205500D01*
X146913984Y-108205500D01*
X147026016Y-108205500D01*
X147026018Y-108205500D01*
X147134237Y-108176503D01*
X147231263Y-108120485D01*
X147310485Y-108041263D01*
X147366503Y-107944237D01*
X147395500Y-107836018D01*
X147395500Y-107723982D01*
X147366503Y-107615763D01*
X147310485Y-107518737D01*
X147231263Y-107439515D01*
X147134237Y-107383497D01*
X147026018Y-107354500D01*
X146913982Y-107354500D01*
X146805763Y-107383497D01*
X146805760Y-107383498D01*
X146708740Y-107439513D01*
X146708734Y-107439517D01*
X146629517Y-107518734D01*
X146629513Y-107518740D01*
X146573498Y-107615760D01*
X146573497Y-107615763D01*
X146544500Y-107723982D01*
X122292979Y-107723982D01*
X122439655Y-107625977D01*
X122585977Y-107479655D01*
X122700941Y-107307598D01*
X122780130Y-107116420D01*
X122820500Y-106913465D01*
X122820500Y-106706535D01*
X122790156Y-106553982D01*
X134834500Y-106553982D01*
X134834500Y-106666018D01*
X134860818Y-106764236D01*
X134863497Y-106774236D01*
X134863498Y-106774239D01*
X134864724Y-106776362D01*
X134919515Y-106871263D01*
X134998737Y-106950485D01*
X135095763Y-107006503D01*
X135203982Y-107035500D01*
X135203984Y-107035500D01*
X135316016Y-107035500D01*
X135316018Y-107035500D01*
X135424237Y-107006503D01*
X135521263Y-106950485D01*
X135600485Y-106871263D01*
X135656503Y-106774237D01*
X135685500Y-106666018D01*
X135685500Y-106553982D01*
X135656503Y-106445763D01*
X135600485Y-106348737D01*
X135521263Y-106269515D01*
X135454111Y-106230745D01*
X135424239Y-106213498D01*
X135424238Y-106213497D01*
X135424237Y-106213497D01*
X135316018Y-106184500D01*
X135203982Y-106184500D01*
X135095763Y-106213497D01*
X135095760Y-106213498D01*
X134998740Y-106269513D01*
X134998734Y-106269517D01*
X134919517Y-106348734D01*
X134919513Y-106348740D01*
X134863498Y-106445760D01*
X134863497Y-106445763D01*
X134834500Y-106553982D01*
X122790156Y-106553982D01*
X122780130Y-106503580D01*
X122700941Y-106312402D01*
X122585977Y-106140345D01*
X122585975Y-106140342D01*
X122479615Y-106033982D01*
X133394500Y-106033982D01*
X133394500Y-106146018D01*
X133423246Y-106253298D01*
X133423497Y-106254236D01*
X133423498Y-106254239D01*
X133426543Y-106259513D01*
X133479515Y-106351263D01*
X133558737Y-106430485D01*
X133655763Y-106486503D01*
X133763982Y-106515500D01*
X133763984Y-106515500D01*
X133876016Y-106515500D01*
X133876018Y-106515500D01*
X133984237Y-106486503D01*
X134081263Y-106430485D01*
X134160485Y-106351263D01*
X134216503Y-106254237D01*
X134245500Y-106146018D01*
X134245500Y-106053982D01*
X137054500Y-106053982D01*
X137054500Y-106166018D01*
X137083497Y-106274237D01*
X137139515Y-106371263D01*
X137218737Y-106450485D01*
X137315763Y-106506503D01*
X137328951Y-106510036D01*
X137388611Y-106546401D01*
X137419140Y-106609247D01*
X137410846Y-106678623D01*
X137404245Y-106691810D01*
X137378733Y-106735998D01*
X137378733Y-106735999D01*
X137349736Y-106844218D01*
X137349736Y-106956254D01*
X137374127Y-107047281D01*
X137378733Y-107064472D01*
X137378734Y-107064475D01*
X137397405Y-107096815D01*
X137434751Y-107161499D01*
X137513973Y-107240721D01*
X137610999Y-107296739D01*
X137719218Y-107325736D01*
X137719220Y-107325736D01*
X137831252Y-107325736D01*
X137831254Y-107325736D01*
X137939473Y-107296739D01*
X138036499Y-107240721D01*
X138115721Y-107161499D01*
X138170300Y-107066964D01*
X138220865Y-107018751D01*
X138289472Y-107005527D01*
X138354337Y-107031495D01*
X138385071Y-107066964D01*
X138439515Y-107161263D01*
X138518737Y-107240485D01*
X138615763Y-107296503D01*
X138723982Y-107325500D01*
X138723984Y-107325500D01*
X138836016Y-107325500D01*
X138836018Y-107325500D01*
X138944237Y-107296503D01*
X139041263Y-107240485D01*
X139120485Y-107161263D01*
X139170641Y-107074389D01*
X139221207Y-107026174D01*
X139289814Y-107012950D01*
X139354679Y-107038918D01*
X139385414Y-107074388D01*
X139437015Y-107163763D01*
X139516237Y-107242985D01*
X139613263Y-107299003D01*
X139721482Y-107328000D01*
X139721484Y-107328000D01*
X139833516Y-107328000D01*
X139833518Y-107328000D01*
X139941737Y-107299003D01*
X140038763Y-107242985D01*
X140117985Y-107163763D01*
X140174003Y-107066737D01*
X140174003Y-107066736D01*
X140178067Y-107059698D01*
X140179729Y-107060657D01*
X140216962Y-107014446D01*
X140283254Y-106992375D01*
X140350955Y-107009648D01*
X140395078Y-107054296D01*
X140400953Y-107064472D01*
X140439515Y-107131263D01*
X140518737Y-107210485D01*
X140615763Y-107266503D01*
X140723982Y-107295500D01*
X140723984Y-107295500D01*
X140836016Y-107295500D01*
X140836018Y-107295500D01*
X140944237Y-107266503D01*
X141041263Y-107210485D01*
X141120485Y-107131263D01*
X141173529Y-107039387D01*
X141224095Y-106991174D01*
X141292702Y-106977950D01*
X141357566Y-107003918D01*
X141388300Y-107039387D01*
X141437015Y-107123763D01*
X141516237Y-107202985D01*
X141613263Y-107259003D01*
X141721482Y-107288000D01*
X141721484Y-107288000D01*
X141833516Y-107288000D01*
X141833518Y-107288000D01*
X141941737Y-107259003D01*
X142038763Y-107202985D01*
X142117985Y-107123763D01*
X142174003Y-107026737D01*
X142203000Y-106918518D01*
X142203000Y-106806482D01*
X142174003Y-106698263D01*
X142117985Y-106601237D01*
X142038763Y-106522015D01*
X141960795Y-106477000D01*
X141941739Y-106465998D01*
X141941738Y-106465997D01*
X141941737Y-106465997D01*
X141833518Y-106437000D01*
X141827000Y-106437000D01*
X141759961Y-106417315D01*
X141714206Y-106364511D01*
X141705470Y-106324356D01*
X141704061Y-106324542D01*
X141703000Y-106316489D01*
X141703000Y-106316482D01*
X141674003Y-106208263D01*
X141617985Y-106111237D01*
X141560730Y-106053982D01*
X142624500Y-106053982D01*
X142624500Y-106166018D01*
X142653497Y-106274237D01*
X142709515Y-106371263D01*
X142788737Y-106450485D01*
X142885763Y-106506503D01*
X142993982Y-106535500D01*
X142993984Y-106535500D01*
X143010500Y-106535500D01*
X143077539Y-106555185D01*
X143123294Y-106607989D01*
X143132029Y-106648143D01*
X143133439Y-106647958D01*
X143134500Y-106656016D01*
X143134500Y-106656018D01*
X143155931Y-106735998D01*
X143163497Y-106764236D01*
X143163498Y-106764239D01*
X143169272Y-106774239D01*
X143219515Y-106861263D01*
X143298737Y-106940485D01*
X143395763Y-106996503D01*
X143503982Y-107025500D01*
X143503984Y-107025500D01*
X143616016Y-107025500D01*
X143616018Y-107025500D01*
X143724237Y-106996503D01*
X143821263Y-106940485D01*
X143831748Y-106930000D01*
X151700138Y-106930000D01*
X152503012Y-106930000D01*
X152485795Y-106939940D01*
X152429940Y-106995795D01*
X152390444Y-107064204D01*
X152370000Y-107140504D01*
X152370000Y-107219496D01*
X152390444Y-107295796D01*
X152429940Y-107364205D01*
X152485795Y-107420060D01*
X152503012Y-107430000D01*
X151700138Y-107430000D01*
X151708430Y-107471690D01*
X151708430Y-107471692D01*
X151783807Y-107653671D01*
X151783814Y-107653684D01*
X151893248Y-107817462D01*
X151893251Y-107817466D01*
X152032533Y-107956748D01*
X152032537Y-107956751D01*
X152196315Y-108066185D01*
X152196328Y-108066192D01*
X152378306Y-108141569D01*
X152378318Y-108141572D01*
X152571504Y-108179999D01*
X152571508Y-108180000D01*
X152970000Y-108180000D01*
X152970000Y-107480000D01*
X153470000Y-107480000D01*
X153470000Y-108180000D01*
X153868492Y-108180000D01*
X153868495Y-108179999D01*
X154061681Y-108141572D01*
X154061693Y-108141569D01*
X154243671Y-108066192D01*
X154243684Y-108066185D01*
X154407462Y-107956751D01*
X154407466Y-107956748D01*
X154546748Y-107817466D01*
X154546751Y-107817462D01*
X154656185Y-107653684D01*
X154656192Y-107653671D01*
X154731569Y-107471692D01*
X154731569Y-107471690D01*
X154739862Y-107430000D01*
X153936988Y-107430000D01*
X153954205Y-107420060D01*
X154010060Y-107364205D01*
X154049556Y-107295796D01*
X154070000Y-107219496D01*
X154070000Y-107140504D01*
X154049556Y-107064204D01*
X154010060Y-106995795D01*
X153954205Y-106939940D01*
X153936988Y-106930000D01*
X154739862Y-106930000D01*
X156030138Y-106930000D01*
X156833012Y-106930000D01*
X156815795Y-106939940D01*
X156759940Y-106995795D01*
X156720444Y-107064204D01*
X156700000Y-107140504D01*
X156700000Y-107219496D01*
X156720444Y-107295796D01*
X156759940Y-107364205D01*
X156815795Y-107420060D01*
X156833012Y-107430000D01*
X156030138Y-107430000D01*
X156038430Y-107471690D01*
X156038430Y-107471692D01*
X156113807Y-107653671D01*
X156113814Y-107653684D01*
X156223248Y-107817462D01*
X156223251Y-107817466D01*
X156362533Y-107956748D01*
X156362537Y-107956751D01*
X156526315Y-108066185D01*
X156526328Y-108066192D01*
X156708306Y-108141569D01*
X156708318Y-108141572D01*
X156901504Y-108179999D01*
X156901508Y-108180000D01*
X157150000Y-108180000D01*
X157150000Y-107480000D01*
X157650000Y-107480000D01*
X157650000Y-108180000D01*
X157898492Y-108180000D01*
X157898495Y-108179999D01*
X158091681Y-108141572D01*
X158091693Y-108141569D01*
X158273671Y-108066192D01*
X158273684Y-108066185D01*
X158437462Y-107956751D01*
X158437466Y-107956748D01*
X158576748Y-107817466D01*
X158576751Y-107817462D01*
X158686185Y-107653684D01*
X158686192Y-107653671D01*
X158761569Y-107471692D01*
X158761569Y-107471690D01*
X158769862Y-107430000D01*
X157966988Y-107430000D01*
X157984205Y-107420060D01*
X158040060Y-107364205D01*
X158079556Y-107295796D01*
X158100000Y-107219496D01*
X158100000Y-107140504D01*
X158079556Y-107064204D01*
X158040060Y-106995795D01*
X157984205Y-106939940D01*
X157966988Y-106930000D01*
X158769862Y-106930000D01*
X158761569Y-106888309D01*
X158761569Y-106888307D01*
X158686192Y-106706328D01*
X158686185Y-106706315D01*
X158576751Y-106542537D01*
X158576748Y-106542533D01*
X158437466Y-106403251D01*
X158437462Y-106403248D01*
X158273684Y-106293814D01*
X158273671Y-106293807D01*
X158091693Y-106218430D01*
X158091681Y-106218427D01*
X157898495Y-106180000D01*
X157650000Y-106180000D01*
X157650000Y-106880000D01*
X157150000Y-106880000D01*
X157150000Y-106180000D01*
X156901504Y-106180000D01*
X156708318Y-106218427D01*
X156708306Y-106218430D01*
X156526328Y-106293807D01*
X156526315Y-106293814D01*
X156362537Y-106403248D01*
X156362533Y-106403251D01*
X156223251Y-106542533D01*
X156223248Y-106542537D01*
X156113814Y-106706315D01*
X156113807Y-106706328D01*
X156038430Y-106888307D01*
X156038430Y-106888309D01*
X156030138Y-106930000D01*
X154739862Y-106930000D01*
X154731569Y-106888309D01*
X154731569Y-106888307D01*
X154656192Y-106706328D01*
X154656185Y-106706315D01*
X154546751Y-106542537D01*
X154546748Y-106542533D01*
X154407466Y-106403251D01*
X154407462Y-106403248D01*
X154243684Y-106293814D01*
X154243672Y-106293807D01*
X154185802Y-106269838D01*
X154131398Y-106225998D01*
X154109333Y-106159704D01*
X154126612Y-106092004D01*
X154136233Y-106079627D01*
X154135559Y-106079110D01*
X154140500Y-106072669D01*
X154140505Y-106072665D01*
X154209688Y-105952836D01*
X154245500Y-105819183D01*
X154245500Y-105680817D01*
X154209688Y-105547164D01*
X154151291Y-105446017D01*
X154140507Y-105427338D01*
X154140503Y-105427333D01*
X154042666Y-105329496D01*
X154042661Y-105329492D01*
X153922838Y-105260313D01*
X153922837Y-105260312D01*
X153922836Y-105260312D01*
X153789183Y-105224500D01*
X153650817Y-105224500D01*
X153517164Y-105260312D01*
X153517161Y-105260313D01*
X153397338Y-105329492D01*
X153397333Y-105329496D01*
X153299496Y-105427333D01*
X153299492Y-105427338D01*
X153230313Y-105547161D01*
X153230312Y-105547164D01*
X153194500Y-105680817D01*
X153194500Y-105819183D01*
X153229682Y-105950482D01*
X153230312Y-105952835D01*
X153230313Y-105952838D01*
X153299492Y-106072661D01*
X153299494Y-106072664D01*
X153299495Y-106072665D01*
X153397335Y-106170505D01*
X153397336Y-106170506D01*
X153397338Y-106170507D01*
X153407996Y-106176660D01*
X153456214Y-106227225D01*
X153470000Y-106284049D01*
X153470000Y-106880000D01*
X152970000Y-106880000D01*
X152970000Y-106180000D01*
X152571504Y-106180000D01*
X152378318Y-106218427D01*
X152378306Y-106218430D01*
X152196328Y-106293807D01*
X152196315Y-106293814D01*
X152032537Y-106403248D01*
X152032533Y-106403251D01*
X151893251Y-106542533D01*
X151893248Y-106542537D01*
X151783814Y-106706315D01*
X151783807Y-106706328D01*
X151708430Y-106888307D01*
X151708430Y-106888309D01*
X151700138Y-106930000D01*
X143831748Y-106930000D01*
X143900485Y-106861263D01*
X143956503Y-106764237D01*
X143985500Y-106656018D01*
X143985500Y-106543982D01*
X143956503Y-106435763D01*
X143900485Y-106338737D01*
X143821263Y-106259515D01*
X143744634Y-106215273D01*
X143696418Y-106164706D01*
X143683196Y-106096099D01*
X143709164Y-106031234D01*
X143744629Y-106000503D01*
X143831263Y-105950485D01*
X143910485Y-105871263D01*
X143966503Y-105774237D01*
X143995500Y-105666018D01*
X143995500Y-105553982D01*
X143966503Y-105445763D01*
X143923492Y-105371265D01*
X143910487Y-105348740D01*
X143910482Y-105348734D01*
X143895730Y-105333982D01*
X151294500Y-105333982D01*
X151294500Y-105446018D01*
X151323497Y-105554237D01*
X151379515Y-105651263D01*
X151458737Y-105730485D01*
X151555763Y-105786503D01*
X151663982Y-105815500D01*
X151663984Y-105815500D01*
X151776016Y-105815500D01*
X151776018Y-105815500D01*
X151884237Y-105786503D01*
X151981263Y-105730485D01*
X152060485Y-105651263D01*
X152116503Y-105554237D01*
X152145500Y-105446018D01*
X152145500Y-105333982D01*
X152116503Y-105225763D01*
X152060485Y-105128737D01*
X151981263Y-105049515D01*
X151884237Y-104993497D01*
X151776018Y-104964500D01*
X151663982Y-104964500D01*
X151555763Y-104993497D01*
X151555760Y-104993498D01*
X151458740Y-105049513D01*
X151458734Y-105049517D01*
X151379517Y-105128734D01*
X151379513Y-105128740D01*
X151323498Y-105225760D01*
X151323497Y-105225763D01*
X151294500Y-105333982D01*
X143895730Y-105333982D01*
X143831265Y-105269517D01*
X143831263Y-105269515D01*
X143749632Y-105222385D01*
X143701419Y-105171821D01*
X143688195Y-105103214D01*
X143714163Y-105038349D01*
X143749632Y-105007614D01*
X143831263Y-104960485D01*
X143910485Y-104881263D01*
X143966503Y-104784237D01*
X143995500Y-104676018D01*
X143995500Y-104563982D01*
X143966503Y-104455763D01*
X143910485Y-104358737D01*
X143831263Y-104279515D01*
X143734237Y-104223497D01*
X143734236Y-104223496D01*
X143732314Y-104222387D01*
X143684098Y-104171820D01*
X143670875Y-104103213D01*
X143696843Y-104038348D01*
X143732314Y-104007613D01*
X143734237Y-104006503D01*
X143831263Y-103950485D01*
X143910485Y-103871263D01*
X143966503Y-103774237D01*
X143995500Y-103666018D01*
X143995500Y-103553982D01*
X143966503Y-103445763D01*
X143910485Y-103348737D01*
X143831263Y-103269515D01*
X143766579Y-103232169D01*
X143734239Y-103213498D01*
X143734238Y-103213497D01*
X143734237Y-103213497D01*
X143626018Y-103184500D01*
X143513982Y-103184500D01*
X143405763Y-103213497D01*
X143405760Y-103213498D01*
X143308740Y-103269513D01*
X143308734Y-103269517D01*
X143229517Y-103348734D01*
X143229513Y-103348740D01*
X143173498Y-103445760D01*
X143173497Y-103445763D01*
X143144500Y-103553982D01*
X143144500Y-103560500D01*
X143124815Y-103627539D01*
X143072011Y-103673294D01*
X143031856Y-103682029D01*
X143032042Y-103683439D01*
X143023982Y-103684500D01*
X142915763Y-103713497D01*
X142915760Y-103713498D01*
X142818740Y-103769513D01*
X142818734Y-103769517D01*
X142739517Y-103848734D01*
X142739513Y-103848740D01*
X142683498Y-103945760D01*
X142683497Y-103945763D01*
X142654500Y-104053982D01*
X142654500Y-104166018D01*
X142683497Y-104274237D01*
X142739515Y-104371263D01*
X142818737Y-104450485D01*
X142899025Y-104496839D01*
X142947240Y-104547406D01*
X142960464Y-104616013D01*
X142934496Y-104680877D01*
X142899026Y-104711613D01*
X142798737Y-104769515D01*
X142798734Y-104769517D01*
X142719517Y-104848734D01*
X142719513Y-104848740D01*
X142663498Y-104945760D01*
X142663497Y-104945763D01*
X142634500Y-105053982D01*
X142634500Y-105166018D01*
X142663497Y-105274237D01*
X142719515Y-105371263D01*
X142798737Y-105450485D01*
X142884025Y-105499726D01*
X142932241Y-105550293D01*
X142945464Y-105618900D01*
X142919496Y-105683765D01*
X142884025Y-105714500D01*
X142788740Y-105769513D01*
X142788734Y-105769517D01*
X142709517Y-105848734D01*
X142709513Y-105848740D01*
X142653498Y-105945760D01*
X142653497Y-105945763D01*
X142624500Y-106053982D01*
X141560730Y-106053982D01*
X141538763Y-106032015D01*
X141441737Y-105975997D01*
X141333518Y-105947000D01*
X141221482Y-105947000D01*
X141113263Y-105975997D01*
X141113260Y-105975998D01*
X141016240Y-106032013D01*
X141016234Y-106032017D01*
X140937017Y-106111234D01*
X140937013Y-106111240D01*
X140884887Y-106201525D01*
X140834320Y-106249741D01*
X140765713Y-106262963D01*
X140700848Y-106236995D01*
X140670113Y-106201525D01*
X140654510Y-106174500D01*
X140617985Y-106111237D01*
X140538763Y-106032015D01*
X140441737Y-105975997D01*
X140333518Y-105947000D01*
X140221482Y-105947000D01*
X140113263Y-105975997D01*
X140113260Y-105975998D01*
X140016240Y-106032013D01*
X140016234Y-106032017D01*
X139937017Y-106111234D01*
X139937015Y-106111237D01*
X139888495Y-106195276D01*
X139837927Y-106243491D01*
X139769320Y-106256713D01*
X139704456Y-106230745D01*
X139673721Y-106195275D01*
X139617985Y-106098737D01*
X139538763Y-106019515D01*
X139441737Y-105963497D01*
X139333518Y-105934500D01*
X139221482Y-105934500D01*
X139113263Y-105963497D01*
X139113260Y-105963498D01*
X139016240Y-106019513D01*
X139016234Y-106019517D01*
X138937017Y-106098734D01*
X138937013Y-106098740D01*
X138883250Y-106191860D01*
X138832683Y-106240076D01*
X138764076Y-106253298D01*
X138699211Y-106227330D01*
X138668476Y-106191860D01*
X138656147Y-106170505D01*
X138620485Y-106108737D01*
X138541263Y-106029515D01*
X138444237Y-105973497D01*
X138416056Y-105965946D01*
X138356398Y-105929581D01*
X138325870Y-105866734D01*
X138334165Y-105797358D01*
X138340763Y-105784178D01*
X138346503Y-105774237D01*
X138375500Y-105666018D01*
X138375500Y-105553982D01*
X138346503Y-105445763D01*
X138290485Y-105348737D01*
X138211263Y-105269515D01*
X138114237Y-105213497D01*
X138006018Y-105184500D01*
X137893982Y-105184500D01*
X137785763Y-105213497D01*
X137785760Y-105213498D01*
X137688740Y-105269513D01*
X137688734Y-105269517D01*
X137609517Y-105348734D01*
X137609513Y-105348740D01*
X137553498Y-105445760D01*
X137553497Y-105445763D01*
X137524500Y-105553982D01*
X137524500Y-105562521D01*
X137504815Y-105629560D01*
X137452011Y-105675315D01*
X137431514Y-105681212D01*
X137431832Y-105682397D01*
X137423983Y-105684500D01*
X137423982Y-105684500D01*
X137315763Y-105713497D01*
X137315760Y-105713498D01*
X137218740Y-105769513D01*
X137218734Y-105769517D01*
X137139517Y-105848734D01*
X137139513Y-105848740D01*
X137083498Y-105945760D01*
X137083497Y-105945763D01*
X137054500Y-106053982D01*
X134245500Y-106053982D01*
X134245500Y-106033982D01*
X134216503Y-105925763D01*
X134160485Y-105828737D01*
X134081263Y-105749515D01*
X133984237Y-105693497D01*
X133876018Y-105664500D01*
X133763982Y-105664500D01*
X133655763Y-105693497D01*
X133655760Y-105693498D01*
X133558740Y-105749513D01*
X133558734Y-105749517D01*
X133479517Y-105828734D01*
X133479513Y-105828740D01*
X133423498Y-105925760D01*
X133423497Y-105925763D01*
X133394500Y-106033982D01*
X122479615Y-106033982D01*
X122439657Y-105994024D01*
X122337491Y-105925760D01*
X122267598Y-105879059D01*
X122248767Y-105871259D01*
X122076420Y-105799870D01*
X122076412Y-105799868D01*
X121873469Y-105759500D01*
X121873465Y-105759500D01*
X121666535Y-105759500D01*
X121666530Y-105759500D01*
X121463587Y-105799868D01*
X121463579Y-105799870D01*
X121272403Y-105879058D01*
X121100342Y-105994024D01*
X120954024Y-106140342D01*
X120839058Y-106312403D01*
X120759870Y-106503579D01*
X120759868Y-106503587D01*
X120746117Y-106572718D01*
X120713732Y-106634629D01*
X120653016Y-106669203D01*
X120583247Y-106665464D01*
X120526575Y-106624597D01*
X120500994Y-106559579D01*
X120500500Y-106548527D01*
X120500500Y-104531472D01*
X120520185Y-104464433D01*
X120572989Y-104418678D01*
X120642147Y-104408734D01*
X120705703Y-104437759D01*
X120743477Y-104496537D01*
X120746117Y-104507281D01*
X120757396Y-104563982D01*
X120759870Y-104576420D01*
X120839059Y-104767598D01*
X120850176Y-104784236D01*
X120954024Y-104939657D01*
X121100342Y-105085975D01*
X121100345Y-105085977D01*
X121272402Y-105200941D01*
X121463580Y-105280130D01*
X121666530Y-105320499D01*
X121666534Y-105320500D01*
X121666535Y-105320500D01*
X121873466Y-105320500D01*
X121873467Y-105320499D01*
X122076420Y-105280130D01*
X122267598Y-105200941D01*
X122439655Y-105085977D01*
X122585977Y-104939655D01*
X122700941Y-104767598D01*
X122780130Y-104576420D01*
X122820500Y-104373465D01*
X122820500Y-104166535D01*
X122780130Y-103963580D01*
X122700941Y-103772402D01*
X122585977Y-103600345D01*
X122585975Y-103600342D01*
X122439657Y-103454024D01*
X122353626Y-103396541D01*
X122267598Y-103339059D01*
X122076420Y-103259870D01*
X122076412Y-103259868D01*
X121873469Y-103219500D01*
X121873465Y-103219500D01*
X121666535Y-103219500D01*
X121666530Y-103219500D01*
X121463587Y-103259868D01*
X121463579Y-103259870D01*
X121272403Y-103339058D01*
X121100342Y-103454024D01*
X120954024Y-103600342D01*
X120839058Y-103772403D01*
X120759870Y-103963579D01*
X120759868Y-103963587D01*
X120746117Y-104032718D01*
X120713732Y-104094629D01*
X120653016Y-104129203D01*
X120583247Y-104125464D01*
X120526575Y-104084597D01*
X120500994Y-104019579D01*
X120500500Y-104008527D01*
X120500500Y-103088601D01*
X148859119Y-103088601D01*
X148859119Y-103200637D01*
X148888116Y-103308856D01*
X148944134Y-103405882D01*
X149023356Y-103485104D01*
X149120382Y-103541122D01*
X149228601Y-103570119D01*
X149228603Y-103570119D01*
X149340635Y-103570119D01*
X149340637Y-103570119D01*
X149448856Y-103541122D01*
X149545882Y-103485104D01*
X149625104Y-103405882D01*
X149681122Y-103308856D01*
X149710119Y-103200637D01*
X149710119Y-103088601D01*
X149681122Y-102980382D01*
X149625104Y-102883356D01*
X149545882Y-102804134D01*
X149448856Y-102748116D01*
X149340637Y-102719119D01*
X149228601Y-102719119D01*
X149120382Y-102748116D01*
X149120379Y-102748117D01*
X149023359Y-102804132D01*
X149023353Y-102804136D01*
X148944136Y-102883353D01*
X148944132Y-102883359D01*
X148888117Y-102980379D01*
X148888116Y-102980382D01*
X148859119Y-103088601D01*
X120500500Y-103088601D01*
X120500500Y-101991472D01*
X120520185Y-101924433D01*
X120572989Y-101878678D01*
X120642147Y-101868734D01*
X120705703Y-101897759D01*
X120743477Y-101956537D01*
X120746117Y-101967281D01*
X120759868Y-102036412D01*
X120759870Y-102036420D01*
X120839058Y-102227596D01*
X120954024Y-102399657D01*
X121100342Y-102545975D01*
X121100345Y-102545977D01*
X121272402Y-102660941D01*
X121463580Y-102740130D01*
X121666530Y-102780499D01*
X121666534Y-102780500D01*
X121666535Y-102780500D01*
X121873466Y-102780500D01*
X121873467Y-102780499D01*
X122076420Y-102740130D01*
X122267598Y-102660941D01*
X122439655Y-102545977D01*
X122585977Y-102399655D01*
X122700941Y-102227598D01*
X122780130Y-102036420D01*
X122820500Y-101833465D01*
X122820500Y-101626535D01*
X122780130Y-101423580D01*
X122700941Y-101232402D01*
X122585977Y-101060345D01*
X122585975Y-101060342D01*
X122439657Y-100914024D01*
X122301948Y-100822011D01*
X122267598Y-100799059D01*
X122182915Y-100763982D01*
X138844500Y-100763982D01*
X138844500Y-100876018D01*
X138873497Y-100984237D01*
X138929515Y-101081263D01*
X139008737Y-101160485D01*
X139105763Y-101216503D01*
X139213982Y-101245500D01*
X139213984Y-101245500D01*
X139326016Y-101245500D01*
X139326018Y-101245500D01*
X139434237Y-101216503D01*
X139531263Y-101160485D01*
X139610485Y-101081263D01*
X139656840Y-101000972D01*
X139707405Y-100952759D01*
X139776012Y-100939535D01*
X139840877Y-100965503D01*
X139871613Y-101000974D01*
X139873497Y-101004237D01*
X139929515Y-101101263D01*
X140008737Y-101180485D01*
X140105763Y-101236503D01*
X140213982Y-101265500D01*
X140213984Y-101265500D01*
X140240457Y-101265500D01*
X140307496Y-101285185D01*
X140353251Y-101337989D01*
X140360228Y-101357397D01*
X140383497Y-101444237D01*
X140439515Y-101541263D01*
X140518737Y-101620485D01*
X140615763Y-101676503D01*
X140723982Y-101705500D01*
X140723984Y-101705500D01*
X140836016Y-101705500D01*
X140836018Y-101705500D01*
X140944237Y-101676503D01*
X141041263Y-101620485D01*
X141120485Y-101541263D01*
X141166840Y-101460972D01*
X141217405Y-101412759D01*
X141286012Y-101399535D01*
X141350877Y-101425503D01*
X141381613Y-101460974D01*
X141383497Y-101464237D01*
X141439515Y-101561263D01*
X141518737Y-101640485D01*
X141615763Y-101696503D01*
X141723982Y-101725500D01*
X141723984Y-101725500D01*
X141836016Y-101725500D01*
X141836018Y-101725500D01*
X141944237Y-101696503D01*
X142041263Y-101640485D01*
X142120485Y-101561263D01*
X142166840Y-101480972D01*
X142217405Y-101432759D01*
X142286012Y-101419535D01*
X142350877Y-101445503D01*
X142381613Y-101480974D01*
X142396350Y-101506499D01*
X142439515Y-101581263D01*
X142518737Y-101660485D01*
X142615763Y-101716503D01*
X142723982Y-101745500D01*
X142723984Y-101745500D01*
X142836016Y-101745500D01*
X142836018Y-101745500D01*
X142879004Y-101733982D01*
X145914500Y-101733982D01*
X145914500Y-101846018D01*
X145943497Y-101954237D01*
X145999515Y-102051263D01*
X146078737Y-102130485D01*
X146175763Y-102186503D01*
X146283982Y-102215500D01*
X146283984Y-102215500D01*
X146396016Y-102215500D01*
X146396018Y-102215500D01*
X146504237Y-102186503D01*
X146601263Y-102130485D01*
X146680485Y-102051263D01*
X146736503Y-101954237D01*
X146765500Y-101846018D01*
X146765500Y-101733982D01*
X146736503Y-101625763D01*
X146680485Y-101528737D01*
X146601263Y-101449515D01*
X146504237Y-101393497D01*
X146396018Y-101364500D01*
X146283982Y-101364500D01*
X146175763Y-101393497D01*
X146175760Y-101393498D01*
X146078740Y-101449513D01*
X146078734Y-101449517D01*
X145999517Y-101528734D01*
X145999513Y-101528740D01*
X145943498Y-101625760D01*
X145943497Y-101625763D01*
X145914500Y-101733982D01*
X142879004Y-101733982D01*
X142944237Y-101716503D01*
X143041263Y-101660485D01*
X143120485Y-101581263D01*
X143176503Y-101484237D01*
X143205500Y-101376018D01*
X143205500Y-101263982D01*
X143176503Y-101155763D01*
X143120485Y-101058737D01*
X143041263Y-100979515D01*
X142944237Y-100923497D01*
X142836018Y-100894500D01*
X142819500Y-100894500D01*
X142752461Y-100874815D01*
X142706706Y-100822011D01*
X142695500Y-100770500D01*
X142695500Y-100763984D01*
X142695500Y-100763982D01*
X142666503Y-100655763D01*
X142610485Y-100558737D01*
X142531263Y-100479515D01*
X142452839Y-100434237D01*
X142434239Y-100423498D01*
X142434238Y-100423497D01*
X142434237Y-100423497D01*
X142326018Y-100394500D01*
X142213982Y-100394500D01*
X142105763Y-100423497D01*
X142105760Y-100423498D01*
X142008740Y-100479513D01*
X142008734Y-100479517D01*
X141929517Y-100558734D01*
X141929515Y-100558737D01*
X141873726Y-100655366D01*
X141823158Y-100703581D01*
X141754551Y-100716803D01*
X141689687Y-100690835D01*
X141658953Y-100655366D01*
X141620485Y-100588737D01*
X141541263Y-100509515D01*
X141454960Y-100459688D01*
X141444239Y-100453498D01*
X141444238Y-100453497D01*
X141444237Y-100453497D01*
X141336018Y-100424500D01*
X141223982Y-100424500D01*
X141115763Y-100453497D01*
X141115760Y-100453498D01*
X141018740Y-100509513D01*
X141018734Y-100509517D01*
X140939517Y-100588734D01*
X140939515Y-100588737D01*
X140885273Y-100682686D01*
X140834705Y-100730901D01*
X140766098Y-100744123D01*
X140701233Y-100718155D01*
X140670499Y-100682685D01*
X140666503Y-100675763D01*
X140610485Y-100578737D01*
X140531263Y-100499515D01*
X140434237Y-100443497D01*
X140326018Y-100414500D01*
X140213982Y-100414500D01*
X140105763Y-100443497D01*
X140105760Y-100443498D01*
X140008740Y-100499513D01*
X140008734Y-100499517D01*
X139929517Y-100578734D01*
X139929515Y-100578737D01*
X139883160Y-100659026D01*
X139832592Y-100707241D01*
X139763985Y-100720463D01*
X139699121Y-100694495D01*
X139668386Y-100659025D01*
X139666501Y-100655760D01*
X139610485Y-100558737D01*
X139531263Y-100479515D01*
X139452839Y-100434237D01*
X139434239Y-100423498D01*
X139434238Y-100423497D01*
X139434237Y-100423497D01*
X139326018Y-100394500D01*
X139213982Y-100394500D01*
X139105763Y-100423497D01*
X139105760Y-100423498D01*
X139008740Y-100479513D01*
X139008734Y-100479517D01*
X138929517Y-100558734D01*
X138929513Y-100558740D01*
X138873498Y-100655760D01*
X138873497Y-100655763D01*
X138844500Y-100763982D01*
X122182915Y-100763982D01*
X122076420Y-100719870D01*
X122076412Y-100719868D01*
X121873469Y-100679500D01*
X121873465Y-100679500D01*
X121666535Y-100679500D01*
X121666530Y-100679500D01*
X121463587Y-100719868D01*
X121463579Y-100719870D01*
X121272403Y-100799058D01*
X121100342Y-100914024D01*
X120954024Y-101060342D01*
X120839058Y-101232403D01*
X120759870Y-101423579D01*
X120759868Y-101423587D01*
X120746117Y-101492718D01*
X120713732Y-101554629D01*
X120653016Y-101589203D01*
X120583247Y-101585464D01*
X120526575Y-101544597D01*
X120500994Y-101479579D01*
X120500500Y-101468527D01*
X120500500Y-99451472D01*
X120520185Y-99384433D01*
X120572989Y-99338678D01*
X120642147Y-99328734D01*
X120705703Y-99357759D01*
X120743477Y-99416537D01*
X120746117Y-99427281D01*
X120759868Y-99496412D01*
X120759870Y-99496420D01*
X120822380Y-99647333D01*
X120839059Y-99687598D01*
X120883761Y-99754500D01*
X120954024Y-99859657D01*
X121100342Y-100005975D01*
X121100345Y-100005977D01*
X121272402Y-100120941D01*
X121463580Y-100200130D01*
X121666530Y-100240499D01*
X121666534Y-100240500D01*
X121666535Y-100240500D01*
X121873466Y-100240500D01*
X121873467Y-100240499D01*
X122006780Y-100213982D01*
X134884500Y-100213982D01*
X134884500Y-100326018D01*
X134911425Y-100426502D01*
X134913497Y-100434236D01*
X134913498Y-100434239D01*
X134918843Y-100443497D01*
X134969515Y-100531263D01*
X135048737Y-100610485D01*
X135145763Y-100666503D01*
X135253982Y-100695500D01*
X135253984Y-100695500D01*
X135366016Y-100695500D01*
X135366018Y-100695500D01*
X135474237Y-100666503D01*
X135571263Y-100610485D01*
X135650485Y-100531263D01*
X135706503Y-100434237D01*
X135735500Y-100326018D01*
X135735500Y-100213982D01*
X135706503Y-100105763D01*
X135650485Y-100008737D01*
X135615730Y-99973982D01*
X143924500Y-99973982D01*
X143924500Y-100086018D01*
X143953497Y-100194237D01*
X144009515Y-100291263D01*
X144088737Y-100370485D01*
X144185763Y-100426503D01*
X144293982Y-100455500D01*
X144293984Y-100455500D01*
X144406016Y-100455500D01*
X144406018Y-100455500D01*
X144514237Y-100426503D01*
X144611263Y-100370485D01*
X144690485Y-100291263D01*
X144746503Y-100194237D01*
X144765328Y-100123982D01*
X151354500Y-100123982D01*
X151354500Y-100236018D01*
X151383497Y-100344237D01*
X151439515Y-100441263D01*
X151518737Y-100520485D01*
X151615763Y-100576503D01*
X151723982Y-100605500D01*
X151723984Y-100605500D01*
X151836016Y-100605500D01*
X151836018Y-100605500D01*
X151944237Y-100576503D01*
X152041263Y-100520485D01*
X152120485Y-100441263D01*
X152176503Y-100344237D01*
X152205500Y-100236018D01*
X152205500Y-100123982D01*
X152176503Y-100015763D01*
X152120485Y-99918737D01*
X152041263Y-99839515D01*
X151944237Y-99783497D01*
X151836018Y-99754500D01*
X151723982Y-99754500D01*
X151615763Y-99783497D01*
X151615760Y-99783498D01*
X151518740Y-99839513D01*
X151518734Y-99839517D01*
X151439517Y-99918734D01*
X151439513Y-99918740D01*
X151383498Y-100015760D01*
X151383497Y-100015763D01*
X151354500Y-100123982D01*
X144765328Y-100123982D01*
X144775500Y-100086018D01*
X144775500Y-99973982D01*
X144746503Y-99865763D01*
X144690485Y-99768737D01*
X144611263Y-99689515D01*
X144514237Y-99633497D01*
X144406018Y-99604500D01*
X144293982Y-99604500D01*
X144185763Y-99633497D01*
X144185760Y-99633498D01*
X144088740Y-99689513D01*
X144088734Y-99689517D01*
X144009517Y-99768734D01*
X144009513Y-99768740D01*
X143953498Y-99865760D01*
X143953497Y-99865763D01*
X143924500Y-99973982D01*
X135615730Y-99973982D01*
X135571263Y-99929515D01*
X135474237Y-99873497D01*
X135366018Y-99844500D01*
X135253982Y-99844500D01*
X135145763Y-99873497D01*
X135145760Y-99873498D01*
X135048740Y-99929513D01*
X135048734Y-99929517D01*
X134969517Y-100008734D01*
X134969513Y-100008740D01*
X134913498Y-100105760D01*
X134913497Y-100105763D01*
X134884500Y-100213982D01*
X122006780Y-100213982D01*
X122076420Y-100200130D01*
X122267598Y-100120941D01*
X122294820Y-100102752D01*
X122294822Y-100102751D01*
X122406909Y-100027857D01*
X122439655Y-100005977D01*
X122585977Y-99859655D01*
X122700941Y-99687598D01*
X122780130Y-99496420D01*
X122820500Y-99293465D01*
X122820500Y-99086535D01*
X122780130Y-98883580D01*
X122700941Y-98692402D01*
X122585977Y-98520345D01*
X122585974Y-98520341D01*
X122529615Y-98463982D01*
X136527000Y-98463982D01*
X136527000Y-98576018D01*
X136555997Y-98684237D01*
X136612015Y-98781263D01*
X136691237Y-98860485D01*
X136788263Y-98916503D01*
X136896482Y-98945500D01*
X136896484Y-98945500D01*
X137008516Y-98945500D01*
X137008518Y-98945500D01*
X137116737Y-98916503D01*
X137213763Y-98860485D01*
X137292985Y-98781263D01*
X137349003Y-98684237D01*
X137378000Y-98576018D01*
X137378000Y-98503982D01*
X142854500Y-98503982D01*
X142854500Y-98616018D01*
X142883497Y-98724237D01*
X142939515Y-98821263D01*
X143018737Y-98900485D01*
X143115763Y-98956503D01*
X143223982Y-98985500D01*
X143223984Y-98985500D01*
X143336016Y-98985500D01*
X143336018Y-98985500D01*
X143444237Y-98956503D01*
X143541263Y-98900485D01*
X143620485Y-98821263D01*
X143676503Y-98724237D01*
X143705500Y-98616018D01*
X143705500Y-98503982D01*
X143676503Y-98395763D01*
X143620485Y-98298737D01*
X143611748Y-98290000D01*
X151700138Y-98290000D01*
X152503012Y-98290000D01*
X152485795Y-98299940D01*
X152429940Y-98355795D01*
X152390444Y-98424204D01*
X152370000Y-98500504D01*
X152370000Y-98579496D01*
X152390444Y-98655796D01*
X152429940Y-98724205D01*
X152485795Y-98780060D01*
X152503012Y-98790000D01*
X151700138Y-98790000D01*
X151708430Y-98831690D01*
X151708430Y-98831692D01*
X151783807Y-99013671D01*
X151783814Y-99013684D01*
X151893248Y-99177462D01*
X151893251Y-99177466D01*
X152032533Y-99316748D01*
X152032537Y-99316751D01*
X152196315Y-99426185D01*
X152196328Y-99426192D01*
X152378306Y-99501569D01*
X152378318Y-99501572D01*
X152571504Y-99539999D01*
X152571508Y-99540000D01*
X152970000Y-99540000D01*
X152970000Y-98840000D01*
X153470000Y-98840000D01*
X153470000Y-99435950D01*
X153450315Y-99502989D01*
X153408001Y-99543337D01*
X153397335Y-99549494D01*
X153299496Y-99647333D01*
X153299492Y-99647338D01*
X153230313Y-99767161D01*
X153230312Y-99767164D01*
X153194500Y-99900817D01*
X153194500Y-100039183D01*
X153207050Y-100086018D01*
X153230312Y-100172835D01*
X153230313Y-100172838D01*
X153299492Y-100292661D01*
X153299494Y-100292664D01*
X153299495Y-100292665D01*
X153397335Y-100390505D01*
X153397336Y-100390506D01*
X153397338Y-100390507D01*
X153438896Y-100414500D01*
X153517164Y-100459688D01*
X153650817Y-100495500D01*
X153650819Y-100495500D01*
X153789181Y-100495500D01*
X153789183Y-100495500D01*
X153922836Y-100459688D01*
X154042665Y-100390505D01*
X154140505Y-100292665D01*
X154209688Y-100172836D01*
X154245500Y-100039183D01*
X154245500Y-99900817D01*
X154209688Y-99767164D01*
X154140505Y-99647335D01*
X154140503Y-99647333D01*
X154135559Y-99640890D01*
X154138185Y-99638874D01*
X154112088Y-99591080D01*
X154117072Y-99521388D01*
X154158944Y-99465455D01*
X154185804Y-99450160D01*
X154243674Y-99426190D01*
X154243684Y-99426185D01*
X154407462Y-99316751D01*
X154407466Y-99316748D01*
X154546748Y-99177466D01*
X154546751Y-99177462D01*
X154656185Y-99013684D01*
X154656192Y-99013671D01*
X154731569Y-98831692D01*
X154731569Y-98831690D01*
X154739862Y-98790000D01*
X153936988Y-98790000D01*
X153954205Y-98780060D01*
X154010060Y-98724205D01*
X154049556Y-98655796D01*
X154070000Y-98579496D01*
X154070000Y-98500504D01*
X154049556Y-98424204D01*
X154010060Y-98355795D01*
X153954205Y-98299940D01*
X153936988Y-98290000D01*
X154739862Y-98290000D01*
X156030138Y-98290000D01*
X156833012Y-98290000D01*
X156815795Y-98299940D01*
X156759940Y-98355795D01*
X156720444Y-98424204D01*
X156700000Y-98500504D01*
X156700000Y-98579496D01*
X156720444Y-98655796D01*
X156759940Y-98724205D01*
X156815795Y-98780060D01*
X156833012Y-98790000D01*
X156030138Y-98790000D01*
X156038430Y-98831690D01*
X156038430Y-98831692D01*
X156113807Y-99013671D01*
X156113814Y-99013684D01*
X156223248Y-99177462D01*
X156223251Y-99177466D01*
X156362533Y-99316748D01*
X156362537Y-99316751D01*
X156526315Y-99426185D01*
X156526328Y-99426192D01*
X156708306Y-99501569D01*
X156708318Y-99501572D01*
X156901504Y-99539999D01*
X156901508Y-99540000D01*
X157150000Y-99540000D01*
X157150000Y-98840000D01*
X157650000Y-98840000D01*
X157650000Y-99540000D01*
X157898492Y-99540000D01*
X157898495Y-99539999D01*
X158091681Y-99501572D01*
X158091693Y-99501569D01*
X158273671Y-99426192D01*
X158273684Y-99426185D01*
X158437462Y-99316751D01*
X158437466Y-99316748D01*
X158576748Y-99177466D01*
X158576751Y-99177462D01*
X158686185Y-99013684D01*
X158686192Y-99013671D01*
X158761569Y-98831692D01*
X158761569Y-98831690D01*
X158769862Y-98790000D01*
X157966988Y-98790000D01*
X157984205Y-98780060D01*
X158040060Y-98724205D01*
X158079556Y-98655796D01*
X158100000Y-98579496D01*
X158100000Y-98500504D01*
X158079556Y-98424204D01*
X158040060Y-98355795D01*
X157984205Y-98299940D01*
X157966988Y-98290000D01*
X158769862Y-98290000D01*
X158761569Y-98248309D01*
X158761569Y-98248307D01*
X158686192Y-98066328D01*
X158686185Y-98066315D01*
X158576751Y-97902537D01*
X158576748Y-97902533D01*
X158437466Y-97763251D01*
X158437462Y-97763248D01*
X158273684Y-97653814D01*
X158273671Y-97653807D01*
X158091693Y-97578430D01*
X158091681Y-97578427D01*
X157898495Y-97540000D01*
X157650000Y-97540000D01*
X157650000Y-98240000D01*
X157150000Y-98240000D01*
X157150000Y-97540000D01*
X156901504Y-97540000D01*
X156708318Y-97578427D01*
X156708306Y-97578430D01*
X156526328Y-97653807D01*
X156526315Y-97653814D01*
X156362537Y-97763248D01*
X156362533Y-97763251D01*
X156223251Y-97902533D01*
X156223248Y-97902537D01*
X156113814Y-98066315D01*
X156113807Y-98066328D01*
X156038430Y-98248307D01*
X156038430Y-98248309D01*
X156030138Y-98290000D01*
X154739862Y-98290000D01*
X154731569Y-98248309D01*
X154731569Y-98248307D01*
X154656192Y-98066328D01*
X154656185Y-98066315D01*
X154546751Y-97902537D01*
X154546748Y-97902533D01*
X154407466Y-97763251D01*
X154407462Y-97763248D01*
X154243684Y-97653814D01*
X154243671Y-97653807D01*
X154061693Y-97578430D01*
X154061681Y-97578427D01*
X153868495Y-97540000D01*
X153470000Y-97540000D01*
X153470000Y-98240000D01*
X152970000Y-98240000D01*
X152970000Y-97540000D01*
X152571504Y-97540000D01*
X152378318Y-97578427D01*
X152378306Y-97578430D01*
X152196328Y-97653807D01*
X152196315Y-97653814D01*
X152032537Y-97763248D01*
X152032533Y-97763251D01*
X151893251Y-97902533D01*
X151893248Y-97902537D01*
X151783814Y-98066315D01*
X151783807Y-98066328D01*
X151708430Y-98248307D01*
X151708430Y-98248309D01*
X151700138Y-98290000D01*
X143611748Y-98290000D01*
X143541263Y-98219515D01*
X143444237Y-98163497D01*
X143336018Y-98134500D01*
X143223982Y-98134500D01*
X143115763Y-98163497D01*
X143115760Y-98163498D01*
X143018740Y-98219513D01*
X143018734Y-98219517D01*
X142939517Y-98298734D01*
X142939513Y-98298740D01*
X142883498Y-98395760D01*
X142883497Y-98395763D01*
X142854500Y-98503982D01*
X137378000Y-98503982D01*
X137378000Y-98463982D01*
X137349003Y-98355763D01*
X137292985Y-98258737D01*
X137213763Y-98179515D01*
X137116737Y-98123497D01*
X137008518Y-98094500D01*
X136896482Y-98094500D01*
X136788263Y-98123497D01*
X136788260Y-98123498D01*
X136691240Y-98179513D01*
X136691234Y-98179517D01*
X136612017Y-98258734D01*
X136612013Y-98258740D01*
X136555998Y-98355760D01*
X136555997Y-98355763D01*
X136527000Y-98463982D01*
X122529615Y-98463982D01*
X122439657Y-98374024D01*
X122313905Y-98290000D01*
X122267598Y-98259059D01*
X122266813Y-98258734D01*
X122076420Y-98179870D01*
X122076412Y-98179868D01*
X121873469Y-98139500D01*
X121873465Y-98139500D01*
X121666535Y-98139500D01*
X121666530Y-98139500D01*
X121463587Y-98179868D01*
X121463579Y-98179870D01*
X121272403Y-98259058D01*
X121100342Y-98374024D01*
X120954024Y-98520342D01*
X120839058Y-98692403D01*
X120759870Y-98883579D01*
X120759868Y-98883587D01*
X120746117Y-98952718D01*
X120713732Y-99014629D01*
X120653016Y-99049203D01*
X120583247Y-99045464D01*
X120526575Y-99004597D01*
X120500994Y-98939579D01*
X120500500Y-98928527D01*
X120500500Y-96911472D01*
X120520185Y-96844433D01*
X120572989Y-96798678D01*
X120642147Y-96788734D01*
X120705703Y-96817759D01*
X120743477Y-96876537D01*
X120746117Y-96887281D01*
X120759868Y-96956412D01*
X120759870Y-96956420D01*
X120839058Y-97147596D01*
X120954024Y-97319657D01*
X121100342Y-97465975D01*
X121100345Y-97465977D01*
X121272402Y-97580941D01*
X121463580Y-97660130D01*
X121666530Y-97700499D01*
X121666534Y-97700500D01*
X121666535Y-97700500D01*
X121873466Y-97700500D01*
X121873467Y-97700499D01*
X122076420Y-97660130D01*
X122267598Y-97580941D01*
X122439655Y-97465977D01*
X122585977Y-97319655D01*
X122700941Y-97147598D01*
X122780130Y-96956420D01*
X122820500Y-96753465D01*
X122820500Y-96593982D01*
X151274500Y-96593982D01*
X151274500Y-96706018D01*
X151303497Y-96814237D01*
X151359515Y-96911263D01*
X151438737Y-96990485D01*
X151535763Y-97046503D01*
X151643982Y-97075500D01*
X151643984Y-97075500D01*
X151756016Y-97075500D01*
X151756018Y-97075500D01*
X151864237Y-97046503D01*
X151961263Y-96990485D01*
X152040485Y-96911263D01*
X152096503Y-96814237D01*
X152125500Y-96706018D01*
X152125500Y-96593982D01*
X152117462Y-96563982D01*
X154094500Y-96563982D01*
X154094500Y-96676018D01*
X154102539Y-96706018D01*
X154123497Y-96784236D01*
X154123498Y-96784239D01*
X154140817Y-96814236D01*
X154179515Y-96881263D01*
X154258737Y-96960485D01*
X154355763Y-97016503D01*
X154463982Y-97045500D01*
X154463984Y-97045500D01*
X154576016Y-97045500D01*
X154576018Y-97045500D01*
X154684237Y-97016503D01*
X154781263Y-96960485D01*
X154860485Y-96881263D01*
X154916503Y-96784237D01*
X154945500Y-96676018D01*
X154945500Y-96563982D01*
X154916503Y-96455763D01*
X154860485Y-96358737D01*
X154781263Y-96279515D01*
X154716579Y-96242169D01*
X154684239Y-96223498D01*
X154684238Y-96223497D01*
X154684237Y-96223497D01*
X154576018Y-96194500D01*
X154463982Y-96194500D01*
X154355763Y-96223497D01*
X154355760Y-96223498D01*
X154258740Y-96279513D01*
X154258734Y-96279517D01*
X154179517Y-96358734D01*
X154179513Y-96358740D01*
X154123498Y-96455760D01*
X154123497Y-96455763D01*
X154094500Y-96563982D01*
X152117462Y-96563982D01*
X152096503Y-96485763D01*
X152040485Y-96388737D01*
X151961263Y-96309515D01*
X151864237Y-96253497D01*
X151756018Y-96224500D01*
X151643982Y-96224500D01*
X151535763Y-96253497D01*
X151535760Y-96253498D01*
X151438740Y-96309513D01*
X151438734Y-96309517D01*
X151359517Y-96388734D01*
X151359513Y-96388740D01*
X151303498Y-96485760D01*
X151303498Y-96485761D01*
X151303497Y-96485763D01*
X151274500Y-96593982D01*
X122820500Y-96593982D01*
X122820500Y-96546535D01*
X122780130Y-96343580D01*
X122700941Y-96152402D01*
X122585977Y-95980345D01*
X122585975Y-95980342D01*
X122439657Y-95834024D01*
X122353626Y-95776541D01*
X122267598Y-95719059D01*
X122076420Y-95639870D01*
X122076412Y-95639868D01*
X121873469Y-95599500D01*
X121873465Y-95599500D01*
X121666535Y-95599500D01*
X121666530Y-95599500D01*
X121463587Y-95639868D01*
X121463579Y-95639870D01*
X121272403Y-95719058D01*
X121100342Y-95834024D01*
X120954024Y-95980342D01*
X120839058Y-96152403D01*
X120759870Y-96343579D01*
X120759868Y-96343587D01*
X120746117Y-96412718D01*
X120713732Y-96474629D01*
X120653016Y-96509203D01*
X120583247Y-96505464D01*
X120526575Y-96464597D01*
X120500994Y-96399579D01*
X120500500Y-96388527D01*
X120500500Y-94371472D01*
X120520185Y-94304433D01*
X120572989Y-94258678D01*
X120642147Y-94248734D01*
X120705703Y-94277759D01*
X120743477Y-94336537D01*
X120746117Y-94347281D01*
X120759868Y-94416412D01*
X120759870Y-94416420D01*
X120839058Y-94607596D01*
X120954024Y-94779657D01*
X121100342Y-94925975D01*
X121100345Y-94925977D01*
X121272402Y-95040941D01*
X121463580Y-95120130D01*
X121666530Y-95160499D01*
X121666534Y-95160500D01*
X121666535Y-95160500D01*
X121873466Y-95160500D01*
X121873467Y-95160499D01*
X122076420Y-95120130D01*
X122267598Y-95040941D01*
X122439655Y-94925977D01*
X122585977Y-94779655D01*
X122700941Y-94607598D01*
X122780130Y-94416420D01*
X122793883Y-94347281D01*
X122794539Y-94343982D01*
X151249500Y-94343982D01*
X151249500Y-94456018D01*
X151278497Y-94564237D01*
X151334515Y-94661263D01*
X151413737Y-94740485D01*
X151510763Y-94796503D01*
X151618982Y-94825500D01*
X151618984Y-94825500D01*
X151731016Y-94825500D01*
X151731018Y-94825500D01*
X151839237Y-94796503D01*
X151936263Y-94740485D01*
X152015485Y-94661263D01*
X152071503Y-94564237D01*
X152100500Y-94456018D01*
X152100500Y-94383982D01*
X154064500Y-94383982D01*
X154064500Y-94496018D01*
X154093497Y-94604237D01*
X154149515Y-94701263D01*
X154228737Y-94780485D01*
X154325763Y-94836503D01*
X154433982Y-94865500D01*
X154433984Y-94865500D01*
X154546016Y-94865500D01*
X154546018Y-94865500D01*
X154654237Y-94836503D01*
X154751263Y-94780485D01*
X154830485Y-94701263D01*
X154886503Y-94604237D01*
X154915500Y-94496018D01*
X154915500Y-94383982D01*
X154886503Y-94275763D01*
X154830485Y-94178737D01*
X154751263Y-94099515D01*
X154654237Y-94043497D01*
X154546018Y-94014500D01*
X154433982Y-94014500D01*
X154325763Y-94043497D01*
X154325760Y-94043498D01*
X154228740Y-94099513D01*
X154228734Y-94099517D01*
X154149517Y-94178734D01*
X154149513Y-94178740D01*
X154093498Y-94275760D01*
X154093497Y-94275763D01*
X154064500Y-94383982D01*
X152100500Y-94383982D01*
X152100500Y-94343982D01*
X152071503Y-94235763D01*
X152015485Y-94138737D01*
X151936263Y-94059515D01*
X151844497Y-94006534D01*
X151839239Y-94003498D01*
X151839238Y-94003497D01*
X151839237Y-94003497D01*
X151731018Y-93974500D01*
X151618982Y-93974500D01*
X151510763Y-94003497D01*
X151510760Y-94003498D01*
X151413740Y-94059513D01*
X151413734Y-94059517D01*
X151334517Y-94138734D01*
X151334513Y-94138740D01*
X151278498Y-94235760D01*
X151278497Y-94235763D01*
X151249500Y-94343982D01*
X122794539Y-94343982D01*
X122800968Y-94311664D01*
X122820499Y-94213469D01*
X122820500Y-94213466D01*
X122820500Y-94006534D01*
X122820499Y-94006530D01*
X122813074Y-93969203D01*
X122780130Y-93803580D01*
X122700941Y-93612402D01*
X122585977Y-93440345D01*
X122585975Y-93440342D01*
X122439657Y-93294024D01*
X122353626Y-93236541D01*
X122267598Y-93179059D01*
X122076420Y-93099870D01*
X122076412Y-93099868D01*
X121873469Y-93059500D01*
X121873465Y-93059500D01*
X121666535Y-93059500D01*
X121666530Y-93059500D01*
X121463587Y-93099868D01*
X121463579Y-93099870D01*
X121272403Y-93179058D01*
X121100342Y-93294024D01*
X120954024Y-93440342D01*
X120839058Y-93612403D01*
X120759870Y-93803579D01*
X120759868Y-93803587D01*
X120746117Y-93872718D01*
X120713732Y-93934629D01*
X120653016Y-93969203D01*
X120583247Y-93965464D01*
X120526575Y-93924597D01*
X120500994Y-93859579D01*
X120500500Y-93848527D01*
X120500500Y-92561837D01*
X120520185Y-92494798D01*
X120572989Y-92449043D01*
X120642147Y-92439099D01*
X120705703Y-92468124D01*
X120727602Y-92492946D01*
X120775447Y-92564552D01*
X120841769Y-92608867D01*
X120841770Y-92608868D01*
X120900247Y-92620499D01*
X120900250Y-92620500D01*
X120900252Y-92620500D01*
X122639750Y-92620500D01*
X122639751Y-92620499D01*
X122654568Y-92617552D01*
X122698229Y-92608868D01*
X122698229Y-92608867D01*
X122698231Y-92608867D01*
X122764552Y-92564552D01*
X122808867Y-92498231D01*
X122808867Y-92498229D01*
X122808868Y-92498229D01*
X122820499Y-92439752D01*
X122820500Y-92439750D01*
X122820500Y-92406482D01*
X158362000Y-92406482D01*
X158362000Y-92518518D01*
X158390997Y-92626737D01*
X158447015Y-92723763D01*
X158526237Y-92802985D01*
X158623263Y-92859003D01*
X158731482Y-92888000D01*
X158731484Y-92888000D01*
X158843516Y-92888000D01*
X158843518Y-92888000D01*
X158951737Y-92859003D01*
X159048763Y-92802985D01*
X159127985Y-92723763D01*
X159184003Y-92626737D01*
X159213000Y-92518518D01*
X159213000Y-92406482D01*
X159184003Y-92298263D01*
X159127985Y-92201237D01*
X159048763Y-92122015D01*
X158951737Y-92065997D01*
X158843518Y-92037000D01*
X158731482Y-92037000D01*
X158623263Y-92065997D01*
X158623260Y-92065998D01*
X158526240Y-92122013D01*
X158526234Y-92122017D01*
X158447017Y-92201234D01*
X158447013Y-92201240D01*
X158390998Y-92298260D01*
X158390997Y-92298263D01*
X158362000Y-92406482D01*
X122820500Y-92406482D01*
X122820500Y-91373982D01*
X140804500Y-91373982D01*
X140804500Y-91486018D01*
X140807180Y-91496018D01*
X140833497Y-91594236D01*
X140833498Y-91594239D01*
X140839272Y-91604239D01*
X140889515Y-91691263D01*
X140968737Y-91770485D01*
X141065763Y-91826503D01*
X141173982Y-91855500D01*
X141173984Y-91855500D01*
X141286016Y-91855500D01*
X141286018Y-91855500D01*
X141394237Y-91826503D01*
X141491263Y-91770485D01*
X141570485Y-91691263D01*
X141626503Y-91594237D01*
X141655500Y-91486018D01*
X141655500Y-91383982D01*
X147084500Y-91383982D01*
X147084500Y-91496018D01*
X147113497Y-91604237D01*
X147169515Y-91701263D01*
X147248737Y-91780485D01*
X147345763Y-91836503D01*
X147453982Y-91865500D01*
X147453984Y-91865500D01*
X147566016Y-91865500D01*
X147566018Y-91865500D01*
X147674237Y-91836503D01*
X147771263Y-91780485D01*
X147850485Y-91701263D01*
X147906503Y-91604237D01*
X147935500Y-91496018D01*
X147935500Y-91383982D01*
X147906503Y-91275763D01*
X147850485Y-91178737D01*
X147771263Y-91099515D01*
X147674237Y-91043497D01*
X147566018Y-91014500D01*
X147453982Y-91014500D01*
X147345763Y-91043497D01*
X147345760Y-91043498D01*
X147248740Y-91099513D01*
X147248734Y-91099517D01*
X147169517Y-91178734D01*
X147169513Y-91178740D01*
X147113498Y-91275760D01*
X147113497Y-91275763D01*
X147084500Y-91383982D01*
X141655500Y-91383982D01*
X141655500Y-91373982D01*
X141626503Y-91265763D01*
X141570485Y-91168737D01*
X141491263Y-91089515D01*
X141394237Y-91033497D01*
X141286018Y-91004500D01*
X141173982Y-91004500D01*
X141065763Y-91033497D01*
X141065760Y-91033498D01*
X140968740Y-91089513D01*
X140968734Y-91089517D01*
X140889517Y-91168734D01*
X140889513Y-91168740D01*
X140833498Y-91265760D01*
X140833497Y-91265763D01*
X140804500Y-91373982D01*
X122820500Y-91373982D01*
X122820500Y-90700249D01*
X122820499Y-90700247D01*
X122808868Y-90641770D01*
X122808867Y-90641769D01*
X122764552Y-90575447D01*
X122698230Y-90531132D01*
X122698229Y-90531131D01*
X122639752Y-90519500D01*
X122639748Y-90519500D01*
X120900252Y-90519500D01*
X120900247Y-90519500D01*
X120841770Y-90531131D01*
X120841769Y-90531132D01*
X120775447Y-90575447D01*
X120727602Y-90647053D01*
X120673989Y-90691858D01*
X120604664Y-90700565D01*
X120541637Y-90670410D01*
X120504918Y-90610967D01*
X120500500Y-90578162D01*
X120500500Y-90153982D01*
X137434500Y-90153982D01*
X137434500Y-90266018D01*
X137463497Y-90374237D01*
X137519515Y-90471263D01*
X137598737Y-90550485D01*
X137695763Y-90606503D01*
X137803982Y-90635500D01*
X137803984Y-90635500D01*
X137916016Y-90635500D01*
X137916018Y-90635500D01*
X138024237Y-90606503D01*
X138121263Y-90550485D01*
X138200485Y-90471263D01*
X138256503Y-90374237D01*
X138285500Y-90266018D01*
X138285500Y-90153982D01*
X138256503Y-90045763D01*
X138200485Y-89948737D01*
X138121263Y-89869515D01*
X138024237Y-89813497D01*
X137916018Y-89784500D01*
X137803982Y-89784500D01*
X137695763Y-89813497D01*
X137695760Y-89813498D01*
X137598740Y-89869513D01*
X137598734Y-89869517D01*
X137519517Y-89948734D01*
X137519513Y-89948740D01*
X137463498Y-90045760D01*
X137463497Y-90045763D01*
X137434500Y-90153982D01*
X120500500Y-90153982D01*
X120500500Y-87981198D01*
X120520185Y-87914159D01*
X120572989Y-87868404D01*
X120642147Y-87858460D01*
X120705703Y-87887485D01*
X120743477Y-87946263D01*
X120746117Y-87957007D01*
X120769868Y-88076412D01*
X120769870Y-88076420D01*
X120835939Y-88235925D01*
X120849059Y-88267598D01*
X120862836Y-88288217D01*
X120964024Y-88439657D01*
X121110342Y-88585975D01*
X121110345Y-88585977D01*
X121282402Y-88700941D01*
X121473580Y-88780130D01*
X121618052Y-88808867D01*
X121676530Y-88820499D01*
X121676534Y-88820500D01*
X121676535Y-88820500D01*
X121883466Y-88820500D01*
X121883467Y-88820499D01*
X122086420Y-88780130D01*
X122277598Y-88700941D01*
X122449655Y-88585977D01*
X122595977Y-88439655D01*
X122710941Y-88267598D01*
X122779165Y-88102889D01*
X122823004Y-88048488D01*
X122889298Y-88026423D01*
X122956998Y-88043702D01*
X123004609Y-88094839D01*
X123011656Y-88112026D01*
X123068904Y-88288216D01*
X123165375Y-88477550D01*
X123204728Y-88531716D01*
X123837037Y-87899408D01*
X123854075Y-87962993D01*
X123919901Y-88077007D01*
X124012993Y-88170099D01*
X124127007Y-88235925D01*
X124190590Y-88252962D01*
X123558282Y-88885269D01*
X123558282Y-88885270D01*
X123612449Y-88924624D01*
X123801782Y-89021095D01*
X124003870Y-89086757D01*
X124213754Y-89120000D01*
X124426246Y-89120000D01*
X124636127Y-89086757D01*
X124636130Y-89086757D01*
X124838217Y-89021095D01*
X125027554Y-88924622D01*
X125081716Y-88885270D01*
X125081717Y-88885270D01*
X124449408Y-88252962D01*
X124512993Y-88235925D01*
X124627007Y-88170099D01*
X124720099Y-88077007D01*
X124785925Y-87962993D01*
X124802962Y-87899409D01*
X125435270Y-88531717D01*
X125435270Y-88531716D01*
X125474622Y-88477554D01*
X125571095Y-88288217D01*
X125628343Y-88112026D01*
X125667780Y-88054351D01*
X125732139Y-88027152D01*
X125800985Y-88039066D01*
X125852461Y-88086310D01*
X125860835Y-88102891D01*
X125915939Y-88235925D01*
X125929059Y-88267598D01*
X125942836Y-88288217D01*
X126044024Y-88439657D01*
X126190342Y-88585975D01*
X126190345Y-88585977D01*
X126362402Y-88700941D01*
X126553580Y-88780130D01*
X126698052Y-88808867D01*
X126756530Y-88820499D01*
X126756534Y-88820500D01*
X126756535Y-88820500D01*
X126963466Y-88820500D01*
X126963467Y-88820499D01*
X127166420Y-88780130D01*
X127357598Y-88700941D01*
X127529655Y-88585977D01*
X127675977Y-88439655D01*
X127790941Y-88267598D01*
X127870130Y-88076420D01*
X127910500Y-87873465D01*
X127910500Y-87666535D01*
X127870130Y-87463580D01*
X127790941Y-87272402D01*
X127675977Y-87100345D01*
X127675975Y-87100342D01*
X127529657Y-86954024D01*
X127361655Y-86841770D01*
X127357598Y-86839059D01*
X127166420Y-86759870D01*
X127166412Y-86759868D01*
X127097281Y-86746117D01*
X127035370Y-86713732D01*
X127000796Y-86653017D01*
X127004535Y-86583247D01*
X127045401Y-86526575D01*
X127110420Y-86500994D01*
X127121472Y-86500500D01*
X129138528Y-86500500D01*
X129205567Y-86520185D01*
G37*
%TD.AperFunction*%
%TA.AperFunction,Conductor*%
G36*
X154334075Y-118422993D02*
G01*
X154399901Y-118537007D01*
X154492993Y-118630099D01*
X154607007Y-118695925D01*
X154670590Y-118712962D01*
X154038282Y-119345269D01*
X154039896Y-119365770D01*
X154025532Y-119434148D01*
X153976481Y-119483905D01*
X153916278Y-119499500D01*
X152521472Y-119499500D01*
X152454433Y-119479815D01*
X152408678Y-119427011D01*
X152398734Y-119357853D01*
X152427759Y-119294297D01*
X152486537Y-119256523D01*
X152497281Y-119253883D01*
X152528476Y-119247677D01*
X152566420Y-119240130D01*
X152757598Y-119160941D01*
X152929655Y-119045977D01*
X153075977Y-118899655D01*
X153190941Y-118727598D01*
X153259165Y-118562889D01*
X153303004Y-118508488D01*
X153369298Y-118486423D01*
X153436998Y-118503702D01*
X153484609Y-118554839D01*
X153491656Y-118572026D01*
X153548904Y-118748216D01*
X153645375Y-118937550D01*
X153684728Y-118991716D01*
X154317037Y-118359408D01*
X154334075Y-118422993D01*
G37*
%TD.AperFunction*%
%TA.AperFunction,Conductor*%
G36*
X155915270Y-118991717D02*
G01*
X155915270Y-118991716D01*
X155954622Y-118937554D01*
X156051095Y-118748217D01*
X156108343Y-118572026D01*
X156147780Y-118514351D01*
X156212139Y-118487152D01*
X156280985Y-118499066D01*
X156332461Y-118546310D01*
X156340835Y-118562891D01*
X156395939Y-118695925D01*
X156409059Y-118727598D01*
X156422836Y-118748217D01*
X156524024Y-118899657D01*
X156670342Y-119045975D01*
X156670345Y-119045977D01*
X156842402Y-119160941D01*
X157033580Y-119240130D01*
X157064460Y-119246272D01*
X157102719Y-119253883D01*
X157164630Y-119286268D01*
X157199204Y-119346983D01*
X157195465Y-119416753D01*
X157154599Y-119473425D01*
X157089580Y-119499006D01*
X157078528Y-119499500D01*
X155683722Y-119499500D01*
X155616683Y-119479815D01*
X155570928Y-119427011D01*
X155560104Y-119365772D01*
X155561717Y-119345270D01*
X154929408Y-118712962D01*
X154992993Y-118695925D01*
X155107007Y-118630099D01*
X155200099Y-118537007D01*
X155265925Y-118422993D01*
X155282962Y-118359408D01*
X155915270Y-118991717D01*
G37*
%TD.AperFunction*%
%TA.AperFunction,Conductor*%
G36*
X123503317Y-86520185D02*
G01*
X123549072Y-86572989D01*
X123559896Y-86634230D01*
X123558282Y-86654728D01*
X124190591Y-87287037D01*
X124127007Y-87304075D01*
X124012993Y-87369901D01*
X123919901Y-87462993D01*
X123854075Y-87577007D01*
X123837037Y-87640591D01*
X123204728Y-87008282D01*
X123204727Y-87008282D01*
X123165380Y-87062439D01*
X123068905Y-87251781D01*
X123011656Y-87427974D01*
X122972218Y-87485649D01*
X122907859Y-87512847D01*
X122839013Y-87500932D01*
X122787537Y-87453688D01*
X122779164Y-87437107D01*
X122710943Y-87272405D01*
X122595975Y-87100342D01*
X122449657Y-86954024D01*
X122281655Y-86841770D01*
X122277598Y-86839059D01*
X122086420Y-86759870D01*
X122086412Y-86759868D01*
X122017281Y-86746117D01*
X121955370Y-86713732D01*
X121920796Y-86653017D01*
X121924535Y-86583247D01*
X121965401Y-86526575D01*
X122030420Y-86500994D01*
X122041472Y-86500500D01*
X123436278Y-86500500D01*
X123503317Y-86520185D01*
G37*
%TD.AperFunction*%
%TA.AperFunction,Conductor*%
G36*
X153983317Y-86520185D02*
G01*
X154029072Y-86572989D01*
X154039896Y-86634230D01*
X154038282Y-86654728D01*
X154670591Y-87287037D01*
X154607007Y-87304075D01*
X154492993Y-87369901D01*
X154399901Y-87462993D01*
X154334075Y-87577007D01*
X154317037Y-87640591D01*
X153684728Y-87008282D01*
X153684727Y-87008282D01*
X153645380Y-87062439D01*
X153548905Y-87251781D01*
X153491656Y-87427974D01*
X153452218Y-87485649D01*
X153387859Y-87512847D01*
X153319013Y-87500932D01*
X153267537Y-87453688D01*
X153259164Y-87437107D01*
X153190943Y-87272405D01*
X153075975Y-87100342D01*
X152929657Y-86954024D01*
X152761655Y-86841770D01*
X152757598Y-86839059D01*
X152566420Y-86759870D01*
X152566412Y-86759868D01*
X152497281Y-86746117D01*
X152435370Y-86713732D01*
X152400796Y-86653017D01*
X152404535Y-86583247D01*
X152445401Y-86526575D01*
X152510420Y-86500994D01*
X152521472Y-86500500D01*
X153916278Y-86500500D01*
X153983317Y-86520185D01*
G37*
%TD.AperFunction*%
%TA.AperFunction,Conductor*%
G36*
X126665567Y-86520185D02*
G01*
X126711322Y-86572989D01*
X126721266Y-86642147D01*
X126692241Y-86705703D01*
X126633463Y-86743477D01*
X126622719Y-86746117D01*
X126553587Y-86759868D01*
X126553579Y-86759870D01*
X126362403Y-86839058D01*
X126190342Y-86954024D01*
X126044024Y-87100342D01*
X125929057Y-87272403D01*
X125860835Y-87437108D01*
X125816994Y-87491511D01*
X125750700Y-87513576D01*
X125683000Y-87496297D01*
X125635390Y-87445159D01*
X125628343Y-87427973D01*
X125571095Y-87251782D01*
X125474624Y-87062449D01*
X125435270Y-87008282D01*
X125435269Y-87008282D01*
X124802962Y-87640590D01*
X124785925Y-87577007D01*
X124720099Y-87462993D01*
X124627007Y-87369901D01*
X124512993Y-87304075D01*
X124449409Y-87287037D01*
X125081716Y-86654728D01*
X125080103Y-86634230D01*
X125094467Y-86565853D01*
X125143518Y-86516095D01*
X125203721Y-86500500D01*
X126598528Y-86500500D01*
X126665567Y-86520185D01*
G37*
%TD.AperFunction*%
%TA.AperFunction,Conductor*%
G36*
X156415201Y-86520185D02*
G01*
X156460956Y-86572989D01*
X156470900Y-86642147D01*
X156441875Y-86705703D01*
X156417053Y-86727602D01*
X156345447Y-86775447D01*
X156301132Y-86841769D01*
X156301131Y-86841770D01*
X156289500Y-86900247D01*
X156289500Y-87203951D01*
X156269815Y-87270990D01*
X156217011Y-87316745D01*
X156147853Y-87326689D01*
X156084297Y-87297664D01*
X156054061Y-87255736D01*
X156053306Y-87256121D01*
X155954624Y-87062449D01*
X155915270Y-87008282D01*
X155915269Y-87008282D01*
X155282962Y-87640590D01*
X155265925Y-87577007D01*
X155200099Y-87462993D01*
X155107007Y-87369901D01*
X154992993Y-87304075D01*
X154929409Y-87287037D01*
X155561716Y-86654728D01*
X155560103Y-86634230D01*
X155574467Y-86565853D01*
X155623518Y-86516095D01*
X155683721Y-86500500D01*
X156348162Y-86500500D01*
X156415201Y-86520185D01*
G37*
%TD.AperFunction*%
%TD*%
M02*
