%TF.GenerationSoftware,KiCad,Pcbnew,10.0.6-10.0.6~ubuntu26.04.1*%
%TF.CreationDate,2026-09-05T15:40:25+02:00*%
%TF.ProjectId,m47Board-H503,6d343742-6f61-4726-942d-483530332e6b,0.0.0*%
%TF.SameCoordinates,Original*%
%TF.FileFunction,Legend,Bot*%
%TF.FilePolarity,Positive*%
%FSLAX46Y46*%
G04 Gerber Fmt 4.6, Leading zero omitted, Abs format (unit mm)*
G04 Created by KiCad (PCBNEW 10.0.6-10.0.6~ubuntu26.04.1) date 2026-09-05 15:40:25*
%MOMM*%
%LPD*%
G01*
G04 APERTURE LIST*
%ADD10C,0.150000*%
%ADD11C,0.200000*%
%ADD12C,0.000000*%
G04 APERTURE END LIST*
D10*
X157634649Y-91706533D02*
X157867982Y-91373200D01*
X158034649Y-91706533D02*
X158034649Y-91006533D01*
X158034649Y-91006533D02*
X157767982Y-91006533D01*
X157767982Y-91006533D02*
X157701316Y-91039866D01*
X157701316Y-91039866D02*
X157667982Y-91073200D01*
X157667982Y-91073200D02*
X157634649Y-91139866D01*
X157634649Y-91139866D02*
X157634649Y-91239866D01*
X157634649Y-91239866D02*
X157667982Y-91306533D01*
X157667982Y-91306533D02*
X157701316Y-91339866D01*
X157701316Y-91339866D02*
X157767982Y-91373200D01*
X157767982Y-91373200D02*
X158034649Y-91373200D01*
X157067982Y-91673200D02*
X157134649Y-91706533D01*
X157134649Y-91706533D02*
X157267982Y-91706533D01*
X157267982Y-91706533D02*
X157334649Y-91673200D01*
X157334649Y-91673200D02*
X157367982Y-91606533D01*
X157367982Y-91606533D02*
X157367982Y-91339866D01*
X157367982Y-91339866D02*
X157334649Y-91273200D01*
X157334649Y-91273200D02*
X157267982Y-91239866D01*
X157267982Y-91239866D02*
X157134649Y-91239866D01*
X157134649Y-91239866D02*
X157067982Y-91273200D01*
X157067982Y-91273200D02*
X157034649Y-91339866D01*
X157034649Y-91339866D02*
X157034649Y-91406533D01*
X157034649Y-91406533D02*
X157367982Y-91473200D01*
X156801316Y-91239866D02*
X156634649Y-91706533D01*
X156634649Y-91706533D02*
X156467982Y-91239866D01*
X155534650Y-91006533D02*
X155467983Y-91006533D01*
X155467983Y-91006533D02*
X155401316Y-91039866D01*
X155401316Y-91039866D02*
X155367983Y-91073200D01*
X155367983Y-91073200D02*
X155334650Y-91139866D01*
X155334650Y-91139866D02*
X155301316Y-91273200D01*
X155301316Y-91273200D02*
X155301316Y-91439866D01*
X155301316Y-91439866D02*
X155334650Y-91573200D01*
X155334650Y-91573200D02*
X155367983Y-91639866D01*
X155367983Y-91639866D02*
X155401316Y-91673200D01*
X155401316Y-91673200D02*
X155467983Y-91706533D01*
X155467983Y-91706533D02*
X155534650Y-91706533D01*
X155534650Y-91706533D02*
X155601316Y-91673200D01*
X155601316Y-91673200D02*
X155634650Y-91639866D01*
X155634650Y-91639866D02*
X155667983Y-91573200D01*
X155667983Y-91573200D02*
X155701316Y-91439866D01*
X155701316Y-91439866D02*
X155701316Y-91273200D01*
X155701316Y-91273200D02*
X155667983Y-91139866D01*
X155667983Y-91139866D02*
X155634650Y-91073200D01*
X155634650Y-91073200D02*
X155601316Y-91039866D01*
X155601316Y-91039866D02*
X155534650Y-91006533D01*
X155001316Y-91639866D02*
X154967983Y-91673200D01*
X154967983Y-91673200D02*
X155001316Y-91706533D01*
X155001316Y-91706533D02*
X155034649Y-91673200D01*
X155034649Y-91673200D02*
X155001316Y-91639866D01*
X155001316Y-91639866D02*
X155001316Y-91706533D01*
X154534650Y-91006533D02*
X154467983Y-91006533D01*
X154467983Y-91006533D02*
X154401316Y-91039866D01*
X154401316Y-91039866D02*
X154367983Y-91073200D01*
X154367983Y-91073200D02*
X154334650Y-91139866D01*
X154334650Y-91139866D02*
X154301316Y-91273200D01*
X154301316Y-91273200D02*
X154301316Y-91439866D01*
X154301316Y-91439866D02*
X154334650Y-91573200D01*
X154334650Y-91573200D02*
X154367983Y-91639866D01*
X154367983Y-91639866D02*
X154401316Y-91673200D01*
X154401316Y-91673200D02*
X154467983Y-91706533D01*
X154467983Y-91706533D02*
X154534650Y-91706533D01*
X154534650Y-91706533D02*
X154601316Y-91673200D01*
X154601316Y-91673200D02*
X154634650Y-91639866D01*
X154634650Y-91639866D02*
X154667983Y-91573200D01*
X154667983Y-91573200D02*
X154701316Y-91439866D01*
X154701316Y-91439866D02*
X154701316Y-91273200D01*
X154701316Y-91273200D02*
X154667983Y-91139866D01*
X154667983Y-91139866D02*
X154634650Y-91073200D01*
X154634650Y-91073200D02*
X154601316Y-91039866D01*
X154601316Y-91039866D02*
X154534650Y-91006533D01*
X154001316Y-91639866D02*
X153967983Y-91673200D01*
X153967983Y-91673200D02*
X154001316Y-91706533D01*
X154001316Y-91706533D02*
X154034649Y-91673200D01*
X154034649Y-91673200D02*
X154001316Y-91639866D01*
X154001316Y-91639866D02*
X154001316Y-91706533D01*
X153534650Y-91006533D02*
X153467983Y-91006533D01*
X153467983Y-91006533D02*
X153401316Y-91039866D01*
X153401316Y-91039866D02*
X153367983Y-91073200D01*
X153367983Y-91073200D02*
X153334650Y-91139866D01*
X153334650Y-91139866D02*
X153301316Y-91273200D01*
X153301316Y-91273200D02*
X153301316Y-91439866D01*
X153301316Y-91439866D02*
X153334650Y-91573200D01*
X153334650Y-91573200D02*
X153367983Y-91639866D01*
X153367983Y-91639866D02*
X153401316Y-91673200D01*
X153401316Y-91673200D02*
X153467983Y-91706533D01*
X153467983Y-91706533D02*
X153534650Y-91706533D01*
X153534650Y-91706533D02*
X153601316Y-91673200D01*
X153601316Y-91673200D02*
X153634650Y-91639866D01*
X153634650Y-91639866D02*
X153667983Y-91573200D01*
X153667983Y-91573200D02*
X153701316Y-91439866D01*
X153701316Y-91439866D02*
X153701316Y-91273200D01*
X153701316Y-91273200D02*
X153667983Y-91139866D01*
X153667983Y-91139866D02*
X153634650Y-91073200D01*
X153634650Y-91073200D02*
X153601316Y-91039866D01*
X153601316Y-91039866D02*
X153534650Y-91006533D01*
D11*
G36*
X147016328Y-89497024D02*
G01*
X147040997Y-89521692D01*
X147076450Y-89592599D01*
X147118421Y-89760480D01*
X147118421Y-89973956D01*
X147076450Y-90141837D01*
X147040997Y-90212743D01*
X147016328Y-90237413D01*
X146956719Y-90267219D01*
X146908695Y-90267219D01*
X146849085Y-90237414D01*
X146824418Y-90212746D01*
X146788963Y-90141837D01*
X146746993Y-89973956D01*
X146746993Y-89760481D01*
X146788963Y-89592599D01*
X146824417Y-89521692D01*
X146849085Y-89497023D01*
X146908695Y-89467219D01*
X146956719Y-89467219D01*
X147016328Y-89497024D01*
G37*
G36*
X151206804Y-89830357D02*
G01*
X151231473Y-89855025D01*
X151261278Y-89914635D01*
X151261278Y-90153135D01*
X151231473Y-90212743D01*
X151206804Y-90237413D01*
X151147195Y-90267219D01*
X151003933Y-90267219D01*
X150985088Y-90257796D01*
X150985088Y-89809974D01*
X151003933Y-89800552D01*
X151147195Y-89800552D01*
X151206804Y-89830357D01*
G37*
G36*
X152762933Y-90108421D02*
G01*
X152785088Y-90152730D01*
X152785088Y-90200754D01*
X152762933Y-90245063D01*
X152718624Y-90267219D01*
X152527743Y-90267219D01*
X152508898Y-90257796D01*
X152508898Y-90086266D01*
X152718624Y-90086266D01*
X152762933Y-90108421D01*
G37*
G36*
X153635376Y-89830357D02*
G01*
X153660045Y-89855025D01*
X153689850Y-89914635D01*
X153689850Y-90153135D01*
X153660045Y-90212743D01*
X153635376Y-90237413D01*
X153575767Y-90267219D01*
X153480124Y-90267219D01*
X153420514Y-90237414D01*
X153395847Y-90212746D01*
X153366041Y-90153134D01*
X153366041Y-89914635D01*
X153395846Y-89855025D01*
X153420514Y-89830356D01*
X153480124Y-89800552D01*
X153575767Y-89800552D01*
X153635376Y-89830357D01*
G37*
G36*
X154642231Y-90267219D02*
G01*
X154384886Y-90267219D01*
X154325276Y-90237414D01*
X154300609Y-90212746D01*
X154270803Y-90153134D01*
X154270803Y-90057492D01*
X154300608Y-89997882D01*
X154320059Y-89978430D01*
X154425124Y-89943409D01*
X154642231Y-89943409D01*
X154642231Y-90267219D01*
G37*
G36*
X154642231Y-89743409D02*
G01*
X154432505Y-89743409D01*
X154372895Y-89713604D01*
X154348227Y-89688935D01*
X154318422Y-89629325D01*
X154318422Y-89581302D01*
X154348227Y-89521692D01*
X154372895Y-89497023D01*
X154432505Y-89467219D01*
X154642231Y-89467219D01*
X154642231Y-89743409D01*
G37*
G36*
X158191437Y-90578330D02*
G01*
X145483501Y-90578330D01*
X145483501Y-89938647D01*
X145594612Y-89938647D01*
X145594612Y-90176742D01*
X145596533Y-90196251D01*
X145597908Y-90199571D01*
X145598163Y-90203155D01*
X145605169Y-90221463D01*
X145652788Y-90316701D01*
X145658071Y-90325093D01*
X145659083Y-90327537D01*
X145661339Y-90330286D01*
X145663231Y-90333291D01*
X145665225Y-90335020D01*
X145671520Y-90342690D01*
X145719138Y-90390310D01*
X145726806Y-90396603D01*
X145728538Y-90398600D01*
X145731546Y-90400493D01*
X145734292Y-90402747D01*
X145736732Y-90403757D01*
X145745129Y-90409043D01*
X145840366Y-90456662D01*
X145858675Y-90463668D01*
X145862258Y-90463922D01*
X145865579Y-90465298D01*
X145885088Y-90467219D01*
X146170802Y-90467219D01*
X146190311Y-90465298D01*
X146193631Y-90463922D01*
X146197215Y-90463668D01*
X146215523Y-90456662D01*
X146310761Y-90409043D01*
X146319156Y-90403758D01*
X146321598Y-90402747D01*
X146324345Y-90400491D01*
X146327351Y-90398600D01*
X146329081Y-90396605D01*
X146336751Y-90390310D01*
X146384370Y-90342690D01*
X146396807Y-90327537D01*
X146411738Y-90291488D01*
X146411737Y-90252470D01*
X146396806Y-90216422D01*
X146369215Y-90188832D01*
X146333167Y-90173901D01*
X146294149Y-90173902D01*
X146258101Y-90188833D01*
X146242947Y-90201270D01*
X146206804Y-90237413D01*
X146147195Y-90267219D01*
X145908695Y-90267219D01*
X145849085Y-90237414D01*
X145824418Y-90212746D01*
X145794612Y-90153134D01*
X145794612Y-89962254D01*
X145824417Y-89902644D01*
X145849085Y-89877975D01*
X145908695Y-89848171D01*
X146027945Y-89848171D01*
X146038262Y-89847155D01*
X146040887Y-89847330D01*
X146042694Y-89846718D01*
X146047454Y-89846250D01*
X146062457Y-89840035D01*
X146077849Y-89834830D01*
X146080388Y-89832607D01*
X146083502Y-89831318D01*
X146094979Y-89819840D01*
X146107213Y-89809136D01*
X146108708Y-89806111D01*
X146111092Y-89803728D01*
X146117306Y-89788726D01*
X146124509Y-89774161D01*
X146124733Y-89770795D01*
X146126024Y-89767680D01*
X146126024Y-89751431D01*
X146126241Y-89748171D01*
X146546993Y-89748171D01*
X146546993Y-89986266D01*
X146547328Y-89989668D01*
X146547111Y-89991127D01*
X146548190Y-89998424D01*
X146548914Y-90005775D01*
X146549478Y-90007138D01*
X146549979Y-90010520D01*
X146597598Y-90200995D01*
X146598111Y-90202432D01*
X146598163Y-90203155D01*
X146601271Y-90211279D01*
X146604193Y-90219456D01*
X146604623Y-90220036D01*
X146605169Y-90221463D01*
X146652788Y-90316701D01*
X146658071Y-90325093D01*
X146659083Y-90327537D01*
X146661339Y-90330286D01*
X146663231Y-90333291D01*
X146665225Y-90335020D01*
X146671520Y-90342690D01*
X146719138Y-90390310D01*
X146726806Y-90396603D01*
X146728538Y-90398600D01*
X146731546Y-90400493D01*
X146734292Y-90402747D01*
X146736732Y-90403757D01*
X146745129Y-90409043D01*
X146840366Y-90456662D01*
X146858675Y-90463668D01*
X146862258Y-90463922D01*
X146865579Y-90465298D01*
X146885088Y-90467219D01*
X146980326Y-90467219D01*
X146999835Y-90465298D01*
X147003155Y-90463922D01*
X147006739Y-90463668D01*
X147025047Y-90456662D01*
X147120285Y-90409043D01*
X147128680Y-90403758D01*
X147131122Y-90402747D01*
X147133869Y-90400491D01*
X147136875Y-90398600D01*
X147138605Y-90396605D01*
X147146275Y-90390310D01*
X147193894Y-90342690D01*
X147200186Y-90335023D01*
X147202183Y-90333292D01*
X147204076Y-90330284D01*
X147206331Y-90327537D01*
X147207342Y-90325095D01*
X147212626Y-90316701D01*
X147260245Y-90221464D01*
X147260791Y-90220035D01*
X147261221Y-90219456D01*
X147264142Y-90211279D01*
X147267251Y-90203155D01*
X147267302Y-90202434D01*
X147267816Y-90200996D01*
X147315435Y-90010520D01*
X147315935Y-90007138D01*
X147316500Y-90005775D01*
X147317223Y-89998424D01*
X147318303Y-89991127D01*
X147318085Y-89989668D01*
X147318421Y-89986266D01*
X147318421Y-89938647D01*
X147499374Y-89938647D01*
X147499374Y-90176742D01*
X147501295Y-90196251D01*
X147502670Y-90199571D01*
X147502925Y-90203155D01*
X147509931Y-90221463D01*
X147557550Y-90316701D01*
X147562833Y-90325093D01*
X147563845Y-90327537D01*
X147566101Y-90330286D01*
X147567993Y-90333291D01*
X147569987Y-90335020D01*
X147576282Y-90342690D01*
X147623900Y-90390310D01*
X147631568Y-90396603D01*
X147633300Y-90398600D01*
X147636308Y-90400493D01*
X147639054Y-90402747D01*
X147641494Y-90403757D01*
X147649891Y-90409043D01*
X147745128Y-90456662D01*
X147763437Y-90463668D01*
X147767020Y-90463922D01*
X147770341Y-90465298D01*
X147789850Y-90467219D01*
X148027945Y-90467219D01*
X148047454Y-90465298D01*
X148050774Y-90463922D01*
X148054358Y-90463668D01*
X148072666Y-90456662D01*
X148167904Y-90409043D01*
X148176299Y-90403758D01*
X148178741Y-90402747D01*
X148181488Y-90400491D01*
X148184494Y-90398600D01*
X148186224Y-90396605D01*
X148193894Y-90390310D01*
X148241513Y-90342690D01*
X148253950Y-90327537D01*
X148268881Y-90291488D01*
X148268880Y-90252470D01*
X148253949Y-90216422D01*
X148226358Y-90188832D01*
X148190310Y-90173901D01*
X148151292Y-90173902D01*
X148115244Y-90188833D01*
X148100090Y-90201270D01*
X148063947Y-90237413D01*
X148004338Y-90267219D01*
X147813457Y-90267219D01*
X147753847Y-90237414D01*
X147729180Y-90212746D01*
X147699374Y-90153134D01*
X147699374Y-89962254D01*
X147729179Y-89902644D01*
X147753847Y-89877975D01*
X147813457Y-89848171D01*
X148004338Y-89848171D01*
X148063947Y-89877976D01*
X148100091Y-89914119D01*
X148115244Y-89926556D01*
X148119898Y-89928483D01*
X148123794Y-89931671D01*
X148137787Y-89935893D01*
X148151293Y-89941487D01*
X148156327Y-89941487D01*
X148161149Y-89942942D01*
X148175700Y-89941487D01*
X148190311Y-89941487D01*
X148194960Y-89939561D01*
X148199973Y-89939060D01*
X148212856Y-89932148D01*
X148226359Y-89926556D01*
X148229919Y-89922995D01*
X148234357Y-89920615D01*
X148243612Y-89909302D01*
X148253949Y-89898966D01*
X148255876Y-89894313D01*
X148259064Y-89890417D01*
X148263286Y-89876422D01*
X148268880Y-89862918D01*
X148268880Y-89857884D01*
X148270335Y-89853062D01*
X148270306Y-89833459D01*
X148223682Y-89367219D01*
X148499374Y-89367219D01*
X148499374Y-90367219D01*
X148501295Y-90386728D01*
X148516227Y-90422776D01*
X148543817Y-90450366D01*
X148579865Y-90465298D01*
X148618883Y-90465298D01*
X148654931Y-90450366D01*
X148682521Y-90422776D01*
X148697453Y-90386728D01*
X148699374Y-90367219D01*
X148699374Y-89943409D01*
X149070802Y-89943409D01*
X149070802Y-90367219D01*
X149072723Y-90386728D01*
X149087655Y-90422776D01*
X149115245Y-90450366D01*
X149151293Y-90465298D01*
X149190311Y-90465298D01*
X149226359Y-90450366D01*
X149253949Y-90422776D01*
X149268881Y-90386728D01*
X149270802Y-90367219D01*
X149270802Y-89966757D01*
X149548914Y-89966757D01*
X149548914Y-90005775D01*
X149563846Y-90041823D01*
X149591436Y-90069413D01*
X149627484Y-90084345D01*
X149646993Y-90086266D01*
X150408897Y-90086266D01*
X150428406Y-90084345D01*
X150464454Y-90069413D01*
X150492044Y-90041823D01*
X150506976Y-90005775D01*
X150506976Y-89966757D01*
X150492044Y-89930709D01*
X150464454Y-89903119D01*
X150428406Y-89888187D01*
X150408897Y-89886266D01*
X149646993Y-89886266D01*
X149627484Y-89888187D01*
X149591436Y-89903119D01*
X149563846Y-89930709D01*
X149548914Y-89966757D01*
X149270802Y-89966757D01*
X149270802Y-89367219D01*
X150785088Y-89367219D01*
X150785088Y-90367219D01*
X150787009Y-90386728D01*
X150801941Y-90422776D01*
X150829531Y-90450366D01*
X150865579Y-90465298D01*
X150904597Y-90465298D01*
X150931001Y-90454360D01*
X150935604Y-90456662D01*
X150953913Y-90463668D01*
X150957496Y-90463922D01*
X150960817Y-90465298D01*
X150980326Y-90467219D01*
X151170802Y-90467219D01*
X151190311Y-90465298D01*
X151193631Y-90463922D01*
X151197215Y-90463668D01*
X151215523Y-90456662D01*
X151310761Y-90409043D01*
X151319156Y-90403758D01*
X151321598Y-90402747D01*
X151324345Y-90400491D01*
X151327351Y-90398600D01*
X151329081Y-90396605D01*
X151336751Y-90390310D01*
X151384370Y-90342690D01*
X151390662Y-90335023D01*
X151392659Y-90333292D01*
X151394552Y-90330284D01*
X151396807Y-90327537D01*
X151397818Y-90325095D01*
X151403102Y-90316701D01*
X151450721Y-90221464D01*
X151457727Y-90203155D01*
X151457981Y-90199571D01*
X151459357Y-90196251D01*
X151461278Y-90176742D01*
X151461278Y-89891028D01*
X151459357Y-89871519D01*
X151457981Y-89868198D01*
X151457727Y-89864615D01*
X151450721Y-89846306D01*
X151403102Y-89751069D01*
X151397816Y-89742672D01*
X151396806Y-89740232D01*
X151394552Y-89737486D01*
X151392659Y-89734478D01*
X151390661Y-89732745D01*
X151384369Y-89725079D01*
X151340334Y-89681043D01*
X151548914Y-89681043D01*
X151548914Y-89720061D01*
X151563846Y-89756109D01*
X151591436Y-89783699D01*
X151627484Y-89798631D01*
X151646993Y-89800552D01*
X151718624Y-89800552D01*
X151778233Y-89830357D01*
X151802902Y-89855025D01*
X151832707Y-89914635D01*
X151832707Y-90367219D01*
X151834628Y-90386728D01*
X151849560Y-90422776D01*
X151877150Y-90450366D01*
X151913198Y-90465298D01*
X151952216Y-90465298D01*
X151988264Y-90450366D01*
X152015854Y-90422776D01*
X152030786Y-90386728D01*
X152032707Y-90367219D01*
X152032707Y-89843409D01*
X152308898Y-89843409D01*
X152308898Y-90367219D01*
X152310819Y-90386728D01*
X152325751Y-90422776D01*
X152353341Y-90450366D01*
X152389389Y-90465298D01*
X152428407Y-90465298D01*
X152454811Y-90454360D01*
X152459414Y-90456662D01*
X152477723Y-90463668D01*
X152481306Y-90463922D01*
X152484627Y-90465298D01*
X152504136Y-90467219D01*
X152742231Y-90467219D01*
X152761740Y-90465298D01*
X152765060Y-90463922D01*
X152768644Y-90463668D01*
X152786952Y-90456662D01*
X152882190Y-90409043D01*
X152885452Y-90406989D01*
X152886992Y-90406476D01*
X152888908Y-90404813D01*
X152898780Y-90398600D01*
X152906995Y-90389126D01*
X152916469Y-90380911D01*
X152922682Y-90371039D01*
X152924345Y-90369123D01*
X152924857Y-90367584D01*
X152926912Y-90364321D01*
X152974531Y-90269082D01*
X152981537Y-90250774D01*
X152981791Y-90247190D01*
X152983167Y-90243870D01*
X152985088Y-90224361D01*
X152985088Y-90129123D01*
X152983167Y-90109614D01*
X152981791Y-90106293D01*
X152981537Y-90102710D01*
X152974531Y-90084401D01*
X152926912Y-89989164D01*
X152924857Y-89985900D01*
X152924345Y-89984362D01*
X152922683Y-89982446D01*
X152916469Y-89972573D01*
X152906993Y-89964355D01*
X152898780Y-89954885D01*
X152888908Y-89948671D01*
X152886992Y-89947009D01*
X152885453Y-89946495D01*
X152882190Y-89944442D01*
X152786952Y-89896823D01*
X152771809Y-89891028D01*
X153166041Y-89891028D01*
X153166041Y-90176742D01*
X153167962Y-90196251D01*
X153169337Y-90199571D01*
X153169592Y-90203155D01*
X153176598Y-90221463D01*
X153224217Y-90316701D01*
X153229500Y-90325093D01*
X153230512Y-90327537D01*
X153232768Y-90330286D01*
X153234660Y-90333291D01*
X153236654Y-90335020D01*
X153242949Y-90342690D01*
X153290567Y-90390310D01*
X153298235Y-90396603D01*
X153299967Y-90398600D01*
X153302975Y-90400493D01*
X153305721Y-90402747D01*
X153308161Y-90403757D01*
X153316558Y-90409043D01*
X153411795Y-90456662D01*
X153430104Y-90463668D01*
X153433687Y-90463922D01*
X153437008Y-90465298D01*
X153456517Y-90467219D01*
X153599374Y-90467219D01*
X153618883Y-90465298D01*
X153622203Y-90463922D01*
X153625787Y-90463668D01*
X153644095Y-90456662D01*
X153739333Y-90409043D01*
X153747728Y-90403758D01*
X153750170Y-90402747D01*
X153752917Y-90400491D01*
X153755923Y-90398600D01*
X153757653Y-90396605D01*
X153765323Y-90390310D01*
X153812942Y-90342690D01*
X153819234Y-90335023D01*
X153821231Y-90333292D01*
X153823124Y-90330284D01*
X153825379Y-90327537D01*
X153826390Y-90325095D01*
X153831674Y-90316701D01*
X153879293Y-90221464D01*
X153886299Y-90203155D01*
X153886553Y-90199571D01*
X153887929Y-90196251D01*
X153889850Y-90176742D01*
X153889850Y-90033885D01*
X154070803Y-90033885D01*
X154070803Y-90176742D01*
X154072724Y-90196251D01*
X154074099Y-90199571D01*
X154074354Y-90203155D01*
X154081360Y-90221463D01*
X154128979Y-90316701D01*
X154134262Y-90325093D01*
X154135274Y-90327537D01*
X154137530Y-90330286D01*
X154139422Y-90333291D01*
X154141416Y-90335020D01*
X154147711Y-90342690D01*
X154195329Y-90390310D01*
X154202997Y-90396603D01*
X154204729Y-90398600D01*
X154207737Y-90400493D01*
X154210483Y-90402747D01*
X154212923Y-90403757D01*
X154221320Y-90409043D01*
X154316557Y-90456662D01*
X154334866Y-90463668D01*
X154338449Y-90463922D01*
X154341770Y-90465298D01*
X154361279Y-90467219D01*
X154742231Y-90467219D01*
X154761740Y-90465298D01*
X154797788Y-90450366D01*
X154825378Y-90422776D01*
X154840310Y-90386728D01*
X154842231Y-90367219D01*
X154842231Y-89367219D01*
X154840428Y-89348907D01*
X155024875Y-89348907D01*
X155025105Y-89367798D01*
X155025105Y-89386728D01*
X155025342Y-89387301D01*
X155025350Y-89387923D01*
X155031269Y-89406611D01*
X155459840Y-90406611D01*
X155469291Y-90423785D01*
X155497216Y-90451037D01*
X155533443Y-90465528D01*
X155572458Y-90465052D01*
X155608322Y-90449682D01*
X155635573Y-90421758D01*
X155650064Y-90385530D01*
X155649589Y-90346515D01*
X155643669Y-90327827D01*
X155509333Y-90014376D01*
X155977486Y-90014376D01*
X155977486Y-90053394D01*
X155992418Y-90089442D01*
X156020008Y-90117032D01*
X156056056Y-90131964D01*
X156075565Y-90133885D01*
X156118422Y-90133885D01*
X156118422Y-90367219D01*
X156120343Y-90386728D01*
X156135275Y-90422776D01*
X156162865Y-90450366D01*
X156198913Y-90465298D01*
X156237931Y-90465298D01*
X156273979Y-90450366D01*
X156301569Y-90422776D01*
X156316501Y-90386728D01*
X156318422Y-90367219D01*
X156318422Y-90133885D01*
X156694612Y-90133885D01*
X156704485Y-90132912D01*
X156707119Y-90133100D01*
X156709020Y-90132466D01*
X156714121Y-90131964D01*
X156728933Y-90125828D01*
X156744135Y-90120761D01*
X156746848Y-90118407D01*
X156750169Y-90117032D01*
X156761507Y-90105693D01*
X156773611Y-90095196D01*
X156775217Y-90091983D01*
X156777759Y-90089442D01*
X156783895Y-90074627D01*
X156791061Y-90060297D01*
X156791315Y-90056714D01*
X156792691Y-90053394D01*
X156792691Y-90037361D01*
X156793827Y-90021377D01*
X156792691Y-90016381D01*
X156792691Y-90014376D01*
X156791679Y-90011934D01*
X156789480Y-90002262D01*
X156736529Y-89843409D01*
X157023183Y-89843409D01*
X157023183Y-90367219D01*
X157025104Y-90386728D01*
X157040036Y-90422776D01*
X157067626Y-90450366D01*
X157103674Y-90465298D01*
X157142692Y-90465298D01*
X157178740Y-90450366D01*
X157206330Y-90422776D01*
X157221262Y-90386728D01*
X157223183Y-90367219D01*
X157223183Y-89867016D01*
X157245338Y-89822706D01*
X157289648Y-89800552D01*
X157385291Y-89800552D01*
X157429600Y-89822707D01*
X157451755Y-89867016D01*
X157451755Y-90367219D01*
X157453676Y-90386728D01*
X157468608Y-90422776D01*
X157496198Y-90450366D01*
X157532246Y-90465298D01*
X157571264Y-90465298D01*
X157607312Y-90450366D01*
X157634902Y-90422776D01*
X157649834Y-90386728D01*
X157651755Y-90367219D01*
X157651755Y-89867016D01*
X157673910Y-89822706D01*
X157718219Y-89800552D01*
X157813862Y-89800552D01*
X157873471Y-89830357D01*
X157880326Y-89837211D01*
X157880326Y-90367219D01*
X157882247Y-90386728D01*
X157897179Y-90422776D01*
X157924769Y-90450366D01*
X157960817Y-90465298D01*
X157999835Y-90465298D01*
X158035883Y-90450366D01*
X158063473Y-90422776D01*
X158078405Y-90386728D01*
X158080326Y-90367219D01*
X158080326Y-89700552D01*
X158078405Y-89681043D01*
X158063473Y-89644995D01*
X158035883Y-89617405D01*
X157999835Y-89602473D01*
X157960817Y-89602473D01*
X157924769Y-89617405D01*
X157914773Y-89627400D01*
X157882190Y-89611109D01*
X157863882Y-89604103D01*
X157860298Y-89603848D01*
X157856978Y-89602473D01*
X157837469Y-89600552D01*
X157694612Y-89600552D01*
X157675103Y-89602473D01*
X157671782Y-89603848D01*
X157668199Y-89604103D01*
X157649890Y-89611109D01*
X157554653Y-89658728D01*
X157551754Y-89660552D01*
X157548857Y-89658728D01*
X157453619Y-89611109D01*
X157435311Y-89604103D01*
X157431727Y-89603848D01*
X157428407Y-89602473D01*
X157408898Y-89600552D01*
X157266041Y-89600552D01*
X157246532Y-89602473D01*
X157243211Y-89603848D01*
X157239628Y-89604103D01*
X157221320Y-89611109D01*
X157126081Y-89658728D01*
X157122817Y-89660782D01*
X157121279Y-89661295D01*
X157119362Y-89662957D01*
X157109491Y-89669171D01*
X157101275Y-89678644D01*
X157091802Y-89686860D01*
X157085588Y-89696731D01*
X157083926Y-89698648D01*
X157083412Y-89700187D01*
X157081359Y-89703450D01*
X157033740Y-89798688D01*
X157026734Y-89816996D01*
X157026479Y-89820579D01*
X157025104Y-89823900D01*
X157023183Y-89843409D01*
X156736529Y-89843409D01*
X156551385Y-89287977D01*
X156543394Y-89270077D01*
X156517829Y-89240601D01*
X156482930Y-89223151D01*
X156444010Y-89220385D01*
X156406994Y-89232723D01*
X156377518Y-89258288D01*
X156360068Y-89293187D01*
X156357302Y-89332107D01*
X156361649Y-89351223D01*
X156555870Y-89933885D01*
X156318422Y-89933885D01*
X156318422Y-89700552D01*
X156316501Y-89681043D01*
X156301569Y-89644995D01*
X156273979Y-89617405D01*
X156237931Y-89602473D01*
X156198913Y-89602473D01*
X156162865Y-89617405D01*
X156135275Y-89644995D01*
X156120343Y-89681043D01*
X156118422Y-89700552D01*
X156118422Y-89933885D01*
X156075565Y-89933885D01*
X156056056Y-89935806D01*
X156020008Y-89950738D01*
X155992418Y-89978328D01*
X155977486Y-90014376D01*
X155509333Y-90014376D01*
X155274838Y-89467219D01*
X155789850Y-89467219D01*
X155809359Y-89465298D01*
X155845407Y-89450366D01*
X155872997Y-89422776D01*
X155887929Y-89386728D01*
X155887929Y-89347710D01*
X155872997Y-89311662D01*
X155845407Y-89284072D01*
X155809359Y-89269140D01*
X155789850Y-89267219D01*
X155123184Y-89267219D01*
X155103675Y-89269140D01*
X155103101Y-89269377D01*
X155102480Y-89269385D01*
X155085058Y-89276851D01*
X155067627Y-89284072D01*
X155067189Y-89284509D01*
X155066617Y-89284755D01*
X155053395Y-89298303D01*
X155040037Y-89311662D01*
X155039799Y-89312236D01*
X155039366Y-89312680D01*
X155032352Y-89330212D01*
X155025105Y-89347710D01*
X155025105Y-89348332D01*
X155024875Y-89348907D01*
X154840428Y-89348907D01*
X154840310Y-89347710D01*
X154825378Y-89311662D01*
X154797788Y-89284072D01*
X154761740Y-89269140D01*
X154742231Y-89267219D01*
X154408898Y-89267219D01*
X154389389Y-89269140D01*
X154386068Y-89270515D01*
X154382485Y-89270770D01*
X154364176Y-89277776D01*
X154268939Y-89325395D01*
X154260542Y-89330680D01*
X154258102Y-89331691D01*
X154255356Y-89333944D01*
X154252348Y-89335838D01*
X154250615Y-89337835D01*
X154242949Y-89344128D01*
X154195330Y-89391746D01*
X154189035Y-89399416D01*
X154187041Y-89401146D01*
X154185147Y-89404153D01*
X154182894Y-89406900D01*
X154181883Y-89409339D01*
X154176598Y-89417736D01*
X154128979Y-89512974D01*
X154121973Y-89531282D01*
X154121718Y-89534865D01*
X154120343Y-89538186D01*
X154118422Y-89557695D01*
X154118422Y-89652933D01*
X154120343Y-89672442D01*
X154121718Y-89675762D01*
X154121973Y-89679346D01*
X154128979Y-89697654D01*
X154176598Y-89792892D01*
X154181883Y-89801288D01*
X154182894Y-89803728D01*
X154185147Y-89806474D01*
X154187041Y-89809482D01*
X154189035Y-89811211D01*
X154195330Y-89818882D01*
X154196118Y-89819670D01*
X154195330Y-89820318D01*
X154147711Y-89867936D01*
X154141416Y-89875606D01*
X154139422Y-89877336D01*
X154137528Y-89880343D01*
X154135275Y-89883090D01*
X154134264Y-89885529D01*
X154128979Y-89893926D01*
X154081360Y-89989164D01*
X154074354Y-90007472D01*
X154074099Y-90011055D01*
X154072724Y-90014376D01*
X154070803Y-90033885D01*
X153889850Y-90033885D01*
X153889850Y-89891028D01*
X153887929Y-89871519D01*
X153886553Y-89868198D01*
X153886299Y-89864615D01*
X153879293Y-89846306D01*
X153831674Y-89751069D01*
X153826388Y-89742672D01*
X153825378Y-89740232D01*
X153823124Y-89737486D01*
X153821231Y-89734478D01*
X153819233Y-89732745D01*
X153812941Y-89725079D01*
X153765323Y-89677460D01*
X153757652Y-89671165D01*
X153755923Y-89669171D01*
X153752915Y-89667277D01*
X153750169Y-89665024D01*
X153747729Y-89664013D01*
X153739333Y-89658728D01*
X153644095Y-89611109D01*
X153625787Y-89604103D01*
X153622203Y-89603848D01*
X153618883Y-89602473D01*
X153599374Y-89600552D01*
X153456517Y-89600552D01*
X153437008Y-89602473D01*
X153433687Y-89603848D01*
X153430104Y-89604103D01*
X153411795Y-89611109D01*
X153316558Y-89658728D01*
X153308161Y-89664013D01*
X153305721Y-89665024D01*
X153302975Y-89667277D01*
X153299967Y-89669171D01*
X153298234Y-89671168D01*
X153290568Y-89677461D01*
X153242949Y-89725079D01*
X153236654Y-89732749D01*
X153234660Y-89734479D01*
X153232766Y-89737486D01*
X153230513Y-89740233D01*
X153229502Y-89742672D01*
X153224217Y-89751069D01*
X153176598Y-89846307D01*
X153169592Y-89864615D01*
X153169337Y-89868198D01*
X153167962Y-89871519D01*
X153166041Y-89891028D01*
X152771809Y-89891028D01*
X152768644Y-89889817D01*
X152765060Y-89889562D01*
X152761740Y-89888187D01*
X152742231Y-89886266D01*
X152527743Y-89886266D01*
X152508898Y-89876843D01*
X152508898Y-89867016D01*
X152531053Y-89822706D01*
X152575362Y-89800552D01*
X152718624Y-89800552D01*
X152792747Y-89837614D01*
X152811056Y-89844620D01*
X152849976Y-89847386D01*
X152886992Y-89835047D01*
X152916469Y-89809482D01*
X152933918Y-89774584D01*
X152936683Y-89735664D01*
X152924345Y-89698648D01*
X152898780Y-89669171D01*
X152882190Y-89658728D01*
X152786952Y-89611109D01*
X152768644Y-89604103D01*
X152765060Y-89603848D01*
X152761740Y-89602473D01*
X152742231Y-89600552D01*
X152551755Y-89600552D01*
X152532246Y-89602473D01*
X152528925Y-89603848D01*
X152525342Y-89604103D01*
X152507033Y-89611109D01*
X152411796Y-89658728D01*
X152408532Y-89660782D01*
X152406994Y-89661295D01*
X152405078Y-89662956D01*
X152395205Y-89669171D01*
X152386987Y-89678646D01*
X152377517Y-89686860D01*
X152371303Y-89696731D01*
X152369641Y-89698648D01*
X152369127Y-89700186D01*
X152367074Y-89703450D01*
X152319455Y-89798688D01*
X152312449Y-89816996D01*
X152312194Y-89820579D01*
X152310819Y-89823900D01*
X152308898Y-89843409D01*
X152032707Y-89843409D01*
X152032707Y-89700552D01*
X152030786Y-89681043D01*
X152015854Y-89644995D01*
X151988264Y-89617405D01*
X151952216Y-89602473D01*
X151913198Y-89602473D01*
X151877150Y-89617405D01*
X151851281Y-89643273D01*
X151786952Y-89611109D01*
X151768644Y-89604103D01*
X151765060Y-89603848D01*
X151761740Y-89602473D01*
X151742231Y-89600552D01*
X151646993Y-89600552D01*
X151627484Y-89602473D01*
X151591436Y-89617405D01*
X151563846Y-89644995D01*
X151548914Y-89681043D01*
X151340334Y-89681043D01*
X151336751Y-89677460D01*
X151329080Y-89671165D01*
X151327351Y-89669171D01*
X151324343Y-89667277D01*
X151321597Y-89665024D01*
X151319157Y-89664013D01*
X151310761Y-89658728D01*
X151215523Y-89611109D01*
X151197215Y-89604103D01*
X151193631Y-89603848D01*
X151190311Y-89602473D01*
X151170802Y-89600552D01*
X150985088Y-89600552D01*
X150985088Y-89367219D01*
X150983167Y-89347710D01*
X150968235Y-89311662D01*
X150940645Y-89284072D01*
X150904597Y-89269140D01*
X150865579Y-89269140D01*
X150829531Y-89284072D01*
X150801941Y-89311662D01*
X150787009Y-89347710D01*
X150785088Y-89367219D01*
X149270802Y-89367219D01*
X149268881Y-89347710D01*
X149253949Y-89311662D01*
X149226359Y-89284072D01*
X149190311Y-89269140D01*
X149151293Y-89269140D01*
X149115245Y-89284072D01*
X149087655Y-89311662D01*
X149072723Y-89347710D01*
X149070802Y-89367219D01*
X149070802Y-89743409D01*
X148699374Y-89743409D01*
X148699374Y-89367219D01*
X148697453Y-89347710D01*
X148682521Y-89311662D01*
X148654931Y-89284072D01*
X148618883Y-89269140D01*
X148579865Y-89269140D01*
X148543817Y-89284072D01*
X148516227Y-89311662D01*
X148501295Y-89347710D01*
X148499374Y-89367219D01*
X148223682Y-89367219D01*
X148222687Y-89357269D01*
X148221262Y-89350160D01*
X148221262Y-89347710D01*
X148220310Y-89345412D01*
X148218834Y-89338048D01*
X148211924Y-89325167D01*
X148206330Y-89311662D01*
X148202769Y-89308101D01*
X148200389Y-89303664D01*
X148189076Y-89294408D01*
X148178740Y-89284072D01*
X148174087Y-89282144D01*
X148170191Y-89278957D01*
X148156201Y-89274736D01*
X148142692Y-89269140D01*
X148135214Y-89268403D01*
X148132836Y-89267686D01*
X148130399Y-89267929D01*
X148123183Y-89267219D01*
X147646993Y-89267219D01*
X147627484Y-89269140D01*
X147591436Y-89284072D01*
X147563846Y-89311662D01*
X147548914Y-89347710D01*
X147548914Y-89386728D01*
X147563846Y-89422776D01*
X147591436Y-89450366D01*
X147627484Y-89465298D01*
X147646993Y-89467219D01*
X148032684Y-89467219D01*
X148051111Y-89651491D01*
X148050774Y-89651467D01*
X148047454Y-89650092D01*
X148027945Y-89648171D01*
X147789850Y-89648171D01*
X147770341Y-89650092D01*
X147767020Y-89651467D01*
X147763437Y-89651722D01*
X147745128Y-89658728D01*
X147649891Y-89706347D01*
X147641494Y-89711632D01*
X147639054Y-89712643D01*
X147636308Y-89714896D01*
X147633300Y-89716790D01*
X147631567Y-89718787D01*
X147623901Y-89725080D01*
X147576282Y-89772698D01*
X147569987Y-89780368D01*
X147567993Y-89782098D01*
X147566099Y-89785105D01*
X147563846Y-89787852D01*
X147562835Y-89790291D01*
X147557550Y-89798688D01*
X147509931Y-89893926D01*
X147502925Y-89912234D01*
X147502670Y-89915817D01*
X147501295Y-89919138D01*
X147499374Y-89938647D01*
X147318421Y-89938647D01*
X147318421Y-89748171D01*
X147318085Y-89744768D01*
X147318303Y-89743310D01*
X147317223Y-89736012D01*
X147316500Y-89728662D01*
X147315935Y-89727298D01*
X147315435Y-89723917D01*
X147267816Y-89533441D01*
X147267302Y-89532002D01*
X147267251Y-89531282D01*
X147264142Y-89523157D01*
X147261221Y-89514981D01*
X147260791Y-89514401D01*
X147260245Y-89512973D01*
X147212626Y-89417736D01*
X147207340Y-89409339D01*
X147206330Y-89406899D01*
X147204076Y-89404153D01*
X147202183Y-89401145D01*
X147200185Y-89399412D01*
X147193893Y-89391746D01*
X147146275Y-89344127D01*
X147138604Y-89337832D01*
X147136875Y-89335838D01*
X147133867Y-89333944D01*
X147131121Y-89331691D01*
X147128681Y-89330680D01*
X147120285Y-89325395D01*
X147025047Y-89277776D01*
X147006739Y-89270770D01*
X147003155Y-89270515D01*
X146999835Y-89269140D01*
X146980326Y-89267219D01*
X146885088Y-89267219D01*
X146865579Y-89269140D01*
X146862258Y-89270515D01*
X146858675Y-89270770D01*
X146840366Y-89277776D01*
X146745129Y-89325395D01*
X146736732Y-89330680D01*
X146734292Y-89331691D01*
X146731546Y-89333944D01*
X146728538Y-89335838D01*
X146726805Y-89337835D01*
X146719139Y-89344128D01*
X146671520Y-89391746D01*
X146665225Y-89399416D01*
X146663231Y-89401146D01*
X146661337Y-89404153D01*
X146659084Y-89406900D01*
X146658073Y-89409339D01*
X146652788Y-89417736D01*
X146605169Y-89512974D01*
X146604623Y-89514400D01*
X146604193Y-89514981D01*
X146601271Y-89523157D01*
X146598163Y-89531282D01*
X146598111Y-89532004D01*
X146597598Y-89533442D01*
X146549979Y-89723917D01*
X146549478Y-89727298D01*
X146548914Y-89728662D01*
X146548190Y-89736012D01*
X146547111Y-89743310D01*
X146547328Y-89744768D01*
X146546993Y-89748171D01*
X146126241Y-89748171D01*
X146127104Y-89735229D01*
X146126024Y-89732035D01*
X146126024Y-89728662D01*
X146119808Y-89713656D01*
X146114604Y-89698268D01*
X146111822Y-89694377D01*
X146111092Y-89692614D01*
X146109232Y-89690754D01*
X146103203Y-89682321D01*
X145914989Y-89467219D01*
X146313659Y-89467219D01*
X146333168Y-89465298D01*
X146369216Y-89450366D01*
X146396806Y-89422776D01*
X146411738Y-89386728D01*
X146411738Y-89347710D01*
X146396806Y-89311662D01*
X146369216Y-89284072D01*
X146333168Y-89269140D01*
X146313659Y-89267219D01*
X145694612Y-89267219D01*
X145684294Y-89268234D01*
X145681670Y-89268060D01*
X145679862Y-89268671D01*
X145675103Y-89269140D01*
X145660097Y-89275355D01*
X145644709Y-89280560D01*
X145642169Y-89282781D01*
X145639055Y-89284072D01*
X145627570Y-89295556D01*
X145615345Y-89306254D01*
X145613849Y-89309277D01*
X145611465Y-89311662D01*
X145605248Y-89326668D01*
X145598048Y-89341229D01*
X145597823Y-89344594D01*
X145596533Y-89347710D01*
X145596533Y-89363958D01*
X145595453Y-89380161D01*
X145596533Y-89383354D01*
X145596533Y-89386728D01*
X145602748Y-89401733D01*
X145607953Y-89417122D01*
X145610734Y-89421012D01*
X145611465Y-89422776D01*
X145613324Y-89424635D01*
X145619354Y-89433069D01*
X145823975Y-89666923D01*
X145745129Y-89706347D01*
X145736732Y-89711632D01*
X145734292Y-89712643D01*
X145731546Y-89714896D01*
X145728538Y-89716790D01*
X145726805Y-89718787D01*
X145719139Y-89725080D01*
X145671520Y-89772698D01*
X145665225Y-89780368D01*
X145663231Y-89782098D01*
X145661337Y-89785105D01*
X145659084Y-89787852D01*
X145658073Y-89790291D01*
X145652788Y-89798688D01*
X145605169Y-89893926D01*
X145598163Y-89912234D01*
X145597908Y-89915817D01*
X145596533Y-89919138D01*
X145594612Y-89938647D01*
X145483501Y-89938647D01*
X145483501Y-89109274D01*
X158191437Y-89109274D01*
X158191437Y-90578330D01*
G37*
D12*
G36*
X132465517Y-114500000D02*
G01*
X131672414Y-114500000D01*
X131672414Y-113706897D01*
X132465517Y-113706897D01*
X132465517Y-114500000D01*
G37*
G36*
X130086207Y-110534483D02*
G01*
X129293103Y-110534483D01*
X129293103Y-112120690D01*
X130879310Y-112120690D01*
X130879310Y-112913793D01*
X131672414Y-112913793D01*
X131672414Y-112120690D01*
X133258621Y-112120690D01*
X133258621Y-112913793D01*
X134051724Y-112913793D01*
X134051724Y-113706897D01*
X134051724Y-114500000D01*
X133258621Y-114500000D01*
X133258621Y-113706897D01*
X132465517Y-113706897D01*
X132465517Y-112913793D01*
X131672414Y-112913793D01*
X131672414Y-113706897D01*
X130086207Y-113706897D01*
X130086207Y-112913793D01*
X129293103Y-112913793D01*
X129293103Y-113706897D01*
X128500000Y-113706897D01*
X128500000Y-112913793D01*
X128500000Y-112120690D01*
X128500000Y-110534483D01*
X128500000Y-109741379D01*
X130086207Y-109741379D01*
X130086207Y-110534483D01*
G37*
G36*
X137224138Y-113706897D02*
G01*
X137224138Y-114500000D01*
X134844828Y-114500000D01*
X134844828Y-113706897D01*
X136431034Y-113706897D01*
X136431034Y-112913793D01*
X137224138Y-112913793D01*
X137224138Y-113706897D01*
G37*
G36*
X140396552Y-112913793D02*
G01*
X141982759Y-112913793D01*
X141982759Y-113706897D01*
X144362069Y-113706897D01*
X144362069Y-112913793D01*
X145155172Y-112913793D01*
X145155172Y-113706897D01*
X145155172Y-114500000D01*
X141189655Y-114500000D01*
X141189655Y-113706897D01*
X139603448Y-113706897D01*
X139603448Y-114500000D01*
X138017241Y-114500000D01*
X138017241Y-113706897D01*
X138810345Y-113706897D01*
X138810345Y-112913793D01*
X138810345Y-112120690D01*
X140396552Y-112120690D01*
X140396552Y-112913793D01*
G37*
G36*
X149913793Y-112913793D02*
G01*
X147534483Y-112913793D01*
X147534483Y-110534483D01*
X149913793Y-110534483D01*
X149913793Y-112913793D01*
G37*
G36*
X151500000Y-113706897D02*
G01*
X151500000Y-114500000D01*
X145948276Y-114500000D01*
X145948276Y-113706897D01*
X145948276Y-109741379D01*
X146741379Y-109741379D01*
X146741379Y-113706897D01*
X150706897Y-113706897D01*
X150706897Y-109741379D01*
X146741379Y-109741379D01*
X145948276Y-109741379D01*
X145948276Y-108948276D01*
X151500000Y-108948276D01*
X151500000Y-109741379D01*
X151500000Y-113706897D01*
G37*
G36*
X134051724Y-109741379D02*
G01*
X133258621Y-109741379D01*
X133258621Y-108948276D01*
X134051724Y-108948276D01*
X134051724Y-109741379D01*
G37*
G36*
X141189655Y-107362069D02*
G01*
X141189655Y-106568966D01*
X141982759Y-106568966D01*
X141982759Y-107362069D01*
X141982759Y-108155172D01*
X140396552Y-108155172D01*
X140396552Y-109741379D01*
X140396552Y-110534483D01*
X141189655Y-110534483D01*
X141189655Y-111327586D01*
X138810345Y-111327586D01*
X138810345Y-112120690D01*
X138017241Y-112120690D01*
X138017241Y-111327586D01*
X138017241Y-110534483D01*
X137224138Y-110534483D01*
X137224138Y-111327586D01*
X134844828Y-111327586D01*
X134844828Y-112120690D01*
X135637931Y-112120690D01*
X135637931Y-112913793D01*
X134051724Y-112913793D01*
X134051724Y-112120690D01*
X134051724Y-111327586D01*
X130879310Y-111327586D01*
X130879310Y-110534483D01*
X131672414Y-110534483D01*
X131672414Y-109741379D01*
X130879310Y-109741379D01*
X130879310Y-108155172D01*
X132465517Y-108155172D01*
X132465517Y-109741379D01*
X132465517Y-110534483D01*
X134844828Y-110534483D01*
X136431034Y-110534483D01*
X137224138Y-110534483D01*
X137224138Y-109741379D01*
X137224138Y-108948276D01*
X136431034Y-108948276D01*
X136431034Y-110534483D01*
X134844828Y-110534483D01*
X134844828Y-108948276D01*
X134844828Y-108155172D01*
X132465517Y-108155172D01*
X130879310Y-108155172D01*
X129293103Y-108155172D01*
X129293103Y-107362069D01*
X130086207Y-107362069D01*
X130086207Y-106568966D01*
X130879310Y-106568966D01*
X130879310Y-105775862D01*
X131672414Y-105775862D01*
X131672414Y-104982759D01*
X132465517Y-104982759D01*
X132465517Y-105775862D01*
X132465517Y-106568966D01*
X131672414Y-106568966D01*
X131672414Y-107362069D01*
X133258621Y-107362069D01*
X133258621Y-106568966D01*
X134051724Y-106568966D01*
X134051724Y-107362069D01*
X135637931Y-107362069D01*
X135637931Y-108155172D01*
X135637931Y-108948276D01*
X136431034Y-108948276D01*
X136431034Y-108155172D01*
X137224138Y-108155172D01*
X138017241Y-108155172D01*
X138017241Y-108948276D01*
X138017241Y-109741379D01*
X138810345Y-109741379D01*
X138810345Y-108155172D01*
X139603448Y-108155172D01*
X139603448Y-107362069D01*
X138810345Y-107362069D01*
X138810345Y-108155172D01*
X138017241Y-108155172D01*
X137224138Y-108155172D01*
X137224138Y-107362069D01*
X138017241Y-107362069D01*
X138017241Y-106568966D01*
X138810345Y-106568966D01*
X138810345Y-104982759D01*
X138810345Y-104189655D01*
X140396552Y-104189655D01*
X140396552Y-104982759D01*
X139603448Y-104982759D01*
X139603448Y-106568966D01*
X140396552Y-106568966D01*
X140396552Y-107362069D01*
X141189655Y-107362069D01*
G37*
G36*
X145155172Y-111327586D02*
G01*
X145155172Y-112120690D01*
X144362069Y-112120690D01*
X144362069Y-112913793D01*
X142775862Y-112913793D01*
X142775862Y-112120690D01*
X143568966Y-112120690D01*
X143568966Y-111327586D01*
X144362069Y-111327586D01*
X144362069Y-110534483D01*
X145155172Y-110534483D01*
X145155172Y-111327586D01*
G37*
G36*
X141982759Y-112120690D02*
G01*
X141189655Y-112120690D01*
X141189655Y-111327586D01*
X141982759Y-111327586D01*
X141982759Y-112120690D01*
G37*
G36*
X143568966Y-111327586D02*
G01*
X142775862Y-111327586D01*
X142775862Y-110534483D01*
X143568966Y-110534483D01*
X143568966Y-111327586D01*
G37*
G36*
X144362069Y-110534483D02*
G01*
X143568966Y-110534483D01*
X143568966Y-109741379D01*
X144362069Y-109741379D01*
X144362069Y-110534483D01*
G37*
G36*
X141982759Y-109741379D02*
G01*
X141189655Y-109741379D01*
X141189655Y-108948276D01*
X141982759Y-108948276D01*
X141982759Y-109741379D01*
G37*
G36*
X143568966Y-109741379D02*
G01*
X142775862Y-109741379D01*
X142775862Y-108948276D01*
X143568966Y-108948276D01*
X143568966Y-109741379D01*
G37*
G36*
X151500000Y-103396552D02*
G01*
X151500000Y-104189655D01*
X151500000Y-104982759D01*
X151500000Y-105775862D01*
X151500000Y-107362069D01*
X151500000Y-108155172D01*
X148327586Y-108155172D01*
X148327586Y-107362069D01*
X146741379Y-107362069D01*
X146741379Y-106568966D01*
X145948276Y-106568966D01*
X145948276Y-107362069D01*
X145155172Y-107362069D01*
X145155172Y-108948276D01*
X143568966Y-108948276D01*
X143568966Y-107362069D01*
X142775862Y-107362069D01*
X142775862Y-106568966D01*
X144362069Y-106568966D01*
X144362069Y-105775862D01*
X145155172Y-105775862D01*
X145155172Y-104982759D01*
X145948276Y-104982759D01*
X145948276Y-105775862D01*
X147534483Y-105775862D01*
X147534483Y-106568966D01*
X149120690Y-106568966D01*
X149120690Y-107362069D01*
X149913793Y-107362069D01*
X149913793Y-105775862D01*
X148327586Y-105775862D01*
X148327586Y-104982759D01*
X149913793Y-104982759D01*
X150706897Y-104982759D01*
X150706897Y-104189655D01*
X149913793Y-104189655D01*
X149913793Y-104982759D01*
X148327586Y-104982759D01*
X148327586Y-104189655D01*
X147534483Y-104189655D01*
X147534483Y-103396552D01*
X149120690Y-103396552D01*
X149120690Y-104189655D01*
X149913793Y-104189655D01*
X149913793Y-103396552D01*
X150706897Y-103396552D01*
X150706897Y-102603448D01*
X151500000Y-102603448D01*
X151500000Y-103396552D01*
G37*
G36*
X146741379Y-108155172D02*
G01*
X145948276Y-108155172D01*
X145948276Y-107362069D01*
X146741379Y-107362069D01*
X146741379Y-108155172D01*
G37*
G36*
X140396552Y-92293103D02*
G01*
X141189655Y-92293103D01*
X141189655Y-93086207D01*
X141982759Y-93086207D01*
X141982759Y-93879310D01*
X141982759Y-94672414D01*
X141189655Y-94672414D01*
X141189655Y-93879310D01*
X140396552Y-93879310D01*
X140396552Y-94672414D01*
X138017241Y-94672414D01*
X138017241Y-95465517D01*
X138810345Y-95465517D01*
X138810345Y-96258621D01*
X138810345Y-97844828D01*
X139603448Y-97844828D01*
X139603448Y-97051724D01*
X139603448Y-96258621D01*
X140396552Y-96258621D01*
X140396552Y-97051724D01*
X141189655Y-97051724D01*
X141189655Y-97844828D01*
X141189655Y-98637931D01*
X141982759Y-98637931D01*
X141982759Y-97844828D01*
X141982759Y-97051724D01*
X142775862Y-97051724D01*
X142775862Y-95465517D01*
X143568966Y-95465517D01*
X143568966Y-97051724D01*
X143568966Y-97844828D01*
X144362069Y-97844828D01*
X144362069Y-98637931D01*
X144362069Y-99431034D01*
X143568966Y-99431034D01*
X143568966Y-98637931D01*
X141982759Y-98637931D01*
X141982759Y-99431034D01*
X139603448Y-99431034D01*
X139603448Y-100224138D01*
X141982759Y-100224138D01*
X141982759Y-99431034D01*
X143568966Y-99431034D01*
X143568966Y-100224138D01*
X144362069Y-100224138D01*
X144362069Y-101017241D01*
X144362069Y-101810345D01*
X145948276Y-101810345D01*
X145948276Y-101017241D01*
X146741379Y-101017241D01*
X146741379Y-100224138D01*
X145155172Y-100224138D01*
X145155172Y-99431034D01*
X148327586Y-99431034D01*
X148327586Y-100224138D01*
X148327586Y-101017241D01*
X148327586Y-101810345D01*
X149120690Y-101810345D01*
X149120690Y-102603448D01*
X146741379Y-102603448D01*
X146741379Y-101810345D01*
X145948276Y-101810345D01*
X145948276Y-102603448D01*
X146741379Y-102603448D01*
X146741379Y-103396552D01*
X144362069Y-103396552D01*
X144362069Y-102603448D01*
X143568966Y-102603448D01*
X143568966Y-101810345D01*
X143568966Y-101017241D01*
X142775862Y-101017241D01*
X142775862Y-101810345D01*
X141189655Y-101810345D01*
X141189655Y-101017241D01*
X139603448Y-101017241D01*
X139603448Y-101810345D01*
X139603448Y-102603448D01*
X140396552Y-102603448D01*
X140396552Y-103396552D01*
X138810345Y-103396552D01*
X138810345Y-102603448D01*
X138017241Y-102603448D01*
X138017241Y-103396552D01*
X137224138Y-103396552D01*
X137224138Y-104189655D01*
X137224138Y-104982759D01*
X137224138Y-105775862D01*
X136431034Y-105775862D01*
X136431034Y-107362069D01*
X135637931Y-107362069D01*
X135637931Y-105775862D01*
X135637931Y-104982759D01*
X134051724Y-104982759D01*
X134051724Y-104189655D01*
X135637931Y-104189655D01*
X135637931Y-103396552D01*
X133258621Y-103396552D01*
X133258621Y-104189655D01*
X131672414Y-104189655D01*
X131672414Y-103396552D01*
X132465517Y-103396552D01*
X133258621Y-103396552D01*
X133258621Y-102603448D01*
X132465517Y-102603448D01*
X132465517Y-103396552D01*
X131672414Y-103396552D01*
X131672414Y-102603448D01*
X130879310Y-102603448D01*
X130879310Y-104189655D01*
X130086207Y-104189655D01*
X130086207Y-102603448D01*
X129293103Y-102603448D01*
X129293103Y-104189655D01*
X128500000Y-104189655D01*
X128500000Y-102603448D01*
X128500000Y-101810345D01*
X128500000Y-100224138D01*
X129293103Y-100224138D01*
X129293103Y-101810345D01*
X132465517Y-101810345D01*
X132465517Y-101017241D01*
X132465517Y-100224138D01*
X131672414Y-100224138D01*
X131672414Y-98637931D01*
X133258621Y-98637931D01*
X133258621Y-100224138D01*
X135637931Y-100224138D01*
X135637931Y-101017241D01*
X135637931Y-101810345D01*
X134844828Y-101810345D01*
X134844828Y-101017241D01*
X134051724Y-101017241D01*
X134051724Y-101810345D01*
X134051724Y-102603448D01*
X138017241Y-102603448D01*
X138017241Y-101810345D01*
X138810345Y-101810345D01*
X138810345Y-101017241D01*
X137224138Y-101017241D01*
X137224138Y-100224138D01*
X138810345Y-100224138D01*
X138810345Y-99431034D01*
X138810345Y-98637931D01*
X139603448Y-98637931D01*
X140396552Y-98637931D01*
X140396552Y-97844828D01*
X139603448Y-97844828D01*
X139603448Y-98637931D01*
X138810345Y-98637931D01*
X137224138Y-98637931D01*
X137224138Y-97844828D01*
X138017241Y-97844828D01*
X138017241Y-96258621D01*
X137224138Y-96258621D01*
X137224138Y-95465517D01*
X137224138Y-94672414D01*
X137224138Y-93879310D01*
X138810345Y-93879310D01*
X138810345Y-93086207D01*
X139603448Y-93086207D01*
X139603448Y-93879310D01*
X140396552Y-93879310D01*
X140396552Y-93086207D01*
X139603448Y-93086207D01*
X139603448Y-92293103D01*
X138810345Y-92293103D01*
X138810345Y-91500000D01*
X140396552Y-91500000D01*
X140396552Y-92293103D01*
G37*
G36*
X129293103Y-106568966D02*
G01*
X128500000Y-106568966D01*
X128500000Y-105775862D01*
X129293103Y-105775862D01*
X129293103Y-106568966D01*
G37*
G36*
X143568966Y-105775862D02*
G01*
X142775862Y-105775862D01*
X142775862Y-106568966D01*
X141982759Y-106568966D01*
X141982759Y-105775862D01*
X140396552Y-105775862D01*
X140396552Y-104982759D01*
X143568966Y-104982759D01*
X143568966Y-105775862D01*
G37*
G36*
X130879310Y-105775862D02*
G01*
X129293103Y-105775862D01*
X129293103Y-104982759D01*
X130879310Y-104982759D01*
X130879310Y-105775862D01*
G37*
G36*
X131672414Y-104982759D02*
G01*
X130879310Y-104982759D01*
X130879310Y-104189655D01*
X131672414Y-104189655D01*
X131672414Y-104982759D01*
G37*
G36*
X145155172Y-104982759D02*
G01*
X144362069Y-104982759D01*
X144362069Y-104189655D01*
X145155172Y-104189655D01*
X145155172Y-104982759D01*
G37*
G36*
X147534483Y-104982759D02*
G01*
X145948276Y-104982759D01*
X145948276Y-104189655D01*
X147534483Y-104189655D01*
X147534483Y-104982759D01*
G37*
G36*
X138810345Y-104189655D02*
G01*
X138017241Y-104189655D01*
X138017241Y-103396552D01*
X138810345Y-103396552D01*
X138810345Y-104189655D01*
G37*
G36*
X143568966Y-103396552D02*
G01*
X142775862Y-103396552D01*
X142775862Y-104189655D01*
X141982759Y-104189655D01*
X141982759Y-103396552D01*
X141189655Y-103396552D01*
X141189655Y-102603448D01*
X143568966Y-102603448D01*
X143568966Y-103396552D01*
G37*
G36*
X141189655Y-102603448D02*
G01*
X140396552Y-102603448D01*
X140396552Y-101810345D01*
X141189655Y-101810345D01*
X141189655Y-102603448D01*
G37*
G36*
X137224138Y-101810345D02*
G01*
X136431034Y-101810345D01*
X136431034Y-101017241D01*
X137224138Y-101017241D01*
X137224138Y-101810345D01*
G37*
G36*
X151500000Y-101017241D02*
G01*
X150706897Y-101017241D01*
X150706897Y-101810345D01*
X149120690Y-101810345D01*
X149120690Y-101017241D01*
X149120690Y-100224138D01*
X151500000Y-100224138D01*
X151500000Y-101017241D01*
G37*
G36*
X131672414Y-101017241D02*
G01*
X130879310Y-101017241D01*
X130879310Y-100224138D01*
X131672414Y-100224138D01*
X131672414Y-101017241D01*
G37*
G36*
X130879310Y-99431034D02*
G01*
X130879310Y-100224138D01*
X130086207Y-100224138D01*
X130086207Y-99431034D01*
X129293103Y-99431034D01*
X129293103Y-98637931D01*
X130879310Y-98637931D01*
X130879310Y-99431034D01*
G37*
G36*
X137224138Y-100224138D02*
G01*
X136431034Y-100224138D01*
X136431034Y-99431034D01*
X137224138Y-99431034D01*
X137224138Y-100224138D01*
G37*
G36*
X136431034Y-97844828D02*
G01*
X136431034Y-98637931D01*
X136431034Y-99431034D01*
X134051724Y-99431034D01*
X134051724Y-98637931D01*
X134844828Y-98637931D01*
X134844828Y-97844828D01*
X135637931Y-97844828D01*
X135637931Y-97051724D01*
X136431034Y-97051724D01*
X136431034Y-97844828D01*
G37*
G36*
X151500000Y-98637931D02*
G01*
X151500000Y-99431034D01*
X149120690Y-99431034D01*
X149120690Y-98637931D01*
X149913793Y-98637931D01*
X149913793Y-97844828D01*
X151500000Y-97844828D01*
X151500000Y-98637931D01*
G37*
G36*
X129293103Y-98637931D02*
G01*
X128500000Y-98637931D01*
X128500000Y-97844828D01*
X129293103Y-97844828D01*
X129293103Y-98637931D01*
G37*
G36*
X134051724Y-98637931D02*
G01*
X133258621Y-98637931D01*
X133258621Y-97844828D01*
X134051724Y-97844828D01*
X134051724Y-98637931D01*
G37*
G36*
X146741379Y-98637931D02*
G01*
X145948276Y-98637931D01*
X145948276Y-97844828D01*
X146741379Y-97844828D01*
X146741379Y-98637931D01*
G37*
G36*
X149120690Y-98637931D02*
G01*
X147534483Y-98637931D01*
X147534483Y-97844828D01*
X149120690Y-97844828D01*
X149120690Y-98637931D01*
G37*
G36*
X145155172Y-97844828D02*
G01*
X144362069Y-97844828D01*
X144362069Y-96258621D01*
X145155172Y-96258621D01*
X145155172Y-97844828D01*
G37*
G36*
X132465517Y-95465517D02*
G01*
X130086207Y-95465517D01*
X130086207Y-93086207D01*
X132465517Y-93086207D01*
X132465517Y-95465517D01*
G37*
G36*
X134051724Y-96258621D02*
G01*
X134051724Y-97051724D01*
X128500000Y-97051724D01*
X128500000Y-96258621D01*
X128500000Y-92293103D01*
X129293103Y-92293103D01*
X129293103Y-96258621D01*
X133258621Y-96258621D01*
X133258621Y-92293103D01*
X129293103Y-92293103D01*
X128500000Y-92293103D01*
X128500000Y-91500000D01*
X134051724Y-91500000D01*
X134051724Y-92293103D01*
X134051724Y-96258621D01*
G37*
G36*
X135637931Y-97051724D02*
G01*
X134844828Y-97051724D01*
X134844828Y-96258621D01*
X135637931Y-96258621D01*
X135637931Y-97051724D01*
G37*
G36*
X137224138Y-97051724D02*
G01*
X136431034Y-97051724D01*
X136431034Y-96258621D01*
X137224138Y-96258621D01*
X137224138Y-97051724D01*
G37*
G36*
X141982759Y-97051724D02*
G01*
X141189655Y-97051724D01*
X141189655Y-95465517D01*
X141982759Y-95465517D01*
X141982759Y-97051724D01*
G37*
G36*
X149913793Y-95465517D02*
G01*
X147534483Y-95465517D01*
X147534483Y-93086207D01*
X149913793Y-93086207D01*
X149913793Y-95465517D01*
G37*
G36*
X151500000Y-96258621D02*
G01*
X151500000Y-97051724D01*
X145948276Y-97051724D01*
X145948276Y-96258621D01*
X145948276Y-92293103D01*
X146741379Y-92293103D01*
X146741379Y-96258621D01*
X150706897Y-96258621D01*
X150706897Y-92293103D01*
X146741379Y-92293103D01*
X145948276Y-92293103D01*
X145948276Y-91500000D01*
X151500000Y-91500000D01*
X151500000Y-92293103D01*
X151500000Y-96258621D01*
G37*
G36*
X136431034Y-95465517D02*
G01*
X134844828Y-95465517D01*
X134844828Y-94672414D01*
X136431034Y-94672414D01*
X136431034Y-95465517D01*
G37*
G36*
X142775862Y-95465517D02*
G01*
X141982759Y-95465517D01*
X141982759Y-94672414D01*
X142775862Y-94672414D01*
X142775862Y-95465517D01*
G37*
G36*
X144362069Y-95465517D02*
G01*
X143568966Y-95465517D01*
X143568966Y-94672414D01*
X144362069Y-94672414D01*
X144362069Y-95465517D01*
G37*
G36*
X135637931Y-93879310D02*
G01*
X134844828Y-93879310D01*
X134844828Y-93086207D01*
X135637931Y-93086207D01*
X135637931Y-93879310D01*
G37*
G36*
X144362069Y-93086207D02*
G01*
X143568966Y-93086207D01*
X143568966Y-93879310D01*
X142775862Y-93879310D01*
X142775862Y-93086207D01*
X142775862Y-92293103D01*
X144362069Y-92293103D01*
X144362069Y-93086207D01*
G37*
G36*
X136431034Y-93086207D02*
G01*
X135637931Y-93086207D01*
X135637931Y-92293103D01*
X136431034Y-92293103D01*
X136431034Y-93086207D01*
G37*
G36*
X138810345Y-93086207D02*
G01*
X138017241Y-93086207D01*
X138017241Y-92293103D01*
X138810345Y-92293103D01*
X138810345Y-93086207D01*
G37*
G36*
X138017241Y-92293103D02*
G01*
X136431034Y-92293103D01*
X136431034Y-91500000D01*
X138017241Y-91500000D01*
X138017241Y-92293103D01*
G37*
G36*
X142775862Y-92293103D02*
G01*
X141189655Y-92293103D01*
X141189655Y-91500000D01*
X142775862Y-91500000D01*
X142775862Y-92293103D01*
G37*
G36*
X145155172Y-92293103D02*
G01*
X144362069Y-92293103D01*
X144362069Y-91500000D01*
X145155172Y-91500000D01*
X145155172Y-92293103D01*
G37*
M02*
