%TF.GenerationSoftware,KiCad,Pcbnew,10.0.6-10.0.6~ubuntu26.04.1*%
%TF.CreationDate,2026-09-05T15:40:25+02:00*%
%TF.ProjectId,m47Board-H503,6d343742-6f61-4726-942d-483530332e6b,0.0.0*%
%TF.SameCoordinates,Original*%
%TF.FileFunction,Copper,L4,Bot*%
%TF.FilePolarity,Positive*%
%FSLAX46Y46*%
G04 Gerber Fmt 4.6, Leading zero omitted, Abs format (unit mm)*
G04 Created by KiCad (PCBNEW 10.0.6-10.0.6~ubuntu26.04.1) date 2026-09-05 15:40:25*
%MOMM*%
%LPD*%
G01*
G04 APERTURE LIST*
%TA.AperFunction,ComponentPad*%
%ADD10R,1.700000X1.700000*%
%TD*%
%TA.AperFunction,ComponentPad*%
%ADD11C,1.700000*%
%TD*%
%TA.AperFunction,ComponentPad*%
%ADD12O,2.100000X1.000000*%
%TD*%
%TA.AperFunction,ComponentPad*%
%ADD13O,1.800000X1.000000*%
%TD*%
%TA.AperFunction,ViaPad*%
%ADD14C,0.450000*%
%TD*%
%TA.AperFunction,Conductor*%
%ADD15C,0.200000*%
%TD*%
G04 APERTURE END LIST*
D10*
%TO.P,J3,1,Pin_1_1*%
%TO.N,+3.3V*%
X157340000Y-87770000D03*
D11*
%TO.P,J3,2,Pin_2_2*%
%TO.N,GND*%
X154800000Y-87770000D03*
%TO.P,J3,3,Pin_3_3*%
%TO.N,/SWDIO*%
X152260000Y-87770000D03*
%TO.P,J3,4,Pin_4_4*%
%TO.N,/SWCLK*%
X149720000Y-87770000D03*
%TO.P,J3,5,Pin_5_5*%
%TO.N,/NRST*%
X147180000Y-87770000D03*
%TO.P,J3,6,Pin_6_6*%
%TO.N,/PA15*%
X144640000Y-87770000D03*
%TO.P,J3,7,Pin_7_7*%
%TO.N,/PB3*%
X142100000Y-87770000D03*
%TO.P,J3,8,Pin_8_8*%
%TO.N,/PB4*%
X139560000Y-87770000D03*
%TO.P,J3,9,Pin_9_9*%
%TO.N,/PB5*%
X137020000Y-87770000D03*
%TO.P,J3,10,Pin_10_10*%
%TO.N,/PB6*%
X134480000Y-87770000D03*
%TO.P,J3,11,Pin_11_11*%
%TO.N,/PB7*%
X131940000Y-87770000D03*
%TO.P,J3,12,Pin_12_12*%
%TO.N,/PB8*%
X129400000Y-87770000D03*
%TO.P,J3,13,Pin_13_13*%
%TO.N,/PC13*%
X126860000Y-87770000D03*
%TO.P,J3,14,Pin_14_14*%
%TO.N,GND*%
X124320000Y-87770000D03*
%TO.P,J3,15,Pin_15_15*%
%TO.N,+3.3V*%
X121780000Y-87770000D03*
%TD*%
D12*
%TO.P,J1,SH,SHIELD_SH*%
%TO.N,GND*%
X153220000Y-107180000D03*
D13*
X157400000Y-107180000D03*
D12*
X153220000Y-98540000D03*
D13*
X157400000Y-98540000D03*
%TD*%
D10*
%TO.P,J5,1,Pin_1_1*%
%TO.N,+3.3V*%
X121780000Y-118230000D03*
D11*
%TO.P,J5,2,Pin_2_2*%
%TO.N,GND*%
X124320000Y-118230000D03*
%TO.P,J5,3,Pin_3_3*%
%TO.N,/PB0*%
X126860000Y-118230000D03*
%TO.P,J5,4,Pin_4_4*%
%TO.N,/PB1*%
X129400000Y-118230000D03*
%TO.P,J5,5,Pin_5_5*%
%TO.N,/PB2*%
X131940000Y-118230000D03*
%TO.P,J5,6,Pin_6_6*%
%TO.N,/PB10*%
X134480000Y-118230000D03*
%TO.P,J5,7,Pin_7_7*%
%TO.N,/PB12*%
X137020000Y-118230000D03*
%TO.P,J5,8,Pin_8_8*%
%TO.N,/PB13*%
X139560000Y-118230000D03*
%TO.P,J5,9,Pin_9_9*%
%TO.N,/PB14*%
X142100000Y-118230000D03*
%TO.P,J5,10,Pin_10_10*%
%TO.N,/PB15*%
X144640000Y-118230000D03*
%TO.P,J5,11,Pin_11_11*%
%TO.N,/PA8*%
X147180000Y-118230000D03*
%TO.P,J5,12,Pin_12_12*%
%TO.N,/PA9*%
X149720000Y-118230000D03*
%TO.P,J5,13,Pin_13_13*%
%TO.N,/PA10*%
X152260000Y-118230000D03*
%TO.P,J5,14,Pin_14_14*%
%TO.N,GND*%
X154800000Y-118230000D03*
%TO.P,J5,15,Pin_15_15*%
%TO.N,VBUS*%
X157340000Y-118230000D03*
%TD*%
D10*
%TO.P,J4,1,Pin_1_1*%
%TO.N,Net-(J4-Pin_1)*%
X121770000Y-91570000D03*
D11*
%TO.P,J4,2,Pin_2_2*%
%TO.N,Net-(J4-Pin_2)*%
X121770000Y-94110000D03*
%TO.P,J4,3,Pin_3_3*%
%TO.N,/PA0*%
X121770000Y-96650000D03*
%TO.P,J4,4,Pin_4_4*%
%TO.N,/PA1*%
X121770000Y-99190000D03*
%TO.P,J4,5,Pin_5_5*%
%TO.N,/PA2*%
X121770000Y-101730000D03*
%TO.P,J4,6,Pin_6_6*%
%TO.N,/PA3*%
X121770000Y-104270000D03*
%TO.P,J4,7,Pin_7_7*%
%TO.N,/PA4*%
X121770000Y-106810000D03*
%TO.P,J4,8,Pin_8_8*%
%TO.N,/PA5*%
X121770000Y-109350000D03*
%TO.P,J4,9,Pin_9_9*%
%TO.N,/PA6*%
X121770000Y-111890000D03*
%TO.P,J4,10,Pin_10_10*%
%TO.N,/PA7*%
X121770000Y-114430000D03*
%TD*%
D14*
%TO.N,GND*%
X150900000Y-94510000D03*
X156180000Y-107180000D03*
X128250000Y-91440000D03*
X151880000Y-99240000D03*
X144200000Y-111050000D03*
X147805000Y-98005000D03*
X146950000Y-111860000D03*
X130400000Y-103400000D03*
X158610000Y-96670000D03*
X147010000Y-100060000D03*
X152920000Y-112530000D03*
X156520000Y-111530000D03*
X154650000Y-107180000D03*
X134470000Y-91480000D03*
X135240000Y-104610000D03*
X139220000Y-97420000D03*
X152940000Y-111530000D03*
X134480000Y-114620000D03*
X131370000Y-98790000D03*
X152100000Y-92850000D03*
X150180000Y-107710000D03*
X128220000Y-114620000D03*
X133980000Y-98440000D03*
X147960000Y-105850000D03*
X127910000Y-97590000D03*
X158600000Y-94410000D03*
X138240000Y-112660000D03*
X154570000Y-98540000D03*
X150170000Y-98090000D03*
X131320000Y-103380000D03*
X156520000Y-112530000D03*
X155660000Y-94460000D03*
X145250000Y-108870000D03*
X156100000Y-98540000D03*
X149080000Y-102430000D03*
X134425000Y-107525000D03*
X155690000Y-96610000D03*
X128700000Y-107750000D03*
X142681250Y-110318750D03*
X140970000Y-115680000D03*
X150225000Y-112710000D03*
X151740000Y-106350000D03*
X150250000Y-110860000D03*
X133985000Y-99680000D03*
X131270000Y-107550000D03*
%TO.N,+3.3V*%
X137860000Y-90210000D03*
X147510000Y-91440000D03*
X153010000Y-114830000D03*
X143530000Y-115690000D03*
X135310000Y-100270000D03*
X144350000Y-100030000D03*
X146970000Y-107780000D03*
X133820000Y-106090000D03*
X141230000Y-91430000D03*
X144300000Y-109170000D03*
X136952500Y-98520000D03*
X153020000Y-113830000D03*
X137550000Y-109300000D03*
%TO.N,/SWDIO*%
X146340000Y-101790000D03*
%TO.N,/SWCLK*%
X143280000Y-98560000D03*
%TO.N,/PA15*%
X142780000Y-101320000D03*
%TO.N,/PB3*%
X142270000Y-100820000D03*
%TO.N,/PB4*%
X141780000Y-101300000D03*
%TO.N,/PB5*%
X141280000Y-100850000D03*
%TO.N,/PB6*%
X140780000Y-101280000D03*
%TO.N,/PB7*%
X140270000Y-100840000D03*
%TO.N,/PB8*%
X139270000Y-100820000D03*
%TO.N,VBUS*%
X151720000Y-105390000D03*
X151700000Y-96650000D03*
X151675000Y-94400000D03*
X152960000Y-110230000D03*
X152990000Y-109230000D03*
X158787500Y-92462500D03*
X154490000Y-94440000D03*
X151780000Y-100180000D03*
X154520000Y-96620000D03*
X149284619Y-103144619D03*
%TO.N,/PB0*%
X140277500Y-106372500D03*
%TO.N,/PB1*%
X140780000Y-106870000D03*
%TO.N,/PB2*%
X141277500Y-106372500D03*
%TO.N,/PB10*%
X141777500Y-106862500D03*
%TO.N,/PB12*%
X143560000Y-106600000D03*
%TO.N,/PB13*%
X143050000Y-106110000D03*
%TO.N,/PB14*%
X143570000Y-105610000D03*
%TO.N,/PB15*%
X143060000Y-105110000D03*
%TO.N,/PA8*%
X143570000Y-104620000D03*
%TO.N,/PA9*%
X143080000Y-104110000D03*
%TO.N,/PA10*%
X143570000Y-103610000D03*
%TO.N,/PA5*%
X138780000Y-106900000D03*
%TO.N,/PA0*%
X137950000Y-105610000D03*
%TO.N,/PA1*%
X137480000Y-106110000D03*
%TO.N,/PA2*%
X135260000Y-106610000D03*
%TO.N,/PA3*%
X137775236Y-106900236D03*
%TO.N,/PA4*%
X138280000Y-106370000D03*
%TO.N,/PA6*%
X139277500Y-106360000D03*
%TO.N,/PA7*%
X139777500Y-106902500D03*
%TD*%
%TO.N,/SWDIO*%
D15*
X152260000Y-87770000D02*
X146350000Y-93680000D01*
X146350000Y-93680000D02*
X146350000Y-101780000D01*
X146350000Y-101780000D02*
X146340000Y-101790000D01*
%TO.N,/SWCLK*%
X143280000Y-98560000D02*
X143280000Y-94210000D01*
X143280000Y-94210000D02*
X149720000Y-87770000D01*
%TO.N,/PA15*%
X142780000Y-89630000D02*
X144640000Y-87770000D01*
X142780000Y-101320000D02*
X142780000Y-89630000D01*
%TO.N,/PB3*%
X142270000Y-100820000D02*
X142270000Y-87940000D01*
X142270000Y-87940000D02*
X142100000Y-87770000D01*
%TO.N,/PB4*%
X141780000Y-89990000D02*
X139560000Y-87770000D01*
X141780000Y-101300000D02*
X141780000Y-89990000D01*
%TO.N,/PB5*%
X137020000Y-87770000D02*
X137020000Y-88470000D01*
X141280000Y-92730000D02*
X141280000Y-100850000D01*
X137020000Y-88470000D02*
X141280000Y-92730000D01*
%TO.N,/PB6*%
X134480000Y-87770000D02*
X140780000Y-94070000D01*
X140780000Y-94070000D02*
X140780000Y-101280000D01*
%TO.N,/PB7*%
X140270000Y-100840000D02*
X140270000Y-96100000D01*
X140270000Y-96100000D02*
X131940000Y-87770000D01*
%TO.N,/PB8*%
X129400000Y-87770000D02*
X138230000Y-96600000D01*
X138230000Y-99780000D02*
X139270000Y-100820000D01*
X138230000Y-96600000D02*
X138230000Y-99780000D01*
%TO.N,/PB0*%
X126860000Y-118230000D02*
X132065000Y-113025000D01*
X140277500Y-109822500D02*
X140277500Y-106372500D01*
X132065000Y-113025000D02*
X137075000Y-113025000D01*
X137075000Y-113025000D02*
X140277500Y-109822500D01*
%TO.N,/PB1*%
X136725000Y-115150000D02*
X132480000Y-115150000D01*
X140780000Y-111095000D02*
X136725000Y-115150000D01*
X140780000Y-106870000D02*
X140780000Y-111095000D01*
X132480000Y-115150000D02*
X129400000Y-118230000D01*
%TO.N,/PB2*%
X141277500Y-106372500D02*
X141277500Y-111572500D01*
X134345000Y-115825000D02*
X131940000Y-118230000D01*
X141277500Y-111572500D02*
X137025000Y-115825000D01*
X137025000Y-115825000D02*
X134345000Y-115825000D01*
%TO.N,/PB10*%
X136060000Y-116650000D02*
X134480000Y-118230000D01*
X137250000Y-116650000D02*
X136060000Y-116650000D01*
X141777500Y-106862500D02*
X141777500Y-112122500D01*
X141777500Y-112122500D02*
X137250000Y-116650000D01*
%TO.N,/PB12*%
X143560000Y-111690000D02*
X137020000Y-118230000D01*
X143560000Y-106600000D02*
X143560000Y-111690000D01*
%TO.N,/PB13*%
X146025000Y-111765000D02*
X139560000Y-118230000D01*
X143050000Y-106110000D02*
X144470000Y-106110000D01*
X146025000Y-107665000D02*
X146025000Y-111765000D01*
X144470000Y-106110000D02*
X146025000Y-107665000D01*
%TO.N,/PB14*%
X146035000Y-105610000D02*
X147920000Y-107495000D01*
X147920000Y-107495000D02*
X147920000Y-112410000D01*
X147920000Y-112410000D02*
X142100000Y-118230000D01*
X143570000Y-105610000D02*
X146035000Y-105610000D01*
%TO.N,/PB15*%
X146510000Y-105110000D02*
X143060000Y-105110000D01*
X148525000Y-107125000D02*
X146510000Y-105110000D01*
X144640000Y-118230000D02*
X148525000Y-114345000D01*
X148525000Y-114345000D02*
X148525000Y-107125000D01*
%TO.N,/PA8*%
X143570000Y-104620000D02*
X147401752Y-104620000D01*
X147401752Y-104620000D02*
X149125000Y-106343248D01*
X149125000Y-106343248D02*
X149125000Y-116285000D01*
X149125000Y-116285000D02*
X147180000Y-118230000D01*
%TO.N,/PA9*%
X149705000Y-106255000D02*
X149705000Y-118215000D01*
X147560000Y-104110000D02*
X149705000Y-106255000D01*
X143080000Y-104110000D02*
X147560000Y-104110000D01*
X149705000Y-118215000D02*
X149720000Y-118230000D01*
%TO.N,/PA10*%
X147810000Y-103610000D02*
X152260000Y-108060000D01*
X152260000Y-108060000D02*
X152260000Y-118230000D01*
X143570000Y-103610000D02*
X147810000Y-103610000D01*
%TO.N,/PA5*%
X122620000Y-110200000D02*
X121770000Y-109350000D01*
X138780000Y-108820000D02*
X137400000Y-110200000D01*
X137400000Y-110200000D02*
X122620000Y-110200000D01*
X138780000Y-106900000D02*
X138780000Y-108820000D01*
%TO.N,/PA0*%
X121770000Y-96650000D02*
X130100000Y-96650000D01*
X130100000Y-96650000D02*
X137950000Y-104500000D01*
X137950000Y-104500000D02*
X137950000Y-105610000D01*
%TO.N,/PA1*%
X137480000Y-106110000D02*
X130560000Y-99190000D01*
X130560000Y-99190000D02*
X121770000Y-99190000D01*
%TO.N,/PA2*%
X130390000Y-101740000D02*
X121780000Y-101740000D01*
X121780000Y-101740000D02*
X121770000Y-101730000D01*
X135260000Y-106610000D02*
X130390000Y-101740000D01*
%TO.N,/PA3*%
X136035472Y-108640000D02*
X126140000Y-108640000D01*
X126140000Y-108640000D02*
X121770000Y-104270000D01*
X137775236Y-106900236D02*
X136035472Y-108640000D01*
%TO.N,/PA4*%
X124390000Y-109430000D02*
X121770000Y-106810000D01*
X138280000Y-106370000D02*
X138280000Y-107360000D01*
X136210000Y-109430000D02*
X124390000Y-109430000D01*
X138280000Y-107360000D02*
X136210000Y-109430000D01*
%TO.N,/PA6*%
X139277500Y-106360000D02*
X139277500Y-109122500D01*
X139277500Y-109122500D02*
X137350000Y-111050000D01*
X137350000Y-111050000D02*
X122610000Y-111050000D01*
X122610000Y-111050000D02*
X121770000Y-111890000D01*
%TO.N,/PA7*%
X139777500Y-109472500D02*
X137175000Y-112075000D01*
X124125000Y-112075000D02*
X121770000Y-114430000D01*
X137175000Y-112075000D02*
X124125000Y-112075000D01*
X139777500Y-106902500D02*
X139777500Y-109472500D01*
%TD*%
M02*
