%TF.GenerationSoftware,KiCad,Pcbnew,10.0.6-10.0.6~ubuntu26.04.1*%
%TF.CreationDate,2026-09-05T15:40:25+02:00*%
%TF.ProjectId,m47Board-H503,6d343742-6f61-4726-942d-483530332e6b,0.0.0*%
%TF.SameCoordinates,Original*%
%TF.FileFunction,Soldermask,Bot*%
%TF.FilePolarity,Negative*%
%FSLAX46Y46*%
G04 Gerber Fmt 4.6, Leading zero omitted, Abs format (unit mm)*
G04 Created by KiCad (PCBNEW 10.0.6-10.0.6~ubuntu26.04.1) date 2026-09-05 15:40:25*
%MOMM*%
%LPD*%
G01*
G04 APERTURE LIST*
%ADD10R,1.700000X1.700000*%
%ADD11C,1.700000*%
%ADD12C,0.650000*%
%ADD13O,2.100000X1.000000*%
%ADD14O,1.800000X1.000000*%
G04 APERTURE END LIST*
D10*
%TO.C,J3*%
X157340000Y-87770000D03*
D11*
X154800000Y-87770000D03*
X152260000Y-87770000D03*
X149720000Y-87770000D03*
X147180000Y-87770000D03*
X144640000Y-87770000D03*
X142100000Y-87770000D03*
X139560000Y-87770000D03*
X137020000Y-87770000D03*
X134480000Y-87770000D03*
X131940000Y-87770000D03*
X129400000Y-87770000D03*
X126860000Y-87770000D03*
X124320000Y-87770000D03*
X121780000Y-87770000D03*
%TD*%
D12*
%TO.C,J1*%
X153720000Y-105750000D03*
X153720000Y-99970000D03*
D13*
X153220000Y-107180000D03*
D14*
X157400000Y-107180000D03*
D13*
X153220000Y-98540000D03*
D14*
X157400000Y-98540000D03*
%TD*%
D10*
%TO.C,J5*%
X121780000Y-118230000D03*
D11*
X124320000Y-118230000D03*
X126860000Y-118230000D03*
X129400000Y-118230000D03*
X131940000Y-118230000D03*
X134480000Y-118230000D03*
X137020000Y-118230000D03*
X139560000Y-118230000D03*
X142100000Y-118230000D03*
X144640000Y-118230000D03*
X147180000Y-118230000D03*
X149720000Y-118230000D03*
X152260000Y-118230000D03*
X154800000Y-118230000D03*
X157340000Y-118230000D03*
%TD*%
D10*
%TO.C,J4*%
X121770000Y-91570000D03*
D11*
X121770000Y-94110000D03*
X121770000Y-96650000D03*
X121770000Y-99190000D03*
X121770000Y-101730000D03*
X121770000Y-104270000D03*
X121770000Y-106810000D03*
X121770000Y-109350000D03*
X121770000Y-111890000D03*
X121770000Y-114430000D03*
%TD*%
M02*
