%TF.GenerationSoftware,KiCad,Pcbnew,10.0.6-10.0.6~ubuntu26.04.1*%
%TF.CreationDate,2026-09-05T15:40:25+02:00*%
%TF.ProjectId,m47Board-H503,6d343742-6f61-4726-942d-483530332e6b,0.0.0*%
%TF.SameCoordinates,Original*%
%TF.FileFunction,Copper,L3,Inr*%
%TF.FilePolarity,Positive*%
%FSLAX46Y46*%
G04 Gerber Fmt 4.6, Leading zero omitted, Abs format (unit mm)*
G04 Created by KiCad (PCBNEW 10.0.6-10.0.6~ubuntu26.04.1) date 2026-09-05 15:40:25*
%MOMM*%
%LPD*%
G01*
G04 APERTURE LIST*
%TA.AperFunction,ComponentPad*%
%ADD10R,1.700000X1.700000*%
%TD*%
%TA.AperFunction,ComponentPad*%
%ADD11C,1.700000*%
%TD*%
%TA.AperFunction,ComponentPad*%
%ADD12O,2.100000X1.000000*%
%TD*%
%TA.AperFunction,ComponentPad*%
%ADD13O,1.800000X1.000000*%
%TD*%
%TA.AperFunction,ViaPad*%
%ADD14C,0.450000*%
%TD*%
%TA.AperFunction,Conductor*%
%ADD15C,0.500000*%
%TD*%
G04 APERTURE END LIST*
D10*
%TO.N,+3.3V*%
%TO.C,J3*%
X157340000Y-87770000D03*
D11*
%TO.N,GND*%
X154800000Y-87770000D03*
%TO.N,/SWDIO*%
X152260000Y-87770000D03*
%TO.N,/SWCLK*%
X149720000Y-87770000D03*
%TO.N,/NRST*%
X147180000Y-87770000D03*
%TO.N,/PA15*%
X144640000Y-87770000D03*
%TO.N,/PB3*%
X142100000Y-87770000D03*
%TO.N,/PB4*%
X139560000Y-87770000D03*
%TO.N,/PB5*%
X137020000Y-87770000D03*
%TO.N,/PB6*%
X134480000Y-87770000D03*
%TO.N,/PB7*%
X131940000Y-87770000D03*
%TO.N,/PB8*%
X129400000Y-87770000D03*
%TO.N,/PC13*%
X126860000Y-87770000D03*
%TO.N,GND*%
X124320000Y-87770000D03*
%TO.N,+3.3V*%
X121780000Y-87770000D03*
%TD*%
D12*
%TO.N,GND*%
%TO.C,J1*%
X153220000Y-107180000D03*
D13*
X157400000Y-107180000D03*
D12*
X153220000Y-98540000D03*
D13*
X157400000Y-98540000D03*
%TD*%
D10*
%TO.N,+3.3V*%
%TO.C,J5*%
X121780000Y-118230000D03*
D11*
%TO.N,GND*%
X124320000Y-118230000D03*
%TO.N,/PB0*%
X126860000Y-118230000D03*
%TO.N,/PB1*%
X129400000Y-118230000D03*
%TO.N,/PB2*%
X131940000Y-118230000D03*
%TO.N,/PB10*%
X134480000Y-118230000D03*
%TO.N,/PB12*%
X137020000Y-118230000D03*
%TO.N,/PB13*%
X139560000Y-118230000D03*
%TO.N,/PB14*%
X142100000Y-118230000D03*
%TO.N,/PB15*%
X144640000Y-118230000D03*
%TO.N,/PA8*%
X147180000Y-118230000D03*
%TO.N,/PA9*%
X149720000Y-118230000D03*
%TO.N,/PA10*%
X152260000Y-118230000D03*
%TO.N,GND*%
X154800000Y-118230000D03*
%TO.N,VBUS*%
X157340000Y-118230000D03*
%TD*%
D10*
%TO.N,Net-(J4-Pin_1)*%
%TO.C,J4*%
X121770000Y-91570000D03*
D11*
%TO.N,Net-(J4-Pin_2)*%
X121770000Y-94110000D03*
%TO.N,/PA0*%
X121770000Y-96650000D03*
%TO.N,/PA1*%
X121770000Y-99190000D03*
%TO.N,/PA2*%
X121770000Y-101730000D03*
%TO.N,/PA3*%
X121770000Y-104270000D03*
%TO.N,/PA4*%
X121770000Y-106810000D03*
%TO.N,/PA5*%
X121770000Y-109350000D03*
%TO.N,/PA6*%
X121770000Y-111890000D03*
%TO.N,/PA7*%
X121770000Y-114430000D03*
%TD*%
D14*
%TO.N,GND*%
X150900000Y-94510000D03*
X156180000Y-107180000D03*
X128250000Y-91440000D03*
X151880000Y-99240000D03*
X144200000Y-111050000D03*
X147805000Y-98005000D03*
X146950000Y-111860000D03*
X130400000Y-103400000D03*
X158610000Y-96670000D03*
X147010000Y-100060000D03*
X152920000Y-112530000D03*
X156520000Y-111530000D03*
X154650000Y-107180000D03*
X134470000Y-91480000D03*
X135240000Y-104610000D03*
X139220000Y-97420000D03*
X152940000Y-111530000D03*
X134480000Y-114620000D03*
X131370000Y-98790000D03*
X152100000Y-92850000D03*
X150180000Y-107710000D03*
X128220000Y-114620000D03*
X133980000Y-98440000D03*
X147960000Y-105850000D03*
X127910000Y-97590000D03*
X158600000Y-94410000D03*
X138240000Y-112660000D03*
X154570000Y-98540000D03*
X150170000Y-98090000D03*
X131320000Y-103380000D03*
X156520000Y-112530000D03*
X155660000Y-94460000D03*
X145250000Y-108870000D03*
X156100000Y-98540000D03*
X149080000Y-102430000D03*
X134425000Y-107525000D03*
X155690000Y-96610000D03*
X128700000Y-107750000D03*
X142681250Y-110318750D03*
X140970000Y-115680000D03*
X150225000Y-112710000D03*
X151740000Y-106350000D03*
X150250000Y-110860000D03*
X133985000Y-99680000D03*
X131270000Y-107550000D03*
%TO.N,+3.3V*%
X137860000Y-90210000D03*
X147510000Y-91440000D03*
X153010000Y-114830000D03*
X143530000Y-115690000D03*
X135310000Y-100270000D03*
X144350000Y-100030000D03*
X146970000Y-107780000D03*
X133820000Y-106090000D03*
X141230000Y-91430000D03*
X144300000Y-109170000D03*
X136952500Y-98520000D03*
X153020000Y-113830000D03*
X137550000Y-109300000D03*
%TO.N,/SWDIO*%
X146340000Y-101790000D03*
%TO.N,/SWCLK*%
X143280000Y-98560000D03*
%TO.N,/PA15*%
X142780000Y-101320000D03*
%TO.N,/PB3*%
X142270000Y-100820000D03*
%TO.N,/PB4*%
X141780000Y-101300000D03*
%TO.N,/PB5*%
X141280000Y-100850000D03*
%TO.N,/PB6*%
X140780000Y-101280000D03*
%TO.N,/PB7*%
X140270000Y-100840000D03*
%TO.N,/PB8*%
X139270000Y-100820000D03*
%TO.N,VBUS*%
X151720000Y-105390000D03*
X151700000Y-96650000D03*
X151675000Y-94400000D03*
X152960000Y-110230000D03*
X152990000Y-109230000D03*
X158787500Y-92462500D03*
X154490000Y-94440000D03*
X151780000Y-100180000D03*
X154520000Y-96620000D03*
X149284619Y-103144619D03*
%TO.N,/PB0*%
X140277500Y-106372500D03*
%TO.N,/PB1*%
X140780000Y-106870000D03*
%TO.N,/PB2*%
X141277500Y-106372500D03*
%TO.N,/PB10*%
X141777500Y-106862500D03*
%TO.N,/PB12*%
X143560000Y-106600000D03*
%TO.N,/PB13*%
X143050000Y-106110000D03*
%TO.N,/PB14*%
X143570000Y-105610000D03*
%TO.N,/PB15*%
X143060000Y-105110000D03*
%TO.N,/PA8*%
X143570000Y-104620000D03*
%TO.N,/PA9*%
X143080000Y-104110000D03*
%TO.N,/PA10*%
X143570000Y-103610000D03*
%TO.N,/PA5*%
X138780000Y-106900000D03*
%TO.N,/PA0*%
X137950000Y-105610000D03*
%TO.N,/PA1*%
X137480000Y-106110000D03*
%TO.N,/PA2*%
X135260000Y-106610000D03*
%TO.N,/PA3*%
X137775236Y-106900236D03*
%TO.N,/PA4*%
X138280000Y-106370000D03*
%TO.N,/PA6*%
X139277500Y-106360000D03*
%TO.N,/PA7*%
X139777500Y-106902500D03*
%TD*%
%TO.N,+3.3V*%
D15*
X121780000Y-118230000D02*
X121780000Y-118220000D01*
X121780000Y-118220000D02*
X123300000Y-116700000D01*
%TD*%
%TA.AperFunction,Conductor*%
%TO.N,+3.3V*%
G36*
X126615615Y-86505518D02*
G01*
X126619490Y-86506655D01*
X126621476Y-86507238D01*
X126680260Y-86545003D01*
X126709294Y-86608555D01*
X126699361Y-86677715D01*
X126653616Y-86730524D01*
X126652129Y-86731480D01*
X126609264Y-86748793D01*
X126553604Y-86759864D01*
X126553579Y-86759870D01*
X126362404Y-86839057D01*
X126190337Y-86954027D01*
X126044027Y-87100337D01*
X125929057Y-87272404D01*
X125849870Y-87463579D01*
X125849864Y-87463604D01*
X125809500Y-87666527D01*
X125809500Y-87666530D01*
X125809500Y-87873469D01*
X125809500Y-87873471D01*
X125809499Y-87873471D01*
X125849864Y-88076394D01*
X125849868Y-88076412D01*
X125849870Y-88076420D01*
X125929058Y-88267596D01*
X126044023Y-88439655D01*
X126044027Y-88439661D01*
X126190336Y-88585970D01*
X126190340Y-88585973D01*
X126190342Y-88585975D01*
X126190345Y-88585977D01*
X126190349Y-88585980D01*
X126190348Y-88585980D01*
X126190411Y-88586032D01*
X126190448Y-88586046D01*
X126362402Y-88700941D01*
X126553580Y-88780130D01*
X126744540Y-88818114D01*
X126753559Y-88819908D01*
X126755794Y-88820409D01*
X126756532Y-88820500D01*
X126963466Y-88820500D01*
X126967586Y-88820500D01*
X126975435Y-88818118D01*
X127166420Y-88780130D01*
X127357598Y-88700941D01*
X127529655Y-88585977D01*
X127675977Y-88439655D01*
X127790941Y-88267598D01*
X127870130Y-88076420D01*
X127910500Y-87873465D01*
X127910500Y-87666535D01*
X127870130Y-87463580D01*
X127790941Y-87272402D01*
X127676046Y-87100449D01*
X127676036Y-87100417D01*
X127675980Y-87100348D01*
X127675980Y-87100349D01*
X127675977Y-87100345D01*
X127675975Y-87100342D01*
X127675973Y-87100340D01*
X127675970Y-87100336D01*
X127529659Y-86954025D01*
X127407178Y-86872187D01*
X127407130Y-86872155D01*
X127357598Y-86839059D01*
X127357599Y-86839059D01*
X127357597Y-86839058D01*
X127245608Y-86792670D01*
X127166420Y-86759870D01*
X127166412Y-86759868D01*
X127166404Y-86759866D01*
X127166394Y-86759864D01*
X127114768Y-86749595D01*
X127081485Y-86737854D01*
X127076071Y-86735022D01*
X127025792Y-86686506D01*
X127009724Y-86618509D01*
X127032968Y-86552619D01*
X127088140Y-86509759D01*
X127089865Y-86509080D01*
X127135191Y-86500500D01*
X129120698Y-86500500D01*
X129155615Y-86505518D01*
X129159490Y-86506655D01*
X129161476Y-86507238D01*
X129220260Y-86545003D01*
X129249294Y-86608555D01*
X129239361Y-86677715D01*
X129193616Y-86730524D01*
X129192129Y-86731480D01*
X129149264Y-86748793D01*
X129093604Y-86759864D01*
X129093579Y-86759870D01*
X128902404Y-86839057D01*
X128730337Y-86954027D01*
X128584027Y-87100337D01*
X128469057Y-87272404D01*
X128389870Y-87463579D01*
X128389864Y-87463604D01*
X128349500Y-87666527D01*
X128349500Y-87666530D01*
X128349500Y-87873469D01*
X128349500Y-87873471D01*
X128349499Y-87873471D01*
X128389864Y-88076394D01*
X128389868Y-88076412D01*
X128389870Y-88076420D01*
X128469058Y-88267596D01*
X128584023Y-88439655D01*
X128584027Y-88439661D01*
X128730336Y-88585970D01*
X128730340Y-88585973D01*
X128730342Y-88585975D01*
X128730345Y-88585977D01*
X128730349Y-88585980D01*
X128730348Y-88585980D01*
X128730411Y-88586032D01*
X128730448Y-88586046D01*
X128902402Y-88700941D01*
X129093580Y-88780130D01*
X129284540Y-88818114D01*
X129293559Y-88819908D01*
X129295794Y-88820409D01*
X129296532Y-88820500D01*
X129503466Y-88820500D01*
X129507586Y-88820500D01*
X129515435Y-88818118D01*
X129706420Y-88780130D01*
X129897598Y-88700941D01*
X130069655Y-88585977D01*
X130215977Y-88439655D01*
X130330941Y-88267598D01*
X130410130Y-88076420D01*
X130450500Y-87873465D01*
X130450500Y-87666535D01*
X130410130Y-87463580D01*
X130330941Y-87272402D01*
X130216046Y-87100449D01*
X130216036Y-87100417D01*
X130215980Y-87100348D01*
X130215980Y-87100349D01*
X130215977Y-87100345D01*
X130215975Y-87100342D01*
X130215973Y-87100340D01*
X130215970Y-87100336D01*
X130069659Y-86954025D01*
X129947178Y-86872187D01*
X129947130Y-86872155D01*
X129897598Y-86839059D01*
X129897599Y-86839059D01*
X129897597Y-86839058D01*
X129785608Y-86792670D01*
X129706420Y-86759870D01*
X129706412Y-86759868D01*
X129706404Y-86759866D01*
X129706394Y-86759864D01*
X129654768Y-86749595D01*
X129621485Y-86737854D01*
X129616071Y-86735022D01*
X129565792Y-86686506D01*
X129549724Y-86618509D01*
X129572968Y-86552619D01*
X129628140Y-86509759D01*
X129629865Y-86509080D01*
X129675191Y-86500500D01*
X131660698Y-86500500D01*
X131695615Y-86505518D01*
X131699490Y-86506655D01*
X131701476Y-86507238D01*
X131760260Y-86545003D01*
X131789294Y-86608555D01*
X131779361Y-86677715D01*
X131733616Y-86730524D01*
X131732129Y-86731480D01*
X131689264Y-86748793D01*
X131633604Y-86759864D01*
X131633579Y-86759870D01*
X131442404Y-86839057D01*
X131270337Y-86954027D01*
X131124027Y-87100337D01*
X131009057Y-87272404D01*
X130929870Y-87463579D01*
X130929864Y-87463604D01*
X130889500Y-87666527D01*
X130889500Y-87666530D01*
X130889500Y-87873469D01*
X130889500Y-87873471D01*
X130889499Y-87873471D01*
X130929864Y-88076394D01*
X130929868Y-88076412D01*
X130929870Y-88076420D01*
X131009058Y-88267596D01*
X131124023Y-88439655D01*
X131124027Y-88439661D01*
X131270336Y-88585970D01*
X131270340Y-88585973D01*
X131270342Y-88585975D01*
X131270345Y-88585977D01*
X131270349Y-88585980D01*
X131270348Y-88585980D01*
X131270411Y-88586032D01*
X131270448Y-88586046D01*
X131442402Y-88700941D01*
X131633580Y-88780130D01*
X131824540Y-88818114D01*
X131833559Y-88819908D01*
X131835794Y-88820409D01*
X131836532Y-88820500D01*
X132043466Y-88820500D01*
X132047586Y-88820500D01*
X132055435Y-88818118D01*
X132246420Y-88780130D01*
X132437598Y-88700941D01*
X132609655Y-88585977D01*
X132755977Y-88439655D01*
X132870941Y-88267598D01*
X132950130Y-88076420D01*
X132990500Y-87873465D01*
X132990500Y-87666535D01*
X132950130Y-87463580D01*
X132870941Y-87272402D01*
X132756046Y-87100449D01*
X132756036Y-87100417D01*
X132755980Y-87100348D01*
X132755980Y-87100349D01*
X132755977Y-87100345D01*
X132755975Y-87100342D01*
X132755973Y-87100340D01*
X132755970Y-87100336D01*
X132609659Y-86954025D01*
X132487178Y-86872187D01*
X132487130Y-86872155D01*
X132437598Y-86839059D01*
X132437599Y-86839059D01*
X132437597Y-86839058D01*
X132325608Y-86792670D01*
X132246420Y-86759870D01*
X132246412Y-86759868D01*
X132246404Y-86759866D01*
X132246394Y-86759864D01*
X132194768Y-86749595D01*
X132161485Y-86737854D01*
X132156071Y-86735022D01*
X132105792Y-86686506D01*
X132089724Y-86618509D01*
X132112968Y-86552619D01*
X132168140Y-86509759D01*
X132169865Y-86509080D01*
X132215191Y-86500500D01*
X134200698Y-86500500D01*
X134235615Y-86505518D01*
X134239490Y-86506655D01*
X134241476Y-86507238D01*
X134300260Y-86545003D01*
X134329294Y-86608555D01*
X134319361Y-86677715D01*
X134273616Y-86730524D01*
X134272129Y-86731480D01*
X134229264Y-86748793D01*
X134173604Y-86759864D01*
X134173579Y-86759870D01*
X133982404Y-86839057D01*
X133810337Y-86954027D01*
X133664027Y-87100337D01*
X133549057Y-87272404D01*
X133469870Y-87463579D01*
X133469864Y-87463604D01*
X133429500Y-87666527D01*
X133429500Y-87666530D01*
X133429500Y-87873469D01*
X133429500Y-87873471D01*
X133429499Y-87873471D01*
X133469864Y-88076394D01*
X133469868Y-88076412D01*
X133469870Y-88076420D01*
X133549058Y-88267596D01*
X133664023Y-88439655D01*
X133664027Y-88439661D01*
X133810336Y-88585970D01*
X133810340Y-88585973D01*
X133810342Y-88585975D01*
X133810345Y-88585977D01*
X133810349Y-88585980D01*
X133810348Y-88585980D01*
X133810411Y-88586032D01*
X133810448Y-88586046D01*
X133982402Y-88700941D01*
X134173580Y-88780130D01*
X134364540Y-88818114D01*
X134373559Y-88819908D01*
X134375794Y-88820409D01*
X134376532Y-88820500D01*
X134583466Y-88820500D01*
X134587586Y-88820500D01*
X134595435Y-88818118D01*
X134786420Y-88780130D01*
X134977598Y-88700941D01*
X135149655Y-88585977D01*
X135295977Y-88439655D01*
X135410941Y-88267598D01*
X135490130Y-88076420D01*
X135530500Y-87873465D01*
X135530500Y-87666535D01*
X135490130Y-87463580D01*
X135410941Y-87272402D01*
X135296046Y-87100449D01*
X135296036Y-87100417D01*
X135295980Y-87100348D01*
X135295980Y-87100349D01*
X135295977Y-87100345D01*
X135295975Y-87100342D01*
X135295973Y-87100340D01*
X135295970Y-87100336D01*
X135149659Y-86954025D01*
X135027178Y-86872187D01*
X135027130Y-86872155D01*
X134977598Y-86839059D01*
X134977599Y-86839059D01*
X134977597Y-86839058D01*
X134865608Y-86792670D01*
X134786420Y-86759870D01*
X134786412Y-86759868D01*
X134786404Y-86759866D01*
X134786394Y-86759864D01*
X134734768Y-86749595D01*
X134701485Y-86737854D01*
X134696071Y-86735022D01*
X134645792Y-86686506D01*
X134629724Y-86618509D01*
X134652968Y-86552619D01*
X134708140Y-86509759D01*
X134709865Y-86509080D01*
X134755191Y-86500500D01*
X136740698Y-86500500D01*
X136775615Y-86505518D01*
X136779490Y-86506655D01*
X136781476Y-86507238D01*
X136840260Y-86545003D01*
X136869294Y-86608555D01*
X136859361Y-86677715D01*
X136813616Y-86730524D01*
X136812129Y-86731480D01*
X136769264Y-86748793D01*
X136713604Y-86759864D01*
X136713579Y-86759870D01*
X136522404Y-86839057D01*
X136350337Y-86954027D01*
X136204027Y-87100337D01*
X136089057Y-87272404D01*
X136009870Y-87463579D01*
X136009864Y-87463604D01*
X135969500Y-87666527D01*
X135969500Y-87666530D01*
X135969500Y-87873469D01*
X135969500Y-87873471D01*
X135969499Y-87873471D01*
X136009864Y-88076394D01*
X136009868Y-88076412D01*
X136009870Y-88076420D01*
X136089058Y-88267596D01*
X136204023Y-88439655D01*
X136204027Y-88439661D01*
X136350336Y-88585970D01*
X136350340Y-88585973D01*
X136350342Y-88585975D01*
X136350345Y-88585977D01*
X136350349Y-88585980D01*
X136350348Y-88585980D01*
X136350411Y-88586032D01*
X136350448Y-88586046D01*
X136522402Y-88700941D01*
X136713580Y-88780130D01*
X136904540Y-88818114D01*
X136913559Y-88819908D01*
X136915794Y-88820409D01*
X136916532Y-88820500D01*
X137123466Y-88820500D01*
X137127586Y-88820500D01*
X137135435Y-88818118D01*
X137326420Y-88780130D01*
X137517598Y-88700941D01*
X137689655Y-88585977D01*
X137835977Y-88439655D01*
X137950941Y-88267598D01*
X138030130Y-88076420D01*
X138070500Y-87873465D01*
X138070500Y-87666535D01*
X138030130Y-87463580D01*
X137950941Y-87272402D01*
X137836046Y-87100449D01*
X137836036Y-87100417D01*
X137835980Y-87100348D01*
X137835980Y-87100349D01*
X137835977Y-87100345D01*
X137835975Y-87100342D01*
X137835973Y-87100340D01*
X137835970Y-87100336D01*
X137689659Y-86954025D01*
X137567178Y-86872187D01*
X137567130Y-86872155D01*
X137517598Y-86839059D01*
X137517599Y-86839059D01*
X137517597Y-86839058D01*
X137405608Y-86792670D01*
X137326420Y-86759870D01*
X137326412Y-86759868D01*
X137326404Y-86759866D01*
X137326394Y-86759864D01*
X137274768Y-86749595D01*
X137241485Y-86737854D01*
X137236071Y-86735022D01*
X137185792Y-86686506D01*
X137169724Y-86618509D01*
X137192968Y-86552619D01*
X137248140Y-86509759D01*
X137249865Y-86509080D01*
X137295191Y-86500500D01*
X139280698Y-86500500D01*
X139315615Y-86505518D01*
X139319490Y-86506655D01*
X139321476Y-86507238D01*
X139380260Y-86545003D01*
X139409294Y-86608555D01*
X139399361Y-86677715D01*
X139353616Y-86730524D01*
X139352129Y-86731480D01*
X139309264Y-86748793D01*
X139253604Y-86759864D01*
X139253579Y-86759870D01*
X139062404Y-86839057D01*
X138890337Y-86954027D01*
X138744027Y-87100337D01*
X138629057Y-87272404D01*
X138549870Y-87463579D01*
X138549864Y-87463604D01*
X138509500Y-87666527D01*
X138509500Y-87666530D01*
X138509500Y-87873469D01*
X138509500Y-87873471D01*
X138509499Y-87873471D01*
X138549864Y-88076394D01*
X138549868Y-88076412D01*
X138549870Y-88076420D01*
X138629058Y-88267596D01*
X138744023Y-88439655D01*
X138744027Y-88439661D01*
X138890336Y-88585970D01*
X138890340Y-88585973D01*
X138890342Y-88585975D01*
X138890345Y-88585977D01*
X138890349Y-88585980D01*
X138890348Y-88585980D01*
X138890411Y-88586032D01*
X138890448Y-88586046D01*
X139062402Y-88700941D01*
X139253580Y-88780130D01*
X139444540Y-88818114D01*
X139453559Y-88819908D01*
X139455794Y-88820409D01*
X139456532Y-88820500D01*
X139663466Y-88820500D01*
X139667586Y-88820500D01*
X139675435Y-88818118D01*
X139866420Y-88780130D01*
X140057598Y-88700941D01*
X140229655Y-88585977D01*
X140375977Y-88439655D01*
X140490941Y-88267598D01*
X140570130Y-88076420D01*
X140610500Y-87873465D01*
X140610500Y-87666535D01*
X140570130Y-87463580D01*
X140490941Y-87272402D01*
X140376046Y-87100449D01*
X140376036Y-87100417D01*
X140375980Y-87100348D01*
X140375980Y-87100349D01*
X140375977Y-87100345D01*
X140375975Y-87100342D01*
X140375973Y-87100340D01*
X140375970Y-87100336D01*
X140229659Y-86954025D01*
X140107178Y-86872187D01*
X140107130Y-86872155D01*
X140057598Y-86839059D01*
X140057599Y-86839059D01*
X140057597Y-86839058D01*
X139945608Y-86792670D01*
X139866420Y-86759870D01*
X139866412Y-86759868D01*
X139866404Y-86759866D01*
X139866394Y-86759864D01*
X139814768Y-86749595D01*
X139781485Y-86737854D01*
X139776071Y-86735022D01*
X139725792Y-86686506D01*
X139709724Y-86618509D01*
X139732968Y-86552619D01*
X139788140Y-86509759D01*
X139789865Y-86509080D01*
X139835191Y-86500500D01*
X141820698Y-86500500D01*
X141855615Y-86505518D01*
X141859490Y-86506655D01*
X141861476Y-86507238D01*
X141920260Y-86545003D01*
X141949294Y-86608555D01*
X141939361Y-86677715D01*
X141893616Y-86730524D01*
X141892129Y-86731480D01*
X141849264Y-86748793D01*
X141793604Y-86759864D01*
X141793579Y-86759870D01*
X141602404Y-86839057D01*
X141430337Y-86954027D01*
X141284027Y-87100337D01*
X141169057Y-87272404D01*
X141089870Y-87463579D01*
X141089864Y-87463604D01*
X141049500Y-87666527D01*
X141049500Y-87666530D01*
X141049500Y-87873469D01*
X141049500Y-87873471D01*
X141049499Y-87873471D01*
X141089864Y-88076394D01*
X141089868Y-88076412D01*
X141089870Y-88076420D01*
X141169058Y-88267596D01*
X141284023Y-88439655D01*
X141284027Y-88439661D01*
X141430336Y-88585970D01*
X141430340Y-88585973D01*
X141430342Y-88585975D01*
X141430345Y-88585977D01*
X141430349Y-88585980D01*
X141430348Y-88585980D01*
X141430411Y-88586032D01*
X141430448Y-88586046D01*
X141602402Y-88700941D01*
X141793580Y-88780130D01*
X141984540Y-88818114D01*
X141993559Y-88819908D01*
X141995794Y-88820409D01*
X141996532Y-88820500D01*
X142203466Y-88820500D01*
X142207586Y-88820500D01*
X142215435Y-88818118D01*
X142406420Y-88780130D01*
X142597598Y-88700941D01*
X142769655Y-88585977D01*
X142915977Y-88439655D01*
X143030941Y-88267598D01*
X143110130Y-88076420D01*
X143150500Y-87873465D01*
X143150500Y-87666535D01*
X143110130Y-87463580D01*
X143030941Y-87272402D01*
X142916046Y-87100449D01*
X142916036Y-87100417D01*
X142915980Y-87100348D01*
X142915980Y-87100349D01*
X142915977Y-87100345D01*
X142915975Y-87100342D01*
X142915973Y-87100340D01*
X142915970Y-87100336D01*
X142769659Y-86954025D01*
X142647178Y-86872187D01*
X142647130Y-86872155D01*
X142597598Y-86839059D01*
X142597599Y-86839059D01*
X142597597Y-86839058D01*
X142485608Y-86792670D01*
X142406420Y-86759870D01*
X142406412Y-86759868D01*
X142406404Y-86759866D01*
X142406394Y-86759864D01*
X142354768Y-86749595D01*
X142321485Y-86737854D01*
X142316071Y-86735022D01*
X142265792Y-86686506D01*
X142249724Y-86618509D01*
X142272968Y-86552619D01*
X142328140Y-86509759D01*
X142329865Y-86509080D01*
X142375191Y-86500500D01*
X144360698Y-86500500D01*
X144395615Y-86505518D01*
X144399490Y-86506655D01*
X144401476Y-86507238D01*
X144460260Y-86545003D01*
X144489294Y-86608555D01*
X144479361Y-86677715D01*
X144433616Y-86730524D01*
X144432129Y-86731480D01*
X144389264Y-86748793D01*
X144333604Y-86759864D01*
X144333579Y-86759870D01*
X144142404Y-86839057D01*
X143970337Y-86954027D01*
X143824027Y-87100337D01*
X143709057Y-87272404D01*
X143629870Y-87463579D01*
X143629864Y-87463604D01*
X143589500Y-87666527D01*
X143589500Y-87666530D01*
X143589500Y-87873469D01*
X143589500Y-87873471D01*
X143589499Y-87873471D01*
X143629864Y-88076394D01*
X143629868Y-88076412D01*
X143629870Y-88076420D01*
X143709058Y-88267596D01*
X143824023Y-88439655D01*
X143824027Y-88439661D01*
X143970336Y-88585970D01*
X143970340Y-88585973D01*
X143970342Y-88585975D01*
X143970345Y-88585977D01*
X143970349Y-88585980D01*
X143970348Y-88585980D01*
X143970411Y-88586032D01*
X143970448Y-88586046D01*
X144142402Y-88700941D01*
X144333580Y-88780130D01*
X144524540Y-88818114D01*
X144533559Y-88819908D01*
X144535794Y-88820409D01*
X144536532Y-88820500D01*
X144743466Y-88820500D01*
X144747586Y-88820500D01*
X144755435Y-88818118D01*
X144946420Y-88780130D01*
X145137598Y-88700941D01*
X145309655Y-88585977D01*
X145455977Y-88439655D01*
X145570941Y-88267598D01*
X145650130Y-88076420D01*
X145690500Y-87873465D01*
X145690500Y-87666535D01*
X145650130Y-87463580D01*
X145570941Y-87272402D01*
X145456046Y-87100449D01*
X145456036Y-87100417D01*
X145455980Y-87100348D01*
X145455980Y-87100349D01*
X145455977Y-87100345D01*
X145455975Y-87100342D01*
X145455973Y-87100340D01*
X145455970Y-87100336D01*
X145309659Y-86954025D01*
X145187178Y-86872187D01*
X145187130Y-86872155D01*
X145137598Y-86839059D01*
X145137599Y-86839059D01*
X145137597Y-86839058D01*
X145025608Y-86792670D01*
X144946420Y-86759870D01*
X144946412Y-86759868D01*
X144946404Y-86759866D01*
X144946394Y-86759864D01*
X144894768Y-86749595D01*
X144861485Y-86737854D01*
X144856071Y-86735022D01*
X144805792Y-86686506D01*
X144789724Y-86618509D01*
X144812968Y-86552619D01*
X144868140Y-86509759D01*
X144869865Y-86509080D01*
X144915191Y-86500500D01*
X146900698Y-86500500D01*
X146935615Y-86505518D01*
X146939490Y-86506655D01*
X146941476Y-86507238D01*
X147000260Y-86545003D01*
X147029294Y-86608555D01*
X147019361Y-86677715D01*
X146973616Y-86730524D01*
X146972129Y-86731480D01*
X146929264Y-86748793D01*
X146873604Y-86759864D01*
X146873579Y-86759870D01*
X146682404Y-86839057D01*
X146510337Y-86954027D01*
X146364027Y-87100337D01*
X146249057Y-87272404D01*
X146169870Y-87463579D01*
X146169864Y-87463604D01*
X146129500Y-87666527D01*
X146129500Y-87666530D01*
X146129500Y-87873469D01*
X146129500Y-87873471D01*
X146129499Y-87873471D01*
X146169864Y-88076394D01*
X146169868Y-88076412D01*
X146169870Y-88076420D01*
X146249058Y-88267596D01*
X146364023Y-88439655D01*
X146364027Y-88439661D01*
X146510336Y-88585970D01*
X146510340Y-88585973D01*
X146510342Y-88585975D01*
X146510345Y-88585977D01*
X146510349Y-88585980D01*
X146510348Y-88585980D01*
X146510411Y-88586032D01*
X146510448Y-88586046D01*
X146682402Y-88700941D01*
X146873580Y-88780130D01*
X147064540Y-88818114D01*
X147073559Y-88819908D01*
X147075794Y-88820409D01*
X147076532Y-88820500D01*
X147283466Y-88820500D01*
X147287586Y-88820500D01*
X147295435Y-88818118D01*
X147486420Y-88780130D01*
X147677598Y-88700941D01*
X147849655Y-88585977D01*
X147995977Y-88439655D01*
X148110941Y-88267598D01*
X148190130Y-88076420D01*
X148230500Y-87873465D01*
X148230500Y-87666535D01*
X148190130Y-87463580D01*
X148110941Y-87272402D01*
X147996046Y-87100449D01*
X147996036Y-87100417D01*
X147995980Y-87100348D01*
X147995980Y-87100349D01*
X147995977Y-87100345D01*
X147995975Y-87100342D01*
X147995973Y-87100340D01*
X147995970Y-87100336D01*
X147849659Y-86954025D01*
X147727178Y-86872187D01*
X147727130Y-86872155D01*
X147677598Y-86839059D01*
X147677599Y-86839059D01*
X147677597Y-86839058D01*
X147565608Y-86792670D01*
X147486420Y-86759870D01*
X147486412Y-86759868D01*
X147486404Y-86759866D01*
X147486394Y-86759864D01*
X147434768Y-86749595D01*
X147401485Y-86737854D01*
X147396071Y-86735022D01*
X147345792Y-86686506D01*
X147329724Y-86618509D01*
X147352968Y-86552619D01*
X147408140Y-86509759D01*
X147409865Y-86509080D01*
X147455191Y-86500500D01*
X149440698Y-86500500D01*
X149475615Y-86505518D01*
X149479490Y-86506655D01*
X149481476Y-86507238D01*
X149540260Y-86545003D01*
X149569294Y-86608555D01*
X149559361Y-86677715D01*
X149513616Y-86730524D01*
X149512129Y-86731480D01*
X149469264Y-86748793D01*
X149413604Y-86759864D01*
X149413579Y-86759870D01*
X149222404Y-86839057D01*
X149050337Y-86954027D01*
X148904027Y-87100337D01*
X148789057Y-87272404D01*
X148709870Y-87463579D01*
X148709864Y-87463604D01*
X148669500Y-87666527D01*
X148669500Y-87666530D01*
X148669500Y-87873469D01*
X148669500Y-87873471D01*
X148669499Y-87873471D01*
X148709864Y-88076394D01*
X148709868Y-88076412D01*
X148709870Y-88076420D01*
X148789058Y-88267596D01*
X148904023Y-88439655D01*
X148904027Y-88439661D01*
X149050336Y-88585970D01*
X149050340Y-88585973D01*
X149050342Y-88585975D01*
X149050345Y-88585977D01*
X149050349Y-88585980D01*
X149050348Y-88585980D01*
X149050411Y-88586032D01*
X149050448Y-88586046D01*
X149222402Y-88700941D01*
X149413580Y-88780130D01*
X149604540Y-88818114D01*
X149613559Y-88819908D01*
X149615794Y-88820409D01*
X149616532Y-88820500D01*
X149823466Y-88820500D01*
X149827586Y-88820500D01*
X149835435Y-88818118D01*
X150026420Y-88780130D01*
X150217598Y-88700941D01*
X150389655Y-88585977D01*
X150535977Y-88439655D01*
X150650941Y-88267598D01*
X150730130Y-88076420D01*
X150770500Y-87873465D01*
X150770500Y-87666535D01*
X150730130Y-87463580D01*
X150650941Y-87272402D01*
X150536046Y-87100449D01*
X150536036Y-87100417D01*
X150535980Y-87100348D01*
X150535980Y-87100349D01*
X150535977Y-87100345D01*
X150535975Y-87100342D01*
X150535973Y-87100340D01*
X150535970Y-87100336D01*
X150389659Y-86954025D01*
X150267178Y-86872187D01*
X150267130Y-86872155D01*
X150217598Y-86839059D01*
X150217599Y-86839059D01*
X150217597Y-86839058D01*
X150105608Y-86792670D01*
X150026420Y-86759870D01*
X150026412Y-86759868D01*
X150026404Y-86759866D01*
X150026394Y-86759864D01*
X149974768Y-86749595D01*
X149941485Y-86737854D01*
X149936071Y-86735022D01*
X149885792Y-86686506D01*
X149869724Y-86618509D01*
X149892968Y-86552619D01*
X149948140Y-86509759D01*
X149949865Y-86509080D01*
X149995191Y-86500500D01*
X151980698Y-86500500D01*
X152015615Y-86505518D01*
X152019490Y-86506655D01*
X152021476Y-86507238D01*
X152080260Y-86545003D01*
X152109294Y-86608555D01*
X152099361Y-86677715D01*
X152053616Y-86730524D01*
X152052129Y-86731480D01*
X152009264Y-86748793D01*
X151953604Y-86759864D01*
X151953579Y-86759870D01*
X151762404Y-86839057D01*
X151590337Y-86954027D01*
X151444027Y-87100337D01*
X151329057Y-87272404D01*
X151249870Y-87463579D01*
X151249864Y-87463604D01*
X151209500Y-87666527D01*
X151209500Y-87666530D01*
X151209500Y-87873469D01*
X151209500Y-87873471D01*
X151209499Y-87873471D01*
X151249864Y-88076394D01*
X151249868Y-88076412D01*
X151249870Y-88076420D01*
X151329058Y-88267596D01*
X151444023Y-88439655D01*
X151444027Y-88439661D01*
X151590336Y-88585970D01*
X151590340Y-88585973D01*
X151590342Y-88585975D01*
X151590345Y-88585977D01*
X151590349Y-88585980D01*
X151590348Y-88585980D01*
X151590411Y-88586032D01*
X151590448Y-88586046D01*
X151762402Y-88700941D01*
X151953580Y-88780130D01*
X152144540Y-88818114D01*
X152153559Y-88819908D01*
X152155794Y-88820409D01*
X152156532Y-88820500D01*
X152363466Y-88820500D01*
X152367586Y-88820500D01*
X152375435Y-88818118D01*
X152566420Y-88780130D01*
X152757598Y-88700941D01*
X152929655Y-88585977D01*
X153075977Y-88439655D01*
X153190941Y-88267598D01*
X153270130Y-88076420D01*
X153310500Y-87873465D01*
X153310500Y-87666535D01*
X153270130Y-87463580D01*
X153190941Y-87272402D01*
X153076046Y-87100449D01*
X153076036Y-87100417D01*
X153075980Y-87100348D01*
X153075980Y-87100349D01*
X153075977Y-87100345D01*
X153075975Y-87100342D01*
X153075973Y-87100340D01*
X153075970Y-87100336D01*
X152929659Y-86954025D01*
X152807178Y-86872187D01*
X152807130Y-86872155D01*
X152757598Y-86839059D01*
X152757599Y-86839059D01*
X152757597Y-86839058D01*
X152645608Y-86792670D01*
X152566420Y-86759870D01*
X152566412Y-86759868D01*
X152566404Y-86759866D01*
X152566394Y-86759864D01*
X152514768Y-86749595D01*
X152481485Y-86737854D01*
X152476071Y-86735022D01*
X152425792Y-86686506D01*
X152409724Y-86618509D01*
X152432968Y-86552619D01*
X152488140Y-86509759D01*
X152489865Y-86509080D01*
X152535191Y-86500500D01*
X154520698Y-86500500D01*
X154555615Y-86505518D01*
X154559490Y-86506655D01*
X154561476Y-86507238D01*
X154620260Y-86545003D01*
X154649294Y-86608555D01*
X154639361Y-86677715D01*
X154593616Y-86730524D01*
X154592129Y-86731480D01*
X154549264Y-86748793D01*
X154493604Y-86759864D01*
X154493579Y-86759870D01*
X154302404Y-86839057D01*
X154130337Y-86954027D01*
X153984027Y-87100337D01*
X153869057Y-87272404D01*
X153789870Y-87463579D01*
X153789864Y-87463604D01*
X153749500Y-87666527D01*
X153749500Y-87666530D01*
X153749500Y-87873469D01*
X153749500Y-87873471D01*
X153749499Y-87873471D01*
X153789864Y-88076394D01*
X153789868Y-88076412D01*
X153789870Y-88076420D01*
X153869058Y-88267596D01*
X153984023Y-88439655D01*
X153984027Y-88439661D01*
X154130336Y-88585970D01*
X154130340Y-88585973D01*
X154130342Y-88585975D01*
X154130345Y-88585977D01*
X154130349Y-88585980D01*
X154130348Y-88585980D01*
X154130411Y-88586032D01*
X154130448Y-88586046D01*
X154302402Y-88700941D01*
X154493580Y-88780130D01*
X154684540Y-88818114D01*
X154693559Y-88819908D01*
X154695794Y-88820409D01*
X154696532Y-88820500D01*
X154903466Y-88820500D01*
X154907586Y-88820500D01*
X154915435Y-88818118D01*
X155106420Y-88780130D01*
X155297598Y-88700941D01*
X155469655Y-88585977D01*
X155615977Y-88439655D01*
X155730941Y-88267598D01*
X155744618Y-88234578D01*
X155762619Y-88204238D01*
X155763607Y-88203012D01*
X155768264Y-88197231D01*
X155825652Y-88157380D01*
X155895477Y-88154880D01*
X155955569Y-88190527D01*
X155985493Y-88246497D01*
X155986672Y-88251483D01*
X155990000Y-88280017D01*
X155990000Y-88667852D01*
X155996400Y-88727370D01*
X155996401Y-88727372D01*
X155996403Y-88727379D01*
X156046645Y-88862086D01*
X156046649Y-88862093D01*
X156074586Y-88899412D01*
X156132807Y-88977185D01*
X156132809Y-88977187D01*
X156132812Y-88977190D01*
X156247906Y-89063350D01*
X156247913Y-89063354D01*
X156382620Y-89113596D01*
X156382627Y-89113598D01*
X156389468Y-89114333D01*
X156442138Y-89119998D01*
X156442155Y-89119999D01*
X156442172Y-89120000D01*
X157090000Y-89120000D01*
X157090000Y-88382250D01*
X157109685Y-88315211D01*
X157162489Y-88269456D01*
X157231647Y-88259512D01*
X157246093Y-88262475D01*
X157274174Y-88270000D01*
X157405825Y-88270000D01*
X157405826Y-88270000D01*
X157433905Y-88262476D01*
X157503755Y-88264137D01*
X157561618Y-88303299D01*
X157589123Y-88367527D01*
X157590000Y-88382250D01*
X157590000Y-89120000D01*
X158237828Y-89120000D01*
X158237836Y-89120000D01*
X158237847Y-89119999D01*
X158273560Y-89116158D01*
X158297372Y-89113598D01*
X158297379Y-89113596D01*
X158432086Y-89063354D01*
X158432093Y-89063350D01*
X158547187Y-88977190D01*
X158547190Y-88977187D01*
X158633350Y-88862093D01*
X158633354Y-88862086D01*
X158683596Y-88727379D01*
X158683598Y-88727372D01*
X158686440Y-88700941D01*
X158689998Y-88667860D01*
X158690000Y-88667827D01*
X158690000Y-88020000D01*
X157952250Y-88020000D01*
X157885211Y-88000315D01*
X157839456Y-87947511D01*
X157829512Y-87878353D01*
X157832476Y-87863905D01*
X157839999Y-87835828D01*
X157840000Y-87835825D01*
X157840000Y-87704175D01*
X157839999Y-87704171D01*
X157832476Y-87676095D01*
X157834137Y-87606245D01*
X157873299Y-87548382D01*
X157937527Y-87520877D01*
X157952250Y-87520000D01*
X158690000Y-87520000D01*
X158690000Y-86872172D01*
X158689998Y-86872138D01*
X158683598Y-86812628D01*
X158683598Y-86812625D01*
X158678876Y-86799965D01*
X158641174Y-86698879D01*
X158636188Y-86681892D01*
X158633272Y-86668474D01*
X158633273Y-86668474D01*
X158629892Y-86652918D01*
X158634891Y-86583230D01*
X158676744Y-86527328D01*
X158678681Y-86525878D01*
X158731020Y-86503106D01*
X158734591Y-86502463D01*
X158756565Y-86500500D01*
X159357670Y-86500500D01*
X159392606Y-86505523D01*
X159407604Y-86509927D01*
X159466355Y-86547672D01*
X159467542Y-86549041D01*
X159495018Y-86603902D01*
X159496663Y-86611460D01*
X159499500Y-86637831D01*
X159499500Y-91870500D01*
X159479815Y-91937539D01*
X159427011Y-91983294D01*
X159375500Y-91994500D01*
X152260041Y-91994500D01*
X152257550Y-91994514D01*
X152254661Y-91994548D01*
X152194523Y-92004292D01*
X152194512Y-92004295D01*
X152138967Y-92022051D01*
X152069117Y-92023714D01*
X152066275Y-92022916D01*
X151997860Y-92002826D01*
X151997211Y-92002732D01*
X151939955Y-91994500D01*
X151939951Y-91994500D01*
X148043992Y-91994500D01*
X148000313Y-91999197D01*
X147948825Y-92010397D01*
X147938627Y-92012890D01*
X147938624Y-92012891D01*
X147857916Y-92055899D01*
X147857913Y-92055901D01*
X147805104Y-92101660D01*
X147787160Y-92119242D01*
X147787154Y-92119249D01*
X147742511Y-92199059D01*
X147742509Y-92199064D01*
X147722826Y-92266096D01*
X147714500Y-92324003D01*
X147714500Y-97495138D01*
X147694815Y-97562177D01*
X147645778Y-97604667D01*
X147646183Y-97605367D01*
X147642551Y-97607463D01*
X147642011Y-97607932D01*
X147641376Y-97608221D01*
X147640758Y-97608498D01*
X147543737Y-97664514D01*
X147543728Y-97664521D01*
X147464521Y-97743728D01*
X147464514Y-97743737D01*
X147408499Y-97840758D01*
X147408498Y-97840759D01*
X147408494Y-97840770D01*
X147384457Y-97930482D01*
X147379500Y-97948982D01*
X147379500Y-98061018D01*
X147389816Y-98099517D01*
X147406960Y-98163498D01*
X147406963Y-98163510D01*
X147408491Y-98169216D01*
X147408496Y-98169233D01*
X147408499Y-98169242D01*
X147414633Y-98179866D01*
X147414636Y-98179870D01*
X147464512Y-98266259D01*
X147464514Y-98266262D01*
X147464515Y-98266263D01*
X147543737Y-98345485D01*
X147630814Y-98395759D01*
X147647802Y-98405567D01*
X147646734Y-98407415D01*
X147692356Y-98444180D01*
X147714421Y-98510475D01*
X147714500Y-98514900D01*
X147714500Y-105303632D01*
X147715211Y-105320712D01*
X147716929Y-105341278D01*
X147716930Y-105341285D01*
X147730158Y-105389506D01*
X147728912Y-105459363D01*
X147698259Y-105509991D01*
X147619517Y-105588733D01*
X147619514Y-105588737D01*
X147563499Y-105685758D01*
X147563498Y-105685759D01*
X147563494Y-105685770D01*
X147537692Y-105782068D01*
X147534500Y-105793982D01*
X147534500Y-105906018D01*
X147562774Y-106011538D01*
X147563497Y-106014236D01*
X147563498Y-106014239D01*
X147573761Y-106032015D01*
X147619515Y-106111263D01*
X147619517Y-106111265D01*
X147698924Y-106190672D01*
X147732409Y-106251995D01*
X147730221Y-106313285D01*
X147722827Y-106338468D01*
X147722826Y-106338474D01*
X147722825Y-106338478D01*
X147718111Y-106371263D01*
X147714500Y-106396379D01*
X147714500Y-110746007D01*
X147719197Y-110789686D01*
X147730397Y-110841174D01*
X147732890Y-110851372D01*
X147732891Y-110851375D01*
X147775899Y-110932083D01*
X147775901Y-110932086D01*
X147821660Y-110984895D01*
X147830116Y-110993525D01*
X147839246Y-111002843D01*
X147839247Y-111002844D01*
X147839249Y-111002845D01*
X147919059Y-111047488D01*
X147919063Y-111047490D01*
X147986102Y-111067175D01*
X148044000Y-111075500D01*
X148044004Y-111075500D01*
X149711662Y-111075500D01*
X149711672Y-111075500D01*
X149720212Y-111075143D01*
X149728762Y-111074787D01*
X149749325Y-111073070D01*
X149771265Y-111067051D01*
X149841123Y-111068296D01*
X149899218Y-111107113D01*
X149904934Y-111115293D01*
X149909513Y-111121260D01*
X149909515Y-111121263D01*
X149988737Y-111200485D01*
X150085763Y-111256503D01*
X150193982Y-111285500D01*
X150193984Y-111285500D01*
X150306016Y-111285500D01*
X150306018Y-111285500D01*
X150414237Y-111256503D01*
X150511263Y-111200485D01*
X150590485Y-111121263D01*
X150590488Y-111121256D01*
X150595435Y-111114812D01*
X150597243Y-111116199D01*
X150639265Y-111076121D01*
X150707870Y-111062888D01*
X150726065Y-111066393D01*
X150726101Y-111066232D01*
X150730422Y-111067171D01*
X150730430Y-111067172D01*
X150730440Y-111067175D01*
X150788338Y-111075500D01*
X152496643Y-111075500D01*
X152563682Y-111095185D01*
X152609437Y-111147989D01*
X152619381Y-111217147D01*
X152600348Y-111266894D01*
X152600572Y-111267033D01*
X152599851Y-111268193D01*
X152599817Y-111268283D01*
X152599515Y-111268735D01*
X152543499Y-111365758D01*
X152543498Y-111365759D01*
X152543494Y-111365770D01*
X152525079Y-111434500D01*
X152514500Y-111473982D01*
X152514500Y-111586018D01*
X152543497Y-111694237D01*
X152599515Y-111791263D01*
X152678737Y-111870485D01*
X152743588Y-111907926D01*
X152771333Y-111929747D01*
X152780909Y-111939791D01*
X152812922Y-112001895D01*
X152806288Y-112071422D01*
X152805685Y-112072929D01*
X152771761Y-112120577D01*
X152767971Y-112123861D01*
X152748770Y-112137534D01*
X152658734Y-112189516D01*
X152658733Y-112189517D01*
X152658728Y-112189521D01*
X152579521Y-112268728D01*
X152579514Y-112268737D01*
X152523499Y-112365758D01*
X152523498Y-112365759D01*
X152523494Y-112365770D01*
X152500079Y-112453157D01*
X152494500Y-112473982D01*
X152494500Y-112586018D01*
X152512712Y-112653984D01*
X152523497Y-112694236D01*
X152523498Y-112694239D01*
X152530275Y-112705977D01*
X152579515Y-112791263D01*
X152658737Y-112870485D01*
X152755763Y-112926503D01*
X152863982Y-112955500D01*
X152863984Y-112955500D01*
X152976016Y-112955500D01*
X152976018Y-112955500D01*
X153084237Y-112926503D01*
X153181263Y-112870485D01*
X153260485Y-112791263D01*
X153316503Y-112694237D01*
X153345500Y-112586018D01*
X153345500Y-112473982D01*
X153316503Y-112365763D01*
X153260485Y-112268737D01*
X153181263Y-112189515D01*
X153181261Y-112189514D01*
X153181259Y-112189512D01*
X153116414Y-112152074D01*
X153088676Y-112130262D01*
X153082572Y-112123861D01*
X153079097Y-112120216D01*
X153047078Y-112058117D01*
X153053715Y-111988565D01*
X153054331Y-111987028D01*
X153088235Y-111939424D01*
X153092022Y-111936142D01*
X153111224Y-111922469D01*
X153201263Y-111870485D01*
X153280485Y-111791263D01*
X153336503Y-111694237D01*
X153365500Y-111586018D01*
X153365500Y-111473982D01*
X153336503Y-111365763D01*
X153280485Y-111268737D01*
X153280484Y-111268736D01*
X153276421Y-111261698D01*
X153279467Y-111259939D01*
X153260088Y-111209844D01*
X153274112Y-111141397D01*
X153322914Y-111091396D01*
X153383656Y-111075500D01*
X154480500Y-111075500D01*
X154547539Y-111095185D01*
X154593294Y-111147989D01*
X154604500Y-111199500D01*
X154604500Y-117059154D01*
X154605880Y-117082915D01*
X154606038Y-117084718D01*
X154605985Y-117084722D01*
X154605986Y-117084730D01*
X154605730Y-117084744D01*
X154605208Y-117084790D01*
X154593694Y-117150565D01*
X154546351Y-117201950D01*
X154506720Y-117217255D01*
X154493607Y-117219863D01*
X154493579Y-117219870D01*
X154302404Y-117299057D01*
X154130337Y-117414027D01*
X153984027Y-117560337D01*
X153869057Y-117732404D01*
X153789870Y-117923579D01*
X153789864Y-117923604D01*
X153749500Y-118126527D01*
X153749500Y-118126530D01*
X153749500Y-118333469D01*
X153749500Y-118333471D01*
X153749499Y-118333471D01*
X153789864Y-118536394D01*
X153789868Y-118536412D01*
X153789870Y-118536420D01*
X153825303Y-118621963D01*
X153857558Y-118699834D01*
X153869058Y-118727596D01*
X153945701Y-118842302D01*
X153984027Y-118899661D01*
X154130336Y-119045970D01*
X154130340Y-119045973D01*
X154130342Y-119045975D01*
X154130345Y-119045977D01*
X154130349Y-119045980D01*
X154130348Y-119045980D01*
X154130411Y-119046032D01*
X154130448Y-119046046D01*
X154302402Y-119160941D01*
X154493580Y-119240130D01*
X154515263Y-119244442D01*
X154524429Y-119246266D01*
X154524446Y-119246269D01*
X154524460Y-119246272D01*
X154531523Y-119247677D01*
X154545235Y-119250405D01*
X154578514Y-119262145D01*
X154583928Y-119264977D01*
X154634207Y-119313493D01*
X154650275Y-119381490D01*
X154627031Y-119447380D01*
X154571862Y-119490239D01*
X154571035Y-119490565D01*
X154570219Y-119490886D01*
X154524809Y-119499500D01*
X152539302Y-119499500D01*
X152504372Y-119494478D01*
X152498510Y-119492757D01*
X152439730Y-119454985D01*
X152410703Y-119391431D01*
X152420644Y-119322272D01*
X152466397Y-119269466D01*
X152466400Y-119269464D01*
X152467886Y-119268509D01*
X152510733Y-119251207D01*
X152528473Y-119247678D01*
X152528475Y-119247678D01*
X152550303Y-119243335D01*
X152566420Y-119240130D01*
X152757598Y-119160941D01*
X152929655Y-119045977D01*
X153075977Y-118899655D01*
X153190941Y-118727598D01*
X153270130Y-118536420D01*
X153310500Y-118333465D01*
X153310500Y-118126535D01*
X153270130Y-117923580D01*
X153190941Y-117732402D01*
X153076046Y-117560449D01*
X153076036Y-117560417D01*
X153075980Y-117560348D01*
X153075980Y-117560349D01*
X153075977Y-117560345D01*
X153075975Y-117560342D01*
X153075973Y-117560340D01*
X153075970Y-117560336D01*
X152929659Y-117414025D01*
X152807178Y-117332187D01*
X152807130Y-117332155D01*
X152757598Y-117299059D01*
X152757599Y-117299059D01*
X152757597Y-117299058D01*
X152608514Y-117237306D01*
X152566420Y-117219870D01*
X152566412Y-117219868D01*
X152566404Y-117219866D01*
X152566394Y-117219864D01*
X152363471Y-117179500D01*
X152363469Y-117179500D01*
X152363465Y-117179500D01*
X152156535Y-117179500D01*
X152156530Y-117179500D01*
X152156528Y-117179500D01*
X151953604Y-117219864D01*
X151953579Y-117219870D01*
X151762404Y-117299057D01*
X151590337Y-117414027D01*
X151444027Y-117560337D01*
X151329057Y-117732404D01*
X151249870Y-117923579D01*
X151249864Y-117923604D01*
X151209500Y-118126527D01*
X151209500Y-118126530D01*
X151209500Y-118333469D01*
X151209500Y-118333471D01*
X151209499Y-118333471D01*
X151249864Y-118536394D01*
X151249868Y-118536412D01*
X151249870Y-118536420D01*
X151285303Y-118621963D01*
X151317558Y-118699834D01*
X151329058Y-118727596D01*
X151405701Y-118842302D01*
X151444027Y-118899661D01*
X151590336Y-119045970D01*
X151590340Y-119045973D01*
X151590342Y-119045975D01*
X151590345Y-119045977D01*
X151590349Y-119045980D01*
X151590348Y-119045980D01*
X151590411Y-119046032D01*
X151590448Y-119046046D01*
X151762402Y-119160941D01*
X151953580Y-119240130D01*
X151975263Y-119244442D01*
X151984429Y-119246266D01*
X151984446Y-119246269D01*
X151984460Y-119246272D01*
X151991523Y-119247677D01*
X152005235Y-119250405D01*
X152038514Y-119262145D01*
X152043928Y-119264977D01*
X152094207Y-119313493D01*
X152110275Y-119381490D01*
X152087031Y-119447380D01*
X152031862Y-119490239D01*
X152031035Y-119490565D01*
X152030219Y-119490886D01*
X151984809Y-119499500D01*
X149999302Y-119499500D01*
X149964372Y-119494478D01*
X149958510Y-119492757D01*
X149899730Y-119454985D01*
X149870703Y-119391431D01*
X149880644Y-119322272D01*
X149926397Y-119269466D01*
X149926400Y-119269464D01*
X149927886Y-119268509D01*
X149970733Y-119251207D01*
X149988473Y-119247678D01*
X149988475Y-119247678D01*
X150010303Y-119243335D01*
X150026420Y-119240130D01*
X150217598Y-119160941D01*
X150389655Y-119045977D01*
X150535977Y-118899655D01*
X150650941Y-118727598D01*
X150730130Y-118536420D01*
X150770500Y-118333465D01*
X150770500Y-118126535D01*
X150730130Y-117923580D01*
X150650941Y-117732402D01*
X150536046Y-117560449D01*
X150536036Y-117560417D01*
X150535980Y-117560348D01*
X150535980Y-117560349D01*
X150535977Y-117560345D01*
X150535975Y-117560342D01*
X150535973Y-117560340D01*
X150535970Y-117560336D01*
X150389659Y-117414025D01*
X150267178Y-117332187D01*
X150267130Y-117332155D01*
X150217598Y-117299059D01*
X150217599Y-117299059D01*
X150217597Y-117299058D01*
X150068514Y-117237306D01*
X150026420Y-117219870D01*
X150026412Y-117219868D01*
X150026404Y-117219866D01*
X150026394Y-117219864D01*
X149823471Y-117179500D01*
X149823469Y-117179500D01*
X149823465Y-117179500D01*
X149616535Y-117179500D01*
X149616530Y-117179500D01*
X149616528Y-117179500D01*
X149413604Y-117219864D01*
X149413579Y-117219870D01*
X149222404Y-117299057D01*
X149050337Y-117414027D01*
X148904027Y-117560337D01*
X148789057Y-117732404D01*
X148709870Y-117923579D01*
X148709864Y-117923604D01*
X148669500Y-118126527D01*
X148669500Y-118126530D01*
X148669500Y-118333469D01*
X148669500Y-118333471D01*
X148669499Y-118333471D01*
X148709864Y-118536394D01*
X148709868Y-118536412D01*
X148709870Y-118536420D01*
X148745303Y-118621963D01*
X148777558Y-118699834D01*
X148789058Y-118727596D01*
X148865701Y-118842302D01*
X148904027Y-118899661D01*
X149050336Y-119045970D01*
X149050340Y-119045973D01*
X149050342Y-119045975D01*
X149050345Y-119045977D01*
X149050349Y-119045980D01*
X149050348Y-119045980D01*
X149050411Y-119046032D01*
X149050448Y-119046046D01*
X149222402Y-119160941D01*
X149413580Y-119240130D01*
X149435263Y-119244442D01*
X149444429Y-119246266D01*
X149444446Y-119246269D01*
X149444460Y-119246272D01*
X149451523Y-119247677D01*
X149465235Y-119250405D01*
X149498514Y-119262145D01*
X149503928Y-119264977D01*
X149554207Y-119313493D01*
X149570275Y-119381490D01*
X149547031Y-119447380D01*
X149491862Y-119490239D01*
X149491035Y-119490565D01*
X149490219Y-119490886D01*
X149444809Y-119499500D01*
X147459302Y-119499500D01*
X147424372Y-119494478D01*
X147418510Y-119492757D01*
X147359730Y-119454985D01*
X147330703Y-119391431D01*
X147340644Y-119322272D01*
X147386397Y-119269466D01*
X147386400Y-119269464D01*
X147387886Y-119268509D01*
X147430733Y-119251207D01*
X147448473Y-119247678D01*
X147448475Y-119247678D01*
X147470303Y-119243335D01*
X147486420Y-119240130D01*
X147677598Y-119160941D01*
X147849655Y-119045977D01*
X147995977Y-118899655D01*
X148110941Y-118727598D01*
X148190130Y-118536420D01*
X148230500Y-118333465D01*
X148230500Y-118126535D01*
X148190130Y-117923580D01*
X148110941Y-117732402D01*
X147996046Y-117560449D01*
X147996036Y-117560417D01*
X147995980Y-117560348D01*
X147995980Y-117560349D01*
X147995977Y-117560345D01*
X147995975Y-117560342D01*
X147995973Y-117560340D01*
X147995970Y-117560336D01*
X147849659Y-117414025D01*
X147727178Y-117332187D01*
X147727130Y-117332155D01*
X147677598Y-117299059D01*
X147677599Y-117299059D01*
X147677597Y-117299058D01*
X147528514Y-117237306D01*
X147486420Y-117219870D01*
X147486412Y-117219868D01*
X147486404Y-117219866D01*
X147486394Y-117219864D01*
X147283471Y-117179500D01*
X147283469Y-117179500D01*
X147283465Y-117179500D01*
X147076535Y-117179500D01*
X147076530Y-117179500D01*
X147076528Y-117179500D01*
X146873604Y-117219864D01*
X146873579Y-117219870D01*
X146682404Y-117299057D01*
X146510337Y-117414027D01*
X146364027Y-117560337D01*
X146249057Y-117732404D01*
X146169870Y-117923579D01*
X146169864Y-117923604D01*
X146129500Y-118126527D01*
X146129500Y-118126530D01*
X146129500Y-118333469D01*
X146129500Y-118333471D01*
X146129499Y-118333471D01*
X146169864Y-118536394D01*
X146169868Y-118536412D01*
X146169870Y-118536420D01*
X146205303Y-118621963D01*
X146237558Y-118699834D01*
X146249058Y-118727596D01*
X146325701Y-118842302D01*
X146364027Y-118899661D01*
X146510336Y-119045970D01*
X146510340Y-119045973D01*
X146510342Y-119045975D01*
X146510345Y-119045977D01*
X146510349Y-119045980D01*
X146510348Y-119045980D01*
X146510411Y-119046032D01*
X146510448Y-119046046D01*
X146682402Y-119160941D01*
X146873580Y-119240130D01*
X146895263Y-119244442D01*
X146904429Y-119246266D01*
X146904446Y-119246269D01*
X146904460Y-119246272D01*
X146911523Y-119247677D01*
X146925235Y-119250405D01*
X146958514Y-119262145D01*
X146963928Y-119264977D01*
X147014207Y-119313493D01*
X147030275Y-119381490D01*
X147007031Y-119447380D01*
X146951862Y-119490239D01*
X146951035Y-119490565D01*
X146950219Y-119490886D01*
X146904809Y-119499500D01*
X144919302Y-119499500D01*
X144884372Y-119494478D01*
X144878510Y-119492757D01*
X144819730Y-119454985D01*
X144790703Y-119391431D01*
X144800644Y-119322272D01*
X144846397Y-119269466D01*
X144846400Y-119269464D01*
X144847886Y-119268509D01*
X144890733Y-119251207D01*
X144908473Y-119247678D01*
X144908475Y-119247678D01*
X144930303Y-119243335D01*
X144946420Y-119240130D01*
X145137598Y-119160941D01*
X145309655Y-119045977D01*
X145455977Y-118899655D01*
X145570941Y-118727598D01*
X145650130Y-118536420D01*
X145690500Y-118333465D01*
X145690500Y-118126535D01*
X145650130Y-117923580D01*
X145570941Y-117732402D01*
X145456046Y-117560449D01*
X145456036Y-117560417D01*
X145455980Y-117560348D01*
X145455980Y-117560349D01*
X145455977Y-117560345D01*
X145455975Y-117560342D01*
X145455973Y-117560340D01*
X145455970Y-117560336D01*
X145309659Y-117414025D01*
X145187178Y-117332187D01*
X145187130Y-117332155D01*
X145137598Y-117299059D01*
X145137599Y-117299059D01*
X145137597Y-117299058D01*
X144988514Y-117237306D01*
X144946420Y-117219870D01*
X144946412Y-117219868D01*
X144946404Y-117219866D01*
X144946394Y-117219864D01*
X144743471Y-117179500D01*
X144743469Y-117179500D01*
X144743465Y-117179500D01*
X144536535Y-117179500D01*
X144536530Y-117179500D01*
X144536528Y-117179500D01*
X144333604Y-117219864D01*
X144333579Y-117219870D01*
X144142404Y-117299057D01*
X143970337Y-117414027D01*
X143824027Y-117560337D01*
X143709057Y-117732404D01*
X143629870Y-117923579D01*
X143629864Y-117923604D01*
X143589500Y-118126527D01*
X143589500Y-118126530D01*
X143589500Y-118333469D01*
X143589500Y-118333471D01*
X143589499Y-118333471D01*
X143629864Y-118536394D01*
X143629868Y-118536412D01*
X143629870Y-118536420D01*
X143665303Y-118621963D01*
X143697558Y-118699834D01*
X143709058Y-118727596D01*
X143785701Y-118842302D01*
X143824027Y-118899661D01*
X143970336Y-119045970D01*
X143970340Y-119045973D01*
X143970342Y-119045975D01*
X143970345Y-119045977D01*
X143970349Y-119045980D01*
X143970348Y-119045980D01*
X143970411Y-119046032D01*
X143970448Y-119046046D01*
X144142402Y-119160941D01*
X144333580Y-119240130D01*
X144355263Y-119244442D01*
X144364429Y-119246266D01*
X144364446Y-119246269D01*
X144364460Y-119246272D01*
X144371523Y-119247677D01*
X144385235Y-119250405D01*
X144418514Y-119262145D01*
X144423928Y-119264977D01*
X144474207Y-119313493D01*
X144490275Y-119381490D01*
X144467031Y-119447380D01*
X144411862Y-119490239D01*
X144411035Y-119490565D01*
X144410219Y-119490886D01*
X144364809Y-119499500D01*
X142379302Y-119499500D01*
X142344372Y-119494478D01*
X142338510Y-119492757D01*
X142279730Y-119454985D01*
X142250703Y-119391431D01*
X142260644Y-119322272D01*
X142306397Y-119269466D01*
X142306400Y-119269464D01*
X142307886Y-119268509D01*
X142350733Y-119251207D01*
X142368473Y-119247678D01*
X142368475Y-119247678D01*
X142390303Y-119243335D01*
X142406420Y-119240130D01*
X142597598Y-119160941D01*
X142769655Y-119045977D01*
X142915977Y-118899655D01*
X143030941Y-118727598D01*
X143110130Y-118536420D01*
X143150500Y-118333465D01*
X143150500Y-118126535D01*
X143110130Y-117923580D01*
X143030941Y-117732402D01*
X142916046Y-117560449D01*
X142916036Y-117560417D01*
X142915980Y-117560348D01*
X142915980Y-117560349D01*
X142915977Y-117560345D01*
X142915975Y-117560342D01*
X142915973Y-117560340D01*
X142915970Y-117560336D01*
X142769659Y-117414025D01*
X142647178Y-117332187D01*
X142647130Y-117332155D01*
X142597598Y-117299059D01*
X142597599Y-117299059D01*
X142597597Y-117299058D01*
X142448514Y-117237306D01*
X142406420Y-117219870D01*
X142406412Y-117219868D01*
X142406404Y-117219866D01*
X142406394Y-117219864D01*
X142203471Y-117179500D01*
X142203469Y-117179500D01*
X142203465Y-117179500D01*
X141996535Y-117179500D01*
X141996530Y-117179500D01*
X141996528Y-117179500D01*
X141793604Y-117219864D01*
X141793579Y-117219870D01*
X141602404Y-117299057D01*
X141430337Y-117414027D01*
X141284027Y-117560337D01*
X141169057Y-117732404D01*
X141089870Y-117923579D01*
X141089864Y-117923604D01*
X141049500Y-118126527D01*
X141049500Y-118126530D01*
X141049500Y-118333469D01*
X141049500Y-118333471D01*
X141049499Y-118333471D01*
X141089864Y-118536394D01*
X141089868Y-118536412D01*
X141089870Y-118536420D01*
X141125303Y-118621963D01*
X141157558Y-118699834D01*
X141169058Y-118727596D01*
X141245701Y-118842302D01*
X141284027Y-118899661D01*
X141430336Y-119045970D01*
X141430340Y-119045973D01*
X141430342Y-119045975D01*
X141430345Y-119045977D01*
X141430349Y-119045980D01*
X141430348Y-119045980D01*
X141430411Y-119046032D01*
X141430448Y-119046046D01*
X141602402Y-119160941D01*
X141793580Y-119240130D01*
X141815263Y-119244442D01*
X141824429Y-119246266D01*
X141824446Y-119246269D01*
X141824460Y-119246272D01*
X141831523Y-119247677D01*
X141845235Y-119250405D01*
X141878514Y-119262145D01*
X141883928Y-119264977D01*
X141934207Y-119313493D01*
X141950275Y-119381490D01*
X141927031Y-119447380D01*
X141871862Y-119490239D01*
X141871035Y-119490565D01*
X141870219Y-119490886D01*
X141824809Y-119499500D01*
X139839302Y-119499500D01*
X139804372Y-119494478D01*
X139798510Y-119492757D01*
X139739730Y-119454985D01*
X139710703Y-119391431D01*
X139720644Y-119322272D01*
X139766397Y-119269466D01*
X139766400Y-119269464D01*
X139767886Y-119268509D01*
X139810733Y-119251207D01*
X139828473Y-119247678D01*
X139828475Y-119247678D01*
X139850303Y-119243335D01*
X139866420Y-119240130D01*
X140057598Y-119160941D01*
X140229655Y-119045977D01*
X140375977Y-118899655D01*
X140490941Y-118727598D01*
X140570130Y-118536420D01*
X140610500Y-118333465D01*
X140610500Y-118126535D01*
X140570130Y-117923580D01*
X140490941Y-117732402D01*
X140376046Y-117560449D01*
X140376036Y-117560417D01*
X140375980Y-117560348D01*
X140375980Y-117560349D01*
X140375977Y-117560345D01*
X140375975Y-117560342D01*
X140375973Y-117560340D01*
X140375970Y-117560336D01*
X140229659Y-117414025D01*
X140107178Y-117332187D01*
X140107130Y-117332155D01*
X140057598Y-117299059D01*
X140057599Y-117299059D01*
X140057597Y-117299058D01*
X139908514Y-117237306D01*
X139866420Y-117219870D01*
X139866412Y-117219868D01*
X139866404Y-117219866D01*
X139866394Y-117219864D01*
X139663471Y-117179500D01*
X139663469Y-117179500D01*
X139663465Y-117179500D01*
X139456535Y-117179500D01*
X139456530Y-117179500D01*
X139456528Y-117179500D01*
X139253604Y-117219864D01*
X139253579Y-117219870D01*
X139062404Y-117299057D01*
X138890337Y-117414027D01*
X138744027Y-117560337D01*
X138629057Y-117732404D01*
X138549870Y-117923579D01*
X138549864Y-117923604D01*
X138509500Y-118126527D01*
X138509500Y-118126530D01*
X138509500Y-118333469D01*
X138509500Y-118333471D01*
X138509499Y-118333471D01*
X138549864Y-118536394D01*
X138549868Y-118536412D01*
X138549870Y-118536420D01*
X138585303Y-118621963D01*
X138617558Y-118699834D01*
X138629058Y-118727596D01*
X138705701Y-118842302D01*
X138744027Y-118899661D01*
X138890336Y-119045970D01*
X138890340Y-119045973D01*
X138890342Y-119045975D01*
X138890345Y-119045977D01*
X138890349Y-119045980D01*
X138890348Y-119045980D01*
X138890411Y-119046032D01*
X138890448Y-119046046D01*
X139062402Y-119160941D01*
X139253580Y-119240130D01*
X139275263Y-119244442D01*
X139284429Y-119246266D01*
X139284446Y-119246269D01*
X139284460Y-119246272D01*
X139291523Y-119247677D01*
X139305235Y-119250405D01*
X139338514Y-119262145D01*
X139343928Y-119264977D01*
X139394207Y-119313493D01*
X139410275Y-119381490D01*
X139387031Y-119447380D01*
X139331862Y-119490239D01*
X139331035Y-119490565D01*
X139330219Y-119490886D01*
X139284809Y-119499500D01*
X137299302Y-119499500D01*
X137264372Y-119494478D01*
X137258510Y-119492757D01*
X137199730Y-119454985D01*
X137170703Y-119391431D01*
X137180644Y-119322272D01*
X137226397Y-119269466D01*
X137226400Y-119269464D01*
X137227886Y-119268509D01*
X137270733Y-119251207D01*
X137288473Y-119247678D01*
X137288475Y-119247678D01*
X137310303Y-119243335D01*
X137326420Y-119240130D01*
X137517598Y-119160941D01*
X137689655Y-119045977D01*
X137835977Y-118899655D01*
X137950941Y-118727598D01*
X138030130Y-118536420D01*
X138070500Y-118333465D01*
X138070500Y-118126535D01*
X138030130Y-117923580D01*
X137950941Y-117732402D01*
X137836046Y-117560449D01*
X137836036Y-117560417D01*
X137835980Y-117560348D01*
X137835980Y-117560349D01*
X137835977Y-117560345D01*
X137835975Y-117560342D01*
X137835973Y-117560340D01*
X137835970Y-117560336D01*
X137689659Y-117414025D01*
X137567178Y-117332187D01*
X137567130Y-117332155D01*
X137517598Y-117299059D01*
X137517599Y-117299059D01*
X137517597Y-117299058D01*
X137368514Y-117237306D01*
X137326420Y-117219870D01*
X137326412Y-117219868D01*
X137326404Y-117219866D01*
X137326394Y-117219864D01*
X137123471Y-117179500D01*
X137123469Y-117179500D01*
X137123465Y-117179500D01*
X136916535Y-117179500D01*
X136916530Y-117179500D01*
X136916528Y-117179500D01*
X136713604Y-117219864D01*
X136713579Y-117219870D01*
X136522404Y-117299057D01*
X136350337Y-117414027D01*
X136204027Y-117560337D01*
X136089057Y-117732404D01*
X136009870Y-117923579D01*
X136009864Y-117923604D01*
X135969500Y-118126527D01*
X135969500Y-118126530D01*
X135969500Y-118333469D01*
X135969500Y-118333471D01*
X135969499Y-118333471D01*
X136009864Y-118536394D01*
X136009868Y-118536412D01*
X136009870Y-118536420D01*
X136045303Y-118621963D01*
X136077558Y-118699834D01*
X136089058Y-118727596D01*
X136165701Y-118842302D01*
X136204027Y-118899661D01*
X136350336Y-119045970D01*
X136350340Y-119045973D01*
X136350342Y-119045975D01*
X136350345Y-119045977D01*
X136350349Y-119045980D01*
X136350348Y-119045980D01*
X136350411Y-119046032D01*
X136350448Y-119046046D01*
X136522402Y-119160941D01*
X136713580Y-119240130D01*
X136735263Y-119244442D01*
X136744429Y-119246266D01*
X136744446Y-119246269D01*
X136744460Y-119246272D01*
X136751523Y-119247677D01*
X136765235Y-119250405D01*
X136798514Y-119262145D01*
X136803928Y-119264977D01*
X136854207Y-119313493D01*
X136870275Y-119381490D01*
X136847031Y-119447380D01*
X136791862Y-119490239D01*
X136791035Y-119490565D01*
X136790219Y-119490886D01*
X136744809Y-119499500D01*
X134759302Y-119499500D01*
X134724372Y-119494478D01*
X134718510Y-119492757D01*
X134659730Y-119454985D01*
X134630703Y-119391431D01*
X134640644Y-119322272D01*
X134686397Y-119269466D01*
X134686400Y-119269464D01*
X134687886Y-119268509D01*
X134730733Y-119251207D01*
X134748473Y-119247678D01*
X134748475Y-119247678D01*
X134770303Y-119243335D01*
X134786420Y-119240130D01*
X134977598Y-119160941D01*
X135149655Y-119045977D01*
X135295977Y-118899655D01*
X135410941Y-118727598D01*
X135490130Y-118536420D01*
X135530500Y-118333465D01*
X135530500Y-118126535D01*
X135490130Y-117923580D01*
X135410941Y-117732402D01*
X135296046Y-117560449D01*
X135296036Y-117560417D01*
X135295980Y-117560348D01*
X135295980Y-117560349D01*
X135295977Y-117560345D01*
X135295975Y-117560342D01*
X135295973Y-117560340D01*
X135295970Y-117560336D01*
X135149659Y-117414025D01*
X135027178Y-117332187D01*
X135027130Y-117332155D01*
X134977598Y-117299059D01*
X134977599Y-117299059D01*
X134977597Y-117299058D01*
X134828514Y-117237306D01*
X134786420Y-117219870D01*
X134786412Y-117219868D01*
X134786404Y-117219866D01*
X134786394Y-117219864D01*
X134583471Y-117179500D01*
X134583469Y-117179500D01*
X134583465Y-117179500D01*
X134376535Y-117179500D01*
X134376530Y-117179500D01*
X134376528Y-117179500D01*
X134173604Y-117219864D01*
X134173579Y-117219870D01*
X133982404Y-117299057D01*
X133810337Y-117414027D01*
X133664027Y-117560337D01*
X133549057Y-117732404D01*
X133469870Y-117923579D01*
X133469864Y-117923604D01*
X133429500Y-118126527D01*
X133429500Y-118126530D01*
X133429500Y-118333469D01*
X133429500Y-118333471D01*
X133429499Y-118333471D01*
X133469864Y-118536394D01*
X133469868Y-118536412D01*
X133469870Y-118536420D01*
X133505303Y-118621963D01*
X133537558Y-118699834D01*
X133549058Y-118727596D01*
X133625701Y-118842302D01*
X133664027Y-118899661D01*
X133810336Y-119045970D01*
X133810340Y-119045973D01*
X133810342Y-119045975D01*
X133810345Y-119045977D01*
X133810349Y-119045980D01*
X133810348Y-119045980D01*
X133810411Y-119046032D01*
X133810448Y-119046046D01*
X133982402Y-119160941D01*
X134173580Y-119240130D01*
X134195263Y-119244442D01*
X134204429Y-119246266D01*
X134204446Y-119246269D01*
X134204460Y-119246272D01*
X134211523Y-119247677D01*
X134225235Y-119250405D01*
X134258514Y-119262145D01*
X134263928Y-119264977D01*
X134314207Y-119313493D01*
X134330275Y-119381490D01*
X134307031Y-119447380D01*
X134251862Y-119490239D01*
X134251035Y-119490565D01*
X134250219Y-119490886D01*
X134204809Y-119499500D01*
X132219302Y-119499500D01*
X132184372Y-119494478D01*
X132178510Y-119492757D01*
X132119730Y-119454985D01*
X132090703Y-119391431D01*
X132100644Y-119322272D01*
X132146397Y-119269466D01*
X132146400Y-119269464D01*
X132147886Y-119268509D01*
X132190733Y-119251207D01*
X132208473Y-119247678D01*
X132208475Y-119247678D01*
X132230303Y-119243335D01*
X132246420Y-119240130D01*
X132437598Y-119160941D01*
X132609655Y-119045977D01*
X132755977Y-118899655D01*
X132870941Y-118727598D01*
X132950130Y-118536420D01*
X132990500Y-118333465D01*
X132990500Y-118126535D01*
X132950130Y-117923580D01*
X132870941Y-117732402D01*
X132756046Y-117560449D01*
X132756036Y-117560417D01*
X132755980Y-117560348D01*
X132755980Y-117560349D01*
X132755977Y-117560345D01*
X132755975Y-117560342D01*
X132755973Y-117560340D01*
X132755970Y-117560336D01*
X132609659Y-117414025D01*
X132487178Y-117332187D01*
X132487130Y-117332155D01*
X132437598Y-117299059D01*
X132437599Y-117299059D01*
X132437597Y-117299058D01*
X132288514Y-117237306D01*
X132246420Y-117219870D01*
X132246412Y-117219868D01*
X132246404Y-117219866D01*
X132246394Y-117219864D01*
X132043471Y-117179500D01*
X132043469Y-117179500D01*
X132043465Y-117179500D01*
X131836535Y-117179500D01*
X131836530Y-117179500D01*
X131836528Y-117179500D01*
X131633604Y-117219864D01*
X131633579Y-117219870D01*
X131442404Y-117299057D01*
X131270337Y-117414027D01*
X131124027Y-117560337D01*
X131009057Y-117732404D01*
X130929870Y-117923579D01*
X130929864Y-117923604D01*
X130889500Y-118126527D01*
X130889500Y-118126530D01*
X130889500Y-118333469D01*
X130889500Y-118333471D01*
X130889499Y-118333471D01*
X130929864Y-118536394D01*
X130929868Y-118536412D01*
X130929870Y-118536420D01*
X130965303Y-118621963D01*
X130997558Y-118699834D01*
X131009058Y-118727596D01*
X131085701Y-118842302D01*
X131124027Y-118899661D01*
X131270336Y-119045970D01*
X131270340Y-119045973D01*
X131270342Y-119045975D01*
X131270345Y-119045977D01*
X131270349Y-119045980D01*
X131270348Y-119045980D01*
X131270411Y-119046032D01*
X131270448Y-119046046D01*
X131442402Y-119160941D01*
X131633580Y-119240130D01*
X131655263Y-119244442D01*
X131664429Y-119246266D01*
X131664446Y-119246269D01*
X131664460Y-119246272D01*
X131671523Y-119247677D01*
X131685235Y-119250405D01*
X131718514Y-119262145D01*
X131723928Y-119264977D01*
X131774207Y-119313493D01*
X131790275Y-119381490D01*
X131767031Y-119447380D01*
X131711862Y-119490239D01*
X131711035Y-119490565D01*
X131710219Y-119490886D01*
X131664809Y-119499500D01*
X129679302Y-119499500D01*
X129644372Y-119494478D01*
X129638510Y-119492757D01*
X129579730Y-119454985D01*
X129550703Y-119391431D01*
X129560644Y-119322272D01*
X129606397Y-119269466D01*
X129606400Y-119269464D01*
X129607886Y-119268509D01*
X129650733Y-119251207D01*
X129668473Y-119247678D01*
X129668475Y-119247678D01*
X129690303Y-119243335D01*
X129706420Y-119240130D01*
X129897598Y-119160941D01*
X130069655Y-119045977D01*
X130215977Y-118899655D01*
X130330941Y-118727598D01*
X130410130Y-118536420D01*
X130450500Y-118333465D01*
X130450500Y-118126535D01*
X130410130Y-117923580D01*
X130330941Y-117732402D01*
X130216046Y-117560449D01*
X130216036Y-117560417D01*
X130215980Y-117560348D01*
X130215980Y-117560349D01*
X130215977Y-117560345D01*
X130215975Y-117560342D01*
X130215973Y-117560340D01*
X130215970Y-117560336D01*
X130069659Y-117414025D01*
X129947178Y-117332187D01*
X129947130Y-117332155D01*
X129897598Y-117299059D01*
X129897599Y-117299059D01*
X129897597Y-117299058D01*
X129748514Y-117237306D01*
X129706420Y-117219870D01*
X129706412Y-117219868D01*
X129706404Y-117219866D01*
X129706394Y-117219864D01*
X129503471Y-117179500D01*
X129503469Y-117179500D01*
X129503465Y-117179500D01*
X129296535Y-117179500D01*
X129296530Y-117179500D01*
X129296528Y-117179500D01*
X129093604Y-117219864D01*
X129093579Y-117219870D01*
X128902404Y-117299057D01*
X128730337Y-117414027D01*
X128584027Y-117560337D01*
X128469057Y-117732404D01*
X128389870Y-117923579D01*
X128389864Y-117923604D01*
X128349500Y-118126527D01*
X128349500Y-118126530D01*
X128349500Y-118333469D01*
X128349500Y-118333471D01*
X128349499Y-118333471D01*
X128389864Y-118536394D01*
X128389868Y-118536412D01*
X128389870Y-118536420D01*
X128425303Y-118621963D01*
X128457558Y-118699834D01*
X128469058Y-118727596D01*
X128545701Y-118842302D01*
X128584027Y-118899661D01*
X128730336Y-119045970D01*
X128730340Y-119045973D01*
X128730342Y-119045975D01*
X128730345Y-119045977D01*
X128730349Y-119045980D01*
X128730348Y-119045980D01*
X128730411Y-119046032D01*
X128730448Y-119046046D01*
X128902402Y-119160941D01*
X129093580Y-119240130D01*
X129115263Y-119244442D01*
X129124429Y-119246266D01*
X129124446Y-119246269D01*
X129124460Y-119246272D01*
X129131523Y-119247677D01*
X129145235Y-119250405D01*
X129178514Y-119262145D01*
X129183928Y-119264977D01*
X129234207Y-119313493D01*
X129250275Y-119381490D01*
X129227031Y-119447380D01*
X129171862Y-119490239D01*
X129171035Y-119490565D01*
X129170219Y-119490886D01*
X129124809Y-119499500D01*
X127139302Y-119499500D01*
X127104372Y-119494478D01*
X127098510Y-119492757D01*
X127039730Y-119454985D01*
X127010703Y-119391431D01*
X127020644Y-119322272D01*
X127066397Y-119269466D01*
X127066400Y-119269464D01*
X127067886Y-119268509D01*
X127110733Y-119251207D01*
X127128473Y-119247678D01*
X127128475Y-119247678D01*
X127150303Y-119243335D01*
X127166420Y-119240130D01*
X127357598Y-119160941D01*
X127529655Y-119045977D01*
X127675977Y-118899655D01*
X127790941Y-118727598D01*
X127870130Y-118536420D01*
X127910500Y-118333465D01*
X127910500Y-118126535D01*
X127870130Y-117923580D01*
X127790941Y-117732402D01*
X127676046Y-117560449D01*
X127676036Y-117560417D01*
X127675980Y-117560348D01*
X127675980Y-117560349D01*
X127675977Y-117560345D01*
X127675975Y-117560342D01*
X127675973Y-117560340D01*
X127675970Y-117560336D01*
X127529659Y-117414025D01*
X127407178Y-117332187D01*
X127407130Y-117332155D01*
X127357598Y-117299059D01*
X127357599Y-117299059D01*
X127357597Y-117299058D01*
X127208514Y-117237306D01*
X127166420Y-117219870D01*
X127166412Y-117219868D01*
X127166404Y-117219866D01*
X127166394Y-117219864D01*
X126963471Y-117179500D01*
X126963469Y-117179500D01*
X126963465Y-117179500D01*
X126756535Y-117179500D01*
X126756530Y-117179500D01*
X126756528Y-117179500D01*
X126553604Y-117219864D01*
X126553579Y-117219870D01*
X126362404Y-117299057D01*
X126190337Y-117414027D01*
X126044027Y-117560337D01*
X125929057Y-117732404D01*
X125849870Y-117923579D01*
X125849864Y-117923604D01*
X125809500Y-118126527D01*
X125809500Y-118126530D01*
X125809500Y-118333469D01*
X125809500Y-118333471D01*
X125809499Y-118333471D01*
X125849864Y-118536394D01*
X125849868Y-118536412D01*
X125849870Y-118536420D01*
X125885303Y-118621963D01*
X125917558Y-118699834D01*
X125929058Y-118727596D01*
X126005701Y-118842302D01*
X126044027Y-118899661D01*
X126190336Y-119045970D01*
X126190340Y-119045973D01*
X126190342Y-119045975D01*
X126190345Y-119045977D01*
X126190349Y-119045980D01*
X126190348Y-119045980D01*
X126190411Y-119046032D01*
X126190448Y-119046046D01*
X126362402Y-119160941D01*
X126553580Y-119240130D01*
X126575263Y-119244442D01*
X126584429Y-119246266D01*
X126584446Y-119246269D01*
X126584460Y-119246272D01*
X126591523Y-119247677D01*
X126605235Y-119250405D01*
X126638514Y-119262145D01*
X126643928Y-119264977D01*
X126694207Y-119313493D01*
X126710275Y-119381490D01*
X126687031Y-119447380D01*
X126631862Y-119490239D01*
X126631035Y-119490565D01*
X126630219Y-119490886D01*
X126584809Y-119499500D01*
X124599302Y-119499500D01*
X124564372Y-119494478D01*
X124558510Y-119492757D01*
X124499730Y-119454985D01*
X124470703Y-119391431D01*
X124480644Y-119322272D01*
X124526397Y-119269466D01*
X124526400Y-119269464D01*
X124527886Y-119268509D01*
X124570733Y-119251207D01*
X124588473Y-119247678D01*
X124588475Y-119247678D01*
X124610303Y-119243335D01*
X124626420Y-119240130D01*
X124817598Y-119160941D01*
X124989655Y-119045977D01*
X125135977Y-118899655D01*
X125250941Y-118727598D01*
X125330130Y-118536420D01*
X125370500Y-118333465D01*
X125370500Y-118126535D01*
X125330130Y-117923580D01*
X125250941Y-117732402D01*
X125136046Y-117560449D01*
X125136036Y-117560417D01*
X125135980Y-117560348D01*
X125135980Y-117560349D01*
X125135977Y-117560345D01*
X125135975Y-117560342D01*
X125135973Y-117560340D01*
X125135970Y-117560336D01*
X124989659Y-117414025D01*
X124867178Y-117332187D01*
X124867130Y-117332155D01*
X124817598Y-117299059D01*
X124817599Y-117299059D01*
X124817597Y-117299058D01*
X124668514Y-117237306D01*
X124626420Y-117219870D01*
X124626412Y-117219868D01*
X124626404Y-117219866D01*
X124626394Y-117219864D01*
X124423471Y-117179500D01*
X124423469Y-117179500D01*
X124423465Y-117179500D01*
X124216535Y-117179500D01*
X124216530Y-117179500D01*
X124216528Y-117179500D01*
X124013604Y-117219864D01*
X124013579Y-117219870D01*
X123822404Y-117299057D01*
X123650337Y-117414027D01*
X123504027Y-117560337D01*
X123389060Y-117732399D01*
X123389058Y-117732403D01*
X123375383Y-117765418D01*
X123357373Y-117795770D01*
X123351728Y-117802775D01*
X123294336Y-117842623D01*
X123224511Y-117845117D01*
X123164422Y-117809465D01*
X123134497Y-117753467D01*
X123133317Y-117748474D01*
X123130000Y-117719984D01*
X123130000Y-117332172D01*
X123129998Y-117332138D01*
X123123598Y-117272628D01*
X123123596Y-117272621D01*
X123110425Y-117237307D01*
X123073354Y-117137913D01*
X123073350Y-117137906D01*
X122987190Y-117022812D01*
X122987187Y-117022809D01*
X122987185Y-117022807D01*
X122894834Y-116953673D01*
X122872093Y-116936649D01*
X122872088Y-116936646D01*
X122872089Y-116936646D01*
X122737377Y-116886402D01*
X122737370Y-116886400D01*
X122677852Y-116880000D01*
X122677844Y-116880000D01*
X122030000Y-116880000D01*
X122030000Y-117617749D01*
X122010315Y-117684788D01*
X121957511Y-117730543D01*
X121888353Y-117740487D01*
X121873908Y-117737524D01*
X121845828Y-117730000D01*
X121845826Y-117730000D01*
X121714174Y-117730000D01*
X121714171Y-117730000D01*
X121686092Y-117737524D01*
X121616242Y-117735861D01*
X121558380Y-117696698D01*
X121530877Y-117632469D01*
X121530000Y-117617749D01*
X121530000Y-116880000D01*
X120882155Y-116880000D01*
X120882146Y-116880000D01*
X120822628Y-116886400D01*
X120822616Y-116886403D01*
X120687791Y-116936689D01*
X120670812Y-116941674D01*
X120652940Y-116945561D01*
X120583248Y-116940574D01*
X120527317Y-116898700D01*
X120527313Y-116898695D01*
X120525870Y-116896767D01*
X120503113Y-116844473D01*
X120502469Y-116840902D01*
X120500500Y-116818895D01*
X120500500Y-115623982D01*
X140544500Y-115623982D01*
X140544500Y-115736018D01*
X140573497Y-115844237D01*
X140629515Y-115941263D01*
X140708737Y-116020485D01*
X140805763Y-116076503D01*
X140913982Y-116105500D01*
X140913984Y-116105500D01*
X141026016Y-116105500D01*
X141026018Y-116105500D01*
X141134237Y-116076503D01*
X141231263Y-116020485D01*
X141310485Y-115941263D01*
X141366503Y-115844237D01*
X141395500Y-115736018D01*
X141395500Y-115623982D01*
X141366503Y-115515763D01*
X141310485Y-115418737D01*
X141231263Y-115339515D01*
X141166579Y-115302169D01*
X141134239Y-115283498D01*
X141134238Y-115283497D01*
X141134237Y-115283497D01*
X141026018Y-115254500D01*
X141026017Y-115254500D01*
X140913982Y-115254500D01*
X140805770Y-115283494D01*
X140805759Y-115283498D01*
X140805758Y-115283499D01*
X140708737Y-115339514D01*
X140708728Y-115339521D01*
X140629521Y-115418728D01*
X140629514Y-115418737D01*
X140573499Y-115515758D01*
X140573498Y-115515759D01*
X140573494Y-115515770D01*
X140544500Y-115623982D01*
X120500500Y-115623982D01*
X120500500Y-114709301D01*
X120505518Y-114674384D01*
X120506147Y-114672238D01*
X120507239Y-114668521D01*
X120545003Y-114609739D01*
X120608555Y-114580705D01*
X120677715Y-114590638D01*
X120730524Y-114636383D01*
X120731480Y-114637870D01*
X120748793Y-114680735D01*
X120759868Y-114736412D01*
X120759870Y-114736420D01*
X120815864Y-114871601D01*
X120819864Y-114881259D01*
X120839058Y-114927596D01*
X120917838Y-115045500D01*
X120954027Y-115099661D01*
X121100336Y-115245970D01*
X121100340Y-115245973D01*
X121100342Y-115245975D01*
X121100345Y-115245977D01*
X121100349Y-115245980D01*
X121100348Y-115245980D01*
X121100411Y-115246032D01*
X121100448Y-115246046D01*
X121272402Y-115360941D01*
X121463580Y-115440130D01*
X121654540Y-115478114D01*
X121663559Y-115479908D01*
X121665794Y-115480409D01*
X121666532Y-115480500D01*
X121873466Y-115480500D01*
X121877586Y-115480500D01*
X121885435Y-115478118D01*
X122076420Y-115440130D01*
X122267598Y-115360941D01*
X122439655Y-115245977D01*
X122585977Y-115099655D01*
X122700941Y-114927598D01*
X122780130Y-114736420D01*
X122813485Y-114568734D01*
X122814430Y-114563982D01*
X127794500Y-114563982D01*
X127794500Y-114676018D01*
X127823497Y-114784237D01*
X127879515Y-114881263D01*
X127958737Y-114960485D01*
X128055763Y-115016503D01*
X128163982Y-115045500D01*
X128163984Y-115045500D01*
X128276016Y-115045500D01*
X128276018Y-115045500D01*
X128384237Y-115016503D01*
X128481263Y-114960485D01*
X128560485Y-114881263D01*
X128616503Y-114784237D01*
X128645500Y-114676018D01*
X128645500Y-114563982D01*
X134054500Y-114563982D01*
X134054500Y-114676018D01*
X134083497Y-114784237D01*
X134139515Y-114881263D01*
X134218737Y-114960485D01*
X134315763Y-115016503D01*
X134423982Y-115045500D01*
X134423984Y-115045500D01*
X134536016Y-115045500D01*
X134536018Y-115045500D01*
X134644237Y-115016503D01*
X134741263Y-114960485D01*
X134820485Y-114881263D01*
X134876503Y-114784237D01*
X134905500Y-114676018D01*
X134905500Y-114563982D01*
X134876503Y-114455763D01*
X134820485Y-114358737D01*
X134741263Y-114279515D01*
X134676579Y-114242169D01*
X134644239Y-114223498D01*
X134644238Y-114223497D01*
X134644237Y-114223497D01*
X134536018Y-114194500D01*
X134536017Y-114194500D01*
X134423982Y-114194500D01*
X134315770Y-114223494D01*
X134315759Y-114223498D01*
X134315758Y-114223499D01*
X134218737Y-114279514D01*
X134218728Y-114279521D01*
X134139521Y-114358728D01*
X134139514Y-114358737D01*
X134083499Y-114455758D01*
X134083498Y-114455759D01*
X134083494Y-114455770D01*
X134062676Y-114533468D01*
X134054500Y-114563982D01*
X128645500Y-114563982D01*
X128616503Y-114455763D01*
X128560485Y-114358737D01*
X128481263Y-114279515D01*
X128416579Y-114242169D01*
X128384239Y-114223498D01*
X128384238Y-114223497D01*
X128384237Y-114223497D01*
X128276018Y-114194500D01*
X128276017Y-114194500D01*
X128163982Y-114194500D01*
X128055770Y-114223494D01*
X128055759Y-114223498D01*
X128055758Y-114223499D01*
X127958737Y-114279514D01*
X127958728Y-114279521D01*
X127879521Y-114358728D01*
X127879514Y-114358737D01*
X127823499Y-114455758D01*
X127823498Y-114455759D01*
X127823494Y-114455770D01*
X127802676Y-114533468D01*
X127794500Y-114563982D01*
X122814430Y-114563982D01*
X122820499Y-114533471D01*
X122820500Y-114533466D01*
X122820500Y-114326534D01*
X122820500Y-114326532D01*
X122820409Y-114325794D01*
X122819909Y-114323564D01*
X122813074Y-114289203D01*
X122813074Y-114289202D01*
X122791269Y-114179579D01*
X122780130Y-114123580D01*
X122700941Y-113932402D01*
X122586046Y-113760449D01*
X122586036Y-113760417D01*
X122585980Y-113760348D01*
X122585980Y-113760349D01*
X122585977Y-113760345D01*
X122585975Y-113760342D01*
X122585973Y-113760340D01*
X122585970Y-113760336D01*
X122439662Y-113614028D01*
X122439655Y-113614022D01*
X122353626Y-113556540D01*
X122353625Y-113556540D01*
X122267604Y-113499062D01*
X122267595Y-113499057D01*
X122144010Y-113447867D01*
X122076420Y-113419870D01*
X122076412Y-113419868D01*
X122076404Y-113419866D01*
X122076394Y-113419864D01*
X121873471Y-113379500D01*
X121873469Y-113379500D01*
X121873465Y-113379500D01*
X121666535Y-113379500D01*
X121666530Y-113379500D01*
X121666528Y-113379500D01*
X121463604Y-113419864D01*
X121463579Y-113419870D01*
X121272404Y-113499057D01*
X121100337Y-113614027D01*
X120954027Y-113760337D01*
X120839057Y-113932404D01*
X120759870Y-114123579D01*
X120759864Y-114123604D01*
X120749595Y-114175230D01*
X120737858Y-114208505D01*
X120735027Y-114213918D01*
X120686515Y-114264201D01*
X120618519Y-114280274D01*
X120552627Y-114257034D01*
X120509761Y-114201861D01*
X120509114Y-114200217D01*
X120500500Y-114154807D01*
X120500500Y-112169301D01*
X120505518Y-112134384D01*
X120506728Y-112130262D01*
X120507239Y-112128521D01*
X120545003Y-112069739D01*
X120608555Y-112040705D01*
X120677715Y-112050638D01*
X120730524Y-112096383D01*
X120731480Y-112097870D01*
X120748793Y-112140735D01*
X120758496Y-112189517D01*
X120759868Y-112196412D01*
X120759870Y-112196420D01*
X120831569Y-112369517D01*
X120839059Y-112387598D01*
X120879910Y-112448735D01*
X120896540Y-112473624D01*
X120896541Y-112473627D01*
X120954022Y-112559655D01*
X120954028Y-112559662D01*
X121100336Y-112705970D01*
X121100340Y-112705973D01*
X121100342Y-112705975D01*
X121100345Y-112705977D01*
X121100349Y-112705980D01*
X121100348Y-112705980D01*
X121100411Y-112706032D01*
X121100448Y-112706046D01*
X121272402Y-112820941D01*
X121463580Y-112900130D01*
X121654540Y-112938114D01*
X121663559Y-112939908D01*
X121665794Y-112940409D01*
X121666532Y-112940500D01*
X121873466Y-112940500D01*
X121877586Y-112940500D01*
X121885435Y-112938118D01*
X122076420Y-112900130D01*
X122267598Y-112820941D01*
X122439655Y-112705977D01*
X122541650Y-112603982D01*
X137814500Y-112603982D01*
X137814500Y-112716018D01*
X137843497Y-112824237D01*
X137899515Y-112921263D01*
X137978737Y-113000485D01*
X138075763Y-113056503D01*
X138183982Y-113085500D01*
X138183984Y-113085500D01*
X138296016Y-113085500D01*
X138296018Y-113085500D01*
X138404237Y-113056503D01*
X138501263Y-113000485D01*
X138580485Y-112921263D01*
X138636503Y-112824237D01*
X138665500Y-112716018D01*
X138665500Y-112653982D01*
X149799500Y-112653982D01*
X149799500Y-112766018D01*
X149828497Y-112874237D01*
X149884515Y-112971263D01*
X149963737Y-113050485D01*
X150060763Y-113106503D01*
X150168982Y-113135500D01*
X150168984Y-113135500D01*
X150281016Y-113135500D01*
X150281018Y-113135500D01*
X150389237Y-113106503D01*
X150486263Y-113050485D01*
X150565485Y-112971263D01*
X150621503Y-112874237D01*
X150650500Y-112766018D01*
X150650500Y-112653982D01*
X150621503Y-112545763D01*
X150621502Y-112545761D01*
X150621501Y-112545757D01*
X150608868Y-112523877D01*
X150608866Y-112523874D01*
X150580060Y-112473981D01*
X150565487Y-112448740D01*
X150565483Y-112448735D01*
X150486265Y-112369517D01*
X150486263Y-112369515D01*
X150403376Y-112321660D01*
X150396844Y-112316647D01*
X150381631Y-112310346D01*
X150373469Y-112309272D01*
X150371659Y-112308787D01*
X150281018Y-112284500D01*
X150281017Y-112284500D01*
X150168982Y-112284500D01*
X150060770Y-112313494D01*
X150060759Y-112313498D01*
X150060758Y-112313499D01*
X149963737Y-112369514D01*
X149963728Y-112369521D01*
X149884521Y-112448728D01*
X149884514Y-112448737D01*
X149828499Y-112545758D01*
X149828498Y-112545759D01*
X149828494Y-112545770D01*
X149799500Y-112653982D01*
X138665500Y-112653982D01*
X138665500Y-112603982D01*
X138636503Y-112495763D01*
X138580485Y-112398737D01*
X138501263Y-112319515D01*
X138413308Y-112268734D01*
X138404239Y-112263498D01*
X138404238Y-112263497D01*
X138404237Y-112263497D01*
X138296018Y-112234500D01*
X138296017Y-112234500D01*
X138183982Y-112234500D01*
X138075770Y-112263494D01*
X138075759Y-112263498D01*
X138075758Y-112263499D01*
X137978737Y-112319514D01*
X137978728Y-112319521D01*
X137899521Y-112398728D01*
X137899514Y-112398737D01*
X137843499Y-112495758D01*
X137843498Y-112495759D01*
X137843494Y-112495770D01*
X137819313Y-112586018D01*
X137814500Y-112603982D01*
X122541650Y-112603982D01*
X122585977Y-112559655D01*
X122596442Y-112543991D01*
X122607821Y-112526964D01*
X122643221Y-112473982D01*
X122700941Y-112387598D01*
X122780130Y-112196420D01*
X122820500Y-111993465D01*
X122820500Y-111803982D01*
X146524500Y-111803982D01*
X146524500Y-111916018D01*
X146539811Y-111973160D01*
X146539817Y-111973181D01*
X146543939Y-111988563D01*
X146553497Y-112024236D01*
X146553498Y-112024239D01*
X146563629Y-112041787D01*
X146609515Y-112121263D01*
X146688737Y-112200485D01*
X146785763Y-112256503D01*
X146893982Y-112285500D01*
X146893984Y-112285500D01*
X147006016Y-112285500D01*
X147006018Y-112285500D01*
X147114237Y-112256503D01*
X147211263Y-112200485D01*
X147290485Y-112121263D01*
X147346503Y-112024237D01*
X147375500Y-111916018D01*
X147375500Y-111803982D01*
X147346503Y-111695763D01*
X147290485Y-111598737D01*
X147211263Y-111519515D01*
X147132398Y-111473982D01*
X147114239Y-111463498D01*
X147114238Y-111463497D01*
X147114237Y-111463497D01*
X147006018Y-111434500D01*
X147006017Y-111434500D01*
X146893982Y-111434500D01*
X146785770Y-111463494D01*
X146785759Y-111463498D01*
X146785758Y-111463499D01*
X146688737Y-111519514D01*
X146688728Y-111519521D01*
X146609521Y-111598728D01*
X146609514Y-111598737D01*
X146553499Y-111695758D01*
X146553498Y-111695759D01*
X146553494Y-111695770D01*
X146524500Y-111803982D01*
X122820500Y-111803982D01*
X122820500Y-111786535D01*
X122780130Y-111583580D01*
X122700941Y-111392402D01*
X122585977Y-111220345D01*
X122585975Y-111220342D01*
X122439657Y-111074024D01*
X122319864Y-110993982D01*
X143774500Y-110993982D01*
X143774500Y-111106018D01*
X143803497Y-111214237D01*
X143859515Y-111311263D01*
X143938737Y-111390485D01*
X144035763Y-111446503D01*
X144143982Y-111475500D01*
X144143984Y-111475500D01*
X144256016Y-111475500D01*
X144256018Y-111475500D01*
X144364237Y-111446503D01*
X144461263Y-111390485D01*
X144540485Y-111311263D01*
X144596503Y-111214237D01*
X144625500Y-111106018D01*
X144625500Y-110993982D01*
X144596503Y-110885763D01*
X144540485Y-110788737D01*
X144461263Y-110709515D01*
X144461262Y-110709514D01*
X144461259Y-110709512D01*
X144378376Y-110661660D01*
X144371844Y-110656647D01*
X144356631Y-110650346D01*
X144348469Y-110649272D01*
X144346659Y-110648787D01*
X144256018Y-110624500D01*
X144256017Y-110624500D01*
X144143982Y-110624500D01*
X144035770Y-110653494D01*
X144035759Y-110653498D01*
X144035758Y-110653499D01*
X143938737Y-110709514D01*
X143938728Y-110709521D01*
X143859521Y-110788728D01*
X143859514Y-110788737D01*
X143803499Y-110885758D01*
X143803498Y-110885759D01*
X143803494Y-110885770D01*
X143783857Y-110959062D01*
X143774500Y-110993982D01*
X122319864Y-110993982D01*
X122319213Y-110993547D01*
X122319181Y-110993525D01*
X122267604Y-110959062D01*
X122267595Y-110959057D01*
X122163688Y-110916018D01*
X122076420Y-110879870D01*
X122076412Y-110879868D01*
X122076404Y-110879866D01*
X122076394Y-110879864D01*
X121873471Y-110839500D01*
X121873469Y-110839500D01*
X121873465Y-110839500D01*
X121666535Y-110839500D01*
X121666530Y-110839500D01*
X121666528Y-110839500D01*
X121463604Y-110879864D01*
X121463579Y-110879870D01*
X121272404Y-110959057D01*
X121100337Y-111074027D01*
X120954027Y-111220337D01*
X120839057Y-111392404D01*
X120759870Y-111583579D01*
X120759864Y-111583604D01*
X120749595Y-111635230D01*
X120737858Y-111668505D01*
X120735027Y-111673918D01*
X120686515Y-111724201D01*
X120618519Y-111740274D01*
X120552627Y-111717034D01*
X120509761Y-111661861D01*
X120509114Y-111660217D01*
X120500500Y-111614807D01*
X120500500Y-109629301D01*
X120505518Y-109594384D01*
X120506147Y-109592238D01*
X120507239Y-109588521D01*
X120545003Y-109529739D01*
X120608555Y-109500705D01*
X120677715Y-109510638D01*
X120730524Y-109556383D01*
X120731480Y-109557870D01*
X120748793Y-109600735D01*
X120759864Y-109656394D01*
X120759870Y-109656421D01*
X120838358Y-109845908D01*
X120839055Y-109847591D01*
X120839060Y-109847599D01*
X120888937Y-109922245D01*
X120888938Y-109922247D01*
X120954027Y-110019661D01*
X121100336Y-110165970D01*
X121100340Y-110165973D01*
X121100342Y-110165975D01*
X121100345Y-110165977D01*
X121100349Y-110165980D01*
X121100348Y-110165980D01*
X121100411Y-110166032D01*
X121100448Y-110166046D01*
X121272402Y-110280941D01*
X121463580Y-110360130D01*
X121635044Y-110394236D01*
X121663559Y-110399908D01*
X121665794Y-110400409D01*
X121666532Y-110400500D01*
X121873466Y-110400500D01*
X121877586Y-110400500D01*
X121885435Y-110398118D01*
X122076420Y-110360130D01*
X122267598Y-110280941D01*
X122294850Y-110262732D01*
X142255750Y-110262732D01*
X142255750Y-110374768D01*
X142284747Y-110482987D01*
X142340765Y-110580013D01*
X142419987Y-110659235D01*
X142517013Y-110715253D01*
X142625232Y-110744250D01*
X142625234Y-110744250D01*
X142737266Y-110744250D01*
X142737268Y-110744250D01*
X142845487Y-110715253D01*
X142942513Y-110659235D01*
X143021735Y-110580013D01*
X143077753Y-110482987D01*
X143106750Y-110374768D01*
X143106750Y-110262732D01*
X143077753Y-110154513D01*
X143021735Y-110057487D01*
X142942513Y-109978265D01*
X142877829Y-109940919D01*
X142845489Y-109922248D01*
X142845488Y-109922247D01*
X142845487Y-109922247D01*
X142737268Y-109893250D01*
X142737267Y-109893250D01*
X142625232Y-109893250D01*
X142517020Y-109922244D01*
X142517009Y-109922248D01*
X142517008Y-109922249D01*
X142419987Y-109978264D01*
X142419978Y-109978271D01*
X142340771Y-110057478D01*
X142340764Y-110057487D01*
X142284749Y-110154508D01*
X142284748Y-110154509D01*
X142284744Y-110154520D01*
X142255750Y-110262732D01*
X122294850Y-110262732D01*
X122439655Y-110165977D01*
X122585977Y-110019655D01*
X122700941Y-109847598D01*
X122780130Y-109656420D01*
X122820500Y-109453465D01*
X122820500Y-109246535D01*
X122780130Y-109043580D01*
X122700941Y-108852402D01*
X122675270Y-108813982D01*
X144824500Y-108813982D01*
X144824500Y-108926018D01*
X144835948Y-108968740D01*
X144838868Y-108979641D01*
X144838869Y-108979643D01*
X144853496Y-109034235D01*
X144853497Y-109034236D01*
X144853498Y-109034239D01*
X144858891Y-109043580D01*
X144909515Y-109131263D01*
X144988737Y-109210485D01*
X145085763Y-109266503D01*
X145193982Y-109295500D01*
X145193984Y-109295500D01*
X145306016Y-109295500D01*
X145306018Y-109295500D01*
X145414237Y-109266503D01*
X145511263Y-109210485D01*
X145590485Y-109131263D01*
X145646503Y-109034237D01*
X145675500Y-108926018D01*
X145675500Y-108813982D01*
X145646503Y-108705763D01*
X145590485Y-108608737D01*
X145511263Y-108529515D01*
X145446579Y-108492169D01*
X145414239Y-108473498D01*
X145414238Y-108473497D01*
X145414237Y-108473497D01*
X145306018Y-108444500D01*
X145306017Y-108444500D01*
X145193982Y-108444500D01*
X145085770Y-108473494D01*
X145085759Y-108473498D01*
X145085758Y-108473499D01*
X144988737Y-108529514D01*
X144988728Y-108529521D01*
X144909521Y-108608728D01*
X144909514Y-108608737D01*
X144853499Y-108705758D01*
X144853498Y-108705759D01*
X144853494Y-108705770D01*
X144830651Y-108791022D01*
X144824500Y-108813982D01*
X122675270Y-108813982D01*
X122585977Y-108680345D01*
X122585975Y-108680342D01*
X122585949Y-108680316D01*
X122585948Y-108680314D01*
X122439662Y-108534028D01*
X122439655Y-108534022D01*
X122305673Y-108444499D01*
X122305673Y-108444500D01*
X122267598Y-108419059D01*
X122267595Y-108419057D01*
X122267594Y-108419057D01*
X122180977Y-108383179D01*
X122076420Y-108339870D01*
X122076412Y-108339868D01*
X122076404Y-108339866D01*
X122076394Y-108339864D01*
X121873471Y-108299500D01*
X121873469Y-108299500D01*
X121873465Y-108299500D01*
X121666535Y-108299500D01*
X121666530Y-108299500D01*
X121666528Y-108299500D01*
X121463604Y-108339864D01*
X121463579Y-108339870D01*
X121272404Y-108419057D01*
X121100337Y-108534027D01*
X120954027Y-108680337D01*
X120839057Y-108852404D01*
X120759870Y-109043579D01*
X120759864Y-109043604D01*
X120749595Y-109095230D01*
X120737858Y-109128505D01*
X120735027Y-109133918D01*
X120686515Y-109184201D01*
X120618519Y-109200274D01*
X120552627Y-109177034D01*
X120509761Y-109121861D01*
X120509114Y-109120217D01*
X120500500Y-109074807D01*
X120500500Y-107089301D01*
X120505518Y-107054384D01*
X120506910Y-107049642D01*
X120507239Y-107048521D01*
X120545003Y-106989739D01*
X120608555Y-106960705D01*
X120677715Y-106970638D01*
X120730524Y-107016383D01*
X120731480Y-107017870D01*
X120748793Y-107060735D01*
X120759864Y-107116394D01*
X120759870Y-107116421D01*
X120834558Y-107296735D01*
X120834559Y-107296735D01*
X120834560Y-107296738D01*
X120839058Y-107307596D01*
X120839060Y-107307600D01*
X120851020Y-107325499D01*
X120891287Y-107385763D01*
X120946891Y-107468982D01*
X120954025Y-107479658D01*
X120954028Y-107479662D01*
X121100336Y-107625970D01*
X121100340Y-107625973D01*
X121100342Y-107625975D01*
X121100345Y-107625977D01*
X121100349Y-107625980D01*
X121100348Y-107625980D01*
X121100411Y-107626032D01*
X121100448Y-107626046D01*
X121272402Y-107740941D01*
X121463580Y-107820130D01*
X121631736Y-107853578D01*
X121663559Y-107859908D01*
X121665794Y-107860409D01*
X121666532Y-107860500D01*
X121873466Y-107860500D01*
X121877586Y-107860500D01*
X121885435Y-107858118D01*
X122076420Y-107820130D01*
X122267598Y-107740941D01*
X122337878Y-107693982D01*
X128274500Y-107693982D01*
X128274500Y-107806018D01*
X128303497Y-107914237D01*
X128359515Y-108011263D01*
X128438737Y-108090485D01*
X128535763Y-108146503D01*
X128643982Y-108175500D01*
X128643984Y-108175500D01*
X128756016Y-108175500D01*
X128756018Y-108175500D01*
X128864237Y-108146503D01*
X128961263Y-108090485D01*
X129040485Y-108011263D01*
X129096503Y-107914237D01*
X129125500Y-107806018D01*
X129125500Y-107693982D01*
X129096503Y-107585763D01*
X129043513Y-107493982D01*
X130844500Y-107493982D01*
X130844500Y-107606018D01*
X130873497Y-107714237D01*
X130929515Y-107811263D01*
X131008737Y-107890485D01*
X131105763Y-107946503D01*
X131213982Y-107975500D01*
X131213984Y-107975500D01*
X131326016Y-107975500D01*
X131326018Y-107975500D01*
X131434237Y-107946503D01*
X131531263Y-107890485D01*
X131610485Y-107811263D01*
X131666503Y-107714237D01*
X131695500Y-107606018D01*
X131695500Y-107493982D01*
X131688801Y-107468982D01*
X133999500Y-107468982D01*
X133999500Y-107581018D01*
X134010620Y-107622516D01*
X134028497Y-107689236D01*
X134028498Y-107689239D01*
X134031241Y-107693989D01*
X134031239Y-107693989D01*
X134031242Y-107693992D01*
X134084510Y-107786256D01*
X134084514Y-107786261D01*
X134084515Y-107786263D01*
X134163737Y-107865485D01*
X134260763Y-107921503D01*
X134368982Y-107950500D01*
X134368984Y-107950500D01*
X134481016Y-107950500D01*
X134481018Y-107950500D01*
X134589237Y-107921503D01*
X134686263Y-107865485D01*
X134765485Y-107786263D01*
X134821503Y-107689237D01*
X134850500Y-107581018D01*
X134850500Y-107468982D01*
X134821503Y-107360763D01*
X134765485Y-107263737D01*
X134686263Y-107184515D01*
X134621579Y-107147169D01*
X134621576Y-107147167D01*
X134621575Y-107147166D01*
X134603373Y-107136657D01*
X134596845Y-107131648D01*
X134581631Y-107125346D01*
X134573469Y-107124272D01*
X134544168Y-107116421D01*
X134481018Y-107099500D01*
X134481017Y-107099500D01*
X134368982Y-107099500D01*
X134260770Y-107128494D01*
X134260759Y-107128498D01*
X134260758Y-107128499D01*
X134163737Y-107184514D01*
X134163728Y-107184521D01*
X134084521Y-107263728D01*
X134084514Y-107263737D01*
X134028499Y-107360758D01*
X134028498Y-107360759D01*
X134028494Y-107360770D01*
X134015433Y-107409517D01*
X133999500Y-107468982D01*
X131688801Y-107468982D01*
X131666503Y-107385763D01*
X131610485Y-107288737D01*
X131531263Y-107209515D01*
X131447688Y-107161263D01*
X131434239Y-107153498D01*
X131434238Y-107153497D01*
X131434237Y-107153497D01*
X131326018Y-107124500D01*
X131326017Y-107124500D01*
X131213982Y-107124500D01*
X131105770Y-107153494D01*
X131105759Y-107153498D01*
X131105758Y-107153499D01*
X131008737Y-107209514D01*
X131008728Y-107209521D01*
X130929521Y-107288728D01*
X130929514Y-107288737D01*
X130873497Y-107385760D01*
X130851198Y-107468984D01*
X130844500Y-107493982D01*
X129043513Y-107493982D01*
X129040485Y-107488737D01*
X128961263Y-107409515D01*
X128876815Y-107360759D01*
X128864239Y-107353498D01*
X128864238Y-107353497D01*
X128864237Y-107353497D01*
X128756018Y-107324500D01*
X128756017Y-107324500D01*
X128643982Y-107324500D01*
X128535770Y-107353494D01*
X128535759Y-107353498D01*
X128535758Y-107353499D01*
X128438737Y-107409514D01*
X128438728Y-107409521D01*
X128359521Y-107488728D01*
X128359514Y-107488737D01*
X128303499Y-107585758D01*
X128303498Y-107585759D01*
X128303494Y-107585770D01*
X128290708Y-107633492D01*
X128274500Y-107693982D01*
X122337878Y-107693982D01*
X122439655Y-107625977D01*
X122451870Y-107613762D01*
X122467459Y-107598174D01*
X122517778Y-107547855D01*
X122585975Y-107479658D01*
X122585975Y-107479657D01*
X122585977Y-107479655D01*
X122700941Y-107307598D01*
X122780130Y-107116420D01*
X122820500Y-106913465D01*
X122820500Y-106706535D01*
X122790156Y-106553982D01*
X134834500Y-106553982D01*
X134834500Y-106666018D01*
X134860818Y-106764236D01*
X134860817Y-106764236D01*
X134860819Y-106764242D01*
X134863494Y-106774229D01*
X134863494Y-106774230D01*
X134863497Y-106774236D01*
X134863498Y-106774239D01*
X134869997Y-106785496D01*
X134869999Y-106785501D01*
X134870000Y-106785501D01*
X134919510Y-106871256D01*
X134919514Y-106871261D01*
X134919515Y-106871263D01*
X134998737Y-106950485D01*
X135095763Y-107006503D01*
X135203982Y-107035500D01*
X135203984Y-107035500D01*
X135316016Y-107035500D01*
X135316018Y-107035500D01*
X135424237Y-107006503D01*
X135521263Y-106950485D01*
X135600485Y-106871263D01*
X135656503Y-106774237D01*
X135685500Y-106666018D01*
X135685500Y-106553982D01*
X135656503Y-106445763D01*
X135600485Y-106348737D01*
X135521263Y-106269515D01*
X135454111Y-106230745D01*
X135454108Y-106230742D01*
X135438374Y-106221658D01*
X135431845Y-106216648D01*
X135416631Y-106210346D01*
X135408469Y-106209272D01*
X135382710Y-106202370D01*
X135316018Y-106184500D01*
X135316017Y-106184500D01*
X135203982Y-106184500D01*
X135095770Y-106213494D01*
X135095759Y-106213498D01*
X135095758Y-106213499D01*
X134998737Y-106269514D01*
X134998728Y-106269521D01*
X134919521Y-106348728D01*
X134919514Y-106348737D01*
X134863499Y-106445758D01*
X134863498Y-106445759D01*
X134863494Y-106445770D01*
X134838106Y-106540523D01*
X134834500Y-106553982D01*
X122790156Y-106553982D01*
X122780130Y-106503580D01*
X122700941Y-106312402D01*
X122585977Y-106140345D01*
X122585975Y-106140342D01*
X122576065Y-106130432D01*
X122576059Y-106130425D01*
X122499616Y-106053982D01*
X137054500Y-106053982D01*
X137054500Y-106166018D01*
X137080477Y-106262963D01*
X137082658Y-106271103D01*
X137082659Y-106271108D01*
X137083494Y-106274224D01*
X137083498Y-106274238D01*
X137083500Y-106274243D01*
X137084224Y-106275498D01*
X137084225Y-106275498D01*
X137084226Y-106275500D01*
X137139515Y-106371263D01*
X137218737Y-106450485D01*
X137310700Y-106503580D01*
X137315763Y-106506503D01*
X137323273Y-106509614D01*
X137323008Y-106510253D01*
X137344181Y-106519319D01*
X137356027Y-106526540D01*
X137403024Y-106578241D01*
X137414609Y-106647137D01*
X137413600Y-106655578D01*
X137397865Y-106702859D01*
X137378734Y-106735995D01*
X137378734Y-106735996D01*
X137378733Y-106735999D01*
X137349736Y-106844218D01*
X137349736Y-106956253D01*
X137374121Y-107047260D01*
X137374127Y-107047281D01*
X137376006Y-107054296D01*
X137378733Y-107064472D01*
X137378734Y-107064475D01*
X137397405Y-107096815D01*
X137434751Y-107161499D01*
X137513973Y-107240721D01*
X137610999Y-107296739D01*
X137719218Y-107325736D01*
X137719220Y-107325736D01*
X137831252Y-107325736D01*
X137831254Y-107325736D01*
X137939473Y-107296739D01*
X138036499Y-107240721D01*
X138115721Y-107161499D01*
X138161388Y-107082399D01*
X138183199Y-107054664D01*
X138193247Y-107045083D01*
X138255348Y-107013069D01*
X138324898Y-107019709D01*
X138326084Y-107020184D01*
X138326428Y-107020322D01*
X138374029Y-107054222D01*
X138377311Y-107058009D01*
X138390990Y-107077217D01*
X138439515Y-107161263D01*
X138518737Y-107240485D01*
X138615763Y-107296503D01*
X138723982Y-107325500D01*
X138723984Y-107325500D01*
X138836016Y-107325500D01*
X138836018Y-107325500D01*
X138944237Y-107296503D01*
X139041263Y-107240485D01*
X139120485Y-107161263D01*
X139161729Y-107089824D01*
X139183536Y-107062092D01*
X139193585Y-107052511D01*
X139255683Y-107020493D01*
X139325236Y-107027130D01*
X139326426Y-107027607D01*
X139326770Y-107027745D01*
X139374370Y-107061643D01*
X139377653Y-107065431D01*
X139391333Y-107084641D01*
X139437015Y-107163763D01*
X139516237Y-107242985D01*
X139613263Y-107299003D01*
X139721482Y-107328000D01*
X139721484Y-107328000D01*
X139833516Y-107328000D01*
X139833518Y-107328000D01*
X139941737Y-107299003D01*
X140038763Y-107242985D01*
X140117985Y-107163763D01*
X140167111Y-107078672D01*
X140177937Y-107062880D01*
X140179728Y-107060656D01*
X140179729Y-107060657D01*
X140192137Y-107045256D01*
X140249524Y-107005404D01*
X140319349Y-107002904D01*
X140376886Y-107035888D01*
X140383858Y-107042942D01*
X140403052Y-107068108D01*
X140439515Y-107131263D01*
X140518737Y-107210485D01*
X140615763Y-107266503D01*
X140723982Y-107295500D01*
X140723984Y-107295500D01*
X140836016Y-107295500D01*
X140836018Y-107295500D01*
X140944237Y-107266503D01*
X141041263Y-107210485D01*
X141120485Y-107131263D01*
X141164615Y-107054825D01*
X141186426Y-107027089D01*
X141196477Y-107017505D01*
X141258577Y-106985492D01*
X141328108Y-106992124D01*
X141329619Y-106992729D01*
X141377256Y-107026642D01*
X141380539Y-107030430D01*
X141394219Y-107049640D01*
X141437015Y-107123763D01*
X141516237Y-107202985D01*
X141613263Y-107259003D01*
X141721482Y-107288000D01*
X141721484Y-107288000D01*
X141833516Y-107288000D01*
X141833518Y-107288000D01*
X141941737Y-107259003D01*
X142038763Y-107202985D01*
X142117985Y-107123763D01*
X142174003Y-107026737D01*
X142203000Y-106918518D01*
X142203000Y-106806482D01*
X142174003Y-106698263D01*
X142117985Y-106601237D01*
X142038763Y-106522015D01*
X141960795Y-106477000D01*
X141960454Y-106476803D01*
X141959975Y-106476526D01*
X141955876Y-106474160D01*
X141955865Y-106474152D01*
X141941788Y-106466018D01*
X141941738Y-106465997D01*
X141941737Y-106465997D01*
X141934131Y-106462846D01*
X141925969Y-106461772D01*
X141833518Y-106437000D01*
X141831229Y-106436699D01*
X141812477Y-106432735D01*
X141794890Y-106427570D01*
X141736148Y-106389832D01*
X141734960Y-106388462D01*
X141707478Y-106333586D01*
X141705470Y-106324356D01*
X141705469Y-106324356D01*
X141699451Y-106296694D01*
X141698322Y-106295276D01*
X141693380Y-106280581D01*
X141674003Y-106208263D01*
X141617985Y-106111237D01*
X141560730Y-106053982D01*
X142624500Y-106053982D01*
X142624500Y-106166018D01*
X142650477Y-106262963D01*
X142652658Y-106271103D01*
X142652659Y-106271108D01*
X142653494Y-106274224D01*
X142653498Y-106274238D01*
X142653500Y-106274243D01*
X142654224Y-106275498D01*
X142654225Y-106275498D01*
X142654226Y-106275500D01*
X142709515Y-106371263D01*
X142788737Y-106450485D01*
X142885763Y-106506503D01*
X142993982Y-106535500D01*
X142993984Y-106535500D01*
X142993990Y-106535500D01*
X143002042Y-106536561D01*
X143002004Y-106536842D01*
X143027606Y-106540523D01*
X143042604Y-106544927D01*
X143101355Y-106582672D01*
X143102542Y-106584041D01*
X143130021Y-106638913D01*
X143138047Y-106675808D01*
X143139190Y-106677244D01*
X143144115Y-106691900D01*
X143155930Y-106735996D01*
X143155931Y-106735999D01*
X143163496Y-106764233D01*
X143163496Y-106764235D01*
X143163497Y-106764236D01*
X143163498Y-106764239D01*
X143170649Y-106776625D01*
X143170650Y-106776628D01*
X143170651Y-106776628D01*
X143219515Y-106861263D01*
X143298737Y-106940485D01*
X143395763Y-106996503D01*
X143503982Y-107025500D01*
X143503984Y-107025500D01*
X143616016Y-107025500D01*
X143616018Y-107025500D01*
X143724237Y-106996503D01*
X143821263Y-106940485D01*
X143900485Y-106861263D01*
X143956503Y-106764237D01*
X143985500Y-106656018D01*
X143985500Y-106543982D01*
X143956503Y-106435763D01*
X143900485Y-106338737D01*
X143821263Y-106259515D01*
X143760071Y-106224186D01*
X143732331Y-106202370D01*
X143722754Y-106192326D01*
X143690738Y-106130224D01*
X143697378Y-106060672D01*
X143697987Y-106059153D01*
X143731891Y-106011540D01*
X143735680Y-106008256D01*
X143754876Y-105994586D01*
X143831263Y-105950485D01*
X143910485Y-105871263D01*
X143966503Y-105774237D01*
X143995500Y-105666018D01*
X143995500Y-105553982D01*
X143966503Y-105445763D01*
X143910485Y-105348737D01*
X143831263Y-105269515D01*
X143765069Y-105231298D01*
X143737333Y-105209486D01*
X143729185Y-105200941D01*
X143727756Y-105199442D01*
X143695738Y-105137343D01*
X143702375Y-105067792D01*
X143702562Y-105067324D01*
X143703007Y-105066217D01*
X143736892Y-105018653D01*
X143740685Y-105015366D01*
X143759884Y-105001694D01*
X143831263Y-104960485D01*
X143910485Y-104881263D01*
X143966503Y-104784237D01*
X143995500Y-104676018D01*
X143995500Y-104563982D01*
X143966503Y-104455763D01*
X143910485Y-104358737D01*
X143831263Y-104279515D01*
X143831261Y-104279514D01*
X143831259Y-104279512D01*
X143747753Y-104231300D01*
X143720010Y-104209483D01*
X143710433Y-104199439D01*
X143678417Y-104137337D01*
X143685057Y-104067786D01*
X143685104Y-104067668D01*
X143685681Y-104066231D01*
X143719582Y-104018645D01*
X143723370Y-104015363D01*
X143742568Y-104001693D01*
X143754495Y-103994807D01*
X143831263Y-103950485D01*
X143910485Y-103871263D01*
X143966503Y-103774237D01*
X143995500Y-103666018D01*
X143995500Y-103553982D01*
X143966503Y-103445763D01*
X143910485Y-103348737D01*
X143831263Y-103269515D01*
X143766579Y-103232169D01*
X143766578Y-103232168D01*
X143748373Y-103221657D01*
X143741845Y-103216648D01*
X143726631Y-103210346D01*
X143718469Y-103209272D01*
X143676248Y-103197959D01*
X143626018Y-103184500D01*
X143626017Y-103184500D01*
X143513982Y-103184500D01*
X143405770Y-103213494D01*
X143405759Y-103213498D01*
X143405758Y-103213499D01*
X143308737Y-103269514D01*
X143308728Y-103269521D01*
X143229521Y-103348728D01*
X143229514Y-103348737D01*
X143173499Y-103445758D01*
X143173494Y-103445770D01*
X143144498Y-103553987D01*
X143144198Y-103556272D01*
X143140235Y-103575022D01*
X143135070Y-103592609D01*
X143097327Y-103651355D01*
X143095958Y-103652542D01*
X143041085Y-103680021D01*
X143004166Y-103688052D01*
X143002731Y-103689195D01*
X142988076Y-103694119D01*
X142915782Y-103713491D01*
X142915773Y-103713493D01*
X142915759Y-103713498D01*
X142915758Y-103713499D01*
X142818737Y-103769514D01*
X142818728Y-103769521D01*
X142739521Y-103848728D01*
X142739514Y-103848737D01*
X142683499Y-103945758D01*
X142683498Y-103945759D01*
X142683494Y-103945770D01*
X142654517Y-104053918D01*
X142654500Y-104053982D01*
X142654500Y-104166018D01*
X142682234Y-104269521D01*
X142683497Y-104274236D01*
X142683498Y-104274239D01*
X142686544Y-104279515D01*
X142739515Y-104371263D01*
X142818737Y-104450485D01*
X142883588Y-104487926D01*
X142911333Y-104509747D01*
X142920909Y-104519791D01*
X142952922Y-104581895D01*
X142946288Y-104651422D01*
X142945685Y-104652929D01*
X142911761Y-104700577D01*
X142907971Y-104703861D01*
X142888770Y-104717534D01*
X142798734Y-104769516D01*
X142798733Y-104769517D01*
X142798728Y-104769521D01*
X142719521Y-104848728D01*
X142719514Y-104848737D01*
X142663499Y-104945758D01*
X142663498Y-104945759D01*
X142663494Y-104945770D01*
X142639452Y-105035499D01*
X142634500Y-105053982D01*
X142634500Y-105166018D01*
X142663497Y-105274237D01*
X142719515Y-105371263D01*
X142798737Y-105450485D01*
X142868584Y-105490811D01*
X142896327Y-105512628D01*
X142905905Y-105522673D01*
X142937921Y-105584775D01*
X142931280Y-105654328D01*
X142931261Y-105654374D01*
X142930657Y-105655881D01*
X142896758Y-105703465D01*
X142892969Y-105706748D01*
X142873770Y-105720419D01*
X142788739Y-105769512D01*
X142788738Y-105769513D01*
X142788728Y-105769521D01*
X142709521Y-105848728D01*
X142709514Y-105848737D01*
X142653499Y-105945758D01*
X142653498Y-105945759D01*
X142653494Y-105945770D01*
X142630386Y-106032014D01*
X142624500Y-106053982D01*
X141560730Y-106053982D01*
X141538763Y-106032015D01*
X141472957Y-105994022D01*
X141441739Y-105975998D01*
X141441738Y-105975997D01*
X141441737Y-105975997D01*
X141333518Y-105947000D01*
X141333517Y-105947000D01*
X141221482Y-105947000D01*
X141113270Y-105975994D01*
X141113259Y-105975998D01*
X141113258Y-105975999D01*
X141016237Y-106032014D01*
X141016228Y-106032021D01*
X140937021Y-106111228D01*
X140937017Y-106111233D01*
X140937014Y-106111237D01*
X140893801Y-106186085D01*
X140871984Y-106213827D01*
X140861940Y-106223404D01*
X140799838Y-106255420D01*
X140730291Y-106248782D01*
X140728782Y-106248178D01*
X140681156Y-106214269D01*
X140677873Y-106210481D01*
X140664193Y-106191272D01*
X140654510Y-106174500D01*
X140648855Y-106164706D01*
X140638591Y-106146928D01*
X140617985Y-106111237D01*
X140538763Y-106032015D01*
X140472957Y-105994022D01*
X140441739Y-105975998D01*
X140441738Y-105975997D01*
X140441737Y-105975997D01*
X140333518Y-105947000D01*
X140333517Y-105947000D01*
X140221482Y-105947000D01*
X140113270Y-105975994D01*
X140113259Y-105975998D01*
X140113258Y-105975999D01*
X140016237Y-106032014D01*
X140016228Y-106032021D01*
X139937021Y-106111228D01*
X139937017Y-106111233D01*
X139937013Y-106111239D01*
X139937005Y-106111252D01*
X139897407Y-106179837D01*
X139875591Y-106207579D01*
X139865548Y-106217155D01*
X139803445Y-106249171D01*
X139733893Y-106242530D01*
X139733650Y-106242432D01*
X139732365Y-106241918D01*
X139684767Y-106208022D01*
X139681483Y-106204233D01*
X139667804Y-106185026D01*
X139617985Y-106098737D01*
X139538763Y-106019515D01*
X139463388Y-105975997D01*
X139441739Y-105963498D01*
X139441738Y-105963497D01*
X139441737Y-105963497D01*
X139333518Y-105934500D01*
X139333517Y-105934500D01*
X139221482Y-105934500D01*
X139113270Y-105963494D01*
X139113259Y-105963498D01*
X139113258Y-105963499D01*
X139016237Y-106019514D01*
X139016228Y-106019521D01*
X138937021Y-106098728D01*
X138937016Y-106098734D01*
X138892164Y-106176420D01*
X138870347Y-106204162D01*
X138860303Y-106213739D01*
X138798201Y-106245755D01*
X138728654Y-106239117D01*
X138727145Y-106238513D01*
X138679509Y-106204592D01*
X138676226Y-106200803D01*
X138662554Y-106181602D01*
X138620489Y-106108743D01*
X138620483Y-106108735D01*
X138541265Y-106029517D01*
X138541263Y-106029515D01*
X138444237Y-105973497D01*
X138444234Y-105973496D01*
X138444231Y-105973495D01*
X138433272Y-105970558D01*
X138400831Y-105956665D01*
X138388983Y-105949443D01*
X138341986Y-105897742D01*
X138330400Y-105828844D01*
X138331409Y-105820400D01*
X138344170Y-105782068D01*
X138343392Y-105781746D01*
X138346498Y-105774244D01*
X138346503Y-105774237D01*
X138375500Y-105666018D01*
X138375500Y-105553982D01*
X138346503Y-105445763D01*
X138290485Y-105348737D01*
X138211263Y-105269515D01*
X138145071Y-105231299D01*
X138114239Y-105213498D01*
X138114238Y-105213497D01*
X138114237Y-105213497D01*
X138006018Y-105184500D01*
X138006017Y-105184500D01*
X137893982Y-105184500D01*
X137785770Y-105213494D01*
X137785759Y-105213498D01*
X137785758Y-105213499D01*
X137688737Y-105269514D01*
X137688728Y-105269521D01*
X137609521Y-105348728D01*
X137609514Y-105348737D01*
X137553499Y-105445758D01*
X137553498Y-105445759D01*
X137553494Y-105445770D01*
X137524499Y-105553985D01*
X137523715Y-105559940D01*
X137519753Y-105578683D01*
X137515071Y-105594627D01*
X137477305Y-105653396D01*
X137472671Y-105657412D01*
X137425747Y-105682871D01*
X137382921Y-105695192D01*
X137380398Y-105696178D01*
X137315766Y-105713496D01*
X137315759Y-105713498D01*
X137315758Y-105713499D01*
X137218737Y-105769514D01*
X137218728Y-105769521D01*
X137139521Y-105848728D01*
X137139514Y-105848737D01*
X137083499Y-105945758D01*
X137083498Y-105945759D01*
X137083494Y-105945770D01*
X137060386Y-106032014D01*
X137054500Y-106053982D01*
X122499616Y-106053982D01*
X122439662Y-105994028D01*
X122439655Y-105994022D01*
X122307942Y-105906015D01*
X122307941Y-105906015D01*
X122267603Y-105879062D01*
X122267594Y-105879057D01*
X122248781Y-105871265D01*
X122248768Y-105871259D01*
X122248767Y-105871258D01*
X122248767Y-105871259D01*
X122076420Y-105799870D01*
X122076412Y-105799868D01*
X122076404Y-105799866D01*
X122076394Y-105799864D01*
X121873471Y-105759500D01*
X121873469Y-105759500D01*
X121873465Y-105759500D01*
X121666535Y-105759500D01*
X121666530Y-105759500D01*
X121666528Y-105759500D01*
X121463604Y-105799864D01*
X121463579Y-105799870D01*
X121272404Y-105879057D01*
X121100337Y-105994027D01*
X120954027Y-106140337D01*
X120839057Y-106312404D01*
X120759870Y-106503579D01*
X120759864Y-106503604D01*
X120749595Y-106555230D01*
X120737858Y-106588505D01*
X120735027Y-106593918D01*
X120686515Y-106644201D01*
X120618519Y-106660274D01*
X120552627Y-106637034D01*
X120509761Y-106581861D01*
X120509114Y-106580217D01*
X120500500Y-106534807D01*
X120500500Y-104549301D01*
X120505518Y-104514384D01*
X120506879Y-104509747D01*
X120507239Y-104508521D01*
X120545003Y-104449739D01*
X120608555Y-104420705D01*
X120677715Y-104430638D01*
X120730524Y-104476383D01*
X120731480Y-104477870D01*
X120748793Y-104520735D01*
X120759864Y-104576394D01*
X120759870Y-104576421D01*
X120796982Y-104666017D01*
X120839059Y-104767598D01*
X120850175Y-104784235D01*
X120954025Y-104939659D01*
X121100336Y-105085970D01*
X121100340Y-105085973D01*
X121100342Y-105085975D01*
X121100345Y-105085977D01*
X121100349Y-105085980D01*
X121100348Y-105085980D01*
X121100411Y-105086032D01*
X121100448Y-105086046D01*
X121272402Y-105200941D01*
X121463580Y-105280130D01*
X121654540Y-105318114D01*
X121663559Y-105319908D01*
X121665794Y-105320409D01*
X121666532Y-105320500D01*
X121873466Y-105320500D01*
X121877586Y-105320500D01*
X121885435Y-105318118D01*
X122076420Y-105280130D01*
X122267598Y-105200941D01*
X122439655Y-105085977D01*
X122585977Y-104939655D01*
X122700941Y-104767598D01*
X122780130Y-104576420D01*
X122784593Y-104553982D01*
X134814500Y-104553982D01*
X134814500Y-104666018D01*
X134828304Y-104717534D01*
X134842230Y-104769505D01*
X134842231Y-104769510D01*
X134843493Y-104774223D01*
X134843497Y-104774237D01*
X134843501Y-104774245D01*
X134849271Y-104784238D01*
X134849274Y-104784243D01*
X134899512Y-104871259D01*
X134899514Y-104871262D01*
X134899515Y-104871263D01*
X134978737Y-104950485D01*
X135075763Y-105006503D01*
X135183982Y-105035500D01*
X135183984Y-105035500D01*
X135296016Y-105035500D01*
X135296018Y-105035500D01*
X135404237Y-105006503D01*
X135501263Y-104950485D01*
X135580485Y-104871263D01*
X135636503Y-104774237D01*
X135665500Y-104666018D01*
X135665500Y-104553982D01*
X135636503Y-104445763D01*
X135580485Y-104348737D01*
X135501263Y-104269515D01*
X135419635Y-104222387D01*
X135404239Y-104213498D01*
X135404238Y-104213497D01*
X135404237Y-104213497D01*
X135296018Y-104184500D01*
X135296017Y-104184500D01*
X135183982Y-104184500D01*
X135075770Y-104213494D01*
X135075759Y-104213498D01*
X135075758Y-104213499D01*
X134978737Y-104269514D01*
X134978728Y-104269521D01*
X134899521Y-104348728D01*
X134899514Y-104348737D01*
X134843499Y-104445758D01*
X134843498Y-104445759D01*
X134843494Y-104445770D01*
X134820531Y-104531472D01*
X134814500Y-104553982D01*
X122784593Y-104553982D01*
X122786471Y-104544541D01*
X122791022Y-104521664D01*
X122818981Y-104381101D01*
X122819703Y-104378377D01*
X122820500Y-104373467D01*
X122820500Y-104166532D01*
X122820409Y-104165794D01*
X122819909Y-104163564D01*
X122813074Y-104129203D01*
X122813074Y-104129202D01*
X122790430Y-104015363D01*
X122780130Y-103963580D01*
X122700941Y-103772402D01*
X122586046Y-103600449D01*
X122586036Y-103600417D01*
X122585980Y-103600348D01*
X122585980Y-103600349D01*
X122585977Y-103600345D01*
X122585975Y-103600342D01*
X122439657Y-103454024D01*
X122439653Y-103454021D01*
X122427292Y-103445762D01*
X122427286Y-103445758D01*
X122420407Y-103441161D01*
X122417111Y-103438959D01*
X122417110Y-103438958D01*
X122417106Y-103438955D01*
X122412707Y-103436016D01*
X122274969Y-103343982D01*
X129974500Y-103343982D01*
X129974500Y-103456018D01*
X130003497Y-103564237D01*
X130059515Y-103661263D01*
X130138737Y-103740485D01*
X130235763Y-103796503D01*
X130343982Y-103825500D01*
X130343984Y-103825500D01*
X130456016Y-103825500D01*
X130456018Y-103825500D01*
X130564237Y-103796503D01*
X130661263Y-103740485D01*
X130740485Y-103661263D01*
X130740488Y-103661259D01*
X130749470Y-103645700D01*
X130771284Y-103617957D01*
X130781330Y-103608377D01*
X130843429Y-103576360D01*
X130912982Y-103582998D01*
X130913007Y-103583008D01*
X130914515Y-103583612D01*
X130962116Y-103617512D01*
X130965398Y-103621299D01*
X130979072Y-103640497D01*
X130979513Y-103641261D01*
X130979514Y-103641262D01*
X130979515Y-103641263D01*
X131058737Y-103720485D01*
X131155763Y-103776503D01*
X131263982Y-103805500D01*
X131263984Y-103805500D01*
X131376016Y-103805500D01*
X131376018Y-103805500D01*
X131484237Y-103776503D01*
X131581263Y-103720485D01*
X131660485Y-103641263D01*
X131716503Y-103544237D01*
X131745500Y-103436018D01*
X131745500Y-103323982D01*
X131716503Y-103215763D01*
X131660485Y-103118737D01*
X131581263Y-103039515D01*
X131516579Y-103002169D01*
X131484239Y-102983498D01*
X131484238Y-102983497D01*
X131484237Y-102983497D01*
X131376018Y-102954500D01*
X131376017Y-102954500D01*
X131263982Y-102954500D01*
X131155770Y-102983494D01*
X131155759Y-102983498D01*
X131155758Y-102983499D01*
X131058737Y-103039514D01*
X131058728Y-103039521D01*
X130979521Y-103118728D01*
X130979513Y-103118738D01*
X130979506Y-103118749D01*
X130970521Y-103134311D01*
X130948706Y-103162049D01*
X130938665Y-103171623D01*
X130876563Y-103203639D01*
X130807017Y-103197001D01*
X130805506Y-103196396D01*
X130757876Y-103162481D01*
X130757502Y-103162049D01*
X130754594Y-103158693D01*
X130740922Y-103139493D01*
X130740489Y-103138743D01*
X130740486Y-103138740D01*
X130740485Y-103138737D01*
X130661263Y-103059515D01*
X130596579Y-103022169D01*
X130564239Y-103003498D01*
X130564238Y-103003497D01*
X130564237Y-103003497D01*
X130456018Y-102974500D01*
X130456017Y-102974500D01*
X130343982Y-102974500D01*
X130235770Y-103003494D01*
X130235759Y-103003498D01*
X130235758Y-103003499D01*
X130138737Y-103059514D01*
X130138728Y-103059521D01*
X130059521Y-103138728D01*
X130059514Y-103138737D01*
X130003499Y-103235758D01*
X130003498Y-103235759D01*
X130003494Y-103235770D01*
X129979859Y-103323982D01*
X129974500Y-103343982D01*
X122274969Y-103343982D01*
X122267601Y-103339059D01*
X122140146Y-103286266D01*
X122076420Y-103259870D01*
X122076412Y-103259868D01*
X122076404Y-103259866D01*
X122076394Y-103259864D01*
X121873471Y-103219500D01*
X121873469Y-103219500D01*
X121873465Y-103219500D01*
X121666535Y-103219500D01*
X121666530Y-103219500D01*
X121666528Y-103219500D01*
X121463604Y-103259864D01*
X121463579Y-103259870D01*
X121272404Y-103339057D01*
X121100337Y-103454027D01*
X120954027Y-103600337D01*
X120839057Y-103772404D01*
X120759870Y-103963579D01*
X120759864Y-103963604D01*
X120749595Y-104015230D01*
X120737858Y-104048505D01*
X120735027Y-104053918D01*
X120686515Y-104104201D01*
X120618519Y-104120274D01*
X120552627Y-104097034D01*
X120509761Y-104041861D01*
X120509114Y-104040217D01*
X120500500Y-103994807D01*
X120500500Y-102009301D01*
X120505518Y-101974384D01*
X120506147Y-101972238D01*
X120507239Y-101968521D01*
X120545003Y-101909739D01*
X120608555Y-101880705D01*
X120677715Y-101890638D01*
X120730524Y-101936383D01*
X120731480Y-101937870D01*
X120748793Y-101980735D01*
X120759868Y-102036412D01*
X120759870Y-102036420D01*
X120839058Y-102227596D01*
X120954022Y-102399654D01*
X120954027Y-102399661D01*
X121100336Y-102545970D01*
X121100340Y-102545973D01*
X121100342Y-102545975D01*
X121100345Y-102545977D01*
X121100349Y-102545980D01*
X121100348Y-102545980D01*
X121100411Y-102546032D01*
X121100448Y-102546046D01*
X121272402Y-102660941D01*
X121463580Y-102740130D01*
X121616171Y-102770482D01*
X121663559Y-102779908D01*
X121665794Y-102780409D01*
X121666532Y-102780500D01*
X121873466Y-102780500D01*
X121877586Y-102780500D01*
X121885435Y-102778118D01*
X122076420Y-102740130D01*
X122267598Y-102660941D01*
X122439655Y-102545977D01*
X122585977Y-102399655D01*
X122603131Y-102373982D01*
X122654593Y-102296964D01*
X122675442Y-102265760D01*
X122700941Y-102227598D01*
X122780130Y-102036420D01*
X122820500Y-101833465D01*
X122820500Y-101626535D01*
X122780130Y-101423580D01*
X122700941Y-101232402D01*
X122586046Y-101060449D01*
X122586036Y-101060417D01*
X122585980Y-101060348D01*
X122585980Y-101060349D01*
X122585977Y-101060345D01*
X122585975Y-101060342D01*
X122585973Y-101060340D01*
X122585970Y-101060336D01*
X122439663Y-100914029D01*
X122439656Y-100914023D01*
X122439652Y-100914020D01*
X122357353Y-100859029D01*
X122356669Y-100858573D01*
X122356668Y-100858572D01*
X122356562Y-100858502D01*
X122301948Y-100822011D01*
X122301947Y-100822010D01*
X122267603Y-100799062D01*
X122267595Y-100799057D01*
X122182915Y-100763982D01*
X138844500Y-100763982D01*
X138844500Y-100876018D01*
X138873497Y-100984237D01*
X138929515Y-101081263D01*
X139008737Y-101160485D01*
X139105763Y-101216503D01*
X139213982Y-101245500D01*
X139213984Y-101245500D01*
X139326016Y-101245500D01*
X139326018Y-101245500D01*
X139434237Y-101216503D01*
X139531263Y-101160485D01*
X139610485Y-101081263D01*
X139647926Y-101016411D01*
X139669739Y-100988672D01*
X139679787Y-100979091D01*
X139741888Y-100947077D01*
X139811438Y-100953717D01*
X139812624Y-100954192D01*
X139812968Y-100954330D01*
X139860577Y-100988238D01*
X139863861Y-100992028D01*
X139877534Y-101011230D01*
X139904961Y-101058734D01*
X139929515Y-101101263D01*
X140008737Y-101180485D01*
X140105763Y-101236503D01*
X140213982Y-101265500D01*
X140213984Y-101265500D01*
X140222627Y-101265500D01*
X140257563Y-101270523D01*
X140272561Y-101274927D01*
X140331336Y-101312699D01*
X140337141Y-101319398D01*
X140363204Y-101368508D01*
X140383496Y-101444235D01*
X140383498Y-101444240D01*
X140439512Y-101541259D01*
X140439514Y-101541261D01*
X140439515Y-101541263D01*
X140518737Y-101620485D01*
X140615763Y-101676503D01*
X140723982Y-101705500D01*
X140723984Y-101705500D01*
X140836016Y-101705500D01*
X140836018Y-101705500D01*
X140944237Y-101676503D01*
X141041263Y-101620485D01*
X141120485Y-101541263D01*
X141157926Y-101476411D01*
X141179739Y-101448672D01*
X141189787Y-101439091D01*
X141251888Y-101407077D01*
X141321438Y-101413717D01*
X141322624Y-101414192D01*
X141322968Y-101414330D01*
X141370577Y-101448238D01*
X141373861Y-101452028D01*
X141387534Y-101471230D01*
X141402074Y-101496413D01*
X141439515Y-101561263D01*
X141518737Y-101640485D01*
X141615763Y-101696503D01*
X141723982Y-101725500D01*
X141723984Y-101725500D01*
X141836016Y-101725500D01*
X141836018Y-101725500D01*
X141944237Y-101696503D01*
X142041263Y-101640485D01*
X142120485Y-101561263D01*
X142157926Y-101496411D01*
X142179739Y-101468672D01*
X142189787Y-101459091D01*
X142251888Y-101427077D01*
X142321438Y-101433717D01*
X142322624Y-101434192D01*
X142322968Y-101434330D01*
X142370577Y-101468238D01*
X142373861Y-101472028D01*
X142387533Y-101491228D01*
X142396350Y-101506499D01*
X142439515Y-101581263D01*
X142518737Y-101660485D01*
X142615763Y-101716503D01*
X142723982Y-101745500D01*
X142723984Y-101745500D01*
X142836016Y-101745500D01*
X142836018Y-101745500D01*
X142879004Y-101733982D01*
X145914500Y-101733982D01*
X145914500Y-101846018D01*
X145943497Y-101954237D01*
X145999515Y-102051263D01*
X146078737Y-102130485D01*
X146175763Y-102186503D01*
X146283982Y-102215500D01*
X146283984Y-102215500D01*
X146396016Y-102215500D01*
X146396018Y-102215500D01*
X146504237Y-102186503D01*
X146601263Y-102130485D01*
X146680485Y-102051263D01*
X146736503Y-101954237D01*
X146765500Y-101846018D01*
X146765500Y-101733982D01*
X146736503Y-101625763D01*
X146680485Y-101528737D01*
X146601263Y-101449515D01*
X146514695Y-101399535D01*
X146504239Y-101393498D01*
X146504238Y-101393497D01*
X146504237Y-101393497D01*
X146396018Y-101364500D01*
X146396017Y-101364500D01*
X146283982Y-101364500D01*
X146175770Y-101393494D01*
X146175759Y-101393498D01*
X146175758Y-101393499D01*
X146078737Y-101449514D01*
X146078728Y-101449521D01*
X145999521Y-101528728D01*
X145999514Y-101528737D01*
X145943499Y-101625758D01*
X145943498Y-101625759D01*
X145943494Y-101625770D01*
X145919184Y-101716501D01*
X145914500Y-101733982D01*
X142879004Y-101733982D01*
X142944237Y-101716503D01*
X143041263Y-101660485D01*
X143120485Y-101581263D01*
X143176503Y-101484237D01*
X143205500Y-101376018D01*
X143205500Y-101263982D01*
X143176503Y-101155763D01*
X143120485Y-101058737D01*
X143041263Y-100979515D01*
X142944237Y-100923497D01*
X142836018Y-100894500D01*
X142836017Y-100894500D01*
X142827958Y-100893439D01*
X142827995Y-100893157D01*
X142802389Y-100889475D01*
X142787390Y-100885070D01*
X142728644Y-100847327D01*
X142727457Y-100845958D01*
X142699977Y-100791083D01*
X142698332Y-100783521D01*
X142697091Y-100771972D01*
X142696561Y-100772042D01*
X142695500Y-100763989D01*
X142695500Y-100763984D01*
X142695500Y-100763982D01*
X142666503Y-100655763D01*
X142610485Y-100558737D01*
X142531263Y-100479515D01*
X142465002Y-100441259D01*
X142448373Y-100431658D01*
X142441843Y-100426647D01*
X142426631Y-100420346D01*
X142418469Y-100419272D01*
X142416659Y-100418787D01*
X142326018Y-100394500D01*
X142326017Y-100394500D01*
X142213982Y-100394500D01*
X142105770Y-100423494D01*
X142105759Y-100423498D01*
X142105758Y-100423499D01*
X142008737Y-100479514D01*
X142008728Y-100479521D01*
X141929521Y-100558728D01*
X141929513Y-100558737D01*
X141882638Y-100639927D01*
X141860822Y-100667669D01*
X141850779Y-100677245D01*
X141788676Y-100709261D01*
X141719124Y-100702620D01*
X141718881Y-100702522D01*
X141717596Y-100702008D01*
X141669984Y-100668096D01*
X141666702Y-100664308D01*
X141653032Y-100645110D01*
X141620487Y-100588740D01*
X141620483Y-100588735D01*
X141541265Y-100509517D01*
X141541263Y-100509515D01*
X141458373Y-100461658D01*
X141451842Y-100456647D01*
X141436631Y-100450346D01*
X141428469Y-100449272D01*
X141426659Y-100448787D01*
X141336018Y-100424500D01*
X141336017Y-100424500D01*
X141223982Y-100424500D01*
X141115770Y-100453494D01*
X141115759Y-100453498D01*
X141115758Y-100453499D01*
X141018737Y-100509514D01*
X141018728Y-100509521D01*
X140939521Y-100588728D01*
X140939515Y-100588736D01*
X140894186Y-100667247D01*
X140872373Y-100694985D01*
X140866475Y-100700608D01*
X140862329Y-100704561D01*
X140800230Y-100736580D01*
X140730677Y-100729942D01*
X140730665Y-100729937D01*
X140729154Y-100729332D01*
X140681530Y-100695416D01*
X140678254Y-100691635D01*
X140664583Y-100672437D01*
X140645813Y-100639927D01*
X140610485Y-100578737D01*
X140531263Y-100499515D01*
X140462281Y-100459688D01*
X140434239Y-100443498D01*
X140434238Y-100443497D01*
X140434237Y-100443497D01*
X140326018Y-100414500D01*
X140326017Y-100414500D01*
X140213982Y-100414500D01*
X140105770Y-100443494D01*
X140105759Y-100443498D01*
X140105758Y-100443499D01*
X140008737Y-100499514D01*
X140008728Y-100499521D01*
X139929521Y-100578728D01*
X139929513Y-100578737D01*
X139892072Y-100643587D01*
X139870256Y-100671329D01*
X139860213Y-100680905D01*
X139798110Y-100712921D01*
X139728558Y-100706280D01*
X139728315Y-100706182D01*
X139727030Y-100705668D01*
X139679418Y-100671756D01*
X139676136Y-100667968D01*
X139662466Y-100648770D01*
X139610487Y-100558740D01*
X139610483Y-100558735D01*
X139531265Y-100479517D01*
X139531263Y-100479515D01*
X139465002Y-100441259D01*
X139448373Y-100431658D01*
X139441843Y-100426647D01*
X139426631Y-100420346D01*
X139418469Y-100419272D01*
X139416659Y-100418787D01*
X139326018Y-100394500D01*
X139326017Y-100394500D01*
X139213982Y-100394500D01*
X139105770Y-100423494D01*
X139105759Y-100423498D01*
X139105758Y-100423499D01*
X139008737Y-100479514D01*
X139008728Y-100479521D01*
X138929521Y-100558728D01*
X138929514Y-100558737D01*
X138873499Y-100655758D01*
X138873498Y-100655759D01*
X138873494Y-100655770D01*
X138853784Y-100729332D01*
X138844500Y-100763982D01*
X122182915Y-100763982D01*
X122144010Y-100747867D01*
X122076420Y-100719870D01*
X122076412Y-100719868D01*
X122076404Y-100719866D01*
X122076394Y-100719864D01*
X121873471Y-100679500D01*
X121873469Y-100679500D01*
X121873465Y-100679500D01*
X121666535Y-100679500D01*
X121666530Y-100679500D01*
X121666528Y-100679500D01*
X121463604Y-100719864D01*
X121463579Y-100719870D01*
X121272404Y-100799057D01*
X121100337Y-100914027D01*
X120954027Y-101060337D01*
X120839057Y-101232404D01*
X120759870Y-101423579D01*
X120759864Y-101423604D01*
X120749595Y-101475230D01*
X120737858Y-101508505D01*
X120735027Y-101513918D01*
X120686515Y-101564201D01*
X120618519Y-101580274D01*
X120552627Y-101557034D01*
X120509761Y-101501861D01*
X120509114Y-101500217D01*
X120500500Y-101454807D01*
X120500500Y-99469301D01*
X120505518Y-99434384D01*
X120506147Y-99432238D01*
X120507239Y-99428521D01*
X120545003Y-99369739D01*
X120608555Y-99340705D01*
X120677715Y-99350638D01*
X120730524Y-99396383D01*
X120731480Y-99397870D01*
X120748793Y-99440735D01*
X120759864Y-99496394D01*
X120759870Y-99496421D01*
X120822378Y-99647331D01*
X120822379Y-99647331D01*
X120827770Y-99660346D01*
X120839059Y-99687598D01*
X120860389Y-99719521D01*
X120871410Y-99736014D01*
X120871411Y-99736017D01*
X120954022Y-99859655D01*
X120954028Y-99859662D01*
X121100336Y-100005970D01*
X121100340Y-100005973D01*
X121100342Y-100005975D01*
X121100345Y-100005977D01*
X121100349Y-100005980D01*
X121100348Y-100005980D01*
X121100411Y-100006032D01*
X121100448Y-100006046D01*
X121272402Y-100120941D01*
X121463580Y-100200130D01*
X121654540Y-100238114D01*
X121663559Y-100239908D01*
X121665794Y-100240409D01*
X121666532Y-100240500D01*
X121873466Y-100240500D01*
X121877586Y-100240500D01*
X121885435Y-100238118D01*
X122076420Y-100200130D01*
X122267598Y-100120941D01*
X122439655Y-100005977D01*
X122585977Y-99859655D01*
X122700941Y-99687598D01*
X122710095Y-99665500D01*
X122727292Y-99623982D01*
X133559500Y-99623982D01*
X133559500Y-99736018D01*
X133588497Y-99844237D01*
X133644515Y-99941263D01*
X133723737Y-100020485D01*
X133820763Y-100076503D01*
X133928982Y-100105500D01*
X133928984Y-100105500D01*
X134041016Y-100105500D01*
X134041018Y-100105500D01*
X134149237Y-100076503D01*
X134246263Y-100020485D01*
X134262766Y-100003982D01*
X146584500Y-100003982D01*
X146584500Y-100116018D01*
X146613497Y-100224237D01*
X146669515Y-100321263D01*
X146748737Y-100400485D01*
X146845763Y-100456503D01*
X146953982Y-100485500D01*
X146953984Y-100485500D01*
X147066016Y-100485500D01*
X147066018Y-100485500D01*
X147174237Y-100456503D01*
X147271263Y-100400485D01*
X147350485Y-100321263D01*
X147406503Y-100224237D01*
X147435500Y-100116018D01*
X147435500Y-100003982D01*
X147406503Y-99895763D01*
X147350485Y-99798737D01*
X147271263Y-99719515D01*
X147206579Y-99682169D01*
X147206578Y-99682168D01*
X147188373Y-99671657D01*
X147181845Y-99666648D01*
X147166631Y-99660346D01*
X147158469Y-99659272D01*
X147156659Y-99658787D01*
X147066018Y-99634500D01*
X147066017Y-99634500D01*
X146953982Y-99634500D01*
X146845770Y-99663494D01*
X146845759Y-99663498D01*
X146845758Y-99663499D01*
X146748737Y-99719514D01*
X146748728Y-99719521D01*
X146669521Y-99798728D01*
X146669514Y-99798737D01*
X146613499Y-99895758D01*
X146613498Y-99895759D01*
X146613494Y-99895770D01*
X146584500Y-100003982D01*
X134262766Y-100003982D01*
X134325485Y-99941263D01*
X134381503Y-99844237D01*
X134410500Y-99736018D01*
X134410500Y-99623982D01*
X134381503Y-99515763D01*
X134325485Y-99418737D01*
X134246263Y-99339515D01*
X134166502Y-99293465D01*
X134149239Y-99283498D01*
X134149238Y-99283497D01*
X134149237Y-99283497D01*
X134041018Y-99254500D01*
X134041017Y-99254500D01*
X133928982Y-99254500D01*
X133820770Y-99283494D01*
X133820759Y-99283498D01*
X133820758Y-99283499D01*
X133723737Y-99339514D01*
X133723728Y-99339521D01*
X133644521Y-99418728D01*
X133644514Y-99418737D01*
X133588499Y-99515758D01*
X133588498Y-99515759D01*
X133588494Y-99515770D01*
X133574392Y-99568403D01*
X133559500Y-99623982D01*
X122727292Y-99623982D01*
X122750314Y-99568402D01*
X122758147Y-99549492D01*
X122780130Y-99496420D01*
X122780136Y-99496394D01*
X122811340Y-99339514D01*
X122820500Y-99293465D01*
X122820500Y-99086535D01*
X122780130Y-98883580D01*
X122780128Y-98883575D01*
X122734454Y-98773307D01*
X122718165Y-98733982D01*
X130944500Y-98733982D01*
X130944500Y-98846018D01*
X130969570Y-98939579D01*
X130973497Y-98954236D01*
X130973498Y-98954239D01*
X130977899Y-98961861D01*
X131029515Y-99051263D01*
X131108737Y-99130485D01*
X131205763Y-99186503D01*
X131313982Y-99215500D01*
X131313984Y-99215500D01*
X131426016Y-99215500D01*
X131426018Y-99215500D01*
X131534237Y-99186503D01*
X131631263Y-99130485D01*
X131710485Y-99051263D01*
X131766503Y-98954237D01*
X131795500Y-98846018D01*
X131795500Y-98733982D01*
X131766503Y-98625763D01*
X131710485Y-98528737D01*
X131631263Y-98449515D01*
X131538153Y-98395758D01*
X131534239Y-98393498D01*
X131534238Y-98393497D01*
X131534237Y-98393497D01*
X131498726Y-98383982D01*
X133554500Y-98383982D01*
X133554500Y-98496018D01*
X133583497Y-98604237D01*
X133639515Y-98701263D01*
X133718737Y-98780485D01*
X133815763Y-98836503D01*
X133923982Y-98865500D01*
X133923984Y-98865500D01*
X134036016Y-98865500D01*
X134036018Y-98865500D01*
X134144237Y-98836503D01*
X134241263Y-98780485D01*
X134320485Y-98701263D01*
X134376503Y-98604237D01*
X134403366Y-98503982D01*
X142854500Y-98503982D01*
X142854500Y-98616018D01*
X142874968Y-98692404D01*
X142877446Y-98701655D01*
X142877447Y-98701657D01*
X142883496Y-98724233D01*
X142883496Y-98724235D01*
X142883499Y-98724241D01*
X142895097Y-98744328D01*
X142895098Y-98744333D01*
X142895099Y-98744333D01*
X142939510Y-98821256D01*
X142939514Y-98821261D01*
X142939515Y-98821263D01*
X143018737Y-98900485D01*
X143115763Y-98956503D01*
X143223982Y-98985500D01*
X143223984Y-98985500D01*
X143336016Y-98985500D01*
X143336018Y-98985500D01*
X143444237Y-98956503D01*
X143541263Y-98900485D01*
X143620485Y-98821263D01*
X143676503Y-98724237D01*
X143705500Y-98616018D01*
X143705500Y-98503982D01*
X143676503Y-98395763D01*
X143620485Y-98298737D01*
X143541263Y-98219515D01*
X143541260Y-98219513D01*
X143541256Y-98219510D01*
X143470629Y-98178734D01*
X143470628Y-98178733D01*
X143470628Y-98178734D01*
X143458374Y-98171659D01*
X143451843Y-98166647D01*
X143436631Y-98160346D01*
X143428469Y-98159272D01*
X143354678Y-98139500D01*
X143336018Y-98134500D01*
X143336017Y-98134500D01*
X143223982Y-98134500D01*
X143115770Y-98163494D01*
X143115759Y-98163498D01*
X143115758Y-98163499D01*
X143018737Y-98219514D01*
X143018728Y-98219521D01*
X142939521Y-98298728D01*
X142939514Y-98298737D01*
X142883499Y-98395758D01*
X142883498Y-98395759D01*
X142883494Y-98395770D01*
X142856634Y-98496016D01*
X142854500Y-98503982D01*
X134403366Y-98503982D01*
X134405500Y-98496018D01*
X134405500Y-98383982D01*
X134376503Y-98275763D01*
X134320485Y-98178737D01*
X134241263Y-98099515D01*
X134174581Y-98061016D01*
X134144239Y-98043498D01*
X134144238Y-98043497D01*
X134144237Y-98043497D01*
X134036018Y-98014500D01*
X134036017Y-98014500D01*
X133923982Y-98014500D01*
X133815770Y-98043494D01*
X133815759Y-98043498D01*
X133815758Y-98043499D01*
X133718737Y-98099514D01*
X133718728Y-98099521D01*
X133639521Y-98178728D01*
X133639514Y-98178737D01*
X133583499Y-98275758D01*
X133583498Y-98275759D01*
X133583494Y-98275770D01*
X133564816Y-98345482D01*
X133554500Y-98383982D01*
X131498726Y-98383982D01*
X131426018Y-98364500D01*
X131426017Y-98364500D01*
X131313982Y-98364500D01*
X131205770Y-98393494D01*
X131205759Y-98393498D01*
X131205758Y-98393499D01*
X131108737Y-98449514D01*
X131108728Y-98449521D01*
X131029521Y-98528728D01*
X131029514Y-98528737D01*
X130973499Y-98625758D01*
X130973498Y-98625759D01*
X130973494Y-98625770D01*
X130953268Y-98701259D01*
X130944500Y-98733982D01*
X122718165Y-98733982D01*
X122700942Y-98692404D01*
X122656414Y-98625763D01*
X122585977Y-98520345D01*
X122585975Y-98520342D01*
X122585970Y-98520336D01*
X122439659Y-98374025D01*
X122292641Y-98275792D01*
X122292593Y-98275760D01*
X122267598Y-98259059D01*
X122267593Y-98259057D01*
X122264958Y-98257965D01*
X122255954Y-98254236D01*
X122076420Y-98179870D01*
X122076412Y-98179868D01*
X122076404Y-98179866D01*
X122076394Y-98179864D01*
X121873471Y-98139500D01*
X121873469Y-98139500D01*
X121873465Y-98139500D01*
X121666535Y-98139500D01*
X121666530Y-98139500D01*
X121666528Y-98139500D01*
X121463604Y-98179864D01*
X121463579Y-98179870D01*
X121272404Y-98259057D01*
X121100337Y-98374027D01*
X120954027Y-98520337D01*
X120839057Y-98692404D01*
X120775429Y-98846016D01*
X120759870Y-98883579D01*
X120759869Y-98883585D01*
X120759864Y-98883604D01*
X120749595Y-98935230D01*
X120737858Y-98968505D01*
X120735027Y-98973918D01*
X120686515Y-99024201D01*
X120618519Y-99040274D01*
X120552627Y-99017034D01*
X120509761Y-98961861D01*
X120509114Y-98960217D01*
X120500500Y-98914807D01*
X120500500Y-96929301D01*
X120505518Y-96894384D01*
X120506147Y-96892238D01*
X120507239Y-96888521D01*
X120545003Y-96829739D01*
X120608555Y-96800705D01*
X120677715Y-96810638D01*
X120730524Y-96856383D01*
X120731480Y-96857870D01*
X120748793Y-96900735D01*
X120759868Y-96956412D01*
X120759870Y-96956420D01*
X120784756Y-97016501D01*
X120784756Y-97016502D01*
X120839057Y-97147595D01*
X120839058Y-97147596D01*
X120839059Y-97147598D01*
X120869728Y-97193497D01*
X120911329Y-97255759D01*
X120954025Y-97319658D01*
X120954028Y-97319662D01*
X121100336Y-97465970D01*
X121100342Y-97465975D01*
X121100349Y-97465980D01*
X121100348Y-97465980D01*
X121100411Y-97466032D01*
X121100448Y-97466046D01*
X121272402Y-97580941D01*
X121463580Y-97660130D01*
X121654540Y-97698114D01*
X121663559Y-97699908D01*
X121665794Y-97700409D01*
X121666532Y-97700500D01*
X121873466Y-97700500D01*
X121877586Y-97700500D01*
X121885435Y-97698118D01*
X122076420Y-97660130D01*
X122267598Y-97580941D01*
X122337878Y-97533982D01*
X127484500Y-97533982D01*
X127484500Y-97646018D01*
X127510684Y-97743737D01*
X127512230Y-97749505D01*
X127512231Y-97749510D01*
X127513493Y-97754223D01*
X127513496Y-97754232D01*
X127513499Y-97754242D01*
X127516474Y-97759394D01*
X127517104Y-97760485D01*
X127569515Y-97851263D01*
X127648737Y-97930485D01*
X127745763Y-97986503D01*
X127853982Y-98015500D01*
X127853984Y-98015500D01*
X127966016Y-98015500D01*
X127966018Y-98015500D01*
X128074237Y-97986503D01*
X128171263Y-97930485D01*
X128250485Y-97851263D01*
X128306503Y-97754237D01*
X128335500Y-97646018D01*
X128335500Y-97533982D01*
X128306503Y-97425763D01*
X128270834Y-97363982D01*
X138794500Y-97363982D01*
X138794500Y-97476018D01*
X138810032Y-97533982D01*
X138812734Y-97544068D01*
X138812735Y-97544073D01*
X138823496Y-97584234D01*
X138823496Y-97584235D01*
X138823497Y-97584236D01*
X138823498Y-97584239D01*
X138837504Y-97608498D01*
X138879515Y-97681263D01*
X138958737Y-97760485D01*
X139055763Y-97816503D01*
X139163982Y-97845500D01*
X139163984Y-97845500D01*
X139276016Y-97845500D01*
X139276018Y-97845500D01*
X139384237Y-97816503D01*
X139481263Y-97760485D01*
X139560485Y-97681263D01*
X139616503Y-97584237D01*
X139645500Y-97476018D01*
X139645500Y-97363982D01*
X139616503Y-97255763D01*
X139560485Y-97158737D01*
X139481263Y-97079515D01*
X139416579Y-97042169D01*
X139384239Y-97023498D01*
X139384238Y-97023497D01*
X139384237Y-97023497D01*
X139276018Y-96994500D01*
X139276017Y-96994500D01*
X139163982Y-96994500D01*
X139055770Y-97023494D01*
X139055759Y-97023498D01*
X139055758Y-97023499D01*
X138958737Y-97079514D01*
X138958728Y-97079521D01*
X138879521Y-97158728D01*
X138879514Y-97158737D01*
X138823499Y-97255758D01*
X138823498Y-97255759D01*
X138823494Y-97255770D01*
X138803943Y-97328740D01*
X138794500Y-97363982D01*
X128270834Y-97363982D01*
X128250485Y-97328737D01*
X128171263Y-97249515D01*
X128106579Y-97212169D01*
X128074239Y-97193498D01*
X128074238Y-97193497D01*
X128074237Y-97193497D01*
X127966018Y-97164500D01*
X127966017Y-97164500D01*
X127853982Y-97164500D01*
X127745770Y-97193494D01*
X127745759Y-97193498D01*
X127745758Y-97193499D01*
X127648737Y-97249514D01*
X127648728Y-97249521D01*
X127569521Y-97328728D01*
X127569514Y-97328737D01*
X127513499Y-97425758D01*
X127513498Y-97425759D01*
X127513494Y-97425770D01*
X127484501Y-97533978D01*
X127484500Y-97533982D01*
X122337878Y-97533982D01*
X122439655Y-97465977D01*
X122439658Y-97465974D01*
X122467459Y-97438174D01*
X122585974Y-97319658D01*
X122585975Y-97319657D01*
X122585977Y-97319655D01*
X122700941Y-97147598D01*
X122780130Y-96956420D01*
X122820500Y-96753465D01*
X122820500Y-96546535D01*
X122780130Y-96343580D01*
X122700941Y-96152402D01*
X122586046Y-95980449D01*
X122586036Y-95980417D01*
X122585980Y-95980348D01*
X122585980Y-95980349D01*
X122585977Y-95980345D01*
X122585975Y-95980342D01*
X122585973Y-95980340D01*
X122585970Y-95980336D01*
X122439662Y-95834028D01*
X122439655Y-95834022D01*
X122353626Y-95776540D01*
X122353625Y-95776540D01*
X122267604Y-95719062D01*
X122267595Y-95719057D01*
X122144010Y-95667867D01*
X122076420Y-95639870D01*
X122076412Y-95639868D01*
X122076404Y-95639866D01*
X122076394Y-95639864D01*
X121873471Y-95599500D01*
X121873469Y-95599500D01*
X121873465Y-95599500D01*
X121666535Y-95599500D01*
X121666530Y-95599500D01*
X121666528Y-95599500D01*
X121463604Y-95639864D01*
X121463579Y-95639870D01*
X121272404Y-95719057D01*
X121100337Y-95834027D01*
X120954027Y-95980337D01*
X120839057Y-96152404D01*
X120759870Y-96343579D01*
X120759864Y-96343604D01*
X120749595Y-96395230D01*
X120737858Y-96428505D01*
X120735027Y-96433918D01*
X120686515Y-96484201D01*
X120618519Y-96500274D01*
X120552627Y-96477034D01*
X120509761Y-96421861D01*
X120509114Y-96420217D01*
X120500500Y-96374807D01*
X120500500Y-94389301D01*
X120505518Y-94354384D01*
X120506147Y-94352238D01*
X120507239Y-94348521D01*
X120545003Y-94289739D01*
X120608555Y-94260705D01*
X120677715Y-94270638D01*
X120730524Y-94316383D01*
X120731480Y-94317870D01*
X120748793Y-94360735D01*
X120759864Y-94416394D01*
X120759870Y-94416419D01*
X120837665Y-94604233D01*
X120839060Y-94607600D01*
X120883586Y-94674237D01*
X120883587Y-94674240D01*
X120954022Y-94779655D01*
X120954028Y-94779662D01*
X121100336Y-94925970D01*
X121100340Y-94925973D01*
X121100342Y-94925975D01*
X121100345Y-94925977D01*
X121100349Y-94925980D01*
X121100348Y-94925980D01*
X121100411Y-94926032D01*
X121100448Y-94926046D01*
X121272402Y-95040941D01*
X121463580Y-95120130D01*
X121654540Y-95158114D01*
X121663559Y-95159908D01*
X121665794Y-95160409D01*
X121666532Y-95160500D01*
X121873466Y-95160500D01*
X121877586Y-95160500D01*
X121885435Y-95158118D01*
X122076420Y-95120130D01*
X122267598Y-95040941D01*
X122439655Y-94925977D01*
X122585977Y-94779655D01*
X122700941Y-94607598D01*
X122780130Y-94416420D01*
X122820500Y-94213465D01*
X122820500Y-94006535D01*
X122780130Y-93803580D01*
X122700941Y-93612402D01*
X122586046Y-93440449D01*
X122586036Y-93440417D01*
X122585980Y-93440348D01*
X122585980Y-93440349D01*
X122585977Y-93440345D01*
X122585975Y-93440342D01*
X122585973Y-93440340D01*
X122585970Y-93440336D01*
X122439662Y-93294028D01*
X122439655Y-93294022D01*
X122353626Y-93236540D01*
X122353625Y-93236540D01*
X122267604Y-93179062D01*
X122267595Y-93179057D01*
X122144010Y-93127867D01*
X122076420Y-93099870D01*
X122076412Y-93099868D01*
X122076404Y-93099866D01*
X122076394Y-93099864D01*
X121873471Y-93059500D01*
X121873469Y-93059500D01*
X121873465Y-93059500D01*
X121666535Y-93059500D01*
X121666530Y-93059500D01*
X121666528Y-93059500D01*
X121463604Y-93099864D01*
X121463579Y-93099870D01*
X121272404Y-93179057D01*
X121100337Y-93294027D01*
X120954027Y-93440337D01*
X120839057Y-93612404D01*
X120759870Y-93803579D01*
X120759864Y-93803604D01*
X120749595Y-93855230D01*
X120737858Y-93888505D01*
X120735027Y-93893918D01*
X120686515Y-93944201D01*
X120618519Y-93960274D01*
X120552627Y-93937034D01*
X120509761Y-93881861D01*
X120509114Y-93880217D01*
X120500500Y-93834807D01*
X120500500Y-92579666D01*
X120505521Y-92544739D01*
X120508707Y-92533886D01*
X120546477Y-92475105D01*
X120610031Y-92446076D01*
X120679186Y-92456014D01*
X120681318Y-92456987D01*
X120732910Y-92500891D01*
X120773633Y-92561837D01*
X120775447Y-92564552D01*
X120831619Y-92602085D01*
X120836359Y-92605976D01*
X120841770Y-92608868D01*
X120892612Y-92618981D01*
X120895337Y-92619703D01*
X120900249Y-92620500D01*
X122639750Y-92620500D01*
X122643876Y-92620500D01*
X122651742Y-92618114D01*
X122654568Y-92617552D01*
X122698229Y-92608868D01*
X122698229Y-92608867D01*
X122698231Y-92608867D01*
X122764552Y-92564552D01*
X122808867Y-92498231D01*
X122808867Y-92498229D01*
X122808868Y-92498229D01*
X122820072Y-92441896D01*
X122820500Y-92439931D01*
X122820500Y-91383982D01*
X127824500Y-91383982D01*
X127824500Y-91496018D01*
X127853497Y-91604237D01*
X127909515Y-91701263D01*
X127988737Y-91780485D01*
X128085763Y-91836503D01*
X128193982Y-91865500D01*
X128193984Y-91865500D01*
X128306016Y-91865500D01*
X128306018Y-91865500D01*
X128414237Y-91836503D01*
X128511263Y-91780485D01*
X128590485Y-91701263D01*
X128646503Y-91604237D01*
X128675500Y-91496018D01*
X128675500Y-91423982D01*
X134044500Y-91423982D01*
X134044500Y-91536018D01*
X134073497Y-91644237D01*
X134129515Y-91741263D01*
X134208737Y-91820485D01*
X134305763Y-91876503D01*
X134413982Y-91905500D01*
X134413984Y-91905500D01*
X134526016Y-91905500D01*
X134526018Y-91905500D01*
X134634237Y-91876503D01*
X134731263Y-91820485D01*
X134810485Y-91741263D01*
X134866503Y-91644237D01*
X134895500Y-91536018D01*
X134895500Y-91423982D01*
X134866503Y-91315763D01*
X134810485Y-91218737D01*
X134731263Y-91139515D01*
X134661978Y-91099513D01*
X134634239Y-91083498D01*
X134634238Y-91083497D01*
X134634237Y-91083497D01*
X134526018Y-91054500D01*
X134526017Y-91054500D01*
X134413982Y-91054500D01*
X134305770Y-91083494D01*
X134305759Y-91083498D01*
X134305758Y-91083499D01*
X134208737Y-91139514D01*
X134208728Y-91139521D01*
X134129521Y-91218728D01*
X134129514Y-91218737D01*
X134073499Y-91315758D01*
X134073498Y-91315759D01*
X134073494Y-91315770D01*
X134055217Y-91383984D01*
X134044500Y-91423982D01*
X128675500Y-91423982D01*
X128675500Y-91383982D01*
X128646503Y-91275763D01*
X128590485Y-91178737D01*
X128511263Y-91099515D01*
X128433295Y-91054500D01*
X128414239Y-91043498D01*
X128414238Y-91043497D01*
X128414237Y-91043497D01*
X128306018Y-91014500D01*
X128306017Y-91014500D01*
X128193982Y-91014500D01*
X128085770Y-91043494D01*
X128085759Y-91043498D01*
X128085758Y-91043499D01*
X127988737Y-91099514D01*
X127988728Y-91099521D01*
X127909521Y-91178728D01*
X127909514Y-91178737D01*
X127853499Y-91275758D01*
X127853498Y-91275759D01*
X127853494Y-91275770D01*
X127842777Y-91315770D01*
X127824500Y-91383982D01*
X122820500Y-91383982D01*
X122820500Y-90700063D01*
X122820069Y-90698081D01*
X122808868Y-90641770D01*
X122805975Y-90636358D01*
X122802081Y-90631613D01*
X122800956Y-90629930D01*
X122764552Y-90575447D01*
X122728146Y-90551121D01*
X122708385Y-90537917D01*
X122703641Y-90534024D01*
X122698230Y-90531132D01*
X122698229Y-90531131D01*
X122639752Y-90519500D01*
X122639750Y-90519500D01*
X120900249Y-90519500D01*
X120900247Y-90519500D01*
X120841770Y-90531131D01*
X120841769Y-90531131D01*
X120841768Y-90531132D01*
X120836357Y-90534024D01*
X120831614Y-90537917D01*
X120775449Y-90575444D01*
X120775445Y-90575449D01*
X120737504Y-90632231D01*
X120713922Y-90658485D01*
X120705246Y-90665736D01*
X120641183Y-90693623D01*
X120572212Y-90682448D01*
X120520233Y-90635759D01*
X120520222Y-90635741D01*
X120518995Y-90633754D01*
X120500500Y-90568603D01*
X120500500Y-88670762D01*
X120505523Y-88635826D01*
X120509799Y-88621264D01*
X120547575Y-88562486D01*
X120607191Y-88534093D01*
X120618679Y-88532063D01*
X120649976Y-88530554D01*
X120664729Y-88531715D01*
X121170297Y-88026147D01*
X121231619Y-87992663D01*
X121301311Y-87997647D01*
X121357244Y-88039519D01*
X121365363Y-88051828D01*
X121379896Y-88077000D01*
X121379899Y-88077004D01*
X121379901Y-88077007D01*
X121472993Y-88170099D01*
X121498169Y-88184634D01*
X121546384Y-88235202D01*
X121559606Y-88303809D01*
X121533638Y-88368673D01*
X121523849Y-88379702D01*
X121018282Y-88885268D01*
X121018282Y-88885269D01*
X121018282Y-88885270D01*
X121072449Y-88924624D01*
X121261782Y-89021095D01*
X121261784Y-89021096D01*
X121463866Y-89086756D01*
X121463867Y-89086756D01*
X121463870Y-89086757D01*
X121673754Y-89120000D01*
X121886245Y-89120000D01*
X121886246Y-89120000D01*
X121999050Y-89102132D01*
X122086487Y-89088284D01*
X122086493Y-89088283D01*
X122096127Y-89086757D01*
X122096130Y-89086757D01*
X122298217Y-89021095D01*
X122487554Y-88924622D01*
X122489976Y-88922862D01*
X122509121Y-88908953D01*
X122535858Y-88899412D01*
X122541717Y-88885269D01*
X122036149Y-88379702D01*
X122002664Y-88318379D01*
X122007648Y-88248688D01*
X122049519Y-88192754D01*
X122061822Y-88184639D01*
X122087007Y-88170099D01*
X122180099Y-88077007D01*
X122194634Y-88051830D01*
X122245199Y-88003616D01*
X122313805Y-87990391D01*
X122378671Y-88016358D01*
X122389702Y-88026149D01*
X122895269Y-88531717D01*
X122895269Y-88531716D01*
X122895270Y-88531717D01*
X122895270Y-88531716D01*
X122908738Y-88526137D01*
X122914955Y-88504967D01*
X122918954Y-88499118D01*
X122934621Y-88477555D01*
X122934622Y-88477554D01*
X123031095Y-88288217D01*
X123082833Y-88128981D01*
X123098405Y-88097311D01*
X123104790Y-88087973D01*
X123158878Y-88043744D01*
X123228292Y-88035779D01*
X123290989Y-88066603D01*
X123294681Y-88069992D01*
X123325389Y-88113886D01*
X123344044Y-88158922D01*
X123344044Y-88158923D01*
X123380319Y-88246497D01*
X123389058Y-88267596D01*
X123465666Y-88382250D01*
X123504027Y-88439661D01*
X123650336Y-88585970D01*
X123650340Y-88585973D01*
X123650342Y-88585975D01*
X123650345Y-88585977D01*
X123650349Y-88585980D01*
X123650348Y-88585980D01*
X123650411Y-88586032D01*
X123650448Y-88586046D01*
X123822402Y-88700941D01*
X124013580Y-88780130D01*
X124204540Y-88818114D01*
X124213559Y-88819908D01*
X124215794Y-88820409D01*
X124216532Y-88820500D01*
X124423466Y-88820500D01*
X124427586Y-88820500D01*
X124435435Y-88818118D01*
X124626420Y-88780130D01*
X124817598Y-88700941D01*
X124989655Y-88585977D01*
X125135977Y-88439655D01*
X125250941Y-88267598D01*
X125330130Y-88076420D01*
X125370500Y-87873465D01*
X125370500Y-87666535D01*
X125330130Y-87463580D01*
X125250941Y-87272402D01*
X125136046Y-87100449D01*
X125136036Y-87100417D01*
X125135980Y-87100348D01*
X125135980Y-87100349D01*
X125135977Y-87100345D01*
X125135975Y-87100342D01*
X125135973Y-87100340D01*
X125135970Y-87100336D01*
X124989659Y-86954025D01*
X124867178Y-86872187D01*
X124867130Y-86872155D01*
X124817598Y-86839059D01*
X124817599Y-86839059D01*
X124817597Y-86839058D01*
X124705608Y-86792670D01*
X124626420Y-86759870D01*
X124626412Y-86759868D01*
X124626404Y-86759866D01*
X124626394Y-86759864D01*
X124574768Y-86749595D01*
X124541485Y-86737854D01*
X124536071Y-86735022D01*
X124485792Y-86686506D01*
X124469724Y-86618509D01*
X124492968Y-86552619D01*
X124548140Y-86509759D01*
X124549865Y-86509080D01*
X124595191Y-86500500D01*
X126580698Y-86500500D01*
X126615615Y-86505518D01*
G37*
%TD.AperFunction*%
%TA.AperFunction,Conductor*%
G36*
X120913377Y-86505521D02*
G01*
X120913384Y-86505523D01*
X120927941Y-86509797D01*
X120986719Y-86547568D01*
X121015117Y-86607193D01*
X121017145Y-86618667D01*
X121018655Y-86649981D01*
X121018281Y-86654725D01*
X121018283Y-86654730D01*
X121523850Y-87160297D01*
X121557335Y-87221620D01*
X121552351Y-87291312D01*
X121510479Y-87347245D01*
X121498171Y-87355364D01*
X121472996Y-87369899D01*
X121472990Y-87369903D01*
X121379903Y-87462990D01*
X121379899Y-87462996D01*
X121365364Y-87488171D01*
X121314796Y-87536385D01*
X121246189Y-87549607D01*
X121181325Y-87523638D01*
X121170297Y-87513850D01*
X120664727Y-87008280D01*
X120664726Y-87008280D01*
X120651998Y-87009282D01*
X120642794Y-87007348D01*
X120633609Y-87009361D01*
X120616779Y-87007016D01*
X120607240Y-87005012D01*
X120601930Y-87003896D01*
X120586219Y-86995462D01*
X120583621Y-86994917D01*
X120581730Y-86993053D01*
X120540370Y-86970851D01*
X120507383Y-86913635D01*
X120504461Y-86902353D01*
X120500500Y-86871263D01*
X120500500Y-86642329D01*
X120505523Y-86607393D01*
X120509927Y-86592395D01*
X120515405Y-86583867D01*
X120515579Y-86583065D01*
X120516541Y-86582100D01*
X120547672Y-86533644D01*
X120549041Y-86532457D01*
X120603920Y-86504977D01*
X120611479Y-86503333D01*
X120637832Y-86500500D01*
X120878448Y-86500500D01*
X120913377Y-86505521D01*
G37*
%TD.AperFunction*%
%TA.AperFunction,Conductor*%
G36*
X124075615Y-86505518D02*
G01*
X124079490Y-86506655D01*
X124081476Y-86507238D01*
X124140260Y-86545003D01*
X124169294Y-86608555D01*
X124159361Y-86677715D01*
X124113616Y-86730524D01*
X124112129Y-86731480D01*
X124069264Y-86748793D01*
X124013604Y-86759864D01*
X124013579Y-86759870D01*
X123822404Y-86839057D01*
X123650337Y-86954027D01*
X123504026Y-87100338D01*
X123504020Y-87100346D01*
X123389063Y-87272392D01*
X123389055Y-87272406D01*
X123327657Y-87420637D01*
X123309649Y-87450988D01*
X123302553Y-87459794D01*
X123245162Y-87499644D01*
X123175337Y-87502139D01*
X123115248Y-87466488D01*
X123113579Y-87464696D01*
X123111831Y-87462818D01*
X123084664Y-87416651D01*
X123031095Y-87251782D01*
X122934624Y-87062449D01*
X122895270Y-87008282D01*
X122895269Y-87008282D01*
X122895268Y-87008282D01*
X122389702Y-87513849D01*
X122328379Y-87547334D01*
X122258687Y-87542350D01*
X122202754Y-87500478D01*
X122194636Y-87488173D01*
X122180099Y-87462993D01*
X122087007Y-87369901D01*
X122087004Y-87369899D01*
X122087000Y-87369896D01*
X122061828Y-87355363D01*
X122013613Y-87304796D01*
X122000391Y-87236189D01*
X122026359Y-87171324D01*
X122036135Y-87160310D01*
X122541716Y-86654728D01*
X122541501Y-86651998D01*
X122543767Y-86616785D01*
X122546889Y-86601925D01*
X122579935Y-86540368D01*
X122637148Y-86507383D01*
X122642134Y-86506091D01*
X122648431Y-86504461D01*
X122679521Y-86500500D01*
X124040698Y-86500500D01*
X124075615Y-86505518D01*
G37*
%TD.AperFunction*%
%TD*%
%TA.AperFunction,Conductor*%
%TO.N,VBUS*%
G36*
X156874075Y-118422993D02*
G01*
X156939901Y-118537007D01*
X157032993Y-118630099D01*
X157147007Y-118695925D01*
X157210590Y-118712962D01*
X156578282Y-119345269D01*
X156579896Y-119365770D01*
X156565532Y-119434148D01*
X156516481Y-119483905D01*
X156456278Y-119499500D01*
X155061472Y-119499500D01*
X154994433Y-119479815D01*
X154948678Y-119427011D01*
X154938734Y-119357853D01*
X154967759Y-119294297D01*
X155026537Y-119256523D01*
X155037281Y-119253883D01*
X155068476Y-119247677D01*
X155106420Y-119240130D01*
X155297598Y-119160941D01*
X155469655Y-119045977D01*
X155615977Y-118899655D01*
X155730941Y-118727598D01*
X155799165Y-118562889D01*
X155843004Y-118508488D01*
X155909298Y-118486423D01*
X155976998Y-118503702D01*
X156024609Y-118554839D01*
X156031656Y-118572026D01*
X156088904Y-118748216D01*
X156185375Y-118937550D01*
X156224728Y-118991716D01*
X156857037Y-118359408D01*
X156874075Y-118422993D01*
G37*
%TD.AperFunction*%
%TA.AperFunction,Conductor*%
G36*
X152006994Y-92219685D02*
G01*
X152052749Y-92272489D01*
X152062693Y-92341647D01*
X152033668Y-92405203D01*
X151974890Y-92442977D01*
X151972084Y-92443764D01*
X151935763Y-92453497D01*
X151935760Y-92453498D01*
X151838740Y-92509513D01*
X151838734Y-92509517D01*
X151759517Y-92588734D01*
X151759513Y-92588740D01*
X151703498Y-92685760D01*
X151703497Y-92685763D01*
X151674500Y-92793982D01*
X151674500Y-92906018D01*
X151703497Y-93014237D01*
X151759515Y-93111263D01*
X151838737Y-93190485D01*
X151935763Y-93246503D01*
X152043982Y-93275500D01*
X152043984Y-93275500D01*
X152156016Y-93275500D01*
X152156018Y-93275500D01*
X152264237Y-93246503D01*
X152361263Y-93190485D01*
X152440485Y-93111263D01*
X152496503Y-93014237D01*
X152525500Y-92906018D01*
X152525500Y-92793982D01*
X152496503Y-92685763D01*
X152440485Y-92588737D01*
X152361263Y-92509515D01*
X152264237Y-92453497D01*
X152227950Y-92443774D01*
X152168291Y-92407410D01*
X152137762Y-92344563D01*
X152146057Y-92275188D01*
X152190542Y-92221310D01*
X152257094Y-92200035D01*
X152260045Y-92200000D01*
X159375500Y-92200000D01*
X159442539Y-92219685D01*
X159488294Y-92272489D01*
X159499500Y-92324000D01*
X159499500Y-119375500D01*
X159479815Y-119442539D01*
X159427011Y-119488294D01*
X159375500Y-119499500D01*
X158223722Y-119499500D01*
X158156683Y-119479815D01*
X158110928Y-119427011D01*
X158100104Y-119365772D01*
X158101717Y-119345270D01*
X157469408Y-118712962D01*
X157532993Y-118695925D01*
X157647007Y-118630099D01*
X157740099Y-118537007D01*
X157805925Y-118422993D01*
X157822962Y-118359408D01*
X158455270Y-118991717D01*
X158455270Y-118991716D01*
X158494622Y-118937554D01*
X158591095Y-118748217D01*
X158656757Y-118546130D01*
X158656757Y-118546127D01*
X158690000Y-118336246D01*
X158690000Y-118123753D01*
X158656757Y-117913872D01*
X158656757Y-117913869D01*
X158591095Y-117711782D01*
X158494624Y-117522449D01*
X158455270Y-117468282D01*
X158455269Y-117468282D01*
X157822962Y-118100590D01*
X157805925Y-118037007D01*
X157740099Y-117922993D01*
X157647007Y-117829901D01*
X157532993Y-117764075D01*
X157469409Y-117747037D01*
X158101716Y-117114728D01*
X158047550Y-117075375D01*
X157858217Y-116978904D01*
X157656129Y-116913242D01*
X157446246Y-116880000D01*
X157233754Y-116880000D01*
X157023872Y-116913242D01*
X157023869Y-116913242D01*
X156821782Y-116978904D01*
X156632439Y-117075380D01*
X156578282Y-117114727D01*
X156578282Y-117114728D01*
X157210591Y-117747037D01*
X157147007Y-117764075D01*
X157032993Y-117829901D01*
X156939901Y-117922993D01*
X156874075Y-118037007D01*
X156857037Y-118100591D01*
X156224728Y-117468282D01*
X156224727Y-117468282D01*
X156185380Y-117522439D01*
X156088905Y-117711781D01*
X156031656Y-117887974D01*
X155992218Y-117945649D01*
X155927859Y-117972847D01*
X155859013Y-117960932D01*
X155807537Y-117913688D01*
X155799164Y-117897107D01*
X155730943Y-117732405D01*
X155615975Y-117560342D01*
X155469657Y-117414024D01*
X155383626Y-117356541D01*
X155297598Y-117299059D01*
X155106420Y-117219870D01*
X155106412Y-117219868D01*
X154909809Y-117180761D01*
X154847898Y-117148376D01*
X154813324Y-117087661D01*
X154810000Y-117059144D01*
X154810000Y-111473982D01*
X156094500Y-111473982D01*
X156094500Y-111586018D01*
X156123497Y-111694237D01*
X156179515Y-111791263D01*
X156258737Y-111870485D01*
X156330654Y-111912006D01*
X156349025Y-111922613D01*
X156397241Y-111973180D01*
X156410463Y-112041787D01*
X156384495Y-112106652D01*
X156349025Y-112137387D01*
X156258740Y-112189513D01*
X156258734Y-112189517D01*
X156179517Y-112268734D01*
X156179513Y-112268740D01*
X156123498Y-112365760D01*
X156123497Y-112365763D01*
X156094500Y-112473982D01*
X156094500Y-112586018D01*
X156123497Y-112694237D01*
X156179515Y-112791263D01*
X156258737Y-112870485D01*
X156355763Y-112926503D01*
X156463982Y-112955500D01*
X156463984Y-112955500D01*
X156576016Y-112955500D01*
X156576018Y-112955500D01*
X156684237Y-112926503D01*
X156781263Y-112870485D01*
X156860485Y-112791263D01*
X156916503Y-112694237D01*
X156945500Y-112586018D01*
X156945500Y-112473982D01*
X156916503Y-112365763D01*
X156860485Y-112268737D01*
X156781263Y-112189515D01*
X156690973Y-112137386D01*
X156642759Y-112086820D01*
X156629535Y-112018213D01*
X156655503Y-111953349D01*
X156690972Y-111922614D01*
X156781263Y-111870485D01*
X156860485Y-111791263D01*
X156916503Y-111694237D01*
X156945500Y-111586018D01*
X156945500Y-111473982D01*
X156916503Y-111365763D01*
X156860485Y-111268737D01*
X156781263Y-111189515D01*
X156684237Y-111133497D01*
X156576018Y-111104500D01*
X156463982Y-111104500D01*
X156355763Y-111133497D01*
X156355760Y-111133498D01*
X156258740Y-111189513D01*
X156258734Y-111189517D01*
X156179517Y-111268734D01*
X156179513Y-111268740D01*
X156123498Y-111365760D01*
X156123497Y-111365763D01*
X156094500Y-111473982D01*
X154810000Y-111473982D01*
X154810000Y-110870000D01*
X150788338Y-110870000D01*
X150721299Y-110850315D01*
X150675544Y-110797511D01*
X150668563Y-110778094D01*
X150646503Y-110695763D01*
X150590485Y-110598737D01*
X150511263Y-110519515D01*
X150414237Y-110463497D01*
X150306018Y-110434500D01*
X150193982Y-110434500D01*
X150085763Y-110463497D01*
X150085760Y-110463498D01*
X149988740Y-110519513D01*
X149988734Y-110519517D01*
X149909517Y-110598734D01*
X149909513Y-110598740D01*
X149853498Y-110695760D01*
X149853497Y-110695761D01*
X149831437Y-110778094D01*
X149795072Y-110837754D01*
X149732225Y-110868283D01*
X149711662Y-110870000D01*
X148044000Y-110870000D01*
X147976961Y-110850315D01*
X147931206Y-110797511D01*
X147920000Y-110746000D01*
X147920000Y-107653982D01*
X149754500Y-107653982D01*
X149754500Y-107766018D01*
X149783497Y-107874237D01*
X149839515Y-107971263D01*
X149918737Y-108050485D01*
X150015763Y-108106503D01*
X150123982Y-108135500D01*
X150123984Y-108135500D01*
X150236016Y-108135500D01*
X150236018Y-108135500D01*
X150344237Y-108106503D01*
X150441263Y-108050485D01*
X150520485Y-107971263D01*
X150576503Y-107874237D01*
X150605500Y-107766018D01*
X150605500Y-107653982D01*
X150576503Y-107545763D01*
X150520485Y-107448737D01*
X150441263Y-107369515D01*
X150344237Y-107313497D01*
X150236018Y-107284500D01*
X150123982Y-107284500D01*
X150015763Y-107313497D01*
X150015760Y-107313498D01*
X149918740Y-107369513D01*
X149918734Y-107369517D01*
X149839517Y-107448734D01*
X149839513Y-107448740D01*
X149783498Y-107545760D01*
X149783497Y-107545763D01*
X149754500Y-107653982D01*
X147920000Y-107653982D01*
X147920000Y-106396376D01*
X147939685Y-106329337D01*
X147980487Y-106293982D01*
X151314500Y-106293982D01*
X151314500Y-106406018D01*
X151343497Y-106514237D01*
X151399515Y-106611263D01*
X151478737Y-106690485D01*
X151575763Y-106746503D01*
X151683982Y-106775500D01*
X151683984Y-106775500D01*
X151796015Y-106775500D01*
X151796018Y-106775500D01*
X151871827Y-106755187D01*
X151941674Y-106756850D01*
X151999537Y-106796012D01*
X152027041Y-106860241D01*
X152018480Y-106922413D01*
X151996420Y-106975672D01*
X151996418Y-106975677D01*
X151969500Y-107111004D01*
X151969500Y-107111007D01*
X151969500Y-107248993D01*
X151969500Y-107248995D01*
X151969499Y-107248995D01*
X151996418Y-107384322D01*
X151996421Y-107384332D01*
X152049221Y-107511804D01*
X152049228Y-107511817D01*
X152125885Y-107626541D01*
X152125888Y-107626545D01*
X152223454Y-107724111D01*
X152223458Y-107724114D01*
X152338182Y-107800771D01*
X152338195Y-107800778D01*
X152423273Y-107836018D01*
X152465672Y-107853580D01*
X152465676Y-107853580D01*
X152465677Y-107853581D01*
X152601004Y-107880500D01*
X152601007Y-107880500D01*
X153838995Y-107880500D01*
X153930041Y-107862389D01*
X153974328Y-107853580D01*
X154101811Y-107800775D01*
X154216542Y-107724114D01*
X154314114Y-107626542D01*
X154321499Y-107615488D01*
X154375109Y-107570681D01*
X154444433Y-107561971D01*
X154478028Y-107573935D01*
X154478253Y-107573392D01*
X154485756Y-107576499D01*
X154485763Y-107576503D01*
X154593982Y-107605500D01*
X154593984Y-107605500D01*
X154706016Y-107605500D01*
X154706018Y-107605500D01*
X154814237Y-107576503D01*
X154911263Y-107520485D01*
X154990485Y-107441263D01*
X155046503Y-107344237D01*
X155075500Y-107236018D01*
X155075500Y-107123982D01*
X155754500Y-107123982D01*
X155754500Y-107236018D01*
X155783497Y-107344237D01*
X155839515Y-107441263D01*
X155918737Y-107520485D01*
X156015763Y-107576503D01*
X156123982Y-107605500D01*
X156123984Y-107605500D01*
X156236015Y-107605500D01*
X156236018Y-107605500D01*
X156324874Y-107581691D01*
X156394718Y-107583354D01*
X156452581Y-107622516D01*
X156452820Y-107622806D01*
X156455889Y-107626546D01*
X156553454Y-107724111D01*
X156553458Y-107724114D01*
X156668182Y-107800771D01*
X156668195Y-107800778D01*
X156753273Y-107836018D01*
X156795672Y-107853580D01*
X156795676Y-107853580D01*
X156795677Y-107853581D01*
X156931004Y-107880500D01*
X156931007Y-107880500D01*
X157868995Y-107880500D01*
X157960041Y-107862389D01*
X158004328Y-107853580D01*
X158131811Y-107800775D01*
X158246542Y-107724114D01*
X158344114Y-107626542D01*
X158420775Y-107511811D01*
X158473580Y-107384328D01*
X158500500Y-107248993D01*
X158500500Y-107111007D01*
X158500500Y-107111004D01*
X158473581Y-106975677D01*
X158473580Y-106975676D01*
X158473580Y-106975672D01*
X158473578Y-106975667D01*
X158420778Y-106848195D01*
X158420771Y-106848182D01*
X158344114Y-106733458D01*
X158344111Y-106733454D01*
X158246545Y-106635888D01*
X158246541Y-106635885D01*
X158131817Y-106559228D01*
X158131804Y-106559221D01*
X158004332Y-106506421D01*
X158004322Y-106506418D01*
X157868995Y-106479500D01*
X157868993Y-106479500D01*
X156931007Y-106479500D01*
X156931005Y-106479500D01*
X156795677Y-106506418D01*
X156795667Y-106506421D01*
X156668195Y-106559221D01*
X156668182Y-106559228D01*
X156553458Y-106635885D01*
X156553454Y-106635888D01*
X156455887Y-106733455D01*
X156452816Y-106737198D01*
X156395070Y-106776532D01*
X156325225Y-106778402D01*
X156236018Y-106754500D01*
X156123982Y-106754500D01*
X156015763Y-106783497D01*
X156015760Y-106783498D01*
X155918740Y-106839513D01*
X155918734Y-106839517D01*
X155839517Y-106918734D01*
X155839513Y-106918740D01*
X155783498Y-107015760D01*
X155783497Y-107015763D01*
X155754500Y-107123982D01*
X155075500Y-107123982D01*
X155046503Y-107015763D01*
X154990485Y-106918737D01*
X154911263Y-106839515D01*
X154835914Y-106796012D01*
X154814239Y-106783498D01*
X154814238Y-106783497D01*
X154814237Y-106783497D01*
X154706018Y-106754500D01*
X154593982Y-106754500D01*
X154485763Y-106783497D01*
X154478253Y-106786608D01*
X154477662Y-106785181D01*
X154418698Y-106799483D01*
X154352672Y-106776628D01*
X154321501Y-106744513D01*
X154314115Y-106733459D01*
X154314111Y-106733454D01*
X154216545Y-106635888D01*
X154216541Y-106635885D01*
X154101817Y-106559228D01*
X154101804Y-106559221D01*
X153974332Y-106506421D01*
X153974322Y-106506418D01*
X153895032Y-106490646D01*
X153833121Y-106458261D01*
X153798547Y-106397545D01*
X153802288Y-106327775D01*
X153843154Y-106271103D01*
X153887128Y-106249255D01*
X153922836Y-106239688D01*
X154042665Y-106170505D01*
X154140505Y-106072665D01*
X154209688Y-105952836D01*
X154245500Y-105819183D01*
X154245500Y-105680817D01*
X154209688Y-105547164D01*
X154140505Y-105427335D01*
X154042665Y-105329495D01*
X154042664Y-105329494D01*
X154042661Y-105329492D01*
X153922838Y-105260313D01*
X153922837Y-105260312D01*
X153922836Y-105260312D01*
X153789183Y-105224500D01*
X153650817Y-105224500D01*
X153517164Y-105260312D01*
X153517161Y-105260313D01*
X153397338Y-105329492D01*
X153397333Y-105329496D01*
X153299496Y-105427333D01*
X153299492Y-105427338D01*
X153230313Y-105547161D01*
X153230312Y-105547164D01*
X153194500Y-105680817D01*
X153194500Y-105819183D01*
X153222720Y-105924500D01*
X153230312Y-105952835D01*
X153230313Y-105952838D01*
X153299492Y-106072661D01*
X153299494Y-106072664D01*
X153299495Y-106072665D01*
X153397335Y-106170505D01*
X153397336Y-106170506D01*
X153397338Y-106170507D01*
X153431943Y-106190486D01*
X153517164Y-106239688D01*
X153517167Y-106239689D01*
X153520182Y-106240938D01*
X153522337Y-106242675D01*
X153524203Y-106243752D01*
X153524035Y-106244042D01*
X153574587Y-106284778D01*
X153596653Y-106351072D01*
X153579375Y-106418771D01*
X153528239Y-106466383D01*
X153472732Y-106479500D01*
X152601005Y-106479500D01*
X152465677Y-106506418D01*
X152465667Y-106506421D01*
X152332560Y-106561556D01*
X152331771Y-106559652D01*
X152272568Y-106571976D01*
X152207325Y-106546972D01*
X152165958Y-106490665D01*
X152161599Y-106420931D01*
X152162739Y-106416320D01*
X152165500Y-106406018D01*
X152165500Y-106293982D01*
X152136503Y-106185763D01*
X152080485Y-106088737D01*
X152001263Y-106009515D01*
X151904237Y-105953497D01*
X151796018Y-105924500D01*
X151683982Y-105924500D01*
X151575763Y-105953497D01*
X151575760Y-105953498D01*
X151478740Y-106009513D01*
X151478734Y-106009517D01*
X151399517Y-106088734D01*
X151399513Y-106088740D01*
X151343498Y-106185760D01*
X151343497Y-106185763D01*
X151314500Y-106293982D01*
X147980487Y-106293982D01*
X147992489Y-106283582D01*
X148011907Y-106276601D01*
X148016016Y-106275500D01*
X148016018Y-106275500D01*
X148124237Y-106246503D01*
X148221263Y-106190485D01*
X148300485Y-106111263D01*
X148356503Y-106014237D01*
X148385500Y-105906018D01*
X148385500Y-105793982D01*
X148356503Y-105685763D01*
X148300485Y-105588737D01*
X148221263Y-105509515D01*
X148124239Y-105453498D01*
X148124238Y-105453497D01*
X148011906Y-105423398D01*
X147952246Y-105387032D01*
X147921717Y-105324185D01*
X147920000Y-105303623D01*
X147920000Y-102373982D01*
X148654500Y-102373982D01*
X148654500Y-102486018D01*
X148683497Y-102594237D01*
X148739515Y-102691263D01*
X148818737Y-102770485D01*
X148915763Y-102826503D01*
X149023982Y-102855500D01*
X149023984Y-102855500D01*
X149136016Y-102855500D01*
X149136018Y-102855500D01*
X149244237Y-102826503D01*
X149341263Y-102770485D01*
X149420485Y-102691263D01*
X149476503Y-102594237D01*
X149505500Y-102486018D01*
X149505500Y-102373982D01*
X149476503Y-102265763D01*
X149420485Y-102168737D01*
X149341263Y-102089515D01*
X149244237Y-102033497D01*
X149136018Y-102004500D01*
X149023982Y-102004500D01*
X148915763Y-102033497D01*
X148915760Y-102033498D01*
X148818740Y-102089513D01*
X148818734Y-102089517D01*
X148739517Y-102168734D01*
X148739513Y-102168740D01*
X148683498Y-102265760D01*
X148683497Y-102265763D01*
X148654500Y-102373982D01*
X147920000Y-102373982D01*
X147920000Y-99183982D01*
X151454500Y-99183982D01*
X151454500Y-99296018D01*
X151483497Y-99404237D01*
X151539515Y-99501263D01*
X151618737Y-99580485D01*
X151715763Y-99636503D01*
X151823982Y-99665500D01*
X151823984Y-99665500D01*
X151936016Y-99665500D01*
X151936018Y-99665500D01*
X152044237Y-99636503D01*
X152141263Y-99580485D01*
X152220485Y-99501263D01*
X152276503Y-99404237D01*
X152304808Y-99298600D01*
X152341172Y-99238941D01*
X152404019Y-99208412D01*
X152460580Y-99212035D01*
X152465667Y-99213578D01*
X152465672Y-99213580D01*
X152465676Y-99213580D01*
X152465677Y-99213581D01*
X152601004Y-99240500D01*
X153472732Y-99240500D01*
X153539771Y-99260185D01*
X153585526Y-99312989D01*
X153595470Y-99382147D01*
X153566445Y-99445703D01*
X153524168Y-99476187D01*
X153524203Y-99476248D01*
X153523608Y-99476591D01*
X153520182Y-99479062D01*
X153517163Y-99480312D01*
X153397338Y-99549492D01*
X153397333Y-99549496D01*
X153299496Y-99647333D01*
X153299492Y-99647338D01*
X153230313Y-99767161D01*
X153230312Y-99767164D01*
X153194500Y-99900817D01*
X153194500Y-100039182D01*
X153230312Y-100172835D01*
X153230313Y-100172838D01*
X153299492Y-100292661D01*
X153299494Y-100292664D01*
X153299495Y-100292665D01*
X153397335Y-100390505D01*
X153517164Y-100459688D01*
X153650817Y-100495500D01*
X153650819Y-100495500D01*
X153789181Y-100495500D01*
X153789183Y-100495500D01*
X153922836Y-100459688D01*
X154042665Y-100390505D01*
X154140505Y-100292665D01*
X154209688Y-100172836D01*
X154245500Y-100039183D01*
X154245500Y-99900817D01*
X154209688Y-99767164D01*
X154140505Y-99647335D01*
X154042665Y-99549495D01*
X154042664Y-99549494D01*
X154042661Y-99549492D01*
X153922838Y-99480313D01*
X153922837Y-99480312D01*
X153907017Y-99476073D01*
X153887129Y-99470744D01*
X153827470Y-99434379D01*
X153796941Y-99371532D01*
X153805236Y-99302157D01*
X153849722Y-99248279D01*
X153895033Y-99229353D01*
X153909297Y-99226515D01*
X153974328Y-99213580D01*
X154101811Y-99160775D01*
X154216542Y-99084114D01*
X154224896Y-99075760D01*
X154318422Y-98982235D01*
X154319413Y-98983226D01*
X154371297Y-98947868D01*
X154441139Y-98945982D01*
X154513982Y-98965500D01*
X154513985Y-98965500D01*
X154626016Y-98965500D01*
X154626018Y-98965500D01*
X154734237Y-98936503D01*
X154831263Y-98880485D01*
X154910485Y-98801263D01*
X154966503Y-98704237D01*
X154995500Y-98596018D01*
X154995500Y-98483982D01*
X155674500Y-98483982D01*
X155674500Y-98596018D01*
X155703497Y-98704237D01*
X155759515Y-98801263D01*
X155838737Y-98880485D01*
X155935763Y-98936503D01*
X156043982Y-98965500D01*
X156043984Y-98965500D01*
X156156016Y-98965500D01*
X156156018Y-98965500D01*
X156264237Y-98936503D01*
X156277825Y-98928657D01*
X156345723Y-98912183D01*
X156411751Y-98935033D01*
X156442928Y-98967150D01*
X156455886Y-98986543D01*
X156553454Y-99084111D01*
X156553458Y-99084114D01*
X156668182Y-99160771D01*
X156668195Y-99160778D01*
X156783195Y-99208412D01*
X156795672Y-99213580D01*
X156795676Y-99213580D01*
X156795677Y-99213581D01*
X156931004Y-99240500D01*
X156931007Y-99240500D01*
X157868995Y-99240500D01*
X157960041Y-99222389D01*
X158004328Y-99213580D01*
X158131811Y-99160775D01*
X158246542Y-99084114D01*
X158344114Y-98986542D01*
X158420775Y-98871811D01*
X158473580Y-98744328D01*
X158489099Y-98666309D01*
X158500500Y-98608995D01*
X158500500Y-98471004D01*
X158473581Y-98335677D01*
X158473580Y-98335676D01*
X158473580Y-98335672D01*
X158444830Y-98266263D01*
X158420778Y-98208195D01*
X158420771Y-98208182D01*
X158344114Y-98093458D01*
X158344111Y-98093454D01*
X158246545Y-97995888D01*
X158246541Y-97995885D01*
X158131817Y-97919228D01*
X158131804Y-97919221D01*
X158004332Y-97866421D01*
X158004322Y-97866418D01*
X157868995Y-97839500D01*
X157868993Y-97839500D01*
X156931007Y-97839500D01*
X156931005Y-97839500D01*
X156795677Y-97866418D01*
X156795667Y-97866421D01*
X156668195Y-97919221D01*
X156668182Y-97919228D01*
X156553458Y-97995885D01*
X156553454Y-97995888D01*
X156455887Y-98093455D01*
X156442927Y-98112851D01*
X156389313Y-98157654D01*
X156319987Y-98166359D01*
X156277828Y-98151344D01*
X156264237Y-98143497D01*
X156228476Y-98133915D01*
X156156018Y-98114500D01*
X156043982Y-98114500D01*
X155935763Y-98143497D01*
X155935760Y-98143498D01*
X155838740Y-98199513D01*
X155838734Y-98199517D01*
X155759517Y-98278734D01*
X155759513Y-98278740D01*
X155703498Y-98375760D01*
X155703497Y-98375763D01*
X155674500Y-98483982D01*
X154995500Y-98483982D01*
X154966503Y-98375763D01*
X154910485Y-98278737D01*
X154831263Y-98199515D01*
X154758758Y-98157654D01*
X154734239Y-98143498D01*
X154734238Y-98143497D01*
X154734237Y-98143497D01*
X154626018Y-98114500D01*
X154513982Y-98114500D01*
X154441524Y-98133915D01*
X154371674Y-98132252D01*
X154319349Y-98096837D01*
X154318422Y-98097765D01*
X154216545Y-97995888D01*
X154216541Y-97995885D01*
X154101817Y-97919228D01*
X154101804Y-97919221D01*
X153974332Y-97866421D01*
X153974322Y-97866418D01*
X153838995Y-97839500D01*
X153838993Y-97839500D01*
X152601007Y-97839500D01*
X152601005Y-97839500D01*
X152465677Y-97866418D01*
X152465667Y-97866421D01*
X152338195Y-97919221D01*
X152338182Y-97919228D01*
X152223458Y-97995885D01*
X152223454Y-97995888D01*
X152125888Y-98093454D01*
X152125885Y-98093458D01*
X152049228Y-98208182D01*
X152049221Y-98208195D01*
X151996421Y-98335667D01*
X151996418Y-98335677D01*
X151969500Y-98471004D01*
X151969500Y-98608997D01*
X151980900Y-98666309D01*
X151974673Y-98735901D01*
X151931810Y-98791078D01*
X151865920Y-98814322D01*
X151859283Y-98814500D01*
X151823982Y-98814500D01*
X151715763Y-98843497D01*
X151715760Y-98843498D01*
X151618740Y-98899513D01*
X151618734Y-98899517D01*
X151539517Y-98978734D01*
X151539513Y-98978740D01*
X151483498Y-99075760D01*
X151483497Y-99075763D01*
X151454500Y-99183982D01*
X147920000Y-99183982D01*
X147920000Y-98501521D01*
X147939685Y-98434482D01*
X147982000Y-98394134D01*
X148066263Y-98345485D01*
X148145485Y-98266263D01*
X148201503Y-98169237D01*
X148230500Y-98061018D01*
X148230500Y-98033982D01*
X149744500Y-98033982D01*
X149744500Y-98146018D01*
X149773497Y-98254237D01*
X149829515Y-98351263D01*
X149908737Y-98430485D01*
X150005763Y-98486503D01*
X150113982Y-98515500D01*
X150113984Y-98515500D01*
X150226016Y-98515500D01*
X150226018Y-98515500D01*
X150334237Y-98486503D01*
X150431263Y-98430485D01*
X150510485Y-98351263D01*
X150566503Y-98254237D01*
X150595500Y-98146018D01*
X150595500Y-98033982D01*
X150566503Y-97925763D01*
X150510485Y-97828737D01*
X150431263Y-97749515D01*
X150334237Y-97693497D01*
X150226018Y-97664500D01*
X150113982Y-97664500D01*
X150005763Y-97693497D01*
X150005760Y-97693498D01*
X149908740Y-97749513D01*
X149908734Y-97749517D01*
X149829517Y-97828734D01*
X149829513Y-97828740D01*
X149773498Y-97925760D01*
X149773497Y-97925763D01*
X149744500Y-98033982D01*
X148230500Y-98033982D01*
X148230500Y-97948982D01*
X148201503Y-97840763D01*
X148145485Y-97743737D01*
X148066263Y-97664515D01*
X147981999Y-97615865D01*
X147933784Y-97565297D01*
X147920000Y-97508478D01*
X147920000Y-96553982D01*
X155264500Y-96553982D01*
X155264500Y-96666018D01*
X155293497Y-96774237D01*
X155349515Y-96871263D01*
X155428737Y-96950485D01*
X155525763Y-97006503D01*
X155633982Y-97035500D01*
X155633984Y-97035500D01*
X155746016Y-97035500D01*
X155746018Y-97035500D01*
X155854237Y-97006503D01*
X155951263Y-96950485D01*
X156030485Y-96871263D01*
X156086503Y-96774237D01*
X156115500Y-96666018D01*
X156115500Y-96613982D01*
X158184500Y-96613982D01*
X158184500Y-96726018D01*
X158213497Y-96834237D01*
X158269515Y-96931263D01*
X158348737Y-97010485D01*
X158445763Y-97066503D01*
X158553982Y-97095500D01*
X158553984Y-97095500D01*
X158666016Y-97095500D01*
X158666018Y-97095500D01*
X158774237Y-97066503D01*
X158871263Y-97010485D01*
X158950485Y-96931263D01*
X159006503Y-96834237D01*
X159035500Y-96726018D01*
X159035500Y-96613982D01*
X159006503Y-96505763D01*
X158950485Y-96408737D01*
X158871263Y-96329515D01*
X158774237Y-96273497D01*
X158666018Y-96244500D01*
X158553982Y-96244500D01*
X158445763Y-96273497D01*
X158445760Y-96273498D01*
X158348740Y-96329513D01*
X158348734Y-96329517D01*
X158269517Y-96408734D01*
X158269513Y-96408740D01*
X158213498Y-96505760D01*
X158213497Y-96505763D01*
X158184500Y-96613982D01*
X156115500Y-96613982D01*
X156115500Y-96553982D01*
X156086503Y-96445763D01*
X156030485Y-96348737D01*
X155951263Y-96269515D01*
X155854237Y-96213497D01*
X155746018Y-96184500D01*
X155633982Y-96184500D01*
X155525763Y-96213497D01*
X155525760Y-96213498D01*
X155428740Y-96269513D01*
X155428734Y-96269517D01*
X155349517Y-96348734D01*
X155349513Y-96348740D01*
X155293498Y-96445760D01*
X155293497Y-96445763D01*
X155264500Y-96553982D01*
X147920000Y-96553982D01*
X147920000Y-94453982D01*
X150474500Y-94453982D01*
X150474500Y-94566018D01*
X150503497Y-94674237D01*
X150559515Y-94771263D01*
X150638737Y-94850485D01*
X150735763Y-94906503D01*
X150843982Y-94935500D01*
X150843984Y-94935500D01*
X150956016Y-94935500D01*
X150956018Y-94935500D01*
X151064237Y-94906503D01*
X151161263Y-94850485D01*
X151240485Y-94771263D01*
X151296503Y-94674237D01*
X151325500Y-94566018D01*
X151325500Y-94453982D01*
X151312103Y-94403982D01*
X155234500Y-94403982D01*
X155234500Y-94516018D01*
X155263497Y-94624237D01*
X155319515Y-94721263D01*
X155398737Y-94800485D01*
X155495763Y-94856503D01*
X155603982Y-94885500D01*
X155603984Y-94885500D01*
X155716016Y-94885500D01*
X155716018Y-94885500D01*
X155824237Y-94856503D01*
X155921263Y-94800485D01*
X156000485Y-94721263D01*
X156056503Y-94624237D01*
X156085500Y-94516018D01*
X156085500Y-94403982D01*
X156072103Y-94353982D01*
X158174500Y-94353982D01*
X158174500Y-94466018D01*
X158203497Y-94574237D01*
X158259515Y-94671263D01*
X158338737Y-94750485D01*
X158435763Y-94806503D01*
X158543982Y-94835500D01*
X158543984Y-94835500D01*
X158656016Y-94835500D01*
X158656018Y-94835500D01*
X158764237Y-94806503D01*
X158861263Y-94750485D01*
X158940485Y-94671263D01*
X158996503Y-94574237D01*
X159025500Y-94466018D01*
X159025500Y-94353982D01*
X158996503Y-94245763D01*
X158940485Y-94148737D01*
X158861263Y-94069515D01*
X158764237Y-94013497D01*
X158656018Y-93984500D01*
X158543982Y-93984500D01*
X158435763Y-94013497D01*
X158435760Y-94013498D01*
X158338740Y-94069513D01*
X158338734Y-94069517D01*
X158259517Y-94148734D01*
X158259513Y-94148740D01*
X158203498Y-94245760D01*
X158203497Y-94245763D01*
X158174500Y-94353982D01*
X156072103Y-94353982D01*
X156056503Y-94295763D01*
X156000485Y-94198737D01*
X155921263Y-94119515D01*
X155834664Y-94069517D01*
X155824239Y-94063498D01*
X155824238Y-94063497D01*
X155824237Y-94063497D01*
X155716018Y-94034500D01*
X155603982Y-94034500D01*
X155495763Y-94063497D01*
X155495760Y-94063498D01*
X155398740Y-94119513D01*
X155398734Y-94119517D01*
X155319517Y-94198734D01*
X155319513Y-94198740D01*
X155263498Y-94295760D01*
X155263497Y-94295763D01*
X155234500Y-94403982D01*
X151312103Y-94403982D01*
X151296503Y-94345763D01*
X151240485Y-94248737D01*
X151161263Y-94169515D01*
X151074664Y-94119517D01*
X151064239Y-94113498D01*
X151064238Y-94113497D01*
X151064237Y-94113497D01*
X150956018Y-94084500D01*
X150843982Y-94084500D01*
X150735763Y-94113497D01*
X150735760Y-94113498D01*
X150638740Y-94169513D01*
X150638734Y-94169517D01*
X150559517Y-94248734D01*
X150559513Y-94248740D01*
X150503498Y-94345760D01*
X150503497Y-94345763D01*
X150474500Y-94453982D01*
X147920000Y-94453982D01*
X147920000Y-92324000D01*
X147939685Y-92256961D01*
X147992489Y-92211206D01*
X148044000Y-92200000D01*
X151939955Y-92200000D01*
X152006994Y-92219685D01*
G37*
%TD.AperFunction*%
%TD*%
M02*
