%TF.GenerationSoftware,KiCad,Pcbnew,10.0.6-10.0.6~ubuntu26.04.1*%
%TF.CreationDate,2026-09-05T15:40:25+02:00*%
%TF.ProjectId,m47Board-H503,6d343742-6f61-4726-942d-483530332e6b,0.0.0*%
%TF.SameCoordinates,Original*%
%TF.FileFunction,Copper,L1,Top*%
%TF.FilePolarity,Positive*%
%FSLAX46Y46*%
G04 Gerber Fmt 4.6, Leading zero omitted, Abs format (unit mm)*
G04 Created by KiCad (PCBNEW 10.0.6-10.0.6~ubuntu26.04.1) date 2026-09-05 15:40:25*
%MOMM*%
%LPD*%
G01*
G04 APERTURE LIST*
G04 Aperture macros list*
%AMRoundRect*
0 Rectangle with rounded corners*
0 $1 Rounding radius*
0 $2 $3 $4 $5 $6 $7 $8 $9 X,Y pos of 4 corners*
0 Add a 4 corners polygon primitive as box body*
4,1,4,$2,$3,$4,$5,$6,$7,$8,$9,$2,$3,0*
0 Add four circle primitives for the rounded corners*
1,1,$1+$1,$2,$3*
1,1,$1+$1,$4,$5*
1,1,$1+$1,$6,$7*
1,1,$1+$1,$8,$9*
0 Add four rect primitives between the rounded corners*
20,1,$1+$1,$2,$3,$4,$5,0*
20,1,$1+$1,$4,$5,$6,$7,0*
20,1,$1+$1,$6,$7,$8,$9,0*
20,1,$1+$1,$8,$9,$2,$3,0*%
G04 Aperture macros list end*
%TA.AperFunction,SMDPad,CuDef*%
%ADD10RoundRect,0.160000X-0.160000X0.197500X-0.160000X-0.197500X0.160000X-0.197500X0.160000X0.197500X0*%
%TD*%
%TA.AperFunction,SMDPad,CuDef*%
%ADD11RoundRect,0.250000X0.475000X-0.337500X0.475000X0.337500X-0.475000X0.337500X-0.475000X-0.337500X0*%
%TD*%
%TA.AperFunction,SMDPad,CuDef*%
%ADD12RoundRect,0.155000X-0.212500X-0.155000X0.212500X-0.155000X0.212500X0.155000X-0.212500X0.155000X0*%
%TD*%
%TA.AperFunction,SMDPad,CuDef*%
%ADD13RoundRect,0.160000X0.160000X-0.197500X0.160000X0.197500X-0.160000X0.197500X-0.160000X-0.197500X0*%
%TD*%
%TA.AperFunction,SMDPad,CuDef*%
%ADD14RoundRect,0.237500X-0.237500X0.300000X-0.237500X-0.300000X0.237500X-0.300000X0.237500X0.300000X0*%
%TD*%
%TA.AperFunction,ComponentPad*%
%ADD15R,1.700000X1.700000*%
%TD*%
%TA.AperFunction,ComponentPad*%
%ADD16C,1.700000*%
%TD*%
%TA.AperFunction,SMDPad,CuDef*%
%ADD17RoundRect,0.250000X-0.475000X0.337500X-0.475000X-0.337500X0.475000X-0.337500X0.475000X0.337500X0*%
%TD*%
%TA.AperFunction,SMDPad,CuDef*%
%ADD18RoundRect,0.150000X-0.512500X-0.150000X0.512500X-0.150000X0.512500X0.150000X-0.512500X0.150000X0*%
%TD*%
%TA.AperFunction,SMDPad,CuDef*%
%ADD19RoundRect,0.160000X0.197500X0.160000X-0.197500X0.160000X-0.197500X-0.160000X0.197500X-0.160000X0*%
%TD*%
%TA.AperFunction,SMDPad,CuDef*%
%ADD20RoundRect,0.150000X0.425000X-0.150000X0.425000X0.150000X-0.425000X0.150000X-0.425000X-0.150000X0*%
%TD*%
%TA.AperFunction,SMDPad,CuDef*%
%ADD21RoundRect,0.075000X0.500000X-0.075000X0.500000X0.075000X-0.500000X0.075000X-0.500000X-0.075000X0*%
%TD*%
%TA.AperFunction,ComponentPad*%
%ADD22O,2.100000X1.000000*%
%TD*%
%TA.AperFunction,ComponentPad*%
%ADD23O,1.800000X1.000000*%
%TD*%
%TA.AperFunction,SMDPad,CuDef*%
%ADD24RoundRect,0.250000X-0.800000X-0.450000X0.800000X-0.450000X0.800000X0.450000X-0.800000X0.450000X0*%
%TD*%
%TA.AperFunction,SMDPad,CuDef*%
%ADD25RoundRect,0.250000X0.325000X0.450000X-0.325000X0.450000X-0.325000X-0.450000X0.325000X-0.450000X0*%
%TD*%
%TA.AperFunction,SMDPad,CuDef*%
%ADD26RoundRect,0.375000X-0.625000X-0.375000X0.625000X-0.375000X0.625000X0.375000X-0.625000X0.375000X0*%
%TD*%
%TA.AperFunction,SMDPad,CuDef*%
%ADD27RoundRect,0.500000X-0.500000X-1.400000X0.500000X-1.400000X0.500000X1.400000X-0.500000X1.400000X0*%
%TD*%
%TA.AperFunction,SMDPad,CuDef*%
%ADD28RoundRect,0.250000X-1.000000X-0.650000X1.000000X-0.650000X1.000000X0.650000X-1.000000X0.650000X0*%
%TD*%
%TA.AperFunction,SMDPad,CuDef*%
%ADD29RoundRect,0.155000X0.155000X-0.212500X0.155000X0.212500X-0.155000X0.212500X-0.155000X-0.212500X0*%
%TD*%
%TA.AperFunction,SMDPad,CuDef*%
%ADD30RoundRect,0.250000X0.800000X0.450000X-0.800000X0.450000X-0.800000X-0.450000X0.800000X-0.450000X0*%
%TD*%
%TA.AperFunction,SMDPad,CuDef*%
%ADD31R,1.800000X1.000000*%
%TD*%
%TA.AperFunction,SMDPad,CuDef*%
%ADD32RoundRect,0.155000X0.212500X0.155000X-0.212500X0.155000X-0.212500X-0.155000X0.212500X-0.155000X0*%
%TD*%
%TA.AperFunction,SMDPad,CuDef*%
%ADD33RoundRect,0.250000X-0.350000X0.450000X-0.350000X-0.450000X0.350000X-0.450000X0.350000X0.450000X0*%
%TD*%
%TA.AperFunction,SMDPad,CuDef*%
%ADD34RoundRect,0.155000X-0.155000X0.212500X-0.155000X-0.212500X0.155000X-0.212500X0.155000X0.212500X0*%
%TD*%
%TA.AperFunction,SMDPad,CuDef*%
%ADD35RoundRect,0.237500X-0.300000X-0.237500X0.300000X-0.237500X0.300000X0.237500X-0.300000X0.237500X0*%
%TD*%
%TA.AperFunction,SMDPad,CuDef*%
%ADD36RoundRect,0.160000X-0.197500X-0.160000X0.197500X-0.160000X0.197500X0.160000X-0.197500X0.160000X0*%
%TD*%
%TA.AperFunction,SMDPad,CuDef*%
%ADD37RoundRect,0.075000X-0.662500X-0.075000X0.662500X-0.075000X0.662500X0.075000X-0.662500X0.075000X0*%
%TD*%
%TA.AperFunction,SMDPad,CuDef*%
%ADD38RoundRect,0.075000X-0.075000X-0.662500X0.075000X-0.662500X0.075000X0.662500X-0.075000X0.662500X0*%
%TD*%
%TA.AperFunction,SMDPad,CuDef*%
%ADD39RoundRect,0.250000X-0.325000X-0.450000X0.325000X-0.450000X0.325000X0.450000X-0.325000X0.450000X0*%
%TD*%
%TA.AperFunction,ViaPad*%
%ADD40C,0.450000*%
%TD*%
%TA.AperFunction,Conductor*%
%ADD41C,0.300000*%
%TD*%
%TA.AperFunction,Conductor*%
%ADD42C,0.200000*%
%TD*%
%TA.AperFunction,Conductor*%
%ADD43C,0.500000*%
%TD*%
%TA.AperFunction,Conductor*%
%ADD44C,0.320000*%
%TD*%
G04 APERTURE END LIST*
D10*
%TO.P,R4,1*%
%TO.N,/USB-C-CC1*%
X150900000Y-106502500D03*
%TO.P,R4,2*%
%TO.N,GND*%
X150900000Y-107697500D03*
%TD*%
D11*
%TO.P,C8,1*%
%TO.N,+3.3V*%
X149150000Y-114787500D03*
%TO.P,C8,2*%
%TO.N,GND*%
X149150000Y-112712500D03*
%TD*%
D12*
%TO.P,C5,1*%
%TO.N,+3.3V*%
X137482500Y-97990000D03*
%TO.P,C5,2*%
%TO.N,GND*%
X138617500Y-97990000D03*
%TD*%
D13*
%TO.P,R5,1*%
%TO.N,/USB-C-CC2*%
X150900000Y-99277500D03*
%TO.P,R5,2*%
%TO.N,GND*%
X150900000Y-98082500D03*
%TD*%
D14*
%TO.P,C7,1*%
%TO.N,+3.3V*%
X138250000Y-110037500D03*
%TO.P,C7,2*%
%TO.N,GND*%
X138250000Y-111762500D03*
%TD*%
D13*
%TO.P,R1,1*%
%TO.N,Net-(D1-K)*%
X145250000Y-111177500D03*
%TO.P,R1,2*%
%TO.N,GND*%
X145250000Y-109982500D03*
%TD*%
%TO.P,R3,1*%
%TO.N,Net-(R2-Pad2)*%
X150900000Y-96417500D03*
%TO.P,R3,2*%
%TO.N,GND*%
X150900000Y-95222500D03*
%TD*%
D15*
%TO.P,J3,1,Pin_1_1*%
%TO.N,+3.3V*%
X157340000Y-87770000D03*
D16*
%TO.P,J3,2,Pin_2_2*%
%TO.N,GND*%
X154800000Y-87770000D03*
%TO.P,J3,3,Pin_3_3*%
%TO.N,/SWDIO*%
X152260000Y-87770000D03*
%TO.P,J3,4,Pin_4_4*%
%TO.N,/SWCLK*%
X149720000Y-87770000D03*
%TO.P,J3,5,Pin_5_5*%
%TO.N,/NRST*%
X147180000Y-87770000D03*
%TO.P,J3,6,Pin_6_6*%
%TO.N,/PA15*%
X144640000Y-87770000D03*
%TO.P,J3,7,Pin_7_7*%
%TO.N,/PB3*%
X142100000Y-87770000D03*
%TO.P,J3,8,Pin_8_8*%
%TO.N,/PB4*%
X139560000Y-87770000D03*
%TO.P,J3,9,Pin_9_9*%
%TO.N,/PB5*%
X137020000Y-87770000D03*
%TO.P,J3,10,Pin_10_10*%
%TO.N,/PB6*%
X134480000Y-87770000D03*
%TO.P,J3,11,Pin_11_11*%
%TO.N,/PB7*%
X131940000Y-87770000D03*
%TO.P,J3,12,Pin_12_12*%
%TO.N,/PB8*%
X129400000Y-87770000D03*
%TO.P,J3,13,Pin_13_13*%
%TO.N,/PC13*%
X126860000Y-87770000D03*
%TO.P,J3,14,Pin_14_14*%
%TO.N,GND*%
X124320000Y-87770000D03*
%TO.P,J3,15,Pin_15_15*%
%TO.N,+3.3V*%
X121780000Y-87770000D03*
%TD*%
D17*
%TO.P,C9,1*%
%TO.N,VBUS*%
X149150000Y-108772500D03*
%TO.P,C9,2*%
%TO.N,GND*%
X149150000Y-110847500D03*
%TD*%
D18*
%TO.P,U3,1,I/O1_1*%
%TO.N,/USB_D+*%
X147952500Y-101910000D03*
%TO.P,U3,2,GND_2*%
%TO.N,GND*%
X147952500Y-102860000D03*
%TO.P,U3,3,I/O2_3*%
%TO.N,/USB_D-*%
X147952500Y-103810000D03*
%TO.P,U3,4,I/O2_4*%
%TO.N,Net-(J1-D--PadA7)*%
X150227500Y-103810000D03*
%TO.P,U3,5,VBUS_5*%
%TO.N,VBUS*%
X150227500Y-102860000D03*
%TO.P,U3,6,I/O1_6*%
%TO.N,Net-(J1-D+-PadA6)*%
X150227500Y-101910000D03*
%TD*%
D19*
%TO.P,R6,1*%
%TO.N,/PC14*%
X128367500Y-99650000D03*
%TO.P,R6,2*%
%TO.N,Net-(J4-Pin_1)*%
X127172500Y-99650000D03*
%TD*%
D20*
%TO.P,J1,A1,GND_A1*%
%TO.N,GND*%
X152645000Y-106060000D03*
%TO.P,J1,A4,VBUS_A4*%
%TO.N,VBUS*%
X152645000Y-105260000D03*
D21*
%TO.P,J1,A5,CC1_A5*%
%TO.N,/USB-C-CC1*%
X152645000Y-104110000D03*
%TO.P,J1,A6,D+_A6*%
%TO.N,Net-(J1-D+-PadA6)*%
X152645000Y-103110000D03*
%TO.P,J1,A7,D-_A7*%
%TO.N,Net-(J1-D--PadA7)*%
X152645000Y-102610000D03*
%TO.P,J1,A8,SBU1_A8*%
%TO.N,unconnected-(J1-SBU1-PadA8)*%
X152645000Y-101610000D03*
D20*
%TO.P,J1,A9,VBUS_A9*%
%TO.N,VBUS*%
X152645000Y-100460000D03*
%TO.P,J1,A12,GND_A12*%
%TO.N,GND*%
X152645000Y-99660000D03*
%TO.P,J1,B1,GND_B1*%
X152645000Y-99660000D03*
%TO.P,J1,B4,VBUS_B4*%
%TO.N,VBUS*%
X152645000Y-100460000D03*
D21*
%TO.P,J1,B5,CC2_B5*%
%TO.N,/USB-C-CC2*%
X152645000Y-101110000D03*
%TO.P,J1,B6,D+_B6*%
%TO.N,Net-(J1-D+-PadA6)*%
X152645000Y-102110000D03*
%TO.P,J1,B7,D-_B7*%
%TO.N,Net-(J1-D--PadA7)*%
X152645000Y-103610000D03*
%TO.P,J1,B8,SBU2_B8*%
%TO.N,unconnected-(J1-SBU2-PadB8)*%
X152645000Y-104610000D03*
D20*
%TO.P,J1,B9,VBUS_B9*%
%TO.N,VBUS*%
X152645000Y-105260000D03*
%TO.P,J1,B12,GND_B12*%
%TO.N,GND*%
X152645000Y-106060000D03*
D22*
%TO.P,J1,SH,SHIELD_SH*%
X153220000Y-107180000D03*
D23*
X157400000Y-107180000D03*
D22*
X153220000Y-98540000D03*
D23*
X157400000Y-98540000D03*
%TD*%
D24*
%TO.P,SW2,1,1_1*%
%TO.N,+3.3V*%
X139800000Y-91430000D03*
X148900000Y-91430000D03*
%TO.P,SW2,2,2_2*%
%TO.N,Net-(R2-Pad2)*%
X139800000Y-95930000D03*
X148900000Y-95930000D03*
%TD*%
D10*
%TO.P,R10,1*%
%TO.N,Net-(D4-K)*%
X152100000Y-90927500D03*
%TO.P,R10,2*%
%TO.N,GND*%
X152100000Y-92122500D03*
%TD*%
D25*
%TO.P,D1,1,K_1*%
%TO.N,Net-(D1-K)*%
X145625000Y-114600000D03*
%TO.P,D1,2,A_2*%
%TO.N,+3.3V*%
X143575000Y-114600000D03*
%TD*%
D26*
%TO.P,U1,1,VI_1*%
%TO.N,VBUS*%
X151650000Y-109730000D03*
%TO.P,U1,2,GND_2*%
%TO.N,GND*%
X151650000Y-112030000D03*
D27*
X157950000Y-112030000D03*
D26*
%TO.P,U1,3,VO_3*%
%TO.N,+3.3V*%
X151650000Y-114330000D03*
%TD*%
D17*
%TO.P,C1,1*%
%TO.N,+3.3V*%
X146950000Y-108772500D03*
%TO.P,C1,2*%
%TO.N,GND*%
X146950000Y-110847500D03*
%TD*%
D28*
%TO.P,D2,1,A1_1*%
%TO.N,VBUS*%
X153110000Y-95530000D03*
%TO.P,D2,2,A2_2*%
%TO.N,GND*%
X157110000Y-95530000D03*
%TD*%
D15*
%TO.P,J5,1,Pin_1_1*%
%TO.N,+3.3V*%
X121780000Y-118230000D03*
D16*
%TO.P,J5,2,Pin_2_2*%
%TO.N,GND*%
X124320000Y-118230000D03*
%TO.P,J5,3,Pin_3_3*%
%TO.N,/PB0*%
X126860000Y-118230000D03*
%TO.P,J5,4,Pin_4_4*%
%TO.N,/PB1*%
X129400000Y-118230000D03*
%TO.P,J5,5,Pin_5_5*%
%TO.N,/PB2*%
X131940000Y-118230000D03*
%TO.P,J5,6,Pin_6_6*%
%TO.N,/PB10*%
X134480000Y-118230000D03*
%TO.P,J5,7,Pin_7_7*%
%TO.N,/PB12*%
X137020000Y-118230000D03*
%TO.P,J5,8,Pin_8_8*%
%TO.N,/PB13*%
X139560000Y-118230000D03*
%TO.P,J5,9,Pin_9_9*%
%TO.N,/PB14*%
X142100000Y-118230000D03*
%TO.P,J5,10,Pin_10_10*%
%TO.N,/PB15*%
X144640000Y-118230000D03*
%TO.P,J5,11,Pin_11_11*%
%TO.N,/PA8*%
X147180000Y-118230000D03*
%TO.P,J5,12,Pin_12_12*%
%TO.N,/PA9*%
X149720000Y-118230000D03*
%TO.P,J5,13,Pin_13_13*%
%TO.N,/PA10*%
X152260000Y-118230000D03*
%TO.P,J5,14,Pin_14_14*%
%TO.N,GND*%
X154800000Y-118230000D03*
%TO.P,J5,15,Pin_15_15*%
%TO.N,VBUS*%
X157340000Y-118230000D03*
%TD*%
D10*
%TO.P,R8,1*%
%TO.N,/PA5*%
X139700000Y-109762500D03*
%TO.P,R8,2*%
%TO.N,Net-(D3-A)*%
X139700000Y-110957500D03*
%TD*%
D29*
%TO.P,C16,1*%
%TO.N,/PC14*%
X131950000Y-100477500D03*
%TO.P,C16,2*%
%TO.N,GND*%
X131950000Y-99342500D03*
%TD*%
%TO.P,C2,1*%
%TO.N,+3.3V*%
X134675000Y-100817500D03*
%TO.P,C2,2*%
%TO.N,GND*%
X134675000Y-99682500D03*
%TD*%
D30*
%TO.P,SW3,1,1_1*%
%TO.N,/PC13*%
X135900000Y-95930000D03*
X126800000Y-95930000D03*
%TO.P,SW3,2,2_2*%
%TO.N,GND*%
X135900000Y-91430000D03*
X126800000Y-91430000D03*
%TD*%
D15*
%TO.P,J4,1,Pin_1_1*%
%TO.N,Net-(J4-Pin_1)*%
X121770000Y-91570000D03*
D16*
%TO.P,J4,2,Pin_2_2*%
%TO.N,Net-(J4-Pin_2)*%
X121770000Y-94110000D03*
%TO.P,J4,3,Pin_3_3*%
%TO.N,/PA0*%
X121770000Y-96650000D03*
%TO.P,J4,4,Pin_4_4*%
%TO.N,/PA1*%
X121770000Y-99190000D03*
%TO.P,J4,5,Pin_5_5*%
%TO.N,/PA2*%
X121770000Y-101730000D03*
%TO.P,J4,6,Pin_6_6*%
%TO.N,/PA3*%
X121770000Y-104270000D03*
%TO.P,J4,7,Pin_7_7*%
%TO.N,/PA4*%
X121770000Y-106810000D03*
%TO.P,J4,8,Pin_8_8*%
%TO.N,/PA5*%
X121770000Y-109350000D03*
%TO.P,J4,9,Pin_9_9*%
%TO.N,/PA6*%
X121770000Y-111890000D03*
%TO.P,J4,10,Pin_10_10*%
%TO.N,/PA7*%
X121770000Y-114430000D03*
%TD*%
D25*
%TO.P,D3,1,K_1*%
%TO.N,GND*%
X140975000Y-114600000D03*
%TO.P,D3,2,A_2*%
%TO.N,Net-(D3-A)*%
X138925000Y-114600000D03*
%TD*%
D31*
%TO.P,Y2,1,1_1*%
%TO.N,/PC14*%
X130150000Y-99930000D03*
%TO.P,Y2,2,2_2*%
%TO.N,/PC15*%
X130150000Y-102430000D03*
%TD*%
D12*
%TO.P,C4,1*%
%TO.N,+3.3V*%
X145122500Y-100040000D03*
%TO.P,C4,2*%
%TO.N,GND*%
X146257500Y-100040000D03*
%TD*%
D32*
%TO.P,C3,1*%
%TO.N,+3.3V*%
X143667500Y-109680000D03*
%TO.P,C3,2*%
%TO.N,GND*%
X142532500Y-109680000D03*
%TD*%
D33*
%TO.P,Y1,1,1_1*%
%TO.N,/HSE_IN*%
X128700000Y-104490000D03*
%TO.P,Y1,2,G_2*%
%TO.N,GND*%
X128700000Y-106690000D03*
%TO.P,Y1,3,3_3*%
%TO.N,/HSE_OUT*%
X130400000Y-106690000D03*
%TO.P,Y1,4,G_4*%
%TO.N,GND*%
X130400000Y-104490000D03*
%TD*%
D30*
%TO.P,SW1,1,1_1*%
%TO.N,GND*%
X135900000Y-114620000D03*
X126800000Y-114620000D03*
%TO.P,SW1,2,2_2*%
%TO.N,/NRST*%
X135900000Y-110120000D03*
X126800000Y-110120000D03*
%TD*%
D32*
%TO.P,C10,1*%
%TO.N,/NRST*%
X135867500Y-98450000D03*
%TO.P,C10,2*%
%TO.N,GND*%
X134732500Y-98450000D03*
%TD*%
D34*
%TO.P,C15,1*%
%TO.N,/HSE_OUT*%
X131950000Y-106412500D03*
%TO.P,C15,2*%
%TO.N,GND*%
X131950000Y-107547500D03*
%TD*%
D35*
%TO.P,C12,1*%
%TO.N,Net-(C12-Pad1)*%
X141687500Y-111050000D03*
%TO.P,C12,2*%
%TO.N,GND*%
X143412500Y-111050000D03*
%TD*%
D34*
%TO.P,C17,1*%
%TO.N,/PC15*%
X131950000Y-101742500D03*
%TO.P,C17,2*%
%TO.N,GND*%
X131950000Y-102877500D03*
%TD*%
%TO.P,C6,1*%
%TO.N,+3.3V*%
X134450000Y-105632500D03*
%TO.P,C6,2*%
%TO.N,GND*%
X134450000Y-106767500D03*
%TD*%
D10*
%TO.P,R9,1*%
%TO.N,+3.3V*%
X137870000Y-90942500D03*
%TO.P,R9,2*%
%TO.N,/PC13*%
X137870000Y-92137500D03*
%TD*%
D32*
%TO.P,C11,1*%
%TO.N,VBUS*%
X149107500Y-105160000D03*
%TO.P,C11,2*%
%TO.N,GND*%
X147972500Y-105160000D03*
%TD*%
D12*
%TO.P,C18,1*%
%TO.N,/PC13*%
X126022500Y-97590000D03*
%TO.P,C18,2*%
%TO.N,GND*%
X127157500Y-97590000D03*
%TD*%
D36*
%TO.P,R2,1*%
%TO.N,/BOOT0*%
X139877500Y-98000000D03*
%TO.P,R2,2*%
%TO.N,Net-(R2-Pad2)*%
X141072500Y-98000000D03*
%TD*%
D29*
%TO.P,C14,1*%
%TO.N,/HSE_IN*%
X131950000Y-105147500D03*
%TO.P,C14,2*%
%TO.N,GND*%
X131950000Y-104012500D03*
%TD*%
D19*
%TO.P,R7,1*%
%TO.N,/PC15*%
X128367500Y-102710000D03*
%TO.P,R7,2*%
%TO.N,Net-(J4-Pin_2)*%
X127172500Y-102710000D03*
%TD*%
D37*
%TO.P,U2,1,VBAT_1*%
%TO.N,+3.3V*%
X136365000Y-101110000D03*
%TO.P,U2,2,PC13_2*%
%TO.N,/PC13*%
X136365000Y-101610000D03*
%TO.P,U2,3,PC14_3*%
%TO.N,/PC14*%
X136365000Y-102110000D03*
%TO.P,U2,4,PC15_4*%
%TO.N,/PC15*%
X136365000Y-102610000D03*
%TO.P,U2,5,PH0_5*%
%TO.N,/HSE_IN*%
X136365000Y-103110000D03*
%TO.P,U2,6,PH1_6*%
%TO.N,/HSE_OUT*%
X136365000Y-103610000D03*
%TO.P,U2,7,NRST_7*%
%TO.N,/NRST*%
X136365000Y-104110000D03*
%TO.P,U2,8,VSSA_8*%
%TO.N,GND*%
X136365000Y-104610000D03*
%TO.P,U2,9,VDDA_9*%
%TO.N,+3.3V*%
X136365000Y-105110000D03*
%TO.P,U2,10,PA0_10*%
%TO.N,/PA0*%
X136365000Y-105610000D03*
%TO.P,U2,11,PA1_11*%
%TO.N,/PA1*%
X136365000Y-106110000D03*
%TO.P,U2,12,PA2_12*%
%TO.N,/PA2*%
X136365000Y-106610000D03*
D38*
%TO.P,U2,13,PA3_13*%
%TO.N,/PA3*%
X137777500Y-108022500D03*
%TO.P,U2,14,PA4_14*%
%TO.N,/PA4*%
X138277500Y-108022500D03*
%TO.P,U2,15,PA5_15*%
%TO.N,/PA5*%
X138777500Y-108022500D03*
%TO.P,U2,16,PA6_16*%
%TO.N,/PA6*%
X139277500Y-108022500D03*
%TO.P,U2,17,PA7_17*%
%TO.N,/PA7*%
X139777500Y-108022500D03*
%TO.P,U2,18,PB0_18*%
%TO.N,/PB0*%
X140277500Y-108022500D03*
%TO.P,U2,19,PB1_19*%
%TO.N,/PB1*%
X140777500Y-108022500D03*
%TO.P,U2,20,PB2_20*%
%TO.N,/PB2*%
X141277500Y-108022500D03*
%TO.P,U2,21,PB10_21*%
%TO.N,/PB10*%
X141777500Y-108022500D03*
%TO.P,U2,22,VCAP_22*%
%TO.N,Net-(C12-Pad1)*%
X142277500Y-108022500D03*
%TO.P,U2,23,VSS_23*%
%TO.N,GND*%
X142777500Y-108022500D03*
%TO.P,U2,24,VDD_24*%
%TO.N,+3.3V*%
X143277500Y-108022500D03*
D37*
%TO.P,U2,25,PB12_25*%
%TO.N,/PB12*%
X144690000Y-106610000D03*
%TO.P,U2,26,PB13_26*%
%TO.N,/PB13*%
X144690000Y-106110000D03*
%TO.P,U2,27,PB14_27*%
%TO.N,/PB14*%
X144690000Y-105610000D03*
%TO.P,U2,28,PB15_28*%
%TO.N,/PB15*%
X144690000Y-105110000D03*
%TO.P,U2,29,PA8_29*%
%TO.N,/PA8*%
X144690000Y-104610000D03*
%TO.P,U2,30,PA9_30*%
%TO.N,/PA9*%
X144690000Y-104110000D03*
%TO.P,U2,31,PA10_31*%
%TO.N,/PA10*%
X144690000Y-103610000D03*
%TO.P,U2,32,PA11_32*%
%TO.N,/USB_D-*%
X144690000Y-103110000D03*
%TO.P,U2,33,PA12_33*%
%TO.N,/USB_D+*%
X144690000Y-102610000D03*
%TO.P,U2,34,PA13(JTMS_34*%
%TO.N,/SWDIO*%
X144690000Y-102110000D03*
%TO.P,U2,35,VSS_35*%
%TO.N,GND*%
X144690000Y-101610000D03*
%TO.P,U2,36,VDD_36*%
%TO.N,+3.3V*%
X144690000Y-101110000D03*
D38*
%TO.P,U2,37,PA14(JTCK_37*%
%TO.N,/SWCLK*%
X143277500Y-99697500D03*
%TO.P,U2,38,PA15(JTDI)_38*%
%TO.N,/PA15*%
X142777500Y-99697500D03*
%TO.P,U2,39,PB3(JTDO_39*%
%TO.N,/PB3*%
X142277500Y-99697500D03*
%TO.P,U2,40,PB4(NJTRST)_40*%
%TO.N,/PB4*%
X141777500Y-99697500D03*
%TO.P,U2,41,PB5_41*%
%TO.N,/PB5*%
X141277500Y-99697500D03*
%TO.P,U2,42,PB6_42*%
%TO.N,/PB6*%
X140777500Y-99697500D03*
%TO.P,U2,43,PB7_43*%
%TO.N,/PB7*%
X140277500Y-99697500D03*
%TO.P,U2,44,BOOT0_44*%
%TO.N,/BOOT0*%
X139777500Y-99697500D03*
%TO.P,U2,45,PB8_45*%
%TO.N,/PB8*%
X139277500Y-99697500D03*
%TO.P,U2,46,VCAP_46*%
%TO.N,Net-(C13-Pad1)*%
X138777500Y-99697500D03*
%TO.P,U2,47,VSS_47*%
%TO.N,GND*%
X138277500Y-99697500D03*
%TO.P,U2,48,VDD_48*%
%TO.N,+3.3V*%
X137777500Y-99697500D03*
%TD*%
D39*
%TO.P,D4,1,K_1*%
%TO.N,Net-(D4-K)*%
X155750000Y-91475000D03*
%TO.P,D4,2,A_2*%
%TO.N,VBUS*%
X157800000Y-91475000D03*
%TD*%
D35*
%TO.P,C13,1*%
%TO.N,Net-(C13-Pad1)*%
X145387500Y-98710000D03*
%TO.P,C13,2*%
%TO.N,GND*%
X147112500Y-98710000D03*
%TD*%
D40*
%TO.N,GND*%
X150900000Y-94510000D03*
X156180000Y-107180000D03*
X128250000Y-91440000D03*
X151880000Y-99240000D03*
X144200000Y-111050000D03*
X147805000Y-98005000D03*
X146950000Y-111860000D03*
X130400000Y-103400000D03*
X158610000Y-96670000D03*
X147010000Y-100060000D03*
X152920000Y-112530000D03*
X156520000Y-111530000D03*
X154650000Y-107180000D03*
X134470000Y-91480000D03*
X135240000Y-104610000D03*
X139220000Y-97420000D03*
X152940000Y-111530000D03*
X134480000Y-114620000D03*
X131370000Y-98790000D03*
X152100000Y-92850000D03*
X150180000Y-107710000D03*
X128220000Y-114620000D03*
X133980000Y-98440000D03*
X147960000Y-105850000D03*
X127910000Y-97590000D03*
X158600000Y-94410000D03*
X138240000Y-112660000D03*
X154570000Y-98540000D03*
X150170000Y-98090000D03*
X131320000Y-103380000D03*
X156520000Y-112530000D03*
X155660000Y-94460000D03*
X145250000Y-108870000D03*
X156100000Y-98540000D03*
X149080000Y-102430000D03*
X134425000Y-107525000D03*
X155690000Y-96610000D03*
X128700000Y-107750000D03*
X142681250Y-110318750D03*
X140970000Y-115680000D03*
X150225000Y-112710000D03*
X151740000Y-106350000D03*
X150250000Y-110860000D03*
X133985000Y-99680000D03*
X131270000Y-107550000D03*
%TO.N,+3.3V*%
X137860000Y-90210000D03*
X147510000Y-91440000D03*
X153010000Y-114830000D03*
X143530000Y-115690000D03*
X135310000Y-100270000D03*
X144350000Y-100030000D03*
X146970000Y-107780000D03*
X133820000Y-106090000D03*
X141230000Y-91430000D03*
X144300000Y-109170000D03*
X136952500Y-98520000D03*
X153020000Y-113830000D03*
X137550000Y-109300000D03*
%TO.N,/SWDIO*%
X146340000Y-101790000D03*
%TO.N,/SWCLK*%
X143280000Y-98560000D03*
%TO.N,/PA15*%
X142780000Y-101320000D03*
%TO.N,/PB3*%
X142270000Y-100820000D03*
%TO.N,/PB4*%
X141780000Y-101300000D03*
%TO.N,/PB5*%
X141280000Y-100850000D03*
%TO.N,/PB6*%
X140780000Y-101280000D03*
%TO.N,/PB7*%
X140270000Y-100840000D03*
%TO.N,/PB8*%
X139270000Y-100820000D03*
%TO.N,VBUS*%
X151720000Y-105390000D03*
X151700000Y-96650000D03*
X151675000Y-94400000D03*
X152960000Y-110230000D03*
X152990000Y-109230000D03*
X158787500Y-92462500D03*
X154490000Y-94440000D03*
X151780000Y-100180000D03*
X154520000Y-96620000D03*
X149284619Y-103144619D03*
%TO.N,/PB0*%
X140277500Y-106372500D03*
%TO.N,/PB1*%
X140780000Y-106870000D03*
%TO.N,/PB2*%
X141277500Y-106372500D03*
%TO.N,/PB10*%
X141777500Y-106862500D03*
%TO.N,/PB12*%
X143560000Y-106600000D03*
%TO.N,/PB13*%
X143050000Y-106110000D03*
%TO.N,/PB14*%
X143570000Y-105610000D03*
%TO.N,/PB15*%
X143060000Y-105110000D03*
%TO.N,/PA8*%
X143570000Y-104620000D03*
%TO.N,/PA9*%
X143080000Y-104110000D03*
%TO.N,/PA10*%
X143570000Y-103610000D03*
%TO.N,/PA5*%
X138780000Y-106900000D03*
%TO.N,/PA0*%
X137950000Y-105610000D03*
%TO.N,/PA1*%
X137480000Y-106110000D03*
%TO.N,/PA2*%
X135260000Y-106610000D03*
%TO.N,/PA3*%
X137775236Y-106900236D03*
%TO.N,/PA4*%
X138280000Y-106370000D03*
%TO.N,/PA6*%
X139277500Y-106360000D03*
%TO.N,/PA7*%
X139777500Y-106902500D03*
%TD*%
%TO.N,/USB-C-CC1*%
D41*
X150900000Y-105090000D02*
X150900000Y-106502500D01*
X152645000Y-104110000D02*
X151880000Y-104110000D01*
X151880000Y-104110000D02*
X150900000Y-105090000D01*
%TO.N,GND*%
D42*
X138277500Y-99697500D02*
X138277500Y-98330000D01*
D43*
X142681250Y-110318750D02*
X142532500Y-110170000D01*
X150222500Y-112712500D02*
X149150000Y-112712500D01*
X146950000Y-110847500D02*
X146950000Y-111860000D01*
D42*
X138650000Y-97990000D02*
X139220000Y-97420000D01*
X138617500Y-97990000D02*
X138650000Y-97990000D01*
X135900000Y-114620000D02*
X134480000Y-114620000D01*
X131447500Y-103380000D02*
X131950000Y-102877500D01*
D43*
X148650000Y-102860000D02*
X147952500Y-102860000D01*
D42*
X150900000Y-95222500D02*
X150900000Y-94510000D01*
D43*
X143412500Y-111050000D02*
X144200000Y-111050000D01*
X150250000Y-110860000D02*
X149162500Y-110860000D01*
X153220000Y-98540000D02*
X154570000Y-98540000D01*
D42*
X127910000Y-97590000D02*
X127157500Y-97590000D01*
X152100000Y-92122500D02*
X152100000Y-92850000D01*
D43*
X157110000Y-95530000D02*
X157470000Y-95530000D01*
X157110000Y-95530000D02*
X156770000Y-95530000D01*
X151650000Y-112030000D02*
X151850000Y-112030000D01*
X157470000Y-95530000D02*
X158610000Y-96670000D01*
X151880000Y-99240000D02*
X152300000Y-99660000D01*
D42*
X130400000Y-103400000D02*
X130400000Y-104490000D01*
D43*
X152645000Y-106060000D02*
X152030000Y-106060000D01*
D42*
X147160000Y-98552500D02*
X147132500Y-98580000D01*
X147805000Y-98005000D02*
X147140000Y-98670000D01*
X128240000Y-91430000D02*
X128250000Y-91440000D01*
X144690000Y-101610000D02*
X145670000Y-101610000D01*
X126820000Y-114600000D02*
X126800000Y-114580000D01*
X131370000Y-98790000D02*
X131922500Y-99342500D01*
X134470000Y-91480000D02*
X135850000Y-91480000D01*
X146257500Y-100040000D02*
X146257500Y-101022500D01*
D43*
X150225000Y-112710000D02*
X150222500Y-112712500D01*
D42*
X128220000Y-114620000D02*
X126800000Y-114620000D01*
X135867500Y-114612500D02*
X135900000Y-114580000D01*
X131947500Y-107550000D02*
X131950000Y-107547500D01*
X142777500Y-108022500D02*
X142777500Y-109435000D01*
X147010000Y-100060000D02*
X146277500Y-100060000D01*
D43*
X156520000Y-111530000D02*
X157450000Y-111530000D01*
D42*
X131320000Y-103380000D02*
X131447500Y-103380000D01*
D43*
X157400000Y-107180000D02*
X156180000Y-107180000D01*
X157110000Y-95530000D02*
X157480000Y-95530000D01*
X156730000Y-95530000D02*
X155660000Y-94460000D01*
D42*
X131270000Y-107550000D02*
X131947500Y-107550000D01*
X131320000Y-103382500D02*
X131950000Y-104012500D01*
D43*
X147960000Y-105172500D02*
X147972500Y-105160000D01*
D42*
X135850000Y-91480000D02*
X135900000Y-91430000D01*
D43*
X143412500Y-111050000D02*
X142681250Y-110318750D01*
D42*
X138277500Y-98330000D02*
X138617500Y-97990000D01*
D43*
X152350000Y-111530000D02*
X152940000Y-111530000D01*
X157950000Y-112030000D02*
X157450000Y-112530000D01*
D42*
X134425000Y-106792500D02*
X134450000Y-106767500D01*
X146277500Y-100060000D02*
X146257500Y-100040000D01*
X126800000Y-91430000D02*
X128240000Y-91430000D01*
X142777500Y-109435000D02*
X142532500Y-109680000D01*
D43*
X149080000Y-102430000D02*
X148650000Y-102860000D01*
X157480000Y-95530000D02*
X158600000Y-94410000D01*
D42*
X150170000Y-98090000D02*
X150892500Y-98090000D01*
D43*
X157400000Y-98540000D02*
X156100000Y-98540000D01*
X156770000Y-95530000D02*
X155690000Y-96610000D01*
D42*
X135240000Y-104610000D02*
X136365000Y-104610000D01*
D43*
X157450000Y-112530000D02*
X156520000Y-112530000D01*
X147960000Y-105850000D02*
X147960000Y-105172500D01*
X157110000Y-95530000D02*
X156730000Y-95530000D01*
X152300000Y-99660000D02*
X152645000Y-99660000D01*
X153220000Y-107180000D02*
X154650000Y-107180000D01*
X152030000Y-106060000D02*
X151740000Y-106350000D01*
D42*
X133980000Y-98440000D02*
X134722500Y-98440000D01*
D43*
X157450000Y-111530000D02*
X157950000Y-112030000D01*
D42*
X140970000Y-115680000D02*
X140970000Y-114605000D01*
X146257500Y-101022500D02*
X145670000Y-101610000D01*
X150180000Y-107710000D02*
X150887500Y-107710000D01*
D43*
X138250000Y-112650000D02*
X138240000Y-112660000D01*
D42*
X131320000Y-103380000D02*
X131320000Y-103382500D01*
X131922500Y-99342500D02*
X131950000Y-99342500D01*
D43*
X149162500Y-110860000D02*
X149150000Y-110847500D01*
D42*
X134425000Y-107525000D02*
X134425000Y-106792500D01*
X140970000Y-114605000D02*
X140975000Y-114600000D01*
D43*
X138250000Y-111762500D02*
X138250000Y-112650000D01*
D42*
X147160000Y-98540000D02*
X147160000Y-98552500D01*
D43*
X151850000Y-112030000D02*
X152350000Y-111530000D01*
X152300000Y-112530000D02*
X152920000Y-112530000D01*
D42*
X150892500Y-98090000D02*
X150900000Y-98082500D01*
X133985000Y-99680000D02*
X134672500Y-99680000D01*
D43*
X142532500Y-110170000D02*
X142532500Y-109680000D01*
D42*
X128700000Y-107750000D02*
X128700000Y-106690000D01*
X150887500Y-107710000D02*
X150900000Y-107697500D01*
X145250000Y-109982500D02*
X145250000Y-108870000D01*
%TO.N,+3.3V*%
X133820000Y-106090000D02*
X133992500Y-106090000D01*
D43*
X151650000Y-114330000D02*
X152150000Y-113830000D01*
X157350000Y-87780000D02*
X157340000Y-87770000D01*
D42*
X145122500Y-100040000D02*
X144690000Y-100472500D01*
X137860000Y-90210000D02*
X137860000Y-90932500D01*
X144177500Y-109170000D02*
X143667500Y-109680000D01*
D43*
X146970000Y-108752500D02*
X146950000Y-108772500D01*
X149150000Y-114787500D02*
X149192500Y-114830000D01*
X152150000Y-113830000D02*
X153020000Y-113830000D01*
X152290000Y-114830000D02*
X151790000Y-114330000D01*
D42*
X144360000Y-100040000D02*
X145122500Y-100040000D01*
X139312500Y-90942500D02*
X139800000Y-91430000D01*
X147520000Y-91430000D02*
X147510000Y-91440000D01*
D43*
X153010000Y-114830000D02*
X152290000Y-114830000D01*
D42*
X138250000Y-110000000D02*
X138250000Y-110037500D01*
X136365000Y-105110000D02*
X134972500Y-105110000D01*
X143277500Y-108022500D02*
X143277500Y-109290000D01*
X137777500Y-98285000D02*
X137482500Y-97990000D01*
X143277500Y-109290000D02*
X143667500Y-109680000D01*
X141230000Y-91430000D02*
X139800000Y-91430000D01*
X136365000Y-101110000D02*
X134967500Y-101110000D01*
X136952500Y-98520000D02*
X137482500Y-97990000D01*
D43*
X146970000Y-107780000D02*
X146970000Y-108752500D01*
X137550000Y-109300000D02*
X137550000Y-109337500D01*
D42*
X144350000Y-100030000D02*
X144360000Y-100040000D01*
X144300000Y-109170000D02*
X144177500Y-109170000D01*
X137777500Y-99697500D02*
X137777500Y-98285000D01*
X135310000Y-100270000D02*
X135222500Y-100270000D01*
X143530000Y-114645000D02*
X143575000Y-114600000D01*
X135222500Y-100270000D02*
X134675000Y-100817500D01*
D43*
X151150000Y-114830000D02*
X151650000Y-114330000D01*
X151790000Y-114330000D02*
X151650000Y-114330000D01*
D42*
X134967500Y-101110000D02*
X134675000Y-100817500D01*
X137860000Y-90932500D02*
X137870000Y-90942500D01*
X143530000Y-115690000D02*
X143530000Y-114645000D01*
D43*
X149192500Y-114830000D02*
X151150000Y-114830000D01*
D42*
X144690000Y-100472500D02*
X144690000Y-101110000D01*
X133992500Y-106090000D02*
X134450000Y-105632500D01*
D43*
X137550000Y-109337500D02*
X138250000Y-110037500D01*
D42*
X148900000Y-91430000D02*
X147520000Y-91430000D01*
X134972500Y-105110000D02*
X134450000Y-105632500D01*
%TO.N,/USB-C-CC2*%
D41*
X151885000Y-101110000D02*
X150900000Y-100125000D01*
X152645000Y-101110000D02*
X151885000Y-101110000D01*
X150900000Y-100125000D02*
X150900000Y-99277500D01*
%TO.N,Net-(D1-K)*%
D42*
X145150000Y-114125000D02*
X145625000Y-114600000D01*
X145250000Y-111177500D02*
X145150000Y-111277500D01*
X145150000Y-111277500D02*
X145150000Y-114125000D01*
%TO.N,Net-(R2-Pad2)*%
X148900000Y-95930000D02*
X150412500Y-95930000D01*
X141072500Y-98000000D02*
X141072500Y-96847500D01*
X139800000Y-95930000D02*
X140180000Y-95930000D01*
X150412500Y-95930000D02*
X150900000Y-96417500D01*
X141072500Y-96847500D02*
X140155000Y-95930000D01*
X139800000Y-95930000D02*
X148900000Y-95930000D01*
X140155000Y-95930000D02*
X139800000Y-95930000D01*
%TO.N,/SWDIO*%
X146020000Y-102110000D02*
X146340000Y-101790000D01*
X144690000Y-102110000D02*
X146020000Y-102110000D01*
%TO.N,/SWCLK*%
X143280000Y-98670000D02*
X143277500Y-98672500D01*
X143280000Y-98560000D02*
X143280000Y-98670000D01*
X143277500Y-98672500D02*
X143277500Y-99697500D01*
%TO.N,/NRST*%
X134765000Y-104110000D02*
X132825000Y-106050000D01*
X137450000Y-103850000D02*
X137450000Y-100725000D01*
X141350000Y-93600000D02*
X147180000Y-87770000D01*
X135867500Y-99142500D02*
X135867500Y-98450000D01*
X132825000Y-107395000D02*
X135550000Y-110120000D01*
X137190000Y-104110000D02*
X137450000Y-103850000D01*
X137450000Y-100725000D02*
X135867500Y-99142500D01*
X139650000Y-93600000D02*
X141350000Y-93600000D01*
X127140000Y-109740000D02*
X126800000Y-110080000D01*
X137780000Y-96537500D02*
X137780000Y-95470000D01*
X135867500Y-98450000D02*
X137780000Y-96537500D01*
X136365000Y-104110000D02*
X134765000Y-104110000D01*
X136365000Y-104110000D02*
X137190000Y-104110000D01*
X126800000Y-110120000D02*
X135900000Y-110120000D01*
X132825000Y-106050000D02*
X132825000Y-107395000D01*
X137780000Y-95470000D02*
X139650000Y-93600000D01*
X135550000Y-110120000D02*
X135900000Y-110120000D01*
%TO.N,/PA15*%
X142780000Y-99700000D02*
X142777500Y-99697500D01*
X142780000Y-101320000D02*
X142780000Y-99700000D01*
%TO.N,/PB3*%
X142277500Y-100812500D02*
X142277500Y-99697500D01*
X142270000Y-100820000D02*
X142277500Y-100812500D01*
%TO.N,/PB4*%
X141777500Y-101297500D02*
X141780000Y-101300000D01*
X141777500Y-99697500D02*
X141777500Y-101297500D01*
%TO.N,/PB5*%
X141277500Y-100847500D02*
X141280000Y-100850000D01*
X141277500Y-99697500D02*
X141277500Y-100847500D01*
%TO.N,/PB6*%
X140780000Y-99700000D02*
X140777500Y-99697500D01*
X140780000Y-101280000D02*
X140780000Y-99700000D01*
%TO.N,/PB7*%
X140270000Y-99705000D02*
X140277500Y-99697500D01*
X140270000Y-100840000D02*
X140270000Y-99705000D01*
%TO.N,/PB8*%
X139270000Y-100820000D02*
X139270000Y-99705000D01*
X139270000Y-99705000D02*
X139277500Y-99697500D01*
%TO.N,/PC13*%
X135550000Y-95930000D02*
X135900000Y-95930000D01*
X126860000Y-87770000D02*
X127390000Y-87770000D01*
X133275000Y-98325000D02*
X135670000Y-95930000D01*
X135670000Y-95930000D02*
X135900000Y-95930000D01*
X133275000Y-100525000D02*
X133275000Y-98325000D01*
X126800000Y-95930000D02*
X135900000Y-95930000D01*
X126022500Y-97590000D02*
X126280000Y-97332500D01*
X127390000Y-87770000D02*
X135550000Y-95930000D01*
X135530000Y-96070000D02*
X135900000Y-96070000D01*
X134360000Y-101610000D02*
X133275000Y-100525000D01*
X126280000Y-97332500D02*
X126280000Y-96450000D01*
X137870000Y-92137500D02*
X137870000Y-93960000D01*
X137870000Y-93960000D02*
X135900000Y-95930000D01*
X136365000Y-101610000D02*
X134360000Y-101610000D01*
X126280000Y-96450000D02*
X126800000Y-95930000D01*
%TO.N,VBUS*%
D43*
X149284619Y-103144619D02*
X149107500Y-103321738D01*
D42*
X149810000Y-102870000D02*
X150227500Y-102870000D01*
D43*
X152450000Y-109230000D02*
X151950000Y-109730000D01*
X152990000Y-109230000D02*
X152450000Y-109230000D01*
X153110000Y-95530000D02*
X153430000Y-95530000D01*
D42*
X157800000Y-91475000D02*
X158787500Y-92462500D01*
D43*
X152060000Y-100460000D02*
X151780000Y-100180000D01*
X153110000Y-95530000D02*
X152805000Y-95530000D01*
X151850000Y-105260000D02*
X151720000Y-105390000D01*
X153110000Y-95530000D02*
X152820000Y-95530000D01*
X152960000Y-110230000D02*
X152400000Y-110230000D01*
X150227500Y-102860000D02*
X149569238Y-102860000D01*
X152645000Y-105260000D02*
X151850000Y-105260000D01*
X151150000Y-109230000D02*
X149607500Y-109230000D01*
X151900000Y-109730000D02*
X151650000Y-109730000D01*
X149607500Y-109230000D02*
X149150000Y-108772500D01*
X151950000Y-109730000D02*
X151650000Y-109730000D01*
X152805000Y-95530000D02*
X151675000Y-94400000D01*
X149107500Y-103321738D02*
X149107500Y-105160000D01*
X151650000Y-109730000D02*
X151150000Y-109230000D01*
X153110000Y-95530000D02*
X153400000Y-95530000D01*
X153400000Y-95530000D02*
X154490000Y-94440000D01*
X149569238Y-102860000D02*
X149284619Y-103144619D01*
X153430000Y-95530000D02*
X154520000Y-96620000D01*
X152820000Y-95530000D02*
X151700000Y-96650000D01*
X152645000Y-100460000D02*
X152060000Y-100460000D01*
X152400000Y-110230000D02*
X151900000Y-109730000D01*
%TO.N,/USB_D+*%
D44*
X144690000Y-102610000D02*
X145277500Y-102610000D01*
X145292500Y-102625000D02*
X146875000Y-102625000D01*
X147590000Y-101910000D02*
X147952500Y-101910000D01*
X146875000Y-102625000D02*
X147590000Y-101910000D01*
X145277500Y-102610000D02*
X145292500Y-102625000D01*
%TO.N,/USB_D-*%
X145292500Y-103095000D02*
X146875000Y-103095000D01*
X147590000Y-103810000D02*
X147952500Y-103810000D01*
X145277500Y-103110000D02*
X145292500Y-103095000D01*
X144690000Y-103110000D02*
X145277500Y-103110000D01*
X146875000Y-103095000D02*
X147590000Y-103810000D01*
%TO.N,Net-(J1-D--PadA7)*%
D41*
X151320000Y-103610000D02*
X151210000Y-103610000D01*
X151530000Y-103230000D02*
X151530000Y-103290000D01*
X151210000Y-103610000D02*
X150427500Y-103610000D01*
X151860000Y-103610000D02*
X151530000Y-103610000D01*
X151870000Y-102610000D02*
X151530000Y-102950000D01*
X151530000Y-103280000D02*
X151860000Y-103610000D01*
X151530000Y-103290000D02*
X151210000Y-103610000D01*
X150427500Y-103610000D02*
X150227500Y-103810000D01*
X151530000Y-103230000D02*
X151530000Y-103280000D01*
X151530000Y-103610000D02*
X151320000Y-103610000D01*
X151530000Y-102950000D02*
X151530000Y-103230000D01*
X152645000Y-103610000D02*
X151860000Y-103610000D01*
X151530000Y-103230000D02*
X151530000Y-103610000D01*
X152645000Y-102610000D02*
X151870000Y-102610000D01*
%TO.N,Net-(J1-D+-PadA6)*%
D42*
X152600000Y-102100000D02*
X152645000Y-102145000D01*
D41*
X153790000Y-102870000D02*
X153550000Y-103110000D01*
X153510000Y-102110000D02*
X153790000Y-102390000D01*
X150427500Y-102110000D02*
X150227500Y-101910000D01*
X153790000Y-102390000D02*
X153790000Y-102870000D01*
X153550000Y-103110000D02*
X152645000Y-103110000D01*
X152645000Y-102110000D02*
X150427500Y-102110000D01*
X152645000Y-102110000D02*
X153510000Y-102110000D01*
%TO.N,/PC14*%
D42*
X131950000Y-100477500D02*
X133582500Y-102110000D01*
X130150000Y-99930000D02*
X129750000Y-99530000D01*
X131402500Y-99930000D02*
X131950000Y-100477500D01*
X128367500Y-99530000D02*
X128247500Y-99650000D01*
X133582500Y-102110000D02*
X136365000Y-102110000D01*
X130150000Y-99930000D02*
X131402500Y-99930000D01*
X129750000Y-99530000D02*
X128367500Y-99530000D01*
%TO.N,Net-(J4-Pin_1)*%
X121770000Y-91570000D02*
X124950000Y-94750000D01*
X124950000Y-98110000D02*
X126490000Y-99650000D01*
X124950000Y-94750000D02*
X124950000Y-98110000D01*
X126490000Y-99650000D02*
X127172500Y-99650000D01*
%TO.N,Net-(D4-K)*%
X155205000Y-90930000D02*
X152102500Y-90930000D01*
X152102500Y-90930000D02*
X152100000Y-90927500D01*
X155750000Y-91475000D02*
X155205000Y-90930000D01*
%TO.N,/PB0*%
X140277500Y-108022500D02*
X140277500Y-106372500D01*
%TO.N,/PB1*%
X140777500Y-108022500D02*
X140777500Y-106872500D01*
%TO.N,/PB2*%
X141277500Y-108022500D02*
X141277500Y-106372500D01*
%TO.N,/PB10*%
X141777500Y-108022500D02*
X141777500Y-106862500D01*
%TO.N,/PB12*%
X143570000Y-106610000D02*
X143560000Y-106600000D01*
X144690000Y-106610000D02*
X143570000Y-106610000D01*
%TO.N,/PB13*%
X144690000Y-106110000D02*
X143050000Y-106110000D01*
%TO.N,/PB14*%
X144690000Y-105610000D02*
X143570000Y-105610000D01*
%TO.N,/PB15*%
X144690000Y-105110000D02*
X143060000Y-105110000D01*
%TO.N,/PA8*%
X144690000Y-104610000D02*
X143580000Y-104610000D01*
X143580000Y-104610000D02*
X143570000Y-104620000D01*
%TO.N,/PA9*%
X144690000Y-104110000D02*
X143080000Y-104110000D01*
%TO.N,/PA10*%
X144690000Y-103610000D02*
X143570000Y-103610000D01*
%TO.N,/PA5*%
X138777500Y-108840000D02*
X139700000Y-109762500D01*
X138777500Y-108022500D02*
X138777500Y-108840000D01*
X138777500Y-108022500D02*
X138777500Y-106902500D01*
X138777500Y-106902500D02*
X138780000Y-106900000D01*
%TO.N,Net-(D3-A)*%
X139700000Y-113825000D02*
X138925000Y-114600000D01*
X139700000Y-110957500D02*
X139700000Y-113825000D01*
%TO.N,Net-(J4-Pin_2)*%
X124130000Y-99740000D02*
X127052500Y-102662500D01*
X127052500Y-102662500D02*
X127052500Y-102710000D01*
X121770000Y-94110000D02*
X124130000Y-96470000D01*
X124130000Y-96470000D02*
X124130000Y-99740000D01*
%TO.N,/PA0*%
X137950000Y-105610000D02*
X136365000Y-105610000D01*
%TO.N,/PA1*%
X137480000Y-106110000D02*
X136365000Y-106110000D01*
%TO.N,/PA2*%
X136365000Y-106610000D02*
X135260000Y-106610000D01*
%TO.N,/PA3*%
X137775236Y-106900236D02*
X137777500Y-106902500D01*
X137777500Y-106902500D02*
X137777500Y-108022500D01*
%TO.N,/PA4*%
X138277500Y-108022500D02*
X138277500Y-106372500D01*
X138277500Y-106372500D02*
X138280000Y-106370000D01*
%TO.N,/PA6*%
X139277500Y-106360000D02*
X139277500Y-108022500D01*
%TO.N,/PA7*%
X139777500Y-108022500D02*
X139777500Y-106902500D01*
%TO.N,/PC15*%
X131257500Y-101742500D02*
X131950000Y-101742500D01*
X130570000Y-102430000D02*
X131257500Y-101742500D01*
X130150000Y-102430000D02*
X129750000Y-102830000D01*
X129750000Y-102830000D02*
X128367500Y-102830000D01*
X128367500Y-102830000D02*
X128247500Y-102710000D01*
X131950000Y-101742500D02*
X132817500Y-102610000D01*
X132817500Y-102610000D02*
X136365000Y-102610000D01*
X130150000Y-102430000D02*
X130570000Y-102430000D01*
%TO.N,/HSE_IN*%
X129810000Y-105600000D02*
X131497500Y-105600000D01*
X133990000Y-103110000D02*
X131952500Y-105147500D01*
X136365000Y-103110000D02*
X133990000Y-103110000D01*
X131952500Y-105147500D02*
X131950000Y-105147500D01*
X128700000Y-104490000D02*
X129810000Y-105600000D01*
X131497500Y-105600000D02*
X131950000Y-105147500D01*
%TO.N,/HSE_OUT*%
X130640000Y-106450000D02*
X131912500Y-106450000D01*
X136365000Y-103610000D02*
X134565000Y-103610000D01*
X131912500Y-106450000D02*
X131950000Y-106412500D01*
X130400000Y-106690000D02*
X130640000Y-106450000D01*
X131950000Y-106225000D02*
X131950000Y-106412500D01*
X134565000Y-103610000D02*
X131950000Y-106225000D01*
%TO.N,Net-(C12-Pad1)*%
X141687500Y-111050000D02*
X141687500Y-109512500D01*
X142277500Y-108922500D02*
X142277500Y-108022500D01*
X141687500Y-109512500D02*
X142277500Y-108922500D01*
%TO.N,/BOOT0*%
X139777500Y-98100000D02*
X139877500Y-98000000D01*
X139777500Y-99697500D02*
X139777500Y-98100000D01*
%TO.N,Net-(C13-Pad1)*%
X138777500Y-99697500D02*
X138777500Y-101397500D01*
X138777500Y-101397500D02*
X139450000Y-102070000D01*
X143690000Y-101290000D02*
X143690000Y-99690000D01*
X139450000Y-102070000D02*
X142910000Y-102070000D01*
X142910000Y-102070000D02*
X143690000Y-101290000D01*
X143690000Y-99690000D02*
X144670000Y-98710000D01*
X144670000Y-98710000D02*
X145387500Y-98710000D01*
%TD*%
M02*
