M48
; DRILL file KiCad 10.0.6-10.0.6~ubuntu26.04.1 date 2026-09-05T15:40:43
; FORMAT={-:-/ absolute / metric / decimal}
; #@! TF.CreationDate,2026-09-05T15:40:43+02:00
; #@! TF.GenerationSoftware,Kicad,Pcbnew,10.0.6-10.0.6~ubuntu26.04.1
; #@! TF.FileFunction,Plated,1,4,PTH
FMAT,2
METRIC
; #@! TA.AperFunction,Plated,PTH,ViaDrill
T1C0.200
; #@! TA.AperFunction,Plated,PTH,ComponentDrill
T2C0.600
; #@! TA.AperFunction,Plated,PTH,ComponentDrill
T3C1.000
%
G90
G05
T1
X127.91Y-97.59
X128.22Y-114.62
X128.25Y-91.44
X128.7Y-107.75
X130.4Y-103.4
X131.27Y-107.55
X131.32Y-103.38
X131.37Y-98.79
X133.82Y-106.09
X133.98Y-98.44
X133.985Y-99.68
X134.425Y-107.525
X134.47Y-91.48
X134.48Y-114.62
X135.24Y-104.61
X135.26Y-106.61
X135.31Y-100.27
X136.952Y-98.52
X137.48Y-106.11
X137.55Y-109.3
X137.775Y-106.9
X137.86Y-90.21
X137.95Y-105.61
X138.24Y-112.66
X138.28Y-106.37
X138.78Y-106.9
X139.22Y-97.42
X139.27Y-100.82
X139.278Y-106.36
X139.778Y-106.902
X140.27Y-100.84
X140.278Y-106.373
X140.78Y-101.28
X140.78Y-106.87
X140.97Y-115.68
X141.23Y-91.43
X141.278Y-106.373
X141.28Y-100.85
X141.778Y-106.862
X141.78Y-101.3
X142.27Y-100.82
X142.681Y-110.319
X142.78Y-101.32
X143.05Y-106.11
X143.06Y-105.11
X143.08Y-104.11
X143.28Y-98.56
X143.53Y-115.69
X143.56Y-106.6
X143.57Y-103.61
X143.57Y-104.62
X143.57Y-105.61
X144.2Y-111.05
X144.3Y-109.17
X144.35Y-100.03
X145.25Y-108.87
X146.34Y-101.79
X146.95Y-111.86
X146.97Y-107.78
X147.01Y-100.06
X147.51Y-91.44
X147.805Y-98.005
X147.96Y-105.85
X149.08Y-102.43
X149.285Y-103.145
X150.17Y-98.09
X150.18Y-107.71
X150.225Y-112.71
X150.25Y-110.86
X150.9Y-94.51
X151.675Y-94.4
X151.7Y-96.65
X151.72Y-105.39
X151.74Y-106.35
X151.78Y-100.18
X151.88Y-99.24
X152.1Y-92.85
X152.92Y-112.53
X152.94Y-111.53
X152.96Y-110.23
X152.99Y-109.23
X153.01Y-114.83
X153.02Y-113.83
X154.49Y-94.44
X154.52Y-96.62
X154.57Y-98.54
X154.65Y-107.18
X155.66Y-94.46
X155.69Y-96.61
X156.1Y-98.54
X156.18Y-107.18
X156.52Y-111.53
X156.52Y-112.53
X158.6Y-94.41
X158.61Y-96.67
X158.787Y-92.462
T3
X121.77Y-91.57
X121.77Y-94.11
X121.77Y-96.65
X121.77Y-99.19
X121.77Y-101.73
X121.77Y-104.27
X121.77Y-106.81
X121.77Y-109.35
X121.77Y-111.89
X121.77Y-114.43
X121.78Y-87.77
X121.78Y-118.23
X124.32Y-87.77
X124.32Y-118.23
X126.86Y-87.77
X126.86Y-118.23
X129.4Y-87.77
X129.4Y-118.23
X131.94Y-87.77
X131.94Y-118.23
X134.48Y-87.77
X134.48Y-118.23
X137.02Y-87.77
X137.02Y-118.23
X139.56Y-87.77
X139.56Y-118.23
X142.1Y-87.77
X142.1Y-118.23
X144.64Y-87.77
X144.64Y-118.23
X147.18Y-87.77
X147.18Y-118.23
X149.72Y-87.77
X149.72Y-118.23
X152.26Y-87.77
X152.26Y-118.23
X154.8Y-87.77
X154.8Y-118.23
X157.34Y-87.77
X157.34Y-118.23
T2
G00X152.67Y-98.54
M15
G01X153.77Y-98.54
M16
G05
G00X152.67Y-107.18
M15
G01X153.77Y-107.18
M16
G05
G00X157.0Y-98.54
M15
G01X157.8Y-98.54
M16
G05
G00X157.0Y-107.18
M15
G01X157.8Y-107.18
M16
G05
M30
